<?xml version="1.0" standalone="no"?>
<!DOCTYPE svg PUBLIC "-//W3C//DTD SVG 1.1//EN" "http://www.w3.org/Graphics/SVG/1.1/DTD/svg11.dtd" >
<svg xmlns="http://www.w3.org/2000/svg" xmlns:xlink="http://www.w3.org/1999/xlink" version="1.1">
<metadata>
Created by FontForge 20161116 at Sun Mar  8 22:16:41 2015
 By Jimmy Warting
Copyright \(c\) 2013 by Design by Anuthin Wongsunkakon \(2005\) Revival by Stawix Ruecha \(2013\). For Cadson\(R\) Demak All rights reserved.
</metadata>
<defs>
<font id="AminoAlt-Regular6" horiz-adv-x="623" >
  <font-face 
    font-family="Amino-Alt"
    font-weight="400"
    font-stretch="normal"
    units-per-em="1000"
    panose-1="2 0 0 0 0 0 0 0 0 0"
    ascent="773"
    descent="-227"
    x-height="500"
    cap-height="700"
    bbox="-57 -208 1031 944"
    underline-thickness="20"
    underline-position="-100"
    stemh="49"
    stemv="56"
    unicode-range="U+0020-FB02"
  />
<missing-glyph horiz-adv-x="500" 
d="M500 0h-500v700h500v-700zM80 650l170 -255l170 255h-340zM450 605l-170 -255l170 -255v510zM250 305l-170 -255h340zM220 350l-170 255v-510z" />
    <glyph glyph-name="fi" unicode="fi" horiz-adv-x="586" 
d="M183 526v-26h311v-500h-57v452h-253v-452h-56v452h-96v48h96v30c0 108 69 177 181 177c45 0 81 -7 108 -21c7 -3 10 -11 10 -23c0 -7 -2 -16 -5 -26c-32 15 -69 23 -110 23s-73 -12 -95 -35c-23 -24 -34 -57 -34 -99z" />
    <glyph glyph-name="fl" unicode="fl" horiz-adv-x="604" 
d="M184 523v-23h153v-47h-152v-453h-56v453h-97v47h97v27c0 107 71 181 200 181c66 0 127 -11 183 -33v-675h-56v642c-39 13 -81 19 -125 19c-91 0 -147 -55 -147 -138z" />
    <glyph glyph-name=".notdef" horiz-adv-x="500" 
d="M500 0h-500v700h500v-700zM80 650l170 -255l170 255h-340zM450 605l-170 -255l170 -255v510zM250 305l-170 -255h340zM220 350l-170 255v-510z" />
    <glyph glyph-name="null" horiz-adv-x="0" 
 />
    <glyph glyph-name="nonmarkingreturn" horiz-adv-x="333" 
 />
    <glyph glyph-name="space" unicode=" " horiz-adv-x="260" 
 />
    <glyph glyph-name="exclam" unicode="!" horiz-adv-x="225" 
d="M80 700h65l-11 -534h-43zM112 -6c-27 0 -40 13 -40 40s13 40 40 40s41 -13 41 -40s-14 -40 -41 -40z" />
    <glyph glyph-name="quotedbl" unicode="&#x22;" horiz-adv-x="302" 
d="M60 700h52l-7 -220h-39zM190 700h52l-7 -220h-39z" />
    <glyph glyph-name="numbersign" unicode="#" 
d="M512 700l-38 -229h94v-49h-103l-24 -135h99v-50h-107l-41 -237h-58l41 237h-165l-42 -237h-57l41 237h-97v50h105l24 135h-101v49h109l39 229h58l-38 -229h164l39 229h58zM407 422h-165l-24 -135h166z" />
    <glyph glyph-name="dollar" unicode="$" 
d="M498 187c0 79 -59 120 -168 148v-287c104 8 168 55 168 139zM132 541c0 -39 12 -68 36 -87s67 -37 129 -53v251c-111 -3 -165 -46 -165 -111zM83 99c52 -32 137 -53 202 -53h12v298c-81 19 -139 43 -172 72c-34 29 -51 70 -51 125c0 97 76 159 223 164v95h33v-95
c75 -1 146 -23 177 -50c7 -5 10 -13 10 -23c0 -9 -2 -18 -6 -29c-50 30 -110 46 -181 49v-260c149 -37 226 -93 226 -205c0 -120 -82 -183 -226 -191v-96h-33v94h-2h-6c-39 0 -79 5 -119 14s-68 21 -85 36c-5 5 -8 13 -8 26c0 10 2 20 6 29z" />
    <glyph glyph-name="percent" unicode="%" horiz-adv-x="752" 
d="M224 0h-57l362 700h57zM92 435c-23 27 -34 66 -34 115s11 88 34 115s53 41 92 41c76 0 126 -57 126 -156s-50 -156 -126 -156c-39 0 -69 14 -92 41zM239 467c13 19 20 46 20 83s-7 64 -20 83s-32 28 -55 28s-42 -9 -55 -28s-20 -46 -20 -83s7 -64 20 -83s32 -28 55 -28
s42 9 55 28zM477 35c-23 27 -34 66 -34 115s11 88 34 115s53 41 91 41s69 -14 92 -41s34 -66 34 -115s-11 -88 -34 -115s-54 -41 -92 -41s-68 14 -91 41zM623 67c13 19 20 46 20 83s-7 64 -20 83s-32 28 -55 28c-45 0 -75 -38 -75 -111s30 -111 75 -111c23 0 42 9 55 28z
" />
    <glyph glyph-name="ampersand" unicode="&#x26;" horiz-adv-x="662" 
d="M346 334l161 -187c35 41 57 88 68 140c33 0 50 -27 43 -55c-10 -39 -35 -81 -74 -128l90 -104h-68l-60 68c-58 -51 -124 -76 -199 -76c-77 0 -138 20 -184 61c-47 41 -70 94 -70 159c0 87 50 167 153 204c-137 147 -55 292 111 292c112 0 181 -71 181 -170
c0 -75 -51 -143 -152 -204zM306 43c63 0 118 22 164 66l-230 266c-88 -28 -130 -99 -130 -164c0 -49 19 -89 56 -120c37 -32 83 -48 140 -48zM441 537c0 71 -47 120 -124 120c-72 0 -123 -41 -123 -100c0 -40 20 -70 72 -130l46 -54c86 52 129 107 129 164z" />
    <glyph glyph-name="quotesingle" unicode="'" horiz-adv-x="172" 
d="M60 700h52l-7 -220h-39z" />
    <glyph glyph-name="parenleft" unicode="(" horiz-adv-x="268" 
d="M70 301c0 182 54 317 163 405l25 -32c-45 -39 -79 -92 -100 -160s-32 -139 -32 -213s11 -145 32 -213s55 -121 100 -160l-25 -33c-109 88 -163 223 -163 406z" />
    <glyph glyph-name="parenright" unicode=")" horiz-adv-x="268" 
d="M198 301c0 -182 -55 -317 -164 -406l-24 33c45 39 79 92 100 160s31 139 31 213s-10 145 -31 213s-55 121 -100 160l24 32c109 -89 164 -224 164 -405z" />
    <glyph glyph-name="asterisk" unicode="*" horiz-adv-x="462" 
d="M384 607l17 -42l-143 -46l102 -112l-33 -29l-95 121l-98 -122l-32 31l101 112l-142 46l16 41l136 -55l-4 148h45l-7 -148z" />
    <glyph glyph-name="plus" unicode="+" 
d="M283 316v199h56v-199h204v-53h-204v-198h-56v198h-203v53h203z" />
    <glyph glyph-name="comma" unicode="," horiz-adv-x="202" 
d="M60 34c0 27 13 40 40 40c28 0 42 -15 42 -44c0 -37 -15 -88 -45 -152l-27 10c15 40 25 76 28 107c-25 0 -38 13 -38 39z" />
    <glyph glyph-name="hyphen" unicode="-" horiz-adv-x="390" 
d="M40 262v50h310v-50h-310z" />
    <glyph glyph-name="period" unicode="." horiz-adv-x="202" 
d="M101 -6c-27 0 -41 13 -41 40s14 40 41 40s41 -13 41 -40s-14 -40 -41 -40z" />
    <glyph glyph-name="slash" unicode="/" horiz-adv-x="289" 
d="M60 -100h-59l206 800h58z" />
    <glyph glyph-name="zero" unicode="0" 
d="M123 85c-47 62 -70 150 -70 265s23 203 70 265c46 62 109 93 189 93c159 0 257 -129 257 -358s-98 -358 -257 -358c-80 0 -143 31 -189 93zM459 124c35 53 52 128 52 226s-17 173 -52 226s-84 79 -147 79c-127 0 -200 -109 -200 -305s73 -305 200 -305
c63 0 112 26 147 79z" />
    <glyph glyph-name="one" unicode="1" 
d="M305 51v575l-147 -107l-32 42l191 139h47v-649h168v-51h-404v51h177z" />
    <glyph glyph-name="two" unicode="2" 
d="M533 53v-53h-455v47c137 79 243 161 316 273c37 56 55 111 55 165c0 105 -53 170 -166 170c-69 0 -127 -15 -174 -45c-9 10 -13 22 -13 35c0 11 6 19 17 24c47 26 105 39 174 39c147 0 220 -86 220 -223c0 -87 -40 -175 -104 -248s-136 -132 -220 -184h350z" />
    <glyph glyph-name="three" unicode="3" 
d="M270 44c121 0 203 60 203 168c0 105 -73 165 -197 165h-55c-11 16 -19 27 -24 32l219 238h-343v53h427v-40l-218 -235c161 -9 250 -83 250 -214c0 -144 -105 -218 -262 -218c-81 0 -160 22 -192 46c-6 4 -9 10 -9 18c0 14 6 25 18 34c22 -13 51 -24 87 -33
c35 -9 67 -14 96 -14z" />
    <glyph glyph-name="four" unicode="4" 
d="M577 213v-52h-104v-161h-58v161h-363v40l373 499h48v-487h104zM126 213h289v390z" />
    <glyph glyph-name="five" unicode="5" 
d="M272 -7c-83 0 -147 15 -194 45c-6 4 -9 10 -9 18c0 15 6 26 17 34c43 -28 122 -46 186 -46c129 0 216 57 216 170c0 112 -72 168 -217 168h-172l26 318h372v-53h-320l-18 -212h108c187 0 280 -74 280 -221c0 -75 -25 -130 -76 -166c-51 -37 -117 -55 -199 -55z" />
    <glyph glyph-name="six" unicode="6" 
d="M127 359c56 67 128 101 216 101c151 0 223 -88 223 -229c0 -153 -88 -238 -231 -238c-171 0 -266 122 -266 357c0 114 25 202 76 264s118 93 203 93c63 0 126 -17 150 -40c4 -3 6 -9 6 -18c-1 -11 -5 -21 -11 -32c-41 25 -87 38 -140 38c-139 0 -218 -115 -226 -296z
M343 408c-85 0 -156 -37 -214 -111c9 -164 80 -253 207 -253c105 0 171 68 171 187c0 111 -51 177 -164 177z" />
    <glyph glyph-name="seven" unicode="7" horiz-adv-x="600" 
d="M469 648h-388v52h455v-46l-330 -654h-64z" />
    <glyph glyph-name="eight" unicode="8" 
d="M168 78c33 -24 80 -36 143 -36s111 12 144 36c33 23 49 57 49 101c0 84 -80 146 -193 167c-113 -21 -193 -83 -193 -167c0 -44 17 -78 50 -101zM245 371c-93 25 -149 85 -149 164c0 120 83 172 215 172c143 0 215 -57 215 -171c0 -79 -54 -140 -149 -165
c51 -13 95 -36 131 -71c35 -35 53 -75 53 -120c0 -123 -87 -187 -250 -187s-250 64 -250 187c0 45 18 85 54 120c35 35 79 58 130 71zM311 656c-105 0 -157 -40 -157 -121c0 -69 52 -115 157 -140c105 25 158 72 158 141c0 80 -53 120 -158 120z" />
    <glyph glyph-name="nine" unicode="9" 
d="M495 340c-57 -67 -130 -101 -217 -101c-149 0 -222 88 -222 229c0 153 88 239 231 239c169 0 265 -122 265 -357c0 -114 -25 -202 -75 -264c-51 -62 -118 -93 -203 -93c-64 0 -113 12 -148 37c-5 5 -8 11 -8 20c1 9 4 20 11 32c41 -25 87 -38 140 -38
c139 0 218 115 226 296zM278 291c85 0 157 37 215 111c-9 164 -80 253 -207 253c-105 0 -171 -68 -171 -187c0 -118 54 -177 163 -177z" />
    <glyph glyph-name="colon" unicode=":" horiz-adv-x="226" 
d="M113 -6c-27 0 -41 13 -41 40s14 40 41 40s41 -13 41 -40s-14 -40 -41 -40zM72 411c0 26 14 39 41 39s41 -13 41 -39c0 -27 -14 -40 -41 -40s-41 13 -41 40z" />
    <glyph glyph-name="semicolon" unicode=";" horiz-adv-x="226" 
d="M72 411c0 26 14 39 41 39s41 -13 41 -39c0 -27 -14 -40 -41 -40s-41 13 -41 40zM72 34c0 27 14 40 41 40s41 -15 41 -44c0 -37 -15 -88 -45 -152l-26 10c15 40 25 76 28 107c-26 0 -39 13 -39 39z" />
    <glyph glyph-name="less" unicode="&#x3c;" 
d="M524 31l-442 245v35l442 245v-57l-373 -205l373 -206v-57z" />
    <glyph glyph-name="equal" unicode="=" 
d="M90 167v52h441v-52h-441zM90 360v52h441v-52h-441z" />
    <glyph glyph-name="greater" unicode="&#x3e;" 
d="M99 556l442 -245v-35l-442 -245v57l373 206l-373 205v57z" />
    <glyph glyph-name="question" unicode="?" horiz-adv-x="526" 
d="M234 708c145 0 232 -78 232 -195c0 -84 -65 -142 -116 -191c-36 -34 -64 -76 -64 -120v-29h-59v29c0 60 46 121 91 159c44 38 90 95 90 152c0 87 -63 142 -174 142c-71 0 -132 -16 -183 -49c-7 11 -10 24 -10 37c0 11 3 18 10 22c47 29 108 43 183 43zM258 -5
c-27 0 -41 13 -41 39s14 39 41 39s41 -13 41 -39s-14 -39 -41 -39z" />
    <glyph glyph-name="at" unicode="@" horiz-adv-x="1032" 
d="M971 343c0 -107 -23 -191 -69 -254c-47 -63 -101 -95 -164 -95c-68 0 -104 29 -107 88c-47 -55 -105 -82 -173 -82c-107 0 -168 73 -168 190c0 109 41 208 133 270c45 31 98 46 159 46c55 0 108 -13 158 -39l-60 -339c-8 -44 16 -84 60 -84c45 0 86 27 121 80
s53 125 53 216c0 193 -114 316 -331 316c-140 0 -253 -44 -338 -132s-128 -201 -128 -339c0 -108 33 -192 98 -251s153 -88 264 -88c89 0 168 15 237 44c7 -7 11 -18 11 -33c0 -9 -4 -15 -11 -20c-20 -11 -53 -21 -98 -30s-92 -13 -141 -13c-127 0 -228 34 -303 101
c-76 67 -114 164 -114 289c0 153 47 279 142 377c95 97 221 146 380 146c253 0 389 -139 389 -364zM624 137l53 301c-31 11 -63 17 -98 17c-71 0 -127 -26 -168 -77c-42 -51 -63 -113 -63 -186c0 -89 41 -142 112 -142c64 0 119 29 164 87z" />
    <glyph glyph-name="A" unicode="A" horiz-adv-x="660" 
d="M365 672l274 -672h-61l-82 203h-335l-82 -203h-61l288 702h13c28 0 38 -9 46 -30zM475 255l-146 361l-148 -361h294z" />
    <glyph glyph-name="B" unicode="B" horiz-adv-x="678" 
d="M530 524c0 83 -52 124 -157 124h-219v-254h223c91 0 153 53 153 130zM519 88c29 24 43 61 43 111s-16 86 -47 109c-32 23 -81 34 -147 34h-214v-290h225c64 0 111 12 140 36zM379 0h-284v700h278c143 0 215 -59 215 -176c0 -79 -50 -138 -122 -154
c102 -12 153 -69 153 -171c0 -133 -80 -199 -240 -199z" />
    <glyph glyph-name="C" unicode="C" horiz-adv-x="635" 
d="M395 44c72 1 136 19 193 54c3 -9 5 -18 5 -28c0 -15 -3 -25 -10 -30c-33 -27 -107 -47 -187 -47c-223 0 -335 132 -335 367c0 106 28 190 85 253c56 63 135 94 238 94c81 0 140 -14 179 -43c7 -5 11 -15 11 -29c0 -9 -2 -17 -5 -24c-53 29 -115 44 -186 44
c-169 0 -263 -114 -263 -295c0 -204 91 -316 275 -316z" />
    <glyph glyph-name="D" unicode="D" horiz-adv-x="713" 
d="M154 647v-594h175c176 0 262 111 262 303c0 188 -96 291 -276 291h-161zM329 0h-234v700h220c217 0 335 -123 335 -344c0 -224 -108 -356 -321 -356z" />
    <glyph glyph-name="E" unicode="E" horiz-adv-x="575" 
d="M470 332h-316v-279h391v-53h-450v700h439v-53h-380v-262h356v-13c0 -29 -11 -40 -40 -40z" />
    <glyph glyph-name="F" unicode="F" horiz-adv-x="557" 
d="M154 385h345v-53h-345v-332h-59v700h428v-53h-369v-262z" />
    <glyph glyph-name="G" unicode="G" horiz-adv-x="701" 
d="M388 655c-85 0 -150 -27 -197 -80s-71 -125 -71 -215c0 -205 91 -316 275 -316c56 0 130 18 174 45v242h-217v13c0 29 11 40 40 40h235v-328c-69 -42 -146 -63 -231 -63c-223 0 -335 131 -335 367c0 105 29 190 87 253c57 63 138 94 241 94c87 0 165 -22 197 -45
c7 -5 11 -15 11 -28c0 -9 -2 -17 -5 -24c-55 30 -123 45 -204 45z" />
    <glyph glyph-name="H" unicode="H" horiz-adv-x="723" 
d="M628 0h-59v332h-415v-332h-59v700h18c29 0 41 -13 41 -42v-273h415v315h59v-700z" />
    <glyph glyph-name="I" unicode="I" horiz-adv-x="259" 
d="M159 658v-658h-59v700h17c28 0 42 -14 42 -42z" />
    <glyph glyph-name="J" unicode="J" horiz-adv-x="498" 
d="M187 44c100 0 161 65 161 202v454h59v-457c0 -168 -81 -251 -220 -251c-68 0 -122 13 -161 38c-10 5 -15 16 -15 31c0 11 2 21 7 32c44 -33 100 -49 169 -49z" />
    <glyph glyph-name="K" unicode="K" horiz-adv-x="622" 
d="M522 29l-238 360l-130 -130v-259h-59v700h17c28 0 42 -14 42 -43v-319l364 362h78l-270 -270l284 -430h-27c-28 0 -48 10 -61 29z" />
    <glyph glyph-name="L" unicode="L" horiz-adv-x="542" 
d="M154 52h374v-52h-433v700h17c28 0 42 -14 42 -43v-605z" />
    <glyph glyph-name="M" unicode="M" horiz-adv-x="837" 
d="M681 700h61v-700h-58v596l-232 -384c-11 -19 -17 -23 -40 -23h-12l-248 407v-596h-57v700h61l262 -436z" />
    <glyph glyph-name="N" unicode="N" horiz-adv-x="737" 
d="M583 700h59v-700h-61l-427 607v-607h-59v700h20c33 0 46 -9 65 -34l403 -573v607z" />
    <glyph glyph-name="O" unicode="O" horiz-adv-x="751" 
d="M376 654c-171 0 -255 -112 -255 -304c0 -193 84 -306 255 -306c169 0 254 113 254 306c0 192 -85 304 -254 304zM376 707c205 0 313 -132 313 -357s-108 -357 -313 -357c-207 0 -314 132 -314 357s107 357 314 357z" />
    <glyph glyph-name="P" unicode="P" horiz-adv-x="629" 
d="M343 282h-189v-282h-59v700h248c159 0 235 -74 235 -209s-76 -209 -235 -209zM344 647h-190v-312h190c117 0 176 52 176 156s-59 156 -176 156z" />
    <glyph glyph-name="Q" unicode="Q" horiz-adv-x="751" 
d="M376 707c205 0 313 -132 313 -357c0 -216 -98 -347 -287 -356c12 -75 57 -112 135 -112c34 0 64 5 91 15c-8 -51 -39 -67 -96 -67c-123 0 -171 61 -186 164c-187 11 -284 140 -284 356c0 225 107 357 314 357zM376 654c-171 0 -255 -112 -255 -304
c0 -193 84 -306 255 -306c169 0 254 113 254 306c0 192 -85 304 -254 304z" />
    <glyph glyph-name="R" unicode="R" horiz-adv-x="654" 
d="M364 311h-210v-311h-59v700h266c155 0 232 -65 232 -194c0 -95 -49 -155 -124 -180l132 -326h-22c-28 0 -47 11 -56 34l-113 279c-17 -1 -33 -2 -46 -2zM362 647h-208v-283h208c115 0 172 47 172 142c0 94 -57 141 -172 141z" />
    <glyph glyph-name="S" unicode="S" horiz-adv-x="609" 
d="M283 45c127 0 207 48 207 143c0 83 -67 124 -196 155c-84 20 -143 44 -178 73c-35 28 -53 70 -53 125c0 103 82 167 239 167c76 0 153 -17 192 -40c10 -5 15 -16 15 -32c0 -11 -2 -20 -5 -28c-54 31 -121 47 -202 47c-121 0 -181 -45 -181 -114c0 -40 14 -70 41 -89
s77 -38 149 -57c157 -37 237 -92 237 -207c0 -132 -98 -196 -265 -196c-39 0 -79 4 -118 14c-39 9 -69 19 -88 31c-11 6 -16 17 -16 33c0 9 2 18 6 29c27 -16 61 -29 102 -39s79 -15 114 -15z" />
    <glyph glyph-name="T" unicode="T" horiz-adv-x="583" 
d="M17 700h548v-53l-245 2v-649h-58v649l-245 -2v53z" />
    <glyph glyph-name="U" unicode="U" horiz-adv-x="724" 
d="M362 45c153 0 213 89 213 257v398h58v-406c0 -201 -90 -302 -271 -302s-271 101 -271 302v406h17c28 0 42 -14 42 -42v-356c0 -167 60 -257 212 -257z" />
    <glyph glyph-name="V" unicode="V" horiz-adv-x="651" 
d="M631 700l-282 -702h-47l-283 702h27c28 0 38 -8 46 -31l233 -585l245 616h61z" />
    <glyph glyph-name="W" unicode="W" horiz-adv-x="1056" 
d="M1028 700l-226 -702h-54l-221 614l-220 -614h-55l-226 702h24c28 0 40 -8 47 -31l182 -576l219 607h23c28 0 38 -9 47 -32l207 -575l192 607h61z" />
    <glyph glyph-name="X" unicode="X" horiz-adv-x="632" 
d="M523 26l-208 287l-228 -313h-69l263 359l-251 341h36c22 0 40 -9 54 -27l195 -267l215 294h69l-250 -341l264 -359h-36c-23 0 -41 9 -54 26z" />
    <glyph glyph-name="Y" unicode="Y" horiz-adv-x="605" 
d="M586 700l-254 -401v-299h-58v299l-257 401h33c24 0 42 -9 54 -28l199 -319l215 347h68z" />
    <glyph glyph-name="Z" unicode="Z" horiz-adv-x="596" 
d="M476 648h-425v11c0 29 11 41 40 41h457v-52l-439 -597h448v-51h-521v51z" />
    <glyph glyph-name="bracketleft" unicode="[" horiz-adv-x="243" 
d="M93 700h127v-52h-70v-696h70v-52h-127v800z" />
    <glyph glyph-name="backslash" unicode="\" horiz-adv-x="289" 
d="M23 700h59l206 -800h-59z" />
    <glyph glyph-name="bracketright" unicode="]" horiz-adv-x="243" 
d="M93 648h-70v52h127v-800h-127v52h70v696z" />
    <glyph glyph-name="asciicircum" unicode="^" horiz-adv-x="448" 
d="M199 702h50l161 -299h-53l-133 246l-132 -246h-54z" />
    <glyph glyph-name="underscore" unicode="_" horiz-adv-x="479" 
d="M33 -130v37h413v-37h-413z" />
    <glyph glyph-name="grave" unicode="`" horiz-adv-x="339" 
d="M116 719l96 -116h-40l-154 120c10 14 26 21 47 21s38 -8 51 -25z" />
    <glyph glyph-name="a" unicode="a" horiz-adv-x="598" 
d="M452 143v214c-43 61 -107 101 -176 101c-101 0 -159 -68 -159 -208c0 -139 59 -210 154 -210c72 0 141 39 181 103zM507 459v-380c0 -32 5 -59 16 -80h-23c-35 0 -47 27 -47 91c-36 -56 -108 -98 -184 -98c-128 0 -208 87 -208 258c0 169 80 257 207 257
c77 0 143 -38 183 -95l3 88h13c27 0 40 -14 40 -41z" />
    <glyph glyph-name="b" unicode="b" horiz-adv-x="593" 
d="M145 355v-212c40 -64 108 -103 179 -103c93 0 151 70 151 210s-56 208 -156 208c-68 0 -131 -40 -174 -103zM146 89c-1 -19 -3 -49 -4 -89h-53v700h16c27 0 41 -14 41 -41v-250c45 65 105 98 180 98c125 0 204 -88 204 -257c0 -172 -76 -258 -204 -258
c-77 0 -144 40 -180 97z" />
    <glyph glyph-name="c" unicode="c" horiz-adv-x="507" 
d="M303 41c57 0 109 13 156 38c3 -7 5 -15 5 -24c0 -15 -3 -25 -10 -29c-29 -19 -93 -33 -152 -33c-157 0 -242 94 -242 259c0 163 84 255 237 255c56 0 121 -12 146 -29c9 -5 13 -14 13 -27c0 -7 -2 -17 -5 -28c-41 23 -92 35 -152 35c-119 0 -183 -73 -183 -206
c0 -135 66 -211 187 -211z" />
    <glyph glyph-name="d" unicode="d" horiz-adv-x="593" 
d="M447 143v212c-43 63 -106 103 -174 103c-100 0 -156 -68 -156 -208s58 -210 151 -210c71 0 139 39 179 103zM502 659v-580c0 -33 6 -59 17 -80h-28c-25 0 -40 30 -43 91c-36 -56 -106 -98 -181 -98c-128 0 -206 87 -206 258c0 169 80 257 205 257c75 0 135 -33 180 -98
v291h16c27 0 40 -14 40 -41z" />
    <glyph glyph-name="e" unicode="e" horiz-adv-x="568" 
d="M300 40c71 0 130 17 177 50c3 -8 4 -15 4 -21c0 -19 -5 -31 -16 -38c-37 -25 -92 -38 -166 -38c-155 0 -239 92 -239 257c0 163 82 257 230 257c136 0 212 -93 212 -238v-49h-384c8 -117 71 -180 182 -180zM290 458c-108 0 -168 -69 -173 -193h328
c0 120 -56 193 -155 193z" />
    <glyph glyph-name="f" unicode="f" horiz-adv-x="367" 
d="M129 452h-97v48h97v50c0 100 52 158 155 158c34 0 61 -4 80 -13c9 -4 14 -13 14 -27c0 -6 -2 -14 -5 -24c-26 11 -55 16 -88 16c-71 0 -101 -38 -101 -114v-46h160v-48h-160v-452h-55v452z" />
    <glyph glyph-name="g" unicode="g" horiz-adv-x="532" 
d="M58 333c0 117 67 175 201 175c48 0 86 -7 113 -22c23 15 50 22 80 22c41 0 55 -14 52 -42l-1 -13c-16 8 -34 12 -55 12c-8 0 -21 -2 -39 -5c33 -27 49 -69 49 -127c0 -118 -66 -177 -199 -177c-48 0 -84 7 -108 20c-12 -9 -18 -24 -18 -43c0 -35 29 -62 88 -62h89
c127 0 190 -46 190 -139c0 -87 -72 -140 -227 -140c-147 0 -220 47 -220 141c0 48 31 94 87 114c-36 15 -60 47 -60 84c0 28 11 51 34 69c-37 27 -56 72 -56 133zM112 333c0 -88 49 -132 147 -132c97 0 145 44 145 132c0 87 -48 131 -145 131c-98 0 -147 -44 -147 -131z
M107 -67c0 -64 55 -96 166 -96c119 0 173 38 173 95c0 62 -45 93 -136 93h-120c-55 -15 -83 -45 -83 -92z" />
    <glyph glyph-name="h" unicode="h" horiz-adv-x="607" 
d="M520 316v-316h-16c-27 0 -40 13 -40 40v268c0 97 -40 150 -119 150c-71 0 -138 -34 -199 -103v-355h-57v700h16c27 0 41 -14 41 -41v-250c49 53 127 98 208 98c107 0 166 -70 166 -191z" />
    <glyph glyph-name="i" unicode="i" horiz-adv-x="239" 
d="M147 459v-459h-56v500h16c27 0 40 -14 40 -41zM78 644c0 26 14 39 41 39s41 -13 41 -38s-14 -38 -41 -38s-41 12 -41 37z" />
    <glyph glyph-name="j" unicode="j" horiz-adv-x="238" 
d="M146 459v-528c0 -92 -40 -138 -121 -138c-31 0 -56 4 -73 13c-6 3 -9 11 -9 24c0 8 2 17 6 26c19 -10 42 -15 69 -15c52 0 72 28 72 95v564h16c27 0 40 -14 40 -41zM77 644c0 26 14 39 41 39s41 -13 41 -38s-14 -38 -41 -38s-41 12 -41 37z" />
    <glyph glyph-name="k" unicode="k" horiz-adv-x="547" 
d="M469 -3c-86 0 -100 104 -121 184c-15 55 -48 100 -105 100c-33 0 -65 -6 -97 -19v-262h-57v700h16c27 0 41 -14 41 -41v-351c34 13 68 19 101 19c13 0 23 -1 32 -3l156 176h67l-177 -195c24 -14 43 -37 58 -68c14 -31 23 -61 28 -89c9 -57 29 -109 64 -109
c15 0 30 7 43 20c5 -11 15 -36 16 -39c-14 -15 -36 -23 -65 -23z" />
    <glyph glyph-name="l" unicode="l" horiz-adv-x="240" 
d="M148 659v-659h-56v700h16c27 0 40 -14 40 -41z" />
    <glyph glyph-name="m" unicode="m" horiz-adv-x="876" 
d="M141 462l2 -54c53 66 114 99 182 99c72 0 117 -35 134 -104c44 56 114 104 189 104c93 0 141 -63 141 -167v-340h-15c-27 0 -41 13 -41 40v292c0 84 -31 126 -93 126c-64 0 -128 -42 -175 -102c0 -4 1 -13 1 -16v-340h-56v332c0 84 -31 126 -93 126
c-63 0 -121 -35 -174 -106v-352h-56v500h15c25 0 38 -13 39 -38z" />
    <glyph glyph-name="n" unicode="n" horiz-adv-x="601" 
d="M141 462l2 -54c63 66 132 99 207 99c105 0 164 -68 164 -191v-316h-16c-27 0 -40 13 -40 40v268c0 100 -39 150 -117 150c-69 0 -135 -35 -198 -104v-354h-56v500h15c25 0 38 -13 39 -38z" />
    <glyph glyph-name="o" unicode="o" horiz-adv-x="590" 
d="M116 250c0 -135 62 -210 179 -210c119 0 179 75 179 210c0 133 -60 208 -179 208c-117 0 -179 -75 -179 -208zM120 60c-40 45 -60 108 -60 190s20 145 60 190s98 67 175 67s135 -22 175 -67s60 -108 60 -190s-20 -145 -60 -190s-98 -67 -175 -67s-135 22 -175 67z" />
    <glyph glyph-name="p" unicode="p" horiz-adv-x="591" 
d="M143 355v-212c39 -64 107 -103 178 -103c93 0 151 70 151 210s-56 208 -156 208c-68 0 -132 -40 -173 -103zM141 462l2 -54c47 66 107 99 181 99c125 0 204 -88 204 -257c0 -171 -77 -258 -205 -258c-76 0 -144 41 -180 97v-289h-56v700h15c25 0 38 -13 39 -38z" />
    <glyph glyph-name="q" unicode="q" horiz-adv-x="590" 
d="M447 144v211c-41 64 -105 104 -174 104c-99 0 -155 -69 -155 -209c0 -139 58 -210 151 -210c69 0 138 40 178 104zM503 459v-659h-56v289c-37 -56 -105 -98 -180 -98c-128 0 -205 88 -205 259c0 169 80 258 204 258c75 0 135 -33 181 -98l3 90h13c27 0 40 -14 40 -41z
" />
    <glyph glyph-name="r" unicode="r" horiz-adv-x="406" 
d="M141 462l2 -54c41 66 96 99 165 99c56 0 84 -14 84 -43c0 -8 -2 -17 -7 -28c-23 13 -50 19 -81 19c-63 0 -116 -34 -161 -102v-353h-56v500h15c25 0 38 -13 39 -38z" />
    <glyph glyph-name="s" unicode="s" horiz-adv-x="477" 
d="M237 40c89 0 134 30 134 89c0 56 -42 80 -150 108c-43 12 -58 17 -93 33c-17 8 -30 17 -39 26c-18 18 -35 48 -35 85c0 88 74 127 177 127c68 0 120 -10 157 -29c11 -6 16 -18 16 -35c0 -9 -1 -15 -2 -19c-45 23 -102 35 -171 35s-122 -24 -122 -79c0 -28 13 -49 41 -64
c28 -16 46 -21 87 -33c67 -18 116 -38 146 -59c29 -22 44 -54 44 -96c0 -92 -72 -137 -188 -137c-70 0 -127 12 -172 35c-13 7 -19 19 -19 38c0 6 1 14 2 23c57 -32 120 -48 187 -48z" />
    <glyph glyph-name="t" unicode="t" horiz-adv-x="415" 
d="M137 452h-117v48h117l15 200h39v-200h182v-48h-182v-311c0 -69 29 -103 87 -103c35 0 67 9 96 27c6 -9 9 -19 9 -28c0 -11 -3 -18 -10 -22c-23 -15 -56 -22 -99 -22c-91 0 -137 48 -137 145v314z" />
    <glyph glyph-name="u" unicode="u" horiz-adv-x="590" 
d="M447 90c-54 -65 -120 -97 -198 -97c-107 0 -165 67 -165 190v317h16c27 0 40 -14 40 -41v-269c0 -96 42 -150 119 -150c63 0 125 35 186 105v355h56v-421c0 -33 6 -59 17 -80h-28c-25 0 -40 30 -43 91z" />
    <glyph glyph-name="v" unicode="v" horiz-adv-x="512" 
d="M91 471l165 -403l176 432h59l-208 -498c-12 -3 -22 -4 -29 -4h-25l-210 502h28c21 0 35 -10 44 -29z" />
    <glyph glyph-name="w" unicode="w" horiz-adv-x="801" 
d="M439 470l143 -389l136 419h56l-165 -502h-52l-156 423l-157 -423h-52l-167 502h22c23 0 38 -10 44 -29l128 -390l153 419h23c22 0 37 -10 44 -30z" />
    <glyph glyph-name="x" unicode="x" horiz-adv-x="492" 
d="M391 23l-145 191l-162 -214h-67l196 256l-186 244h37c19 0 34 -8 46 -23l136 -180l154 203h66l-188 -244l198 -256h-40c-19 0 -34 8 -45 23z" />
    <glyph glyph-name="y" unicode="y" horiz-adv-x="509" 
d="M87 471l174 -403l169 432h60l-239 -591c-36 -88 -81 -116 -152 -116c-26 0 -47 6 -62 17c-7 5 -11 14 -11 25c0 9 3 19 8 30c18 -17 40 -25 66 -25c53 0 78 27 102 84l32 76l-217 500h26c21 0 35 -10 44 -29z" />
    <glyph glyph-name="z" unicode="z" horiz-adv-x="471" 
d="M350 453h-302v8c0 26 13 39 39 39h333v-41l-308 -412h314v-47h-386v41z" />
    <glyph glyph-name="braceleft" unicode="{" horiz-adv-x="323" 
d="M53 275v50h15c35 0 55 24 58 72l13 190c5 75 44 113 118 113h42v-45l-43 -2c-39 -2 -59 -25 -62 -68l-11 -185c-3 -53 -23 -86 -59 -100c36 -14 56 -47 59 -100l11 -185c3 -43 23 -66 62 -68l43 -2v-45h-42c-74 0 -113 38 -118 113l-13 190c-3 48 -23 72 -58 72h-15z" />
    <glyph glyph-name="bar" unicode="|" horiz-adv-x="305" 
d="M124 700h57v-800h-57v800z" />
    <glyph glyph-name="braceright" unicode="}" horiz-adv-x="323" 
d="M255 325h15v-50h-15c-35 0 -55 -24 -58 -72l-13 -190c-5 -75 -44 -113 -118 -113h-42v45l43 2c39 2 59 25 62 68l11 185c3 53 23 86 59 100c-36 14 -56 47 -59 100l-11 185c-3 43 -23 66 -62 68l-43 2v45h42c74 0 113 -38 118 -113l13 -190c3 -48 23 -72 58 -72z" />
    <glyph glyph-name="asciitilde" unicode="~" horiz-adv-x="580" 
d="M387 337c45 0 81 22 108 66l37 -11c-32 -63 -84 -100 -145 -100c-29 0 -63 12 -103 35c-41 23 -71 35 -91 35c-45 0 -81 -22 -108 -66l-37 11c32 61 85 100 145 100c29 0 63 -12 104 -35c40 -23 70 -35 90 -35z" />
    <glyph glyph-name="uni00A0" unicode="&#xa0;" horiz-adv-x="240" 
 />
    <glyph glyph-name="exclamdown" unicode="&#xa1;" horiz-adv-x="225" 
d="M112 426c-27 0 -40 13 -40 40s13 40 40 40s41 -13 41 -40s-14 -40 -41 -40zM91 334h43l11 -534h-65z" />
    <glyph glyph-name="cent" unicode="&#xa2;" 
d="M330 600h32v-93c61 -3 106 -15 137 -37c5 -3 8 -10 8 -19c0 -7 -2 -17 -5 -28c-47 21 -94 33 -140 35v-417c52 1 101 13 148 38c3 -7 5 -15 5 -24c0 -11 -3 -20 -9 -25c-27 -22 -75 -34 -144 -37v-93h-32v93c-144 9 -220 102 -220 259c0 156 77 249 220 254v94zM166 252
c0 -127 57 -201 164 -210v415c-107 -8 -164 -80 -164 -205z" />
    <glyph glyph-name="sterling" unicode="&#xa3;" 
d="M204 331h-131v50h107c-36 49 -54 99 -54 149c0 105 84 178 219 178c51 0 95 -6 132 -19s55 -29 55 -47c0 -12 -3 -24 -10 -35c-51 32 -110 48 -177 48c-95 0 -161 -51 -161 -124c0 -43 16 -85 31 -108c7 -11 17 -25 30 -42h198v-50h-176c13 -28 20 -54 20 -78
c0 -76 -41 -152 -105 -201h369v-52h-477v47c43 15 80 42 110 81s45 80 45 125c0 23 -8 49 -25 78z" />
    <glyph glyph-name="currency" unicode="&#xa4;" horiz-adv-x="515" 
d="M121 154l-31 31l34 33c-45 65 -45 137 -1 200l-33 34l31 30l33 -32c33 24 67 36 102 36s70 -12 104 -36l33 32l30 -30l-33 -33c23 -33 34 -66 34 -100c0 -35 -11 -68 -34 -101l33 -33l-30 -31l-34 33c-31 -24 -66 -36 -103 -36c-36 0 -70 12 -101 36
c-17 -17 -28 -28 -34 -33zM135 319c0 -33 12 -62 36 -87c23 -25 52 -37 85 -37c34 0 63 12 87 37s36 54 36 87s-12 61 -36 86c-24 24 -53 36 -87 36c-33 0 -62 -12 -85 -36c-24 -25 -36 -53 -36 -86z" />
    <glyph glyph-name="yen" unicode="&#xa5;" 
d="M119 672l194 -319l209 347h69l-164 -264h120v-37h-144l-60 -98h204v-37h-206v-264h-57v264h-208v37h206l-61 98h-145v37h122l-165 264h32c24 0 42 -9 54 -28z" />
    <glyph glyph-name="brokenbar" unicode="&#xa6;" horiz-adv-x="263" 
d="M103 700h57v-320h-57v320zM103 220h57v-320h-57v320z" />
    <glyph glyph-name="section" unicode="&#xa7;" 
d="M309 -158c89 0 133 31 133 92c0 29 -11 52 -34 69s-63 37 -118 59c-47 19 -89 47 -125 84c-37 37 -55 78 -55 121c0 65 53 129 122 172c-68 31 -102 77 -102 138c0 91 74 131 177 131c61 0 114 -9 157 -28c16 -9 21 -29 15 -62c-58 27 -115 40 -172 40
c-71 0 -121 -25 -121 -81c0 -40 34 -74 68 -91c17 -9 39 -18 66 -29c132 -51 198 -120 198 -206c0 -34 -13 -67 -38 -100s-56 -58 -91 -75c75 -41 110 -79 110 -142c0 -96 -71 -142 -188 -142c-63 0 -122 13 -176 38c-15 7 -20 28 -15 63c68 -34 131 -51 189 -51zM167 267
c0 -36 18 -69 53 -98c35 -30 73 -53 116 -68c32 11 61 32 87 61s39 58 39 89c0 68 -58 118 -179 165c-31 -15 -58 -37 -81 -64c-23 -28 -35 -56 -35 -85z" />
    <glyph glyph-name="dieresis" unicode="&#xa8;" horiz-adv-x="339" 
d="M19 644c0 26 14 39 41 39s41 -13 41 -38s-14 -38 -41 -38s-41 12 -41 37zM238 644c0 26 14 39 41 39s41 -13 41 -38s-14 -38 -41 -38s-41 12 -41 37z" />
    <glyph glyph-name="copyright" unicode="&#xa9;" horiz-adv-x="835" 
d="M77 213c-28 83 -28 191 0 275c27 83 79 153 175 191c47 19 102 28 165 28s118 -9 165 -28c95 -38 147 -108 175 -192c27 -84 27 -190 0 -274c-28 -84 -80 -153 -175 -191c-47 -19 -102 -29 -165 -29s-118 10 -165 29c-96 38 -148 107 -175 191zM711 231
c23 72 23 166 0 239c-23 72 -66 135 -149 169c-41 17 -90 25 -145 25s-104 -8 -145 -25c-83 -34 -127 -97 -150 -169c-23 -73 -23 -167 0 -239c23 -73 67 -136 150 -170c41 -17 90 -26 145 -26s104 9 145 26c83 34 126 97 149 170zM295 209c-31 32 -47 79 -47 142
s16 110 47 143c31 32 76 48 134 48c47 0 82 -7 104 -22c8 -5 12 -16 12 -32c0 -7 -1 -12 -2 -16c-37 17 -74 26 -113 26c-87 0 -131 -49 -131 -147s44 -147 131 -147c39 0 78 10 118 30c4 -9 7 -41 -8 -50c-23 -16 -60 -24 -111 -24c-58 0 -103 16 -134 49z" />
    <glyph glyph-name="ordfeminine" unicode="&#xaa;" horiz-adv-x="357" 
d="M307 397h-26c-19 0 -26 12 -31 49c-31 -35 -69 -52 -115 -52c-55 0 -95 30 -95 89c0 72 49 100 148 100h61v13c0 47 -25 70 -74 70c-37 0 -71 -7 -103 -22c-2 6 -3 13 -3 20c0 11 3 19 9 22c21 13 54 19 98 19c78 0 117 -36 117 -107v-134c0 -29 5 -51 14 -67zM139 433
c41 0 78 19 110 56v56h-57c-73 0 -109 -17 -109 -62c0 -32 25 -50 56 -50z" />
    <glyph glyph-name="guillemotleft" unicode="&#xab;" horiz-adv-x="529" 
d="M205 40l-175 210l175 210h63l-176 -210l176 -210h-63zM417 40l-175 210l175 210h62l-175 -210l175 -210h-62z" />
    <glyph glyph-name="logicalnot" unicode="&#xac;" horiz-adv-x="489" 
d="M36 368v50h396v-230h-59v180h-337z" />
    <glyph glyph-name="uni00AD" unicode="&#xad;" horiz-adv-x="199" 
d="M0 273v49h199v-49h-199z" />
    <glyph glyph-name="registered" unicode="&#xae;" horiz-adv-x="528" 
d="M121 396c-32 35 -48 78 -48 129s16 95 48 130s80 52 143 52s111 -17 143 -52s48 -79 48 -130s-16 -94 -48 -129s-80 -53 -143 -53s-111 18 -143 53zM309 441l-34 65h-43v-81h-34v197h77c47 0 70 -19 70 -56c0 -29 -13 -47 -39 -55l47 -86h-19c-12 0 -20 5 -25 16z
M276 595h-44v-59h44c25 0 37 10 37 31c0 19 -12 28 -37 28zM384 416c25 28 38 64 38 109s-13 81 -38 110c-25 28 -65 42 -120 42c-108 0 -157 -63 -157 -152s49 -152 157 -152c55 0 95 14 120 43z" />
    <glyph glyph-name="overscore" unicode="&#xaf;" horiz-adv-x="339" 
d="M329 623h-318v42h318v-42z" />
    <glyph glyph-name="degree" unicode="&#xb0;" horiz-adv-x="346" 
d="M116 652c-14 -15 -21 -34 -21 -59s7 -44 21 -59s33 -22 56 -22c48 0 79 32 79 81s-31 81 -79 81c-23 0 -42 -7 -56 -22zM56 593c0 67 47 113 116 113c71 0 118 -46 118 -113c0 -68 -47 -114 -118 -114c-69 0 -116 46 -116 114z" />
    <glyph glyph-name="plusminus" unicode="&#xb1;" 
d="M283 349v198h56v-198h204v-53h-204v-199h-56v199h-203v53h203zM80 0v36h463v-36h-463z" />
    <glyph glyph-name="twosuperior" unicode="&#xb2;" horiz-adv-x="291" 
d="M244 434v-38h-205v29c87 51 153 117 153 180c0 42 -21 63 -63 63c-27 0 -51 -7 -72 -20c-7 7 -10 14 -10 23c0 7 2 12 7 15c19 14 45 21 76 21c68 0 103 -38 103 -102c0 -65 -52 -131 -120 -171h131z" />
    <glyph glyph-name="threesuperior" unicode="&#xb3;" horiz-adv-x="289" 
d="M134 433c49 0 74 21 74 63c0 39 -23 58 -69 58h-27l-16 21l86 92h-134v37h191v-28l-86 -90c64 -9 96 -39 96 -90c0 -64 -43 -100 -114 -100c-35 0 -62 5 -82 14c-7 4 -10 10 -10 19s3 17 8 22c22 -12 50 -18 83 -18z" />
    <glyph glyph-name="acute" unicode="&#xb4;" horiz-adv-x="339" 
d="M321 723l-153 -120h-41l97 116c14 17 31 25 51 25c21 0 36 -7 46 -21z" />
    <glyph glyph-name="mu" unicode="&#xb5;" horiz-adv-x="592" 
d="M449 90c-55 -65 -117 -97 -185 -97c-53 0 -94 17 -122 50v-243h-56v700h16c27 0 40 -14 40 -41v-272c0 -93 43 -147 122 -147c63 0 124 35 183 105v355h56v-421c0 -33 6 -59 17 -80h-28c-25 0 -40 30 -43 91z" />
    <glyph glyph-name="paragraph" unicode="&#xb6;" horiz-adv-x="564" 
d="M343 683h-67v-258h67v258zM340 -64v441h-63c-139 0 -203 43 -203 179c0 121 55 174 202 174h199v-47h-78v-752c0 -92 -40 -138 -121 -138c-35 0 -60 5 -76 16c-5 3 -7 10 -7 21c0 8 2 17 6 26c19 -10 43 -15 70 -15c52 0 71 28 71 95z" />
    <glyph glyph-name="middot" unicode="&#xb7;" horiz-adv-x="202" 
d="M60 308c0 27 14 40 41 40s41 -13 41 -40c0 -26 -14 -39 -41 -39s-41 13 -41 39z" />
    <glyph glyph-name="cedilla" unicode="&#xb8;" horiz-adv-x="339" 
d="M54 -183l108 131h41l-70 -120c-9 -16 -24 -24 -44 -24c-15 0 -26 4 -35 13z" />
    <glyph glyph-name="onesuperior" unicode="&#xb9;" horiz-adv-x="268" 
d="M124 434v218l-56 -41l-21 30l87 64h30v-271h71v-37h-185v37h74z" />
    <glyph glyph-name="ordmasculine" unicode="&#xba;" horiz-adv-x="387" 
d="M94 549c0 -77 33 -116 99 -116c65 0 98 39 98 116c0 73 -34 115 -98 115c-65 0 -99 -42 -99 -115zM86 433c-24 27 -36 66 -36 116s12 89 36 116s60 40 107 40s83 -13 107 -40s36 -66 36 -116s-12 -89 -36 -116c-25 -28 -60 -42 -107 -42s-83 14 -107 42z" />
    <glyph glyph-name="guillemotright" unicode="&#xbb;" horiz-adv-x="529" 
d="M50 460h62l176 -210l-176 -210h-62l175 210zM262 460h62l175 -210l-175 -210h-62l175 210z" />
    <glyph glyph-name="onequarter" unicode="&#xbc;" horiz-adv-x="778" 
d="M237 0h-57l362 700h56zM155 434v218l-55 -41l-22 30l88 64h29v-271h72v-37h-186v37h74zM676 104v-37h-43v-67h-40v67h-151v27l160 214h31v-204h43zM495 104h98v132z" />
    <glyph glyph-name="onehalf" unicode="&#xbd;" horiz-adv-x="778" 
d="M236 0h-56l361 700h57zM680 38v-38h-205v29c87 51 153 117 153 180c0 42 -21 63 -63 63c-27 0 -51 -7 -72 -20c-7 7 -10 14 -10 23c0 7 2 12 7 15c19 14 45 21 76 21c68 0 103 -38 103 -102c0 -65 -52 -131 -120 -171h131zM155 434v217l-56 -41l-22 30l88 64h30v-270h71
v-38h-185v38h74z" />
    <glyph glyph-name="threequarters" unicode="&#xbe;" horiz-adv-x="778" 
d="M236 0h-56l361 700h57zM675 103v-37h-43v-66h-40v66h-151v28l160 213h31v-204h43zM495 103h97v132zM166 433c49 0 74 21 74 63c0 39 -23 58 -69 58h-27l-16 21l86 92h-134v37h191v-28l-86 -90c64 -9 96 -39 96 -90c0 -64 -43 -100 -114 -100c-35 0 -62 5 -82 14
c-7 4 -10 10 -10 19s3 17 8 22c22 -12 50 -18 83 -18z" />
    <glyph glyph-name="questiondown" unicode="&#xbf;" horiz-adv-x="526" 
d="M293 -208c-147 0 -233 78 -233 195c0 144 180 193 180 311v29h59v-29c0 -78 -65 -135 -116 -185c-36 -35 -64 -79 -64 -126c0 -87 62 -142 174 -142c71 0 132 16 182 49c7 -12 10 -24 10 -37c0 -11 -3 -19 -10 -23c-37 -23 -110 -42 -182 -42zM309 466
c0 -27 -13 -40 -40 -40s-41 13 -41 40c0 26 14 39 41 39s40 -13 40 -39z" />
    <glyph glyph-name="Agrave" unicode="&#xc0;" horiz-adv-x="660" 
d="M365 672l274 -672h-61l-82 203h-335l-82 -203h-61l288 702h13c28 0 38 -9 46 -30zM475 255l-146 361l-148 -361h294zM331 919l96 -116h-40l-154 120c10 14 26 21 47 21s38 -8 51 -25z" />
    <glyph glyph-name="Aacute" unicode="&#xc1;" horiz-adv-x="660" 
d="M365 672l274 -672h-61l-82 203h-335l-82 -203h-61l288 702h13c28 0 38 -9 46 -30zM475 255l-146 361l-148 -361h294zM427 923l-153 -120h-41l97 116c14 17 31 25 51 25c21 0 36 -7 46 -21z" />
    <glyph glyph-name="Acircumflex" unicode="&#xc2;" horiz-adv-x="660" 
d="M365 672l274 -672h-61l-82 203h-335l-82 -203h-61l288 702h13c28 0 38 -9 46 -30zM475 255l-146 361l-148 -361h294zM434 807l-104 83l-105 -83h-43l130 135h15c14 0 25 -5 34 -15l117 -120h-44z" />
    <glyph glyph-name="Atilde" unicode="&#xc3;" horiz-adv-x="660" 
d="M365 672l274 -672h-61l-82 203h-335l-82 -203h-61l288 702h13c28 0 38 -9 46 -30zM475 255l-146 361l-148 -361h294zM398 820c-21 0 -46 9 -74 27c-28 17 -49 26 -62 26c-27 0 -43 -18 -47 -53h-39c8 65 31 93 86 93c21 0 45 -9 73 -26c28 -18 49 -27 63 -27
c27 0 43 18 47 53h39c-8 -64 -33 -93 -86 -93z" />
    <glyph glyph-name="Adieresis" unicode="&#xc4;" horiz-adv-x="660" 
d="M365 672l274 -672h-61l-82 203h-335l-82 -203h-61l288 702h13c28 0 38 -9 46 -30zM475 255l-146 361l-148 -361h294zM179 844c0 26 14 39 41 39s41 -13 41 -38s-14 -38 -41 -38s-41 12 -41 37zM398 844c0 26 14 39 41 39s41 -13 41 -38s-14 -38 -41 -38s-41 12 -41 37z
" />
    <glyph glyph-name="Aring" unicode="&#xc5;" horiz-adv-x="660" 
d="M365 672l274 -672h-61l-82 203h-335l-82 -203h-61l288 702h13c28 0 38 -9 46 -30zM475 255l-146 361l-148 -361h294zM296 826c17 -17 51 -17 68 0c16 16 16 50 0 67c-17 16 -51 16 -68 0c-17 -17 -17 -51 0 -67zM330 940c51 0 86 -33 86 -81s-35 -81 -86 -81
c-52 0 -86 33 -86 81s34 81 86 81z" />
    <glyph glyph-name="AE" unicode="&#xc6;" horiz-adv-x="961" 
d="M561 384h341v-13c0 -29 -11 -40 -40 -40h-301v-279h369v-52h-427v211h-285l-157 -211h-70l521 700h407v-54h-358v-262zM256 261h247v333z" />
    <glyph glyph-name="Ccedilla" unicode="&#xc7;" horiz-adv-x="635" 
d="M395 44c72 1 136 19 193 54c3 -9 5 -18 5 -28c0 -15 -3 -25 -10 -30c-33 -27 -107 -47 -187 -47c-223 0 -335 132 -335 367c0 106 28 190 85 253c56 63 135 94 238 94c81 0 140 -14 179 -43c7 -5 11 -15 11 -29c0 -9 -2 -17 -5 -24c-53 29 -115 44 -186 44
c-169 0 -263 -114 -263 -295c0 -204 91 -316 275 -316zM243 -183l108 131h41l-70 -120c-9 -16 -24 -24 -44 -24c-15 0 -26 4 -35 13z" />
    <glyph glyph-name="Egrave" unicode="&#xc8;" horiz-adv-x="575" 
d="M470 332h-316v-279h391v-53h-450v700h439v-53h-380v-262h356v-13c0 -29 -11 -40 -40 -40zM288 919l96 -116h-40l-154 120c10 14 26 21 47 21s38 -8 51 -25z" />
    <glyph glyph-name="Eacute" unicode="&#xc9;" horiz-adv-x="575" 
d="M470 332h-316v-279h391v-53h-450v700h439v-53h-380v-262h356v-13c0 -29 -11 -40 -40 -40zM384 923l-153 -120h-41l97 116c14 17 31 25 51 25c21 0 36 -7 46 -21z" />
    <glyph glyph-name="Ecircumflex" unicode="&#xca;" horiz-adv-x="575" 
d="M470 332h-316v-279h391v-53h-450v700h439v-53h-380v-262h356v-13c0 -29 -11 -40 -40 -40zM391 807l-104 83l-105 -83h-43l130 135h15c13 0 25 -5 34 -15l117 -120h-44z" />
    <glyph glyph-name="Edieresis" unicode="&#xcb;" horiz-adv-x="575" 
d="M470 332h-316v-279h391v-53h-450v700h439v-53h-380v-262h356v-13c0 -29 -11 -40 -40 -40zM137 844c0 26 14 39 41 39s41 -13 41 -38s-14 -38 -41 -38s-41 12 -41 37zM356 844c0 26 14 39 41 39s41 -13 41 -38s-14 -38 -41 -38s-41 12 -41 37z" />
    <glyph glyph-name="Igrave" unicode="&#xcc;" horiz-adv-x="259" 
d="M159 658v-658h-59v700h17c28 0 42 -14 42 -42zM130 919l96 -116h-40l-154 120c10 14 26 21 47 21s38 -8 51 -25z" />
    <glyph glyph-name="Iacute" unicode="&#xcd;" horiz-adv-x="259" 
d="M159 658v-658h-59v700h17c28 0 42 -14 42 -42zM227 923l-153 -120h-41l97 116c14 17 31 25 51 25c21 0 36 -7 46 -21z" />
    <glyph glyph-name="Icircumflex" unicode="&#xce;" horiz-adv-x="259" 
d="M159 658v-658h-59v700h17c28 0 42 -14 42 -42zM234 807l-104 83l-105 -83h-43l130 135h15c14 0 25 -5 34 -15l117 -120h-44z" />
    <glyph glyph-name="Idieresis" unicode="&#xcf;" horiz-adv-x="259" 
d="M159 658v-658h-59v700h17c28 0 42 -14 42 -42zM-21 844c0 26 14 39 41 39s41 -13 41 -38s-14 -38 -41 -38s-41 12 -41 37zM198 844c0 26 14 39 41 39s41 -13 41 -38s-14 -38 -41 -38s-41 12 -41 37z" />
    <glyph glyph-name="Eth" unicode="&#xd0;" horiz-adv-x="714" 
d="M16 310v50h81v340h220c217 0 335 -123 335 -344c0 -224 -109 -356 -321 -356h-234v310h-81zM156 310v-257h175c175 0 262 112 262 303c0 187 -96 291 -276 291h-161v-287h197v-50h-197z" />
    <glyph glyph-name="Ntilde" unicode="&#xd1;" horiz-adv-x="737" 
d="M583 700h59v-700h-61l-427 607v-607h-59v700h20c33 0 46 -9 65 -34l403 -573v607zM436 820c-21 0 -46 9 -74 27c-28 17 -49 26 -62 26c-27 0 -43 -18 -47 -53h-39c8 65 31 93 86 93c21 0 45 -9 73 -26c28 -18 49 -27 63 -27c27 0 43 18 47 53h39c-8 -64 -33 -93 -86 -93z
" />
    <glyph glyph-name="Ograve" unicode="&#xd2;" horiz-adv-x="751" 
d="M376 654c-171 0 -255 -112 -255 -304c0 -193 84 -306 255 -306c169 0 254 113 254 306c0 192 -85 304 -254 304zM376 707c205 0 313 -132 313 -357s-108 -357 -313 -357c-207 0 -314 132 -314 357s107 357 314 357zM376 919l96 -116h-40l-154 120c10 14 26 21 47 21
s38 -8 51 -25z" />
    <glyph glyph-name="Oacute" unicode="&#xd3;" horiz-adv-x="751" 
d="M376 654c-171 0 -255 -112 -255 -304c0 -193 84 -306 255 -306c169 0 254 113 254 306c0 192 -85 304 -254 304zM376 707c205 0 313 -132 313 -357s-108 -357 -313 -357c-207 0 -314 132 -314 357s107 357 314 357zM472 923l-153 -120h-41l97 116c14 17 31 25 51 25
c21 0 36 -7 46 -21z" />
    <glyph glyph-name="Ocircumflex" unicode="&#xd4;" horiz-adv-x="751" 
d="M376 654c-171 0 -255 -112 -255 -304c0 -193 84 -306 255 -306c169 0 254 113 254 306c0 192 -85 304 -254 304zM376 707c205 0 313 -132 313 -357s-108 -357 -313 -357c-207 0 -314 132 -314 357s107 357 314 357zM479 807l-104 83l-105 -83h-43l130 135h15
c13 0 25 -5 34 -15l117 -120h-44z" />
    <glyph glyph-name="Otilde" unicode="&#xd5;" horiz-adv-x="751" 
d="M376 654c-171 0 -255 -112 -255 -304c0 -193 84 -306 255 -306c169 0 254 113 254 306c0 192 -85 304 -254 304zM376 707c205 0 313 -132 313 -357s-108 -357 -313 -357c-207 0 -314 132 -314 357s107 357 314 357zM443 820c-21 0 -45 9 -74 27c-29 17 -49 26 -62 26
c-27 0 -43 -18 -47 -53h-39c8 65 31 93 86 93c21 0 45 -9 73 -26c28 -18 49 -27 63 -27c27 0 43 18 47 53h39c-8 -64 -33 -93 -86 -93z" />
    <glyph glyph-name="Odieresis" unicode="&#xd6;" horiz-adv-x="751" 
d="M376 654c-171 0 -255 -112 -255 -304c0 -193 84 -306 255 -306c169 0 254 113 254 306c0 192 -85 304 -254 304zM376 707c205 0 313 -132 313 -357s-108 -357 -313 -357c-207 0 -314 132 -314 357s107 357 314 357zM225 844c0 26 14 39 41 39s41 -13 41 -38
s-14 -38 -41 -38s-41 12 -41 37zM444 844c0 26 14 39 41 39s41 -13 41 -38s-14 -38 -41 -38s-41 12 -41 37z" />
    <glyph glyph-name="multiply" unicode="&#xd7;" 
d="M271 290l-162 161l40 40l162 -162l162 162l39 -40l-161 -161l161 -162l-39 -40l-162 161l-162 -161l-40 40z" />
    <glyph glyph-name="Oslash" unicode="&#xd8;" horiz-adv-x="750" 
d="M577 643l60 77h59l-86 -109c53 -61 79 -148 79 -261s-26 -200 -79 -263s-132 -95 -235 -95c-83 0 -150 21 -201 64l-60 -76h-59l84 109c-51 61 -77 148 -77 261s27 201 80 264s130 94 233 94c83 0 151 -22 202 -65zM375 655c-169 0 -254 -113 -254 -305
c0 -91 19 -163 56 -214l365 463c-41 37 -97 56 -167 56zM375 45c171 0 255 113 255 305c0 89 -19 161 -57 214l-365 -464c42 -37 98 -55 167 -55z" />
    <glyph glyph-name="Ugrave" unicode="&#xd9;" horiz-adv-x="724" 
d="M362 45c153 0 213 89 213 257v398h58v-406c0 -201 -90 -302 -271 -302s-271 101 -271 302v406h17c28 0 42 -14 42 -42v-356c0 -167 60 -257 212 -257zM363 919l96 -116h-40l-154 120c10 14 26 21 47 21s38 -8 51 -25z" />
    <glyph glyph-name="Uacute" unicode="&#xda;" horiz-adv-x="724" 
d="M362 45c153 0 213 89 213 257v398h58v-406c0 -201 -90 -302 -271 -302s-271 101 -271 302v406h17c28 0 42 -14 42 -42v-356c0 -167 60 -257 212 -257zM459 923l-153 -120h-41l97 116c14 17 31 25 51 25c21 0 36 -7 46 -21z" />
    <glyph glyph-name="Ucircumflex" unicode="&#xdb;" horiz-adv-x="724" 
d="M362 45c153 0 213 89 213 257v398h58v-406c0 -201 -90 -302 -271 -302s-271 101 -271 302v406h17c28 0 42 -14 42 -42v-356c0 -167 60 -257 212 -257zM466 807l-104 83l-105 -83h-43l130 135h15c14 0 25 -5 34 -15l117 -120h-44z" />
    <glyph glyph-name="Udieresis" unicode="&#xdc;" horiz-adv-x="724" 
d="M362 45c153 0 213 89 213 257v398h58v-406c0 -201 -90 -302 -271 -302s-271 101 -271 302v406h17c28 0 42 -14 42 -42v-356c0 -167 60 -257 212 -257zM211 844c0 26 14 39 41 39s41 -13 41 -38s-14 -38 -41 -38s-41 12 -41 37zM430 844c0 26 14 39 41 39s41 -13 41 -38
s-14 -38 -41 -38s-41 12 -41 37z" />
    <glyph glyph-name="Yacute" unicode="&#xdd;" horiz-adv-x="605" 
d="M586 700l-254 -401v-299h-58v299l-257 401h33c24 0 42 -9 54 -28l199 -319l215 347h68zM399 923l-153 -120h-41l97 116c14 17 31 25 51 25c21 0 36 -7 46 -21z" />
    <glyph glyph-name="Thorn" unicode="&#xde;" horiz-adv-x="615" 
d="M329 201h-175v-201h-59v700h17c28 0 42 -14 42 -43v-57h175c156 0 234 -67 234 -200s-78 -199 -234 -199zM330 546h-176v-292h176c121 0 174 47 174 146s-53 146 -174 146z" />
    <glyph glyph-name="germandbls" unicode="&#xdf;" horiz-adv-x="665" 
d="M140 0h-55v460c0 68 22 125 65 172s108 70 193 70c136 0 221 -66 221 -170c0 -69 -44 -120 -111 -137c96 -20 146 -89 146 -189c0 -127 -74 -208 -227 -208c-75 0 -138 17 -161 38c-5 3 -7 9 -7 16c0 13 5 24 14 32c44 -26 95 -39 154 -39c116 0 171 60 171 161
c0 108 -65 162 -195 162h-40v48h45c97 0 156 40 156 116c0 73 -59 122 -166 122c-65 0 -115 -19 -150 -56c-35 -38 -53 -84 -53 -138v-460z" />
    <glyph glyph-name="agrave" unicode="&#xe0;" horiz-adv-x="545" 
d="M452 143v214c-43 61 -107 101 -176 101c-101 0 -159 -68 -159 -208c0 -139 59 -210 154 -210c72 0 141 39 181 103zM507 459v-380c0 -32 5 -59 16 -80h-23c-35 0 -47 27 -47 91c-36 -56 -108 -98 -184 -98c-128 0 -208 87 -208 258c0 169 80 257 207 257
c77 0 143 -38 183 -95l3 88h13c27 0 40 -14 40 -41zM273 719l96 -116h-40l-154 120c10 14 26 21 47 21s38 -8 51 -25z" />
    <glyph glyph-name="aacute" unicode="&#xe1;" horiz-adv-x="545" 
d="M452 143v214c-43 61 -107 101 -176 101c-101 0 -159 -68 -159 -208c0 -139 59 -210 154 -210c72 0 141 39 181 103zM507 459v-380c0 -32 5 -59 16 -80h-23c-35 0 -47 27 -47 91c-36 -56 -108 -98 -184 -98c-128 0 -208 87 -208 258c0 169 80 257 207 257
c77 0 143 -38 183 -95l3 88h13c27 0 40 -14 40 -41zM369 723l-153 -120h-41l97 116c14 17 31 25 51 25c21 0 36 -7 46 -21z" />
    <glyph glyph-name="acircumflex" unicode="&#xe2;" horiz-adv-x="545" 
d="M452 143v214c-43 61 -107 101 -176 101c-101 0 -159 -68 -159 -208c0 -139 59 -210 154 -210c72 0 141 39 181 103zM507 459v-380c0 -32 5 -59 16 -80h-23c-35 0 -47 27 -47 91c-36 -56 -108 -98 -184 -98c-128 0 -208 87 -208 258c0 169 80 257 207 257
c77 0 143 -38 183 -95l3 88h13c27 0 40 -14 40 -41zM376 607l-104 83l-105 -83h-43l130 135h15c14 0 25 -5 34 -15l117 -120h-44z" />
    <glyph glyph-name="atilde" unicode="&#xe3;" horiz-adv-x="545" 
d="M452 143v214c-43 61 -107 101 -176 101c-101 0 -159 -68 -159 -208c0 -139 59 -210 154 -210c72 0 141 39 181 103zM507 459v-380c0 -32 5 -59 16 -80h-23c-35 0 -47 27 -47 91c-36 -56 -108 -98 -184 -98c-128 0 -208 87 -208 258c0 169 80 257 207 257
c77 0 143 -38 183 -95l3 88h13c27 0 40 -14 40 -41zM340 620c-21 0 -46 9 -74 27c-28 17 -49 26 -62 26c-27 0 -43 -18 -47 -53h-39c8 65 31 93 86 93c21 0 45 -9 73 -26c28 -18 49 -27 63 -27c27 0 43 18 47 53h39c-8 -64 -33 -93 -86 -93z" />
    <glyph glyph-name="adieresis" unicode="&#xe4;" horiz-adv-x="545" 
d="M452 143v214c-43 61 -107 101 -176 101c-101 0 -159 -68 -159 -208c0 -139 59 -210 154 -210c72 0 141 39 181 103zM507 459v-380c0 -32 5 -59 16 -80h-23c-35 0 -47 27 -47 91c-36 -56 -108 -98 -184 -98c-128 0 -208 87 -208 258c0 169 80 257 207 257
c77 0 143 -38 183 -95l3 88h13c27 0 40 -14 40 -41zM122 644c0 26 14 39 41 39s41 -13 41 -38s-14 -38 -41 -38s-41 12 -41 37zM341 644c0 26 14 39 41 39s41 -13 41 -38s-14 -38 -41 -38s-41 12 -41 37z" />
    <glyph glyph-name="aring" unicode="&#xe5;" horiz-adv-x="545" 
d="M452 143v214c-43 61 -107 101 -176 101c-101 0 -159 -68 -159 -208c0 -139 59 -210 154 -210c72 0 141 39 181 103zM507 459v-380c0 -32 5 -59 16 -80h-23c-35 0 -47 27 -47 91c-36 -56 -108 -98 -184 -98c-128 0 -208 87 -208 258c0 169 80 257 207 257
c77 0 143 -38 183 -95l3 88h13c27 0 40 -14 40 -41zM238 626c17 -17 51 -17 68 0c16 16 16 50 0 67c-17 16 -51 16 -68 0c-17 -17 -17 -51 0 -67zM272 740c51 0 86 -33 86 -81s-35 -81 -86 -81c-52 0 -86 33 -86 81s34 81 86 81z" />
    <glyph glyph-name="ae" unicode="&#xe6;" horiz-adv-x="888" 
d="M630 40c67 0 124 17 171 50c3 -8 4 -15 4 -21c0 -19 -5 -31 -16 -38c-37 -25 -89 -38 -157 -38c-98 0 -166 39 -205 116c-57 -77 -134 -115 -231 -115c-87 0 -153 49 -153 144c0 113 79 148 244 148h115v45c0 88 -42 129 -138 129c-67 0 -123 -11 -170 -34
c-1 7 -2 12 -2 15c0 44 58 66 173 66c86 0 142 -28 167 -85c38 57 97 85 177 85c137 0 213 -82 213 -219v-49h-366v-84c27 -67 91 -115 174 -115zM202 41c82 0 149 36 200 109v89h-109c-140 0 -196 -18 -196 -101c0 -63 48 -97 105 -97zM609 458c-79 0 -130 -32 -155 -95
c1 -8 2 -15 2 -20v-59h309c0 113 -55 174 -156 174z" />
    <glyph glyph-name="ccedilla" unicode="&#xe7;" horiz-adv-x="507" 
d="M303 41c57 0 109 13 156 38c3 -7 5 -15 5 -24c0 -15 -3 -25 -10 -29c-29 -19 -93 -33 -152 -33c-157 0 -242 94 -242 259c0 163 84 255 237 255c56 0 121 -12 146 -29c9 -5 13 -14 13 -27c0 -7 -2 -17 -5 -28c-41 23 -92 35 -152 35c-119 0 -183 -73 -183 -206
c0 -135 66 -211 187 -211zM179 -183l108 131h41l-70 -120c-9 -16 -24 -24 -44 -24c-15 0 -26 4 -35 13z" />
    <glyph glyph-name="egrave" unicode="&#xe8;" horiz-adv-x="568" 
d="M300 40c71 0 130 17 177 50c3 -8 4 -15 4 -21c0 -19 -5 -31 -16 -38c-37 -25 -92 -38 -166 -38c-155 0 -239 92 -239 257c0 163 82 257 230 257c136 0 212 -93 212 -238v-49h-384c8 -117 71 -180 182 -180zM290 458c-108 0 -168 -69 -173 -193h328
c0 120 -56 193 -155 193zM285 719l96 -116h-40l-154 120c10 14 26 21 47 21s38 -8 51 -25z" />
    <glyph glyph-name="eacute" unicode="&#xe9;" horiz-adv-x="568" 
d="M300 40c71 0 130 17 177 50c3 -8 4 -15 4 -21c0 -19 -5 -31 -16 -38c-37 -25 -92 -38 -166 -38c-155 0 -239 92 -239 257c0 163 82 257 230 257c136 0 212 -93 212 -238v-49h-384c8 -117 71 -180 182 -180zM290 458c-108 0 -168 -69 -173 -193h328
c0 120 -56 193 -155 193zM381 723l-153 -120h-41l97 116c14 17 31 25 51 25c21 0 36 -7 46 -21z" />
    <glyph glyph-name="ecircumflex" unicode="&#xea;" horiz-adv-x="568" 
d="M300 40c71 0 130 17 177 50c3 -8 4 -15 4 -21c0 -19 -5 -31 -16 -38c-37 -25 -92 -38 -166 -38c-155 0 -239 92 -239 257c0 163 82 257 230 257c136 0 212 -93 212 -238v-49h-384c8 -117 71 -180 182 -180zM290 458c-108 0 -168 -69 -173 -193h328
c0 120 -56 193 -155 193zM388 607l-104 83l-105 -83h-43l130 135h15c14 0 25 -5 34 -15l117 -120h-44z" />
    <glyph glyph-name="edieresis" unicode="&#xeb;" horiz-adv-x="568" 
d="M300 40c71 0 130 17 177 50c3 -8 4 -15 4 -21c0 -19 -5 -31 -16 -38c-37 -25 -92 -38 -166 -38c-155 0 -239 92 -239 257c0 163 82 257 230 257c136 0 212 -93 212 -238v-49h-384c8 -117 71 -180 182 -180zM290 458c-108 0 -168 -69 -173 -193h328
c0 120 -56 193 -155 193zM133 644c0 26 14 39 41 39s41 -13 41 -38s-14 -38 -41 -38s-41 12 -41 37zM352 644c0 26 14 39 41 39s41 -13 41 -38s-14 -38 -41 -38s-41 12 -41 37z" />
    <glyph glyph-name="igrave" unicode="&#xec;" horiz-adv-x="239" 
d="M148 459v-459h-57v500h16c27 0 41 -14 41 -41zM120 719l96 -116h-40l-154 120c10 14 26 21 47 21s38 -8 51 -25z" />
    <glyph glyph-name="iacute" unicode="&#xed;" horiz-adv-x="239" 
d="M148 459v-459h-57v500h16c27 0 41 -14 41 -41zM217 723l-153 -120h-41l97 116c14 17 31 25 51 25c21 0 36 -7 46 -21z" />
    <glyph glyph-name="icircumflex" unicode="&#xee;" horiz-adv-x="239" 
d="M148 459v-459h-57v500h16c27 0 41 -14 41 -41zM224 607l-104 83l-105 -83h-43l130 135h15c14 0 25 -5 34 -15l117 -120h-44z" />
    <glyph glyph-name="idieresis" unicode="&#xef;" horiz-adv-x="239" 
d="M148 459v-459h-57v500h16c27 0 41 -14 41 -41zM-31 644c0 26 14 39 41 39s41 -13 41 -38s-14 -38 -41 -38s-41 12 -41 37zM188 644c0 26 14 39 41 39s41 -13 41 -38s-14 -38 -41 -38s-41 12 -41 37z" />
    <glyph glyph-name="eth" unicode="&#xf0;" horiz-adv-x="592" 
d="M319 522v43l68 25c-43 44 -91 66 -146 67c-11 0 -23 -1 -34 -3c-3 12 -5 21 -5 27c0 17 9 26 27 26c89 0 161 -32 216 -97l92 34v-43l-66 -24c41 -64 61 -140 61 -227c0 -233 -90 -357 -258 -357c-144 0 -238 85 -238 238c0 140 78 229 229 229c85 0 155 -34 208 -102
c-3 82 -22 148 -57 199zM265 408c-115 0 -172 -69 -172 -177c0 -117 72 -187 179 -187c125 0 192 90 200 253c-54 74 -123 111 -207 111z" />
    <glyph glyph-name="ntilde" unicode="&#xf1;" horiz-adv-x="601" 
d="M141 462l2 -54c63 66 132 99 207 99c105 0 164 -68 164 -191v-316h-16c-27 0 -40 13 -40 40v268c0 100 -39 150 -117 150c-69 0 -135 -35 -198 -104v-354h-56v500h15c25 0 38 -13 39 -38zM368 620c-21 0 -46 9 -74 27c-28 17 -49 26 -62 26c-27 0 -43 -18 -47 -53h-39
c8 65 31 93 86 93c21 0 45 -9 73 -26c28 -18 49 -27 63 -27c27 0 43 18 47 53h39c-8 -64 -33 -93 -86 -93z" />
    <glyph glyph-name="ograve" unicode="&#xf2;" horiz-adv-x="590" 
d="M116 250c0 -135 62 -210 179 -210c119 0 179 75 179 210c0 133 -60 208 -179 208c-117 0 -179 -75 -179 -208zM120 60c-40 45 -60 108 -60 190s20 145 60 190s98 67 175 67s135 -22 175 -67s60 -108 60 -190s-20 -145 -60 -190s-98 -67 -175 -67s-135 22 -175 67z
M296 719l96 -116h-40l-154 120c10 14 26 21 47 21s38 -8 51 -25z" />
    <glyph glyph-name="oacute" unicode="&#xf3;" horiz-adv-x="590" 
d="M116 250c0 -135 62 -210 179 -210c119 0 179 75 179 210c0 133 -60 208 -179 208c-117 0 -179 -75 -179 -208zM120 60c-40 45 -60 108 -60 190s20 145 60 190s98 67 175 67s135 -22 175 -67s60 -108 60 -190s-20 -145 -60 -190s-98 -67 -175 -67s-135 22 -175 67z
M392 723l-153 -120h-41l97 116c14 17 31 25 51 25c21 0 36 -7 46 -21z" />
    <glyph glyph-name="ocircumflex" unicode="&#xf4;" horiz-adv-x="590" 
d="M116 250c0 -135 62 -210 179 -210c119 0 179 75 179 210c0 133 -60 208 -179 208c-117 0 -179 -75 -179 -208zM120 60c-40 45 -60 108 -60 190s20 145 60 190s98 67 175 67s135 -22 175 -67s60 -108 60 -190s-20 -145 -60 -190s-98 -67 -175 -67s-135 22 -175 67z
M399 607l-104 83l-105 -83h-43l130 135h15c13 0 25 -5 34 -15l117 -120h-44z" />
    <glyph glyph-name="otilde" unicode="&#xf5;" horiz-adv-x="590" 
d="M116 250c0 -135 62 -210 179 -210c119 0 179 75 179 210c0 133 -60 208 -179 208c-117 0 -179 -75 -179 -208zM120 60c-40 45 -60 108 -60 190s20 145 60 190s98 67 175 67s135 -22 175 -67s60 -108 60 -190s-20 -145 -60 -190s-98 -67 -175 -67s-135 22 -175 67z
M363 620c-21 0 -45 9 -74 27c-29 17 -49 26 -62 26c-27 0 -43 -18 -47 -53h-39c8 65 31 93 86 93c21 0 45 -9 73 -26c28 -18 49 -27 63 -27c27 0 43 18 47 53h39c-8 -64 -33 -93 -86 -93z" />
    <glyph glyph-name="odieresis" unicode="&#xf6;" horiz-adv-x="590" 
d="M116 250c0 -135 62 -210 179 -210c119 0 179 75 179 210c0 133 -60 208 -179 208c-117 0 -179 -75 -179 -208zM120 60c-40 45 -60 108 -60 190s20 145 60 190s98 67 175 67s135 -22 175 -67s60 -108 60 -190s-20 -145 -60 -190s-98 -67 -175 -67s-135 22 -175 67z
M144 644c0 26 14 39 41 39s41 -13 41 -38s-14 -38 -41 -38s-41 12 -41 37zM363 644c0 26 14 39 41 39s41 -13 41 -38s-14 -38 -41 -38s-41 12 -41 37z" />
    <glyph glyph-name="divide" unicode="&#xf7;" 
d="M82 263v53h458v-53h-458zM311 397c-30 0 -45 14 -45 43s15 43 45 43c29 0 44 -14 44 -43s-15 -43 -44 -43zM311 96c-30 0 -45 14 -45 43s15 43 45 43c29 0 44 -14 44 -43s-15 -43 -44 -43z" />
    <glyph glyph-name="oslash" unicode="&#xf8;" horiz-adv-x="590" 
d="M60 250c0 164 82 257 235 257c61 0 110 -15 147 -44l46 57h52l-67 -84c38 -45 57 -107 57 -186c0 -164 -82 -257 -235 -257c-62 0 -111 14 -147 41l-44 -54h-54l67 82c-38 45 -57 108 -57 188zM116 250c0 -59 12 -107 36 -144l257 316c-29 24 -67 36 -114 36
c-117 0 -179 -75 -179 -208zM474 250c0 60 -12 107 -36 142l-257 -317c29 -23 67 -35 114 -35c119 0 179 75 179 210z" />
    <glyph glyph-name="ugrave" unicode="&#xf9;" horiz-adv-x="590" 
d="M447 90c-54 -65 -120 -97 -198 -97c-107 0 -165 67 -165 190v317h16c27 0 40 -14 40 -41v-269c0 -96 42 -150 119 -150c63 0 125 35 186 105v355h56v-421c0 -33 6 -59 17 -80h-28c-25 0 -40 30 -43 91zM296 719l96 -116h-40l-154 120c10 14 26 21 47 21s38 -8 51 -25z
" />
    <glyph glyph-name="uacute" unicode="&#xfa;" horiz-adv-x="590" 
d="M447 90c-54 -65 -120 -97 -198 -97c-107 0 -165 67 -165 190v317h16c27 0 40 -14 40 -41v-269c0 -96 42 -150 119 -150c63 0 125 35 186 105v355h56v-421c0 -33 6 -59 17 -80h-28c-25 0 -40 30 -43 91zM392 723l-153 -120h-41l97 116c14 17 31 25 51 25
c21 0 36 -7 46 -21z" />
    <glyph glyph-name="ucircumflex" unicode="&#xfb;" horiz-adv-x="590" 
d="M447 90c-54 -65 -120 -97 -198 -97c-107 0 -165 67 -165 190v317h16c27 0 40 -14 40 -41v-269c0 -96 42 -150 119 -150c63 0 125 35 186 105v355h56v-421c0 -33 6 -59 17 -80h-28c-25 0 -40 30 -43 91zM399 607l-104 83l-105 -83h-43l130 135h15c13 0 25 -5 34 -15
l117 -120h-44z" />
    <glyph glyph-name="udieresis" unicode="&#xfc;" horiz-adv-x="590" 
d="M447 90c-54 -65 -120 -97 -198 -97c-107 0 -165 67 -165 190v317h16c27 0 40 -14 40 -41v-269c0 -96 42 -150 119 -150c63 0 125 35 186 105v355h56v-421c0 -33 6 -59 17 -80h-28c-25 0 -40 30 -43 91zM144 644c0 26 14 39 41 39s41 -13 41 -38s-14 -38 -41 -38
s-41 12 -41 37zM363 644c0 26 14 39 41 39s41 -13 41 -38s-14 -38 -41 -38s-41 12 -41 37z" />
    <glyph glyph-name="yacute" unicode="&#xfd;" horiz-adv-x="590" 
d="M87 471l174 -403l169 432h60l-239 -591c-36 -88 -81 -116 -152 -116c-26 0 -47 6 -62 17c-7 5 -11 14 -11 25c0 9 3 19 8 30c18 -17 40 -25 66 -25c53 0 78 27 102 84l32 76l-217 500h26c21 0 35 -10 44 -29zM392 723l-153 -120h-41l97 116c14 17 31 25 51 25
c21 0 36 -7 46 -21z" />
    <glyph glyph-name="thorn" unicode="&#xfe;" horiz-adv-x="592" 
d="M144 355v-212c40 -64 108 -103 179 -103c93 0 150 70 150 210c0 139 -52 208 -155 208c-68 0 -131 -40 -174 -103zM144 89v-289h-56v900h16c27 0 40 -14 40 -41v-250c46 65 106 98 181 98c125 0 204 -88 204 -257c0 -171 -77 -258 -205 -258c-76 0 -144 41 -180 97z" />
    <glyph glyph-name="ydieresis" unicode="&#xff;" horiz-adv-x="590" 
d="M87 471l174 -403l169 432h60l-239 -591c-36 -88 -81 -116 -152 -116c-26 0 -47 6 -62 17c-7 5 -11 14 -11 25c0 9 3 19 8 30c18 -17 40 -25 66 -25c53 0 78 27 102 84l32 76l-217 500h26c21 0 35 -10 44 -29zM144 644c0 26 14 39 41 39s41 -13 41 -38s-14 -38 -41 -38
s-41 12 -41 37zM363 644c0 26 14 39 41 39s41 -13 41 -38s-14 -38 -41 -38s-41 12 -41 37z" />
    <glyph glyph-name="dotlessi" unicode="&#x131;" horiz-adv-x="239" 
d="M148 459v-459h-57v500h16c27 0 41 -14 41 -41z" />
    <glyph glyph-name="Lslash" unicode="&#x141;" horiz-adv-x="542" 
d="M154 658v-291l192 93l22 -44l-214 -106v-257h375v-53h-434v278l-61 -29l-22 44l83 42v365h18c29 0 41 -13 41 -42z" />
    <glyph glyph-name="lslash" unicode="&#x142;" horiz-adv-x="240" 
d="M148 659v-294l59 27l22 -44l-81 -40v-308h-56v276l-58 -27l-22 44l80 41v366h16c27 0 40 -14 40 -41z" />
    <glyph glyph-name="OE" unicode="&#x152;" horiz-adv-x="1062" 
d="M373 654c-169 0 -253 -112 -253 -304c0 -193 84 -306 253 -306c95 0 165 35 208 105v398c-44 71 -113 107 -208 107zM955 331h-316v-279h392v-52h-450v74c-49 -54 -118 -81 -209 -81c-205 0 -311 132 -311 357s106 357 311 357c89 0 158 -28 209 -84v77h439v-54h-381
v-262h357v-13c0 -29 -12 -40 -41 -40z" />
    <glyph glyph-name="oe" unicode="&#x153;" horiz-adv-x="955" 
d="M687 40c71 0 130 17 177 50c3 -8 4 -15 4 -21c0 -19 -5 -31 -16 -38c-37 -25 -92 -38 -166 -38c-97 0 -164 34 -202 101c-35 -67 -98 -101 -190 -101c-153 0 -235 93 -235 257s82 257 235 257c89 0 152 -34 189 -103c39 69 104 103 194 103c136 0 212 -93 212 -238v-51
h-384c11 -119 72 -178 182 -178zM294 40c86 0 141 38 165 114c-7 29 -11 61 -11 96c0 33 4 65 11 96c-25 75 -80 112 -165 112c-117 0 -179 -75 -179 -208c0 -135 62 -210 179 -210zM677 458c-107 0 -168 -72 -173 -191h329c0 119 -57 191 -156 191z" />
    <glyph glyph-name="Scaron" unicode="&#x160;" horiz-adv-x="609" 
d="M283 45c127 0 207 48 207 143c0 83 -67 124 -196 155c-84 20 -143 44 -178 73c-35 28 -53 70 -53 125c0 103 82 167 239 167c76 0 153 -17 192 -40c10 -5 15 -16 15 -32c0 -11 -2 -20 -5 -28c-54 31 -121 47 -202 47c-121 0 -181 -45 -181 -114c0 -40 14 -70 41 -89
s77 -38 149 -57c157 -37 237 -92 237 -207c0 -132 -98 -196 -265 -196c-39 0 -79 4 -118 14c-39 9 -69 19 -88 31c-11 6 -16 17 -16 33c0 9 2 18 6 29c27 -16 61 -29 102 -39s79 -15 114 -15zM156 938h43l105 -82l104 82h44l-117 -120c-10 -10 -21 -15 -34 -15h-15z" />
    <glyph glyph-name="scaron" unicode="&#x161;" horiz-adv-x="477" 
d="M237 40c89 0 134 30 134 89c0 56 -42 80 -150 108c-43 12 -58 17 -93 33c-17 8 -30 17 -39 26c-18 18 -35 48 -35 85c0 88 74 127 177 127c68 0 120 -10 157 -29c11 -6 16 -18 16 -35c0 -9 -1 -15 -2 -19c-45 23 -102 35 -171 35s-122 -24 -122 -79c0 -28 13 -49 41 -64
c28 -16 46 -21 87 -33c67 -18 116 -38 146 -59c29 -22 44 -54 44 -96c0 -92 -72 -137 -188 -137c-70 0 -127 12 -172 35c-13 7 -19 19 -19 38c0 6 1 14 2 23c57 -32 120 -48 187 -48zM90 738h43l105 -82l104 82h44l-117 -120c-10 -10 -21 -15 -34 -15h-15z" />
    <glyph glyph-name="Ydieresis" unicode="&#x178;" horiz-adv-x="605" 
d="M586 700l-254 -401v-299h-58v299l-257 401h33c24 0 42 -9 54 -28l199 -319l215 347h68zM152 844c0 26 14 39 41 39s41 -13 41 -38s-14 -38 -41 -38s-41 12 -41 37zM371 844c0 26 14 39 41 39s41 -13 41 -38s-14 -38 -41 -38s-41 12 -41 37z" />
    <glyph glyph-name="Zcaron" unicode="&#x17d;" horiz-adv-x="596" 
d="M476 648h-425v11c0 29 11 41 40 41h457v-52l-439 -597h448v-51h-521v51zM150 938h43l105 -82l104 82h44l-117 -120c-10 -10 -21 -15 -34 -15h-15z" />
    <glyph glyph-name="zcaron" unicode="&#x17e;" horiz-adv-x="471" 
d="M350 453h-302v8c0 26 13 39 39 39h333v-41l-308 -412h314v-47h-386v41zM87 738h43l105 -82l104 82h44l-117 -120c-10 -10 -21 -15 -34 -15h-15z" />
    <glyph glyph-name="florin" unicode="&#x192;" 
d="M172 -41l78 360h-113l11 48h112l38 178c21 104 93 163 189 163c37 0 64 -5 81 -15c7 -4 10 -10 10 -19c0 -7 -3 -18 -10 -31c-21 11 -50 16 -85 16c-69 0 -112 -39 -129 -117l-39 -175h177c-7 -28 -10 -44 -11 -48h-176l-77 -364c-21 -104 -92 -162 -189 -162
c-35 0 -61 4 -80 12c-7 3 -10 10 -10 22c0 7 3 17 10 30c21 -11 49 -16 84 -16c69 0 112 39 129 118z" />
    <glyph glyph-name="circumflex" unicode="&#x2c6;" horiz-adv-x="339" 
d="M274 607l-104 83l-105 -83h-43l130 135h15c14 0 25 -5 34 -15l117 -120h-44z" />
    <glyph glyph-name="caron" unicode="&#x2c7;" horiz-adv-x="339" 
d="M22 738h43l105 -82l104 82h44l-117 -120c-10 -10 -21 -15 -34 -15h-15z" />
    <glyph glyph-name="breve" unicode="&#x2d8;" horiz-adv-x="339" 
d="M107 672c33 -24 93 -24 126 0c16 11 25 27 28 47h49c-9 -69 -64 -111 -140 -111s-131 42 -140 111h48c3 -20 12 -36 29 -47z" />
    <glyph glyph-name="dotaccent" unicode="&#x2d9;" horiz-adv-x="339" 
d="M128 644c0 26 14 39 41 39s41 -13 41 -38s-14 -38 -41 -38s-41 12 -41 37z" />
    <glyph glyph-name="ring" unicode="&#x2da;" horiz-adv-x="339" 
d="M136 626c17 -17 51 -17 68 0c16 16 16 50 0 67c-17 16 -51 16 -68 0c-17 -17 -17 -51 0 -67zM170 740c51 0 86 -33 86 -81s-35 -81 -86 -81c-52 0 -86 33 -86 81s34 81 86 81z" />
    <glyph glyph-name="ogonek" unicode="&#x2db;" horiz-adv-x="339" 
d="M209 -107l-68 110h41l109 -121c-10 -8 -22 -12 -36 -12c-21 0 -36 8 -46 23z" />
    <glyph glyph-name="tilde" unicode="&#x2dc;" horiz-adv-x="339" 
d="M238 620c-21 0 -46 9 -74 27c-28 17 -49 26 -62 26c-27 0 -43 -18 -47 -53h-39c8 65 31 93 86 93c21 0 45 -9 73 -26c28 -18 49 -27 63 -27c27 0 43 18 47 53h39c-8 -64 -33 -93 -86 -93z" />
    <glyph glyph-name="hungarumlaut" unicode="&#x2dd;" horiz-adv-x="339" 
d="M207 731l-107 -128h-40l68 116c8 17 23 25 45 25c14 0 25 -4 34 -13zM375 731l-106 -128h-41l68 116c9 17 24 25 45 25c14 0 25 -4 34 -13z" />
    <glyph glyph-name="uni03A9" unicode="&#x3a9;" horiz-adv-x="772" 
d="M579 575c-49 48 -114 72 -193 72s-143 -24 -192 -72c-49 -49 -74 -113 -74 -194c2 -88 51 -171 113 -236c43 -47 73 -73 108 -100v-5l-36 -40h-216v46h190c-53 36 -103 86 -149 150c-46 63 -69 130 -69 201c0 93 30 168 89 225s138 85 236 85c99 0 178 -28 237 -85
s88 -132 88 -225c0 -71 -23 -138 -69 -201c-46 -64 -96 -114 -149 -150h190v-46h-215c-13 13 -25 26 -37 40v5c35 27 65 53 109 100c21 23 40 47 56 71c31 47 56 109 56 165c0 81 -24 145 -73 194z" />
    <glyph glyph-name="pi" unicode="&#x3c0;" horiz-adv-x="712" 
d="M454 126v324h-221l-37 -450h-57l36 450h-135v50h605v-50h-135v-318c0 -65 17 -92 66 -92c29 0 53 5 73 15c3 -13 5 -23 5 -28c0 -14 -5 -23 -16 -26c-17 -6 -40 -9 -69 -9c-77 0 -115 45 -115 134z" />
    <glyph glyph-name="endash" unicode="&#x2013;" horiz-adv-x="570" 
d="M45 262v50h480v-50h-480z" />
    <glyph glyph-name="emdash" unicode="&#x2014;" horiz-adv-x="780" 
d="M45 262v50h690v-50h-690z" />
    <glyph glyph-name="quoteleft" unicode="&#x2018;" horiz-adv-x="243" 
d="M77 489l81 211h36l-42 -196c-4 -19 -18 -28 -42 -28c-15 0 -26 4 -33 13z" />
    <glyph glyph-name="quoteright" unicode="&#x2019;" horiz-adv-x="243" 
d="M165 691l-81 -211h-36l43 196c4 19 18 28 42 28c15 0 25 -4 32 -13z" />
    <glyph glyph-name="quotesinglbase" unicode="&#x201a;" horiz-adv-x="243" 
d="M165 39l-81 -211h-36l43 196c4 19 18 28 42 28c15 0 25 -4 32 -13z" />
    <glyph glyph-name="quotedblleft" unicode="&#x201c;" horiz-adv-x="388" 
d="M222 489l81 211h36l-42 -196c-4 -19 -18 -28 -41 -28c-15 0 -27 4 -34 13zM77 489l81 211h36l-42 -196c-4 -19 -18 -28 -42 -28c-15 0 -26 4 -33 13z" />
    <glyph glyph-name="quotedblright" unicode="&#x201d;" horiz-adv-x="388" 
d="M165 691l-81 -211h-36l43 196c4 19 18 28 42 28c15 0 25 -4 32 -13zM310 691l-81 -211h-35l42 196c4 19 18 28 42 28c15 0 25 -4 32 -13z" />
    <glyph glyph-name="quotedblbase" unicode="&#x201e;" horiz-adv-x="388" 
d="M165 39l-81 -211h-36l43 196c4 19 18 28 42 28c15 0 25 -4 32 -13zM310 39l-81 -211h-35l42 196c4 19 18 28 42 28c15 0 25 -4 32 -13z" />
    <glyph glyph-name="dagger" unicode="&#x2020;" horiz-adv-x="483" 
d="M213 450h-168v50h168l-4 200h64l-4 -200h169v-50h-169v-550h-56v550z" />
    <glyph glyph-name="daggerdbl" unicode="&#x2021;" horiz-adv-x="483" 
d="M213 100h-168v50h168v300h-168v50h168l-4 200h64l-4 -200h169v-50h-169v-300h169v-50h-169l4 -200h-64z" />
    <glyph glyph-name="bullet" unicode="&#x2022;" horiz-adv-x="401" 
d="M90 322c0 71 30 107 110 107c79 0 111 -36 111 -107c0 -72 -32 -109 -111 -109c-80 0 -110 36 -110 109z" />
    <glyph glyph-name="ellipsis" unicode="&#x2026;" horiz-adv-x="606" 
d="M101 -6c-27 0 -41 13 -41 40s14 40 41 40s41 -13 41 -40s-14 -40 -41 -40zM303 -6c-27 0 -41 13 -41 40s14 40 41 40s41 -13 41 -40s-14 -40 -41 -40zM505 -6c-27 0 -41 13 -41 40s14 40 41 40s41 -13 41 -40s-14 -40 -41 -40z" />
    <glyph glyph-name="perthousand" unicode="&#x2030;" horiz-adv-x="1085" 
d="M224 0h-57l362 700h57zM92 435c-23 27 -34 66 -34 115s11 88 34 115s53 41 92 41c76 0 126 -57 126 -156s-50 -156 -126 -156c-39 0 -69 14 -92 41zM239 467c13 19 20 46 20 83s-7 64 -20 83s-32 28 -55 28s-42 -9 -55 -28s-20 -46 -20 -83s7 -64 20 -83s32 -28 55 -28
s42 9 55 28zM477 35c-23 27 -34 66 -34 115s11 88 34 115s53 41 91 41s69 -14 92 -41s34 -66 34 -115s-11 -88 -34 -115s-54 -41 -92 -41s-68 14 -91 41zM623 67c13 19 20 46 20 83s-7 64 -20 83s-32 28 -55 28c-45 0 -75 -38 -75 -111s30 -111 75 -111c23 0 42 9 55 28z
M809 35c-23 27 -34 66 -34 115s11 88 34 115s53 41 91 41c77 0 126 -57 126 -156s-49 -156 -126 -156c-38 0 -68 14 -91 41zM955 67c13 19 20 46 20 83s-7 64 -20 83s-32 28 -55 28c-45 0 -75 -38 -75 -111s30 -111 75 -111c23 0 42 9 55 28z" />
    <glyph glyph-name="guilsinglleft" unicode="&#x2039;" horiz-adv-x="318" 
d="M205 40l-175 210l175 210h63l-176 -210l176 -210h-63z" />
    <glyph glyph-name="guilsinglright" unicode="&#x203a;" horiz-adv-x="318" 
d="M50 460h62l176 -210l-176 -210h-62l175 210z" />
    <glyph glyph-name="fraction" unicode="&#x2044;" horiz-adv-x="438" 
d="M67 0h-57l362 700h56z" />
    <glyph glyph-name="Euro" unicode="&#x20ac;" 
d="M168 437h217l-19 -48h-204v-76h179l-19 -49h-154c20 -133 94 -220 223 -220c65 0 121 26 167 78c14 -15 21 -29 21 -41c0 -7 -3 -14 -9 -22c-40 -44 -100 -66 -180 -66c-164 0 -260 106 -280 271h-84l20 49h59c-2 25 -2 50 0 76h-79c9 21 16 37 20 48h63
c11 79 40 143 85 194s106 76 182 76c73 0 132 -24 178 -72c5 -5 8 -12 8 -21c0 -10 -7 -23 -21 -40c-44 53 -99 80 -165 80c-58 0 -105 -20 -140 -61c-36 -41 -59 -93 -68 -156z" />
    <glyph glyph-name="afii61289" unicode="&#x2113;" horiz-adv-x="460" 
d="M393 147l45 -29c-41 -84 -100 -126 -176 -126c-101 0 -155 68 -162 179l-42 -36c-12 16 -23 29 -34 40l75 65v259c0 75 14 128 42 161c28 32 61 48 98 48c76 0 119 -61 119 -161c0 -55 -16 -107 -49 -154c-33 -48 -84 -107 -155 -176v-7c0 -113 36 -169 107 -169
c53 0 97 35 132 106zM154 506v-219c93 97 148 176 148 261c0 67 -23 111 -63 111c-44 0 -85 -48 -85 -153z" />
    <glyph glyph-name="trademark" unicode="&#x2122;" horiz-adv-x="717" 
d="M591 700h42v-300h-46v219l-82 -128h-33l-83 128v-219h-46v300h43l102 -163zM40 659v41h245v-41l-100 1v-260h-46v260z" />
    <glyph glyph-name="Omega" unicode="&#x2126;" horiz-adv-x="772" 
d="M579 575c-49 48 -114 72 -193 72s-143 -24 -192 -72c-49 -49 -74 -113 -74 -194c2 -88 51 -171 113 -236c43 -47 73 -73 108 -100v-5l-36 -40h-216v46h190c-53 36 -103 86 -149 150c-46 63 -69 130 -69 201c0 93 30 168 89 225s138 85 236 85c99 0 178 -28 237 -85
s88 -132 88 -225c0 -71 -23 -138 -69 -201c-46 -64 -96 -114 -149 -150h190v-46h-215c-13 13 -25 26 -37 40v5c35 27 65 53 109 100c21 23 40 47 56 71c31 47 56 109 56 165c0 81 -24 145 -73 194z" />
    <glyph glyph-name="estimated" unicode="&#x212e;" horiz-adv-x="856" 
d="M820 349v-14h-628c-3 0 -5 -1 -5 -4v-185c0 -13 3 -22 8 -29c55 -64 135 -96 240 -96s189 36 252 109h58c-73 -87 -186 -139 -311 -139c-110 0 -203 35 -279 105c-77 70 -115 154 -115 253c0 100 38 185 113 255c75 69 167 104 277 104s203 -35 278 -104
c75 -70 112 -155 112 -255zM673 365v186c0 16 -4 28 -11 36c-62 61 -139 91 -231 91c-94 0 -172 -32 -235 -97c-6 -6 -9 -16 -9 -29v-187c0 -4 2 -6 5 -6h476c3 0 5 2 5 6z" />
    <glyph glyph-name="partialdiff" unicode="&#x2202;" horiz-adv-x="631" 
d="M506 370c4 29 6 61 6 97c0 121 -58 189 -155 189c-61 0 -114 -14 -159 -43c-4 10 -6 19 -6 27c0 12 3 20 9 24c27 21 89 43 157 43c132 0 212 -88 212 -243c0 -108 -29 -220 -81 -313c-53 -93 -145 -158 -256 -158c-123 0 -197 67 -197 184c0 81 25 149 75 206
c50 56 119 84 207 84s156 -42 188 -97zM320 417c-73 0 -128 -23 -167 -70s-58 -102 -58 -165c0 -88 48 -140 135 -140c121 0 217 97 262 266c-33 73 -90 109 -172 109z" />
    <glyph glyph-name="increment" unicode="&#x2206;" horiz-adv-x="644" 
d="M40 37l262 665h39l263 -665v-37h-564v37zM102 51h440l-220 566z" />
    <glyph glyph-name="product" unicode="&#x220f;" horiz-adv-x="698" 
d="M546 648h-393v-748h-58v800h509v-800h-58v748z" />
    <glyph glyph-name="summation" unicode="&#x2211;" horiz-adv-x="616" 
d="M389 325l-267 -377h453v-48h-529v36l273 388l-251 338v38h481v-50h-403z" />
    <glyph glyph-name="minus" unicode="&#x2212;" 
d="M90 263v53h442v-53h-442z" />
    <glyph glyph-name="radical" unicode="&#x221a;" horiz-adv-x="614" 
d="M495 730h59l-206 -830h-48l-167 418l-66 -27l-19 48l122 48l146 -383z" />
    <glyph glyph-name="infinity" unicode="&#x221e;" horiz-adv-x="865" 
d="M108 288c0 -63 50 -112 125 -112c59 0 127 45 174 116c-53 75 -111 113 -174 113c-76 0 -125 -48 -125 -117zM431 243c-63 -81 -129 -122 -199 -122c-51 0 -94 15 -129 46s-52 70 -52 118c0 101 73 166 176 166c75 0 144 -41 206 -124c63 83 132 124 207 124
c47 0 88 -15 122 -46c33 -31 50 -70 50 -117c0 -101 -72 -167 -175 -167c-77 0 -146 41 -206 122zM756 285c0 63 -50 112 -125 112c-59 0 -127 -45 -174 -116c53 -76 111 -114 174 -114c76 0 125 47 125 118z" />
    <glyph glyph-name="integral" unicode="&#x222b;" horiz-adv-x="394" 
d="M169 35v535c0 92 40 138 120 138c27 0 50 -3 68 -9c11 -3 16 -12 16 -25c0 -9 -2 -18 -6 -29c-19 10 -43 15 -71 15c-52 0 -71 -28 -71 -95v-535c0 -91 -42 -138 -121 -138c-27 0 -50 3 -68 9c-11 3 -16 12 -16 25c0 3 2 13 6 29c19 -10 43 -15 71 -15c52 0 72 28 72 95z
" />
    <glyph glyph-name="approxequal" unicode="&#x2248;" 
d="M408 368c44 0 80 22 107 66l37 -12c-32 -61 -84 -100 -144 -100c-29 0 -64 12 -103 36c-39 23 -69 35 -89 35c-44 0 -80 -22 -108 -66l-37 11c32 61 85 100 145 100c29 0 64 -12 103 -35s68 -35 89 -35zM319 224c39 -24 68 -36 89 -36s41 6 60 19c19 12 34 28 47 48
l37 -12c-32 -63 -84 -100 -144 -100c-29 0 -64 12 -103 35s-69 35 -89 35c-44 0 -80 -22 -108 -66l-37 12c32 61 85 100 145 100c29 0 64 -12 103 -35z" />
    <glyph glyph-name="notequal" unicode="&#x2260;" 
d="M231 -100h-46l69 267h-164v52h177l37 141h-214v52h228l73 288h45l-73 -288h170v-52h-184l-36 -141h220v-52h-233z" />
    <glyph glyph-name="lessequal" unicode="&#x2264;" 
d="M524 64l-442 245v35l442 245v-58l-373 -205l373 -205v-57zM82 0v37h442v-37h-442z" />
    <glyph glyph-name="greaterequal" unicode="&#x2265;" 
d="M99 589l442 -245v-35l-442 -245v57l373 205l-373 205v58zM99 0v37h442v-37h-442z" />
    <glyph glyph-name="lozenge" unicode="&#x25ca;" horiz-adv-x="568" 
d="M453 349l-170 290l-168 -289l168 -288zM259 -2l-206 352l206 352h49l206 -352l-206 -352h-49z" />
    <glyph glyph-name="uniF8FF" unicode="&#xf8ff;" horiz-adv-x="889" 
d="M710 316v-127c0 -40 -9 -59 -37 -72l-203 -104v239c0 18 6 30 18 37l145 74c9 5 18 7 29 7c28 0 48 -19 48 -54zM517 529l115 -57c16 -8 24 -20 24 -36c0 -19 -11 -34 -33 -45l-148 -75c-21 -11 -31 -31 -31 -61v-255l-265 135v260c0 24 10 41 29 52l165 84
c25 13 48 19 69 19c22 0 47 -7 75 -21z" />
    <glyph glyph-name="a.superior" horiz-adv-x="357" 
d="M307 397h-26c-19 0 -26 12 -31 49c-31 -35 -69 -52 -115 -52c-55 0 -95 30 -95 89c0 72 49 100 148 100h61v13c0 47 -25 70 -74 70c-37 0 -71 -7 -103 -22c-2 6 -3 13 -3 20c0 11 3 19 9 22c21 13 54 19 98 19c78 0 117 -36 117 -107v-134c0 -29 5 -51 14 -67zM139 433
c41 0 78 19 110 56v56h-57c-73 0 -109 -17 -109 -62c0 -32 25 -50 56 -50z" />
    <glyph glyph-name="o.superior" horiz-adv-x="387" 
d="M94 549c0 -77 33 -116 99 -116c65 0 98 39 98 116c0 73 -34 115 -98 115c-65 0 -99 -42 -99 -115zM86 433c-24 27 -36 66 -36 116s12 89 36 116s60 40 107 40s83 -13 107 -40s36 -66 36 -116s-12 -89 -36 -116c-25 -28 -60 -42 -107 -42s-83 14 -107 42z" />
    </font>
</defs>
</svg>
