<?xml version="1.0" standalone="no"?>
<!DOCTYPE svg PUBLIC "-//W3C//DTD SVG 1.1//EN" "http://www.w3.org/Graphics/SVG/1.1/DTD/svg11.dtd" >
<svg xmlns="http://www.w3.org/2000/svg" xmlns:xlink="http://www.w3.org/1999/xlink" version="1.1">
<metadata>
Created by FontForge 20161116 at Sun Mar  8 22:16:41 2015
 By Jimmy Warting
Copyright \(c\) 2013 by Design by Anuthin Wongsunkakon \(2005\) Revival by Stawix Ruecha \(2013\). For Cadson\(R\) Demak All rights reserved.
</metadata>
<defs>
<font id="AminoAlt-Regular3" horiz-adv-x="668" >
  <font-face 
    font-family="Amino-Alt"
    font-weight="400"
    font-stretch="normal"
    units-per-em="1000"
    panose-1="2 0 0 0 0 0 0 0 0 0"
    ascent="774"
    descent="-226"
    x-height="502"
    cap-height="702"
    bbox="-77 -248 1145 991"
    underline-thickness="20"
    underline-position="-100"
    stemh="145"
    stemv="220"
    unicode-range="U+0020-FB02"
  />
<missing-glyph horiz-adv-x="500" 
d="M500 0h-500v700h500v-700zM80 650l170 -255l170 255h-340zM450 605l-170 -255l170 -255v510zM250 305l-170 -255h340zM220 350l-170 255v-510z" />
    <glyph glyph-name="fi" unicode="fi" horiz-adv-x="740" 
d="M304 502h380v-502h-206v361h-168v-361h-202v360l-100 -3v145h106c0 137 94 212 246 212c58 0 106 -10 144 -31c19 -11 29 -30 29 -57c0 -25 -6 -51 -19 -78c-36 17 -72 26 -108 26c-75 0 -102 -24 -102 -72z" />
    <glyph glyph-name="fl" unicode="fl" horiz-adv-x="805" 
d="M749 649v-649h-206v553c-33 14 -82 21 -148 21c-61 0 -91 -24 -91 -72h147v-145l-141 4v-361h-202v360l-100 -3v145h106c0 67 25 120 74 157s113 55 190 55c165 0 289 -22 371 -65z" />
    <glyph glyph-name=".notdef" horiz-adv-x="500" 
d="M500 0h-500v700h500v-700zM80 650l170 -255l170 255h-340zM450 605l-170 -255l170 -255v510zM250 305l-170 -255h340zM220 350l-170 255v-510z" />
    <glyph glyph-name="null" horiz-adv-x="0" 
 />
    <glyph glyph-name="nonmarkingreturn" horiz-adv-x="333" 
 />
    <glyph glyph-name="space" unicode=" " horiz-adv-x="220" 
 />
    <glyph glyph-name="exclam" unicode="!" horiz-adv-x="318" 
d="M44 702h230l-30 -454h-170zM74 17c-20 19 -30 45 -30 78s10 59 30 78c19 19 48 29 85 29s66 -10 86 -29c19 -19 29 -45 29 -78s-10 -59 -29 -78c-20 -19 -49 -29 -86 -29s-66 10 -85 29z" />
    <glyph glyph-name="quotedbl" unicode="&#x22;" horiz-adv-x="450" 
d="M34 700h168l-22 -220h-124zM248 700h168l-22 -220h-124z" />
    <glyph glyph-name="numbersign" unicode="#" 
d="M88 206h-66v103h84l14 84h-66v103h84l36 206h175l-36 -206h92l36 206h175l-36 -206h66v-103h-84l-14 -84h66v-103h-84l-36 -206h-175l36 206h-92l-36 -206h-175zM387 393h-92l-14 -84h92z" />
    <glyph glyph-name="dollar" unicode="$" 
d="M382 -100h-103v89c-85 3 -147 14 -184 32c-44 20 -63 47 -63 91c0 37 11 79 32 127c61 -43 133 -68 215 -75v104c-160 47 -248 119 -248 236c0 119 93 197 248 208v94h103v-95c75 -7 135 -22 180 -45c28 -14 42 -41 42 -82c0 -33 -12 -70 -35 -110
c-43 33 -106 53 -187 62v-95c161 -47 251 -108 251 -232c0 -131 -92 -202 -251 -218v-91zM421 205c0 13 -13 25 -39 35v-70c26 7 39 19 39 35zM243 508c0 -16 12 -28 36 -37v64c-24 -4 -36 -13 -36 -27z" />
    <glyph glyph-name="percent" unicode="%" horiz-adv-x="786" 
d="M294 0h-166l364 702h166zM83 440c-29 29 -43 67 -43 115s14 87 43 116s65 43 108 43s79 -14 108 -43s43 -68 43 -116s-14 -86 -43 -115s-65 -44 -108 -44s-79 15 -108 44zM211 506c10 26 10 73 0 99s-29 26 -39 0s-10 -73 0 -99s29 -26 39 0zM487 32
c-29 29 -43 67 -43 115s14 87 43 116s65 43 108 43s79 -14 108 -43s43 -68 43 -116s-14 -86 -43 -115s-65 -44 -108 -44s-79 15 -108 44zM615 98c10 26 10 73 0 99s-29 26 -39 0s-10 -73 0 -99s29 -26 39 0z" />
    <glyph glyph-name="ampersand" unicode="&#x26;" horiz-adv-x="704" 
d="M527 368c83 1 126 -48 126 -96c0 -39 -14 -79 -41 -118l82 -89v-65h-182l-38 41c-47 -35 -106 -53 -176 -53c-79 0 -143 21 -193 63c-50 41 -75 94 -75 158c0 93 56 164 133 196c-28 27 -54 80 -54 120c0 53 19 97 57 133c37 36 93 54 167 54c72 0 128 -18 167 -55
s58 -82 58 -135c0 -71 -52 -140 -117 -177l57 -63c19 13 29 41 29 86zM321 158c17 0 29 2 38 7l-114 121c-11 -11 -17 -27 -17 -48c0 -45 38 -80 93 -80zM373 525c0 25 -14 46 -35 46c-22 0 -33 -15 -33 -46c0 -27 10 -40 34 -63c23 20 34 41 34 63z" />
    <glyph glyph-name="quotesingle" unicode="'" horiz-adv-x="236" 
d="M34 700h168l-22 -220h-124z" />
    <glyph glyph-name="parenleft" unicode="(" horiz-adv-x="368" 
d="M358 -33l-100 -70c-135 99 -203 235 -203 409s68 310 203 409l100 -70c-71 -101 -107 -214 -107 -339s36 -238 107 -339z" />
    <glyph glyph-name="parenright" unicode=")" horiz-adv-x="368" 
d="M10 645l100 70c135 -99 203 -235 203 -409s-68 -310 -203 -409l-100 70c71 101 107 214 107 339s-36 238 -107 339z" />
    <glyph glyph-name="asterisk" unicode="*" horiz-adv-x="396" 
d="M330 648l38 -104l-82 -25l59 -65l-83 -74l-64 82l-66 -84l-76 76l57 65l-85 26l37 102l84 -33l-3 88h107l-5 -87z" />
    <glyph glyph-name="plus" unicode="+" 
d="M417 24h-165v192h-188v157h188v191h165v-191h187v-157h-187v-192z" />
    <glyph glyph-name="comma" unicode="," horiz-adv-x="318" 
d="M44 95c0 65 39 107 114 107c77 0 116 -38 116 -113c0 -36 -9 -75 -27 -119c-18 -43 -40 -80 -65 -113l-89 35c20 34 31 68 33 101c-52 9 -82 49 -82 102z" />
    <glyph glyph-name="hyphen" unicode="-" horiz-adv-x="446" 
d="M26 203v157h394v-157h-394z" />
    <glyph glyph-name="period" unicode="." horiz-adv-x="318" 
d="M74 17c-20 19 -30 45 -30 78s10 59 30 78c19 19 48 29 85 29s66 -10 86 -29c19 -19 29 -45 29 -78s-10 -59 -29 -78c-20 -19 -49 -29 -86 -29s-66 10 -85 29z" />
    <glyph glyph-name="slash" unicode="/" horiz-adv-x="362" 
d="M156 -100h-182l206 802h182z" />
    <glyph glyph-name="zero" unicode="0" 
d="M108 84c-56 63 -84 152 -84 267s28 204 84 268c55 63 131 95 226 95s171 -32 227 -95c55 -64 83 -153 83 -268s-28 -204 -83 -267c-56 -64 -132 -96 -227 -96s-171 32 -226 96zM401 219c15 31 23 75 23 132s-8 101 -23 133c-15 31 -38 47 -67 47s-52 -16 -67 -47
c-15 -32 -23 -76 -23 -133s8 -101 23 -132c15 -32 38 -48 67 -48s52 16 67 48z" />
    <glyph glyph-name="one" unicode="1" 
d="M247 180v291l-107 -61l-69 125l208 169h188v-525l153 3v-182h-525v182z" />
    <glyph glyph-name="two" unicode="2" 
d="M600 183v-183h-542v167c81 36 152 81 213 135c61 53 91 106 91 159c0 47 -24 70 -73 70c-52 0 -130 -21 -182 -50c-29 34 -43 73 -43 118c0 33 11 55 33 68c56 31 135 47 236 47c165 0 249 -88 249 -223c0 -69 -26 -134 -73 -185c-47 -52 -90 -86 -153 -126z" />
    <glyph glyph-name="three" unicode="3" 
d="M304 171c68 0 102 18 102 75c0 40 -39 62 -98 62h-101l-47 96l172 119l-256 -2v181h513v-169l-149 -102c123 -18 184 -87 184 -208c0 -155 -116 -235 -300 -235c-98 0 -172 15 -222 46c-26 16 -39 42 -39 77c0 47 12 89 35 125c47 -37 131 -65 206 -65z" />
    <glyph glyph-name="four" unicode="4" 
d="M650 299v-173h-98v-126h-216v126h-318v162l332 416h202v-405h98zM224 299h112v142z" />
    <glyph glyph-name="five" unicode="5" 
d="M286 171c79 0 118 26 118 77s-37 76 -111 76h-234l27 378h495v-181l-301 2l-3 -52h44c202 0 303 -76 303 -229c0 -169 -122 -254 -318 -254c-98 0 -172 15 -222 46c-26 16 -39 42 -39 77c0 47 12 89 35 125c39 -40 117 -65 206 -65z" />
    <glyph glyph-name="six" unicode="6" 
d="M404 541c-89 0 -135 -41 -140 -122c35 30 85 45 149 45c132 0 217 -70 217 -213c0 -83 -26 -147 -78 -193c-53 -47 -119 -70 -198 -70c-200 0 -312 127 -312 359c0 231 117 367 332 367c73 0 131 -13 173 -38c23 -13 34 -37 34 -70c0 -35 -10 -71 -31 -110
c-43 30 -92 45 -146 45zM349 319c-35 0 -67 -12 -94 -36c1 -73 38 -122 87 -122c52 0 78 28 78 85c0 45 -26 73 -71 73z" />
    <glyph glyph-name="seven" unicode="7" 
d="M365 520h-306v182h553v-172l-279 -530h-242z" />
    <glyph glyph-name="eight" unicode="8" 
d="M558 40c-54 -35 -129 -52 -224 -52s-170 17 -223 52c-54 34 -81 86 -81 155c0 43 14 81 42 113s59 53 93 64c-56 23 -104 77 -104 144c0 129 102 198 273 198s273 -69 273 -198c0 -67 -48 -121 -104 -144c34 -11 65 -32 93 -64s42 -70 42 -113c0 -69 -27 -121 -80 -155z
M377 540c-34 31 -107 7 -102 -36c0 -29 26 -54 59 -66c33 12 59 37 59 66c0 14 -5 26 -16 36zM271 168c15 -12 36 -18 63 -18s49 6 64 18s22 29 22 50c0 39 -42 76 -86 85c-44 -9 -86 -46 -86 -85c0 -21 8 -38 23 -50z" />
    <glyph glyph-name="nine" unicode="9" 
d="M264 161c89 0 135 41 140 122c-35 -30 -85 -45 -149 -45c-132 0 -217 70 -217 213c0 83 26 147 79 194c52 46 118 69 197 69c200 0 312 -127 312 -359c0 -231 -117 -367 -332 -367c-73 0 -131 13 -173 38c-23 13 -34 37 -34 70c0 35 10 71 31 110c43 -30 92 -45 146 -45z
M319 383c35 0 67 12 94 36c-1 73 -38 122 -87 122c-52 0 -78 -28 -78 -85c0 -45 26 -73 71 -73z" />
    <glyph glyph-name="colon" unicode=":" horiz-adv-x="330" 
d="M80 17c-20 19 -30 45 -30 78s10 59 30 78c19 19 48 29 85 29s66 -10 86 -29c19 -19 29 -45 29 -78s-10 -59 -29 -78c-20 -19 -49 -29 -86 -29s-66 10 -85 29zM80 329c-20 19 -30 45 -30 78s10 59 30 78c19 19 48 29 85 29s66 -10 86 -29c19 -19 29 -45 29 -78
s-10 -59 -29 -78c-20 -19 -49 -29 -86 -29s-66 10 -85 29z" />
    <glyph glyph-name="semicolon" unicode=";" horiz-adv-x="330" 
d="M80 329c-20 19 -30 45 -30 78s10 59 30 78c19 19 48 29 85 29s66 -10 86 -29c19 -19 29 -45 29 -78s-10 -59 -29 -78c-20 -19 -49 -29 -86 -29s-66 10 -85 29zM50 95c0 65 39 107 114 107c77 0 116 -38 116 -113c0 -36 -9 -75 -27 -119c-18 -43 -40 -80 -65 -113l-89 35
c20 34 31 68 33 101c-52 9 -82 49 -82 102z" />
    <glyph glyph-name="less" unicode="&#x3c;" 
d="M562 8l-486 253v112l486 254v-185l-270 -125l270 -124v-185z" />
    <glyph glyph-name="equal" unicode="=" 
d="M600 255v-149h-532v149h532zM600 493v-149h-532v149h532z" />
    <glyph glyph-name="greater" unicode="&#x3e;" 
d="M106 627l486 -254v-112l-486 -253v185l270 124l-270 125v185z" />
    <glyph glyph-name="question" unicode="?" horiz-adv-x="576" 
d="M284 714c165 0 266 -75 266 -184c0 -147 -157 -180 -164 -282h-188c1 47 34 94 67 122c32 28 65 71 65 111c0 33 -28 50 -85 50c-67 0 -127 -15 -179 -44c-25 30 -38 67 -38 112c0 36 13 61 40 75c45 27 117 40 216 40zM208 17c-20 19 -30 45 -30 78s10 59 30 78
c19 19 48 29 85 29s66 -10 86 -29c19 -19 29 -45 29 -78s-10 -59 -29 -78c-20 -19 -49 -29 -86 -29s-66 10 -85 29z" />
    <glyph glyph-name="at" unicode="@" horiz-adv-x="1025" 
d="M749 63c41 0 77 25 108 75c31 49 46 117 46 203c0 90 -29 162 -86 217s-138 82 -242 82c-133 0 -242 -42 -326 -127c-85 -85 -127 -192 -127 -323c0 -102 33 -182 98 -240s152 -87 259 -87c86 0 165 17 237 51c13 -13 19 -29 19 -48c0 -13 -6 -23 -17 -29
c-24 -11 -59 -21 -105 -30c-47 -9 -92 -13 -137 -13c-130 0 -234 34 -313 103s-119 166 -119 292c-6 293 215 524 530 520c131 0 231 -33 302 -98c70 -66 105 -155 105 -268c0 -107 -23 -191 -69 -254s-101 -95 -165 -95s-93 24 -108 72c-33 -28 -63 -46 -90 -54
s-59 -12 -96 -12c-131 0 -204 81 -204 212c0 83 28 154 85 213c56 59 129 89 219 89c65 0 133 -17 203 -52l-59 -338l-1 -1c-5 -31 17 -60 53 -60zM530 169l37 206c-47 7 -83 -7 -108 -40c-26 -34 -39 -76 -39 -127c0 -48 21 -68 48 -68s48 10 62 29z" />
    <glyph glyph-name="A" unicode="A" horiz-adv-x="766" 
d="M314 275h138l-69 201zM-16 0l291 704h115c77 0 115 -31 143 -100l249 -604h-226l-39 110h-269l-38 -110h-226z" />
    <glyph glyph-name="B" unicode="B" horiz-adv-x="708" 
d="M444 488c0 27 -20 45 -55 45h-121v-94h118c39 0 58 16 58 49zM473 229c0 32 -28 55 -85 55h-120v-115h122c55 0 83 20 83 60zM386 0h-330v702h330c179 0 270 -77 270 -188c0 -67 -36 -119 -91 -139c72 -23 121 -80 121 -159c0 -139 -97 -216 -300 -216z" />
    <glyph glyph-name="C" unicode="C" horiz-adv-x="647" 
d="M391 531c-93 0 -139 -60 -139 -180s47 -180 141 -180c76 0 142 24 198 72c28 -31 42 -72 42 -123c0 -36 -17 -65 -51 -86c-41 -27 -119 -46 -190 -46c-241 0 -364 135 -364 363c0 227 121 363 360 363c74 0 135 -14 183 -42c34 -21 51 -49 51 -85c0 -51 -14 -93 -42 -124
c-53 45 -116 68 -189 68z" />
    <glyph glyph-name="D" unicode="D" horiz-adv-x="736" 
d="M274 521v-340h88c85 0 128 67 128 174c0 105 -48 166 -139 166h-77zM362 0h-306v702h295c233 0 357 -126 357 -347s-113 -355 -346 -355z" />
    <glyph glyph-name="E" unicode="E" horiz-adv-x="615" 
d="M441 278h-169v-99h313v-179h-529v702h528v-179h-312v-84h279v-51c0 -79 -35 -110 -110 -110z" />
    <glyph glyph-name="F" unicode="F" horiz-adv-x="580" 
d="M545 413v-169h-271v-244h-218v702h508v-179h-290v-110h271z" />
    <glyph glyph-name="G" unicode="G" horiz-adv-x="715" 
d="M467 422h210v-367c-75 -45 -166 -67 -271 -67c-248 0 -378 136 -378 363s133 363 381 363c85 0 151 -14 199 -42c34 -21 51 -49 51 -85c0 -48 -14 -89 -42 -122c-51 44 -115 66 -191 66c-116 0 -174 -60 -174 -180s52 -180 155 -180c32 0 61 4 86 11v99h-128v39
c0 75 31 102 102 102z" />
    <glyph glyph-name="H" unicode="H" horiz-adv-x="768" 
d="M276 0h-220v702h110c79 0 110 -35 110 -110v-150h216v260h220v-702h-220v259h-216v-259z" />
    <glyph glyph-name="I" unicode="I" horiz-adv-x="334" 
d="M276 0h-218v702h108c79 0 110 -35 110 -110v-592z" />
    <glyph glyph-name="J" unicode="J" horiz-adv-x="557" 
d="M185 173c67 0 100 31 100 93v436h220v-438c0 -184 -92 -276 -260 -276c-86 0 -148 12 -187 36c-32 20 -48 51 -48 93c0 39 10 80 30 121c40 -40 102 -65 145 -65z" />
    <glyph glyph-name="K" unicode="K" horiz-adv-x="737" 
d="M276 0h-220v702h110c79 0 110 -35 110 -110v-125l216 235h247l-263 -277l277 -425h-137c-66 0 -113 22 -141 65l-138 213l-61 -65v-213z" />
    <glyph glyph-name="L" unicode="L" horiz-adv-x="600" 
d="M580 0h-524v702h110c79 0 110 -35 110 -110v-409h304v-183z" />
    <glyph glyph-name="M" unicode="M" horiz-adv-x="876" 
d="M544 255l-43 -75h-126l-43 75c-17 29 -37 72 -60 129l-3 -2c5 -39 7 -88 7 -147v-235h-220v700h220l162 -283l162 283h220v-700h-220v235c0 59 2 108 7 147l-3 2c-23 -57 -43 -100 -60 -129z" />
    <glyph glyph-name="N" unicode="N" horiz-adv-x="784" 
d="M510 702h218v-702h-208l-246 369v-369h-218v702h208l246 -369v369z" />
    <glyph glyph-name="O" unicode="O" horiz-adv-x="766" 
d="M118 85c-60 64 -90 153 -90 266s30 202 90 267c60 64 148 96 265 96s205 -32 265 -96c60 -65 90 -154 90 -267s-30 -202 -90 -266c-60 -65 -148 -97 -265 -97s-205 32 -265 97zM482 219c21 32 32 76 32 132s-11 100 -32 132s-54 48 -99 48s-78 -16 -99 -48
s-32 -76 -32 -132s11 -100 32 -132s54 -48 99 -48s78 16 99 48z" />
    <glyph glyph-name="P" unicode="P" horiz-adv-x="676" 
d="M388 220h-112v-220h-220v702h320c187 0 280 -80 280 -241s-89 -241 -268 -241zM381 523h-107v-124h107c39 0 59 21 59 62c0 36 -19 62 -59 62z" />
    <glyph glyph-name="Q" unicode="Q" horiz-adv-x="766" 
d="M28 351c0 227 122 363 355 363s355 -136 355 -363c0 -205 -100 -338 -293 -359c13 -15 63 -28 108 -28c42 0 79 10 112 29c0 -81 -17 -136 -49 -161c-33 -24 -63 -30 -111 -30c-121 0 -199 77 -207 193c-179 29 -270 159 -270 356zM482 219c21 32 32 76 32 132
s-11 100 -32 132s-54 48 -99 48s-78 -16 -99 -48s-32 -76 -32 -132s11 -100 32 -132s54 -48 99 -48s78 16 99 48z" />
    <glyph glyph-name="R" unicode="R" horiz-adv-x="694" 
d="M423 85l-70 155h-77v-240h-220v702h331c188 0 280 -84 280 -235c0 -89 -37 -153 -110 -192l127 -275h-121c-75 0 -113 26 -140 85zM392 523h-118v-112h118c39 0 59 19 59 56c0 35 -20 56 -59 56z" />
    <glyph glyph-name="S" unicode="S" horiz-adv-x="646" 
d="M303 163c66 0 99 14 99 42c0 17 -17 31 -52 42c-3 1 -22 6 -57 15c-172 47 -261 118 -261 242c0 129 101 210 278 210c93 0 170 -16 233 -48c28 -14 42 -41 42 -82c0 -33 -12 -70 -35 -110c-56 41 -149 65 -225 65c-54 0 -81 -10 -81 -31c0 -22 34 -42 103 -60
c84 -23 138 -44 190 -80c52 -37 77 -90 77 -159c0 -147 -104 -221 -312 -221c-89 0 -157 11 -206 33c-44 20 -63 47 -63 91c0 37 11 79 32 127c74 -51 153 -76 238 -76z" />
    <glyph glyph-name="T" unicode="T" horiz-adv-x="654" 
d="M4 517v183h646v-183l-213 3v-520h-220v520z" />
    <glyph glyph-name="U" unicode="U" horiz-adv-x="760" 
d="M296 202c17 -21 45 -31 84 -31s68 10 85 31s25 55 25 102v398h220v-405c0 -206 -110 -309 -330 -309s-330 103 -330 309v405h110c79 0 110 -35 110 -110v-288c0 -47 9 -81 26 -102z" />
    <glyph glyph-name="V" unicode="V" horiz-adv-x="750" 
d="M267 -2l-277 704h122c87 0 119 -28 143 -100l120 -356l154 456h231l-276 -704h-217z" />
    <glyph glyph-name="W" unicode="W" horiz-adv-x="1139" 
d="M469 702h201l146 -462l106 462h223l-219 -704h-219l-138 432l-137 -432h-219l-219 704h223l106 -462z" />
    <glyph glyph-name="X" unicode="X" horiz-adv-x="774" 
d="M387 207l-136 -207h-251l264 358l-248 344h161c68 0 97 -16 128 -60l82 -132l125 190h246l-248 -341l264 -359h-159c-71 0 -109 19 -140 66z" />
    <glyph glyph-name="Y" unicode="Y" horiz-adv-x="719" 
d="M490 702h245l-266 -429v-273h-220v273l-265 429h153c68 0 102 -20 129 -69l92 -175z" />
    <glyph glyph-name="Z" unicode="Z" horiz-adv-x="632" 
d="M339 524l-302 -3v71c0 79 35 110 110 110h458v-173l-318 -351l325 3v-181h-592v173z" />
    <glyph glyph-name="bracketleft" unicode="[" horiz-adv-x="352" 
d="M60 702h282v-143h-89v-516h89v-143h-282v802z" />
    <glyph glyph-name="backslash" unicode="\" horiz-adv-x="362" 
d="M0 702h182l206 -802h-182z" />
    <glyph glyph-name="bracketright" unicode="]" horiz-adv-x="352" 
d="M99 559h-89v143h282v-802h-282v143h89v516z" />
    <glyph glyph-name="asciicircum" unicode="^" horiz-adv-x="566" 
d="M212 702h142l192 -316h-186l-77 152l-77 -152h-186z" />
    <glyph glyph-name="underscore" unicode="_" horiz-adv-x="504" 
d="M14 -191v132h476v-132h-476z" />
    <glyph glyph-name="grave" unicode="`" horiz-adv-x="400" 
d="M207 731l67 -151h-126l-156 154c35 32 77 48 126 48c45 0 74 -17 89 -51z" />
    <glyph glyph-name="a" unicode="a" horiz-adv-x="638" 
d="M376 210v82c-15 35 -43 60 -82 60c-36 0 -67 -29 -67 -101c0 -67 23 -101 70 -101c37 0 63 20 79 60zM396 502h186v-366c0 -55 11 -100 34 -136h-189c-26 11 -43 31 -51 61c-39 -49 -90 -73 -154 -73c-119 0 -196 102 -196 263c0 168 78 263 197 263
c63 0 121 -33 153 -76z" />
    <glyph glyph-name="b" unicode="b" horiz-adv-x="638" 
d="M242 0h-186v702h98c79 0 110 -35 110 -110v-151c37 49 91 73 160 73c117 0 188 -94 188 -263c0 -161 -77 -263 -196 -263c-64 0 -115 24 -154 73zM262 292v-82c16 -40 42 -60 79 -60c47 0 70 34 70 101c0 72 -31 101 -67 101c-39 0 -67 -25 -82 -60z" />
    <glyph glyph-name="c" unicode="c" horiz-adv-x="512" 
d="M101 60c-50 47 -75 111 -75 191s25 144 75 192c49 47 118 71 205 71c65 0 112 -8 141 -25c30 -17 45 -42 45 -75c0 -37 -10 -70 -30 -99c-36 32 -76 48 -121 48c-70 0 -105 -37 -105 -112s35 -112 105 -112c47 0 90 17 127 50c20 -29 30 -62 30 -99
c0 -34 -15 -59 -45 -75c-32 -18 -81 -27 -147 -27c-87 0 -156 24 -205 72z" />
    <glyph glyph-name="d" unicode="d" horiz-adv-x="638" 
d="M376 210v82c-15 35 -43 60 -82 60c-36 0 -67 -29 -67 -101c0 -67 23 -101 70 -101c37 0 63 20 79 60zM582 592v-456c0 -55 11 -100 34 -136h-189c-26 11 -43 31 -51 61c-39 -49 -90 -73 -154 -73c-119 0 -196 102 -196 263c0 168 78 263 197 263c63 0 119 -32 151 -73
v261h98c79 0 110 -35 110 -110z" />
    <glyph glyph-name="e" unicode="e" horiz-adv-x="567" 
d="M354 131c49 0 95 17 136 51c19 -25 29 -55 29 -90c-3 -43 -16 -52 -37 -66c-37 -25 -89 -38 -155 -38c-91 0 -163 23 -218 68s-83 110 -83 195c0 78 27 141 81 190c53 49 119 73 197 73c77 0 136 -22 178 -66c42 -45 63 -101 63 -169v-67h-320c12 -54 55 -81 129 -81z
M312 377c-45 0 -74 -25 -86 -75h151c0 41 -21 75 -65 75z" />
    <glyph glyph-name="f" unicode="f" horiz-adv-x="487" 
d="M304 502h147v-145l-141 4v-361h-202v360l-100 -3v145h106c0 139 77 212 216 212c51 0 92 -9 124 -26c19 -11 29 -30 29 -57c0 -25 -6 -51 -19 -78c-29 14 -58 21 -88 21c-52 0 -72 -31 -72 -72z" />
    <glyph glyph-name="g" unicode="g" horiz-adv-x="591" 
d="M226 103h86c152 0 228 -51 228 -153c0 -107 -94 -161 -266 -161c-160 0 -252 59 -252 163c0 53 22 91 66 114c-22 16 -33 39 -33 70c0 25 11 47 33 64c-35 35 -52 76 -52 125c0 119 82 189 241 189c53 0 98 -9 135 -28c39 25 80 38 121 38c47 0 70 -22 70 -66
c0 -25 -5 -49 -14 -72c-20 14 -49 19 -87 15c11 -22 16 -47 16 -76c0 -119 -82 -189 -241 -189c-31 0 -60 3 -85 9c-3 -5 -4 -9 -4 -14c0 -12 13 -28 38 -28zM277 374c-43 0 -65 -16 -65 -49s22 -49 65 -49s65 16 65 49s-22 49 -65 49zM316 -7h-76c-35 0 -52 -12 -52 -35
c0 -24 37 -39 90 -39c64 0 96 13 96 39c0 23 -19 35 -58 35z" />
    <glyph glyph-name="h" unicode="h" horiz-adv-x="646" 
d="M388 110v185c0 35 -14 52 -43 52c-27 0 -54 -18 -81 -55v-292h-208v702h98c79 0 110 -35 110 -110v-151c47 49 103 73 167 73c110 0 165 -69 165 -206v-308h-98c-79 0 -110 35 -110 110z" />
    <glyph glyph-name="i" unicode="i" horiz-adv-x="318" 
d="M159 722c-77 0 -117 -27 -117 -94s40 -94 117 -94c78 0 117 31 117 94s-39 94 -117 94zM262 0h-206v502h96c79 0 110 -35 110 -110v-392z" />
    <glyph glyph-name="j" unicode="j" horiz-adv-x="318" 
d="M159 722c-77 0 -117 -27 -117 -94s40 -94 117 -94c78 0 117 31 117 94s-39 94 -117 94zM56 -200v702h96c79 0 110 -35 110 -110v-482c0 -75 -31 -110 -110 -110h-96z" />
    <glyph glyph-name="k" unicode="k" horiz-adv-x="639" 
d="M264 196v-196h-208v702h98c79 0 110 -35 110 -110v-244c3 0 16 0 17 1l133 153h223l-138 -154c-24 -26 -46 -45 -66 -58c35 -20 58 -61 67 -91c8 -30 28 -57 61 -57c20 0 37 9 52 28c13 -25 20 -51 20 -78c0 -68 -45 -104 -109 -104c-115 0 -148 77 -170 137
c-16 41 -34 75 -66 75c-9 0 -17 -1 -24 -4z" />
    <glyph glyph-name="l" unicode="l" horiz-adv-x="318" 
d="M262 592v-592h-206v702h96c79 0 110 -35 110 -110z" />
    <glyph glyph-name="m" unicode="m" horiz-adv-x="933" 
d="M570 292v-292h-205v303c0 29 -12 44 -36 44c-27 0 -51 -18 -72 -55v-292h-205v502h124c45 0 72 -22 81 -66c41 52 94 78 158 78c73 0 120 -31 141 -93c46 62 103 93 172 93c107 0 155 -63 155 -192v-322h-95c-79 0 -110 35 -110 110v193c0 29 -12 44 -36 44
c-27 0 -51 -18 -72 -55z" />
    <glyph glyph-name="n" unicode="n" horiz-adv-x="642" 
d="M52 0v502h127c45 0 72 -22 81 -66c51 52 106 78 167 78c110 0 165 -69 165 -206v-308h-98c-79 0 -110 35 -110 110v185c0 35 -14 52 -43 52c-27 0 -54 -18 -81 -55v-292h-208z" />
    <glyph glyph-name="o" unicode="o" horiz-adv-x="606" 
d="M303 369c-45 0 -67 -39 -67 -118s22 -118 67 -118s67 39 67 118s-22 118 -67 118zM100 59c-49 47 -74 111 -74 192s25 145 74 192s116 71 203 71s155 -24 204 -71s73 -111 73 -192s-24 -145 -73 -192s-117 -71 -204 -71s-154 24 -203 71z" />
    <glyph glyph-name="p" unicode="p" horiz-adv-x="634" 
d="M258 288v-78c16 -40 42 -60 79 -60c47 0 70 34 70 101c0 72 -31 101 -67 101c-39 0 -67 -28 -82 -64zM260 436c28 44 88 78 157 78c113 0 191 -96 191 -263c0 -161 -77 -263 -196 -263c-64 0 -115 24 -154 73v-261h-206v702h127c45 0 72 -22 81 -66z" />
    <glyph glyph-name="q" unicode="q" horiz-adv-x="634" 
d="M376 210v82c-15 35 -43 60 -82 60c-36 0 -67 -29 -67 -101c0 -67 23 -101 70 -101c37 0 63 20 79 60zM376 440l20 62h186v-702h-206v261c-39 -49 -90 -73 -154 -73c-119 0 -196 102 -196 263c0 168 78 263 197 263c63 0 121 -33 153 -74z" />
    <glyph glyph-name="r" unicode="r" horiz-adv-x="501" 
d="M260 426c33 59 82 88 145 88c61 0 92 -36 92 -107c0 -35 -10 -70 -31 -107c-24 21 -53 32 -88 32c-41 0 -81 -14 -118 -42v-290h-208v502h117c50 0 80 -25 91 -76z" />
    <glyph glyph-name="s" unicode="s" horiz-adv-x="508" 
d="M245 129c29 0 43 7 43 20c0 16 -17 21 -69 36c-51 14 -61 16 -105 36c-21 9 -36 19 -47 30c-21 21 -41 58 -41 103c0 108 90 160 227 160c70 0 126 -10 169 -31c28 -13 42 -35 42 -66c0 -33 -9 -64 -27 -94c-51 33 -107 50 -170 50c-30 0 -45 -7 -45 -20
c0 -18 34 -22 67 -33c65 -17 97 -29 137 -53c40 -25 58 -62 58 -114c0 -109 -83 -165 -234 -165c-72 0 -129 9 -172 27c-35 15 -52 41 -52 78c0 34 10 64 31 91c48 -33 124 -55 188 -55z" />
    <glyph glyph-name="t" unicode="t" horiz-adv-x="476" 
d="M98 360l-90 -3v145h95c5 17 12 50 22 97s17 78 21 93h154v-190h150v-146l-150 4v-166c0 -39 16 -52 57 -52c32 0 60 9 83 28c13 -20 20 -50 20 -89c0 -43 -21 -56 -44 -71c-25 -15 -68 -22 -130 -22c-113 0 -188 55 -188 191v181z" />
    <glyph glyph-name="u" unicode="u" horiz-adv-x="638" 
d="M376 502h208v-366c0 -55 11 -100 34 -136h-188c-24 9 -49 37 -54 66c-43 -52 -95 -78 -156 -78c-109 0 -170 67 -170 206v308h98c79 0 110 -35 110 -110v-185c0 -35 14 -52 43 -52s54 18 75 53v294z" />
    <glyph glyph-name="v" unicode="v" horiz-adv-x="592" 
d="M403 0h-214l-199 502h213l93 -316l93 316h213z" />
    <glyph glyph-name="w" unicode="w" horiz-adv-x="898" 
d="M697 502h205l-161 -502h-209l-83 283l-83 -283h-209l-161 502h205l71 -316l95 316h164l95 -316z" />
    <glyph glyph-name="x" unicode="x" horiz-adv-x="611" 
d="M411 256l204 -256h-155c-47 0 -83 19 -109 58l-46 69l-83 -127h-226l202 256l-193 246h151c47 0 83 -19 109 -58l40 -60l78 118h223z" />
    <glyph glyph-name="y" unicode="y" horiz-adv-x="592" 
d="M190 -10l3 10l-203 502h213l93 -316l93 316h213l-225 -566c-41 -104 -105 -147 -197 -147c-79 0 -132 29 -132 96c0 34 8 62 25 84c17 -14 35 -21 56 -21c33 0 54 14 61 42z" />
    <glyph glyph-name="z" unicode="z" horiz-adv-x="506" 
d="M253 359l-229 -2v50c0 63 34 95 103 95h352v-135l-230 -224l233 2v-145h-458v135z" />
    <glyph glyph-name="braceleft" unicode="{" horiz-adv-x="391" 
d="M48 230h-18v142h18c26 0 41 15 44 46l14 128c12 104 68 156 203 156h72v-133l-55 -8c-26 -4 -40 -18 -42 -43l-7 -95c-5 -59 -38 -107 -83 -122c45 -15 78 -63 83 -122l7 -95c2 -25 16 -39 42 -43l55 -8v-133h-72c-135 0 -191 52 -203 156l-14 128c-3 31 -18 46 -44 46z
" />
    <glyph glyph-name="bar" unicode="|" horiz-adv-x="295" 
d="M235 -100h-175v802h175v-802z" />
    <glyph glyph-name="braceright" unicode="}" horiz-adv-x="391" 
d="M343 372h18v-142h-18c-26 0 -41 -15 -44 -46l-14 -128c-12 -104 -68 -156 -203 -156h-72v133l55 8c26 4 40 18 42 43l7 95c5 59 38 107 83 122c-45 15 -78 63 -83 122l-7 95c-2 25 -16 39 -42 43l-55 8v133h72c135 0 191 -52 203 -156l14 -128c3 -31 18 -46 44 -46z" />
    <glyph glyph-name="asciitilde" unicode="~" horiz-adv-x="638" 
d="M231 462c26 0 58 -9 95 -27s64 -27 81 -27c34 0 65 23 92 68l109 -63c-20 -49 -48 -91 -84 -125c-37 -34 -76 -51 -117 -51c-26 0 -57 9 -94 27s-65 27 -82 27c-34 0 -65 -23 -92 -68l-109 63c20 49 48 91 85 125c36 34 75 51 116 51z" />
    <glyph glyph-name="uni00A0" unicode="&#xa0;" horiz-adv-x="240" 
 />
    <glyph glyph-name="exclamdown" unicode="&#xa1;" horiz-adv-x="318" 
d="M274 -200h-230l30 454h170zM245 485c19 -19 29 -45 29 -78s-10 -59 -29 -78c-20 -19 -49 -29 -86 -29s-66 10 -85 29c-20 19 -30 45 -30 78s10 59 30 78c19 19 48 29 85 29s66 -10 86 -29z" />
    <glyph glyph-name="cent" unicode="&#xa2;" 
d="M468 -100h-103v88c-168 5 -268 106 -268 263c0 156 100 258 268 263v87h103v-95c19 -4 36 -10 50 -17c30 -17 45 -42 45 -75c0 -37 -10 -70 -30 -99c-21 19 -43 32 -65 39v-207c25 8 49 22 71 42c20 -29 30 -62 30 -99c0 -34 -15 -59 -45 -75c-17 -9 -35 -15 -56 -19v-96
zM365 147v208c-39 -15 -58 -49 -58 -104s19 -89 58 -104z" />
    <glyph glyph-name="sterling" unicode="&#xa3;" 
d="M173 288h-121v103h72c-24 42 -36 83 -36 122c0 61 25 110 75 147c50 36 117 54 200 54c89 0 156 -13 199 -38c30 -19 45 -43 45 -73c0 -33 -13 -73 -38 -120c-46 32 -104 48 -175 48c-61 0 -91 -21 -91 -62c0 -30 6 -56 18 -78h163v-103h-121v-2c1 -39 -23 -78 -72 -115
h330v-171h-570v161c71 13 124 58 124 109c0 4 -1 10 -2 18z" />
    <glyph glyph-name="currency" unicode="&#xa4;" horiz-adv-x="544" 
d="M232 348c-21 -25 -21 -71 0 -95c20 -25 60 -25 81 0c20 24 20 70 0 95c-21 24 -61 24 -81 0zM40 183l40 39c-26 42 -26 114 0 156l-40 39l113 113l44 -45c19 11 44 16 75 16s56 -5 75 -16l44 45l113 -113l-40 -39c26 -42 26 -114 0 -156l40 -39l-113 -113l-44 45
c-19 -11 -44 -16 -75 -16s-56 5 -75 16l-44 -45z" />
    <glyph glyph-name="yen" unicode="&#xa5;" 
d="M224 206h-160v103h150l-32 58h-118v103h52l-127 232h133c69 0 108 -18 129 -69l82 -215l122 284h225l-128 -232h53v-103h-119l-32 -58h150v-103h-160v-206h-220v206z" />
    <glyph glyph-name="brokenbar" unicode="&#xa6;" horiz-adv-x="314" 
d="M60 702h194v-341h-194v341zM60 241h194v-341h-194v341z" />
    <glyph glyph-name="section" unicode="&#xa7;" 
d="M323 -44c27 0 41 8 41 24c0 12 -4 21 -20 30c-17 9 -21 10 -53 22c-50 19 -96 50 -139 91s-65 88 -65 139c0 57 38 109 93 132c-40 31 -68 84 -68 137c0 62 21 108 64 138c42 30 96 45 161 45c72 0 133 -11 184 -32c32 -13 44 -33 44 -73c0 -25 -12 -72 -27 -99
c-51 25 -112 37 -183 37c-25 0 -38 -7 -38 -21c0 -17 19 -32 58 -47c147 -60 220 -137 220 -230c0 -27 -9 -50 -32 -75s-30 -31 -61 -58c45 -31 67 -74 67 -129c0 -117 -85 -198 -237 -198c-83 0 -145 10 -185 30c-32 15 -48 41 -48 77c0 39 8 76 23 112
c61 -44 121 -52 201 -52zM275 264c0 -25 28 -52 85 -81c31 23 47 45 47 65c0 21 -30 47 -91 76c-27 -21 -41 -41 -41 -60z" />
    <glyph glyph-name="dieresis" unicode="&#xa8;" horiz-adv-x="400" 
d="M-9 708c18 16 44 24 77 24s59 -8 77 -24s27 -39 27 -70s-9 -54 -27 -70s-44 -24 -77 -24s-59 8 -77 24s-27 39 -27 70s9 54 27 70zM255 708c18 16 44 24 77 24s59 -8 77 -24s27 -39 27 -70s-9 -54 -27 -70s-44 -24 -77 -24s-59 8 -77 24s-27 39 -27 70s9 54 27 70z" />
    <glyph glyph-name="copyright" unicode="&#xa9;" horiz-adv-x="836" 
d="M584 20c-48 -19 -103 -29 -166 -29s-118 10 -165 29c-96 38 -150 108 -177 193c-28 84 -28 190 0 275c27 84 81 155 177 193c47 19 102 28 165 28s118 -9 166 -28c95 -38 149 -109 177 -193c27 -85 27 -191 0 -275c-28 -85 -82 -155 -177 -193zM280 73
c39 -17 85 -25 138 -25s99 8 139 25c79 32 121 93 143 163s22 159 0 229s-64 130 -143 163c-40 16 -86 24 -139 24s-99 -8 -138 -24c-80 -33 -121 -93 -143 -163s-22 -159 0 -229s63 -131 143 -163zM290 214c-35 34 -52 80 -52 139s17 105 52 139c34 34 81 51 142 51
c40 0 74 -6 101 -18c19 -8 28 -24 28 -48c0 -20 -5 -39 -16 -57c-31 20 -64 30 -99 30c-61 0 -91 -32 -91 -97s32 -98 96 -98c31 0 65 11 100 34c11 -18 16 -37 16 -58s-9 -37 -28 -48c-27 -14 -61 -21 -104 -21c-62 0 -110 17 -145 52z" />
    <glyph glyph-name="ordfeminine" unicode="&#xaa;" horiz-adv-x="357" 
d="M343 397h-112c-13 6 -23 16 -30 29c-19 -23 -46 -34 -79 -34c-51 0 -96 33 -96 97c0 76 53 102 153 102h17c-2 16 -15 24 -38 24c-36 0 -68 -9 -96 -26c-14 19 -21 38 -21 56c0 19 7 32 22 39h-1c27 15 64 22 111 22c97 0 146 -41 146 -124v-100c0 -31 8 -60 24 -85z
M164 485c15 0 25 5 32 16v24h-18c-21 0 -32 -8 -32 -24c0 -11 6 -16 18 -16z" />
    <glyph glyph-name="guillemotleft" unicode="&#xab;" horiz-adv-x="784" 
d="M196 33l-176 225l176 224h216l-176 -224l176 -225h-216zM528 33l-176 225l176 224h216l-176 -224l176 -225h-216z" />
    <glyph glyph-name="logicalnot" unicode="&#xac;" horiz-adv-x="588" 
d="M30 300v176h498v-321h-208v145h-290z" />
    <glyph glyph-name="uni00AD" unicode="&#xad;" horiz-adv-x="320" 
d="M320 382v-184h-320v184h320z" />
    <glyph glyph-name="registered" unicode="&#xae;" horiz-adv-x="508" 
d="M110 396c-33 35 -50 78 -50 129s17 94 50 129s81 53 144 53s112 -18 145 -53s49 -78 49 -129s-16 -94 -49 -129s-82 -53 -145 -53s-111 18 -144 53zM369 421c24 27 36 61 36 104s-12 77 -36 104c-25 27 -63 40 -115 40s-90 -13 -114 -40c-25 -27 -37 -61 -37 -104
s12 -77 37 -104c24 -27 62 -40 114 -40s90 13 115 40zM277 445l-21 50h-18v-75h-62v204h85c53 0 80 -21 80 -64c0 -27 -11 -45 -32 -54l44 -86h-36c-19 0 -32 8 -40 25zM266 574h-28v-32h28c11 0 17 6 17 17c0 10 -6 15 -17 15z" />
    <glyph glyph-name="overscore" unicode="&#xaf;" horiz-adv-x="400" 
d="M398 580h-396v118h396v-118z" />
    <glyph glyph-name="degree" unicode="&#xb0;" horiz-adv-x="360" 
d="M138 624c-22 -24 -22 -66 0 -90s63 -24 85 0s22 66 0 90s-63 24 -85 0zM79 481c-26 25 -39 58 -39 98s13 73 39 98c25 25 59 38 101 38s76 -13 102 -38c25 -25 38 -58 38 -98s-13 -73 -38 -98c-26 -25 -60 -38 -102 -38s-76 13 -101 38z" />
    <glyph glyph-name="plusminus" unicode="&#xb1;" 
d="M417 175h-165v182h-188v157h188v181h165v-181h187v-157h-187v-182zM64 0v112h540v-112h-540z" />
    <glyph glyph-name="twosuperior" unicode="&#xb2;" horiz-adv-x="288" 
d="M262 488v-88h-240v78c71 32 131 80 131 123c0 17 -9 26 -27 26c-25 0 -52 -8 -79 -23c-15 18 -22 37 -22 56c0 15 6 26 17 33c23 14 57 21 102 21c73 0 111 -40 111 -100c0 -47 -29 -90 -86 -127z" />
    <glyph glyph-name="threesuperior" unicode="&#xb3;" horiz-adv-x="294" 
d="M129 482c26 0 39 9 39 28c0 15 -12 22 -37 22h-47l-19 46l67 45l-105 -1v87h227v-79l-62 -39c52 -13 78 -43 78 -91c0 -69 -52 -105 -132 -105c-43 0 -75 7 -98 21c-12 9 -18 21 -18 37c0 21 6 40 18 59c26 -20 56 -30 89 -30z" />
    <glyph glyph-name="acute" unicode="&#xb4;" horiz-adv-x="400" 
d="M408 734l-156 -154h-126l67 151c15 34 44 51 89 51c49 0 91 -16 126 -48z" />
    <glyph glyph-name="mu" unicode="&#xb5;" horiz-adv-x="640" 
d="M260 -200h-208v702h98c79 0 110 -35 110 -110v-185c0 -35 14 -52 43 -52s54 18 75 53v294h208v-366c0 -55 11 -100 34 -136h-188c-24 9 -49 37 -54 66c-35 -42 -74 -67 -118 -74v-192z" />
    <glyph glyph-name="paragraph" unicode="&#xb6;" horiz-adv-x="607" 
d="M567 587h-88v-590c0 -141 -71 -208 -238 -208c-43 0 -77 7 -103 21c-22 13 -33 38 -33 75c0 29 7 60 22 91c27 -19 56 -28 85 -28c51 0 62 26 62 69v260c-151 5 -234 72 -234 229c0 149 84 224 252 224h275v-143zM278 587h-63v-175h63v175z" />
    <glyph glyph-name="middot" unicode="&#xb7;" horiz-adv-x="318" 
d="M74 193c-20 19 -30 45 -30 78s10 59 30 78c19 19 48 29 85 29s66 -10 86 -29c19 -19 29 -45 29 -78s-10 -59 -29 -78c-20 -19 -49 -29 -86 -29s-66 10 -85 29z" />
    <glyph glyph-name="cedilla" unicode="&#xb8;" horiz-adv-x="400" 
d="M42 -207l120 161h116l-47 -151c-11 -34 -39 -51 -85 -51c-45 0 -80 14 -104 41z" />
    <glyph glyph-name="onesuperior" unicode="&#xb9;" horiz-adv-x="280" 
d="M97 486v112l-43 -25l-34 61l92 76h88v-224l64 1v-87h-233v87z" />
    <glyph glyph-name="ordmasculine" unicode="&#xba;" horiz-adv-x="381" 
d="M158 548c0 -41 11 -62 33 -62c21 0 32 21 32 62c0 42 -11 63 -32 63c-22 0 -33 -21 -33 -63zM25 548c0 97 61 158 166 158c104 0 165 -61 165 -158c0 -96 -61 -158 -165 -158s-166 62 -166 158z" />
    <glyph glyph-name="guillemotright" unicode="&#xbb;" horiz-adv-x="784" 
d="M372 482h216l176 -224l-176 -225h-216l176 225zM40 482h216l176 -224l-176 -225h-216l176 225z" />
    <glyph glyph-name="onequarter" unicode="&#xbc;" horiz-adv-x="840" 
d="M524 702h156l-364 -702h-156zM127 598v-112l-66 1v-87h233v87l-64 -1v224h-88l-92 -76l34 -61zM774 55v82h-42v173h-93l-144 -180v-75h136v-55h101v55h42zM631 137h-34l34 43v-43z" />
    <glyph glyph-name="onehalf" unicode="&#xbd;" horiz-adv-x="840" 
d="M524 702h156l-364 -702h-156zM127 598v-112l-66 1v-87h233v87l-64 -1v224h-88l-92 -76l34 -61zM770 0v88l-93 -1c57 37 86 80 86 127c0 60 -38 100 -111 100c-45 0 -79 -7 -102 -21c-11 -7 -17 -18 -17 -33c0 -19 7 -38 22 -56c27 15 54 23 79 23c18 0 27 -9 27 -26
c0 -43 -60 -91 -131 -123v-78h240z" />
    <glyph glyph-name="threequarters" unicode="&#xbe;" horiz-adv-x="840" 
d="M680 702h-156l-364 -702h156zM774 137v-82h-42v-55h-101v55h-136v75l144 180h93v-173h42zM597 137h34v43zM159 482c26 0 39 9 39 28c0 15 -12 22 -37 22h-47l-19 46l67 45l-105 -1v87h227v-79l-62 -39c52 -13 78 -43 78 -91c0 -69 -52 -105 -132 -105c-43 0 -75 7 -98 21
c-12 9 -18 21 -18 37c0 21 6 40 18 59c26 -20 56 -30 89 -30z" />
    <glyph glyph-name="questiondown" unicode="&#xbf;" horiz-adv-x="576" 
d="M292 -212c-165 0 -266 75 -266 184c0 147 157 180 164 282h188c-1 -47 -34 -94 -66 -122c-33 -28 -66 -71 -66 -111c0 -33 28 -50 85 -50c67 0 127 15 179 44c25 -30 38 -67 38 -112c0 -36 -13 -61 -40 -75c-45 -27 -117 -40 -216 -40zM369 485c19 -19 29 -45 29 -78
s-10 -59 -29 -78c-20 -19 -49 -29 -86 -29s-66 10 -85 29c-20 19 -30 45 -30 78s10 59 30 78c19 19 48 29 85 29s66 -10 86 -29z" />
    <glyph glyph-name="Agrave" unicode="&#xc0;" horiz-adv-x="766" 
d="M383 476l-69 -201h138zM390 704c77 0 115 -31 143 -100l249 -604h-226l-39 110h-269l-38 -110h-226l291 704h115zM484 780l-67 151c-15 34 -44 51 -89 51c-49 0 -91 -16 -126 -48l156 -154h126z" />
    <glyph glyph-name="Aacute" unicode="&#xc1;" horiz-adv-x="766" 
d="M383 476l-69 -201h138zM390 704c77 0 115 -31 143 -100l249 -604h-226l-39 110h-269l-38 -110h-226l291 704h115zM408 780l156 154c-35 32 -77 48 -126 48c-45 0 -74 -17 -89 -51l-67 -151h126z" />
    <glyph glyph-name="Acircumflex" unicode="&#xc2;" horiz-adv-x="766" 
d="M383 476l-69 -201h138zM390 704c77 0 115 -31 143 -100l249 -604h-226l-39 110h-269l-38 -110h-226l291 704h115zM322 965l-156 -185h138l80 73l80 -73h136l-117 144c-25 31 -42 41 -85 41h-76z" />
    <glyph glyph-name="Atilde" unicode="&#xc3;" horiz-adv-x="766" 
d="M383 476l-69 -201h138zM390 704c77 0 115 -31 143 -100l249 -604h-226l-39 110h-269l-38 -110h-226l291 704h115zM307 952c-89 0 -158 -60 -158 -172h110c3 27 20 47 45 47c12 0 35 -9 70 -26c34 -18 62 -27 85 -27c89 0 158 60 158 172h-110c-3 -27 -20 -47 -45 -47
c-12 0 -35 9 -69 27c-35 17 -63 26 -86 26z" />
    <glyph glyph-name="Adieresis" unicode="&#xc4;" horiz-adv-x="766" 
d="M383 476l-69 -201h138zM390 704c77 0 115 -31 143 -100l249 -604h-226l-39 110h-269l-38 -110h-226l291 704h115zM174 908c-18 -16 -27 -39 -27 -70s9 -54 27 -70s44 -24 77 -24s59 8 77 24s27 39 27 70s-9 54 -27 70s-44 24 -77 24s-59 -8 -77 -24zM438 908
c-18 -16 -27 -39 -27 -70s9 -54 27 -70s44 -24 77 -24s59 8 77 24s27 39 27 70s-9 54 -27 70s-44 24 -77 24s-59 -8 -77 -24z" />
    <glyph glyph-name="Aring" unicode="&#xc5;" horiz-adv-x="766" 
d="M383 476l-69 -201h138zM390 704c77 0 115 -31 143 -100l249 -604h-226l-39 110h-269l-38 -110h-226l291 704h115zM383 910c21 0 32 -11 32 -34s-11 -34 -32 -34s-32 11 -32 34s11 34 32 34zM294 792c23 -21 52 -31 89 -31s66 10 89 31s34 49 34 84s-11 63 -34 84
s-52 31 -89 31s-66 -10 -89 -31s-34 -49 -34 -84s11 -63 34 -84z" />
    <glyph glyph-name="AE" unicode="&#xc6;" horiz-adv-x="997" 
d="M813 278h-149v-99h293v-179h-509v111h-177l-75 -111h-216l475 702h501v-179h-292v-84h259v-51c0 -79 -35 -110 -110 -110zM448 246v150l-86 -150h86z" />
    <glyph glyph-name="Ccedilla" unicode="&#xc7;" horiz-adv-x="647" 
d="M391 531c-93 0 -139 -60 -139 -180s47 -180 141 -180c76 0 142 24 198 72c28 -31 42 -72 42 -123c0 -36 -17 -65 -51 -86c-41 -27 -119 -46 -190 -46c-241 0 -364 135 -364 363c0 227 121 363 360 363c74 0 135 -14 183 -42c34 -21 51 -49 51 -85c0 -51 -14 -93 -42 -124
c-53 45 -116 68 -189 68zM205 -207l120 161h116l-47 -151c-11 -34 -39 -51 -85 -51c-45 0 -80 14 -104 41z" />
    <glyph glyph-name="Egrave" unicode="&#xc8;" horiz-adv-x="615" 
d="M272 278v-99h313v-179h-529v702h528v-179h-312v-84h279v-51c0 -79 -35 -110 -110 -110h-169zM448 780l-67 151c-15 34 -44 51 -89 51c-49 0 -91 -16 -126 -48l156 -154h126z" />
    <glyph glyph-name="Eacute" unicode="&#xc9;" horiz-adv-x="615" 
d="M272 278v-99h313v-179h-529v702h528v-179h-312v-84h279v-51c0 -79 -35 -110 -110 -110h-169zM362 780l156 154c-35 32 -77 48 -126 48c-45 0 -74 -17 -89 -51l-67 -151h126z" />
    <glyph glyph-name="Ecircumflex" unicode="&#xca;" horiz-adv-x="615" 
d="M272 278v-99h313v-179h-529v702h528v-179h-312v-84h279v-51c0 -79 -35 -110 -110 -110h-169zM246 965l-156 -185h138l80 73l80 -73h136l-117 144c-25 31 -42 41 -85 41h-76z" />
    <glyph glyph-name="Edieresis" unicode="&#xcb;" horiz-adv-x="615" 
d="M272 278v-99h313v-179h-529v702h528v-179h-312v-84h279v-51c0 -79 -35 -110 -110 -110h-169zM98 908c-18 -16 -27 -39 -27 -70s9 -54 27 -70s44 -24 77 -24s59 8 77 24s27 39 27 70s-9 54 -27 70s-44 24 -77 24s-59 -8 -77 -24zM362 908c-18 -16 -27 -39 -27 -70
s9 -54 27 -70s44 -24 77 -24s59 8 77 24s27 39 27 70s-9 54 -27 70s-44 24 -77 24s-59 -8 -77 -24z" />
    <glyph glyph-name="Igrave" unicode="&#xcc;" horiz-adv-x="334" 
d="M58 702h108c79 0 110 -35 110 -110v-592h-218v702zM268 780l-67 151c-15 34 -44 51 -89 51c-49 0 -91 -16 -126 -48l156 -154h126z" />
    <glyph glyph-name="Iacute" unicode="&#xcd;" horiz-adv-x="334" 
d="M58 702h108c79 0 110 -35 110 -110v-592h-218v702zM192 780l156 154c-35 32 -77 48 -126 48c-45 0 -74 -17 -89 -51l-67 -151h126z" />
    <glyph glyph-name="Icircumflex" unicode="&#xce;" horiz-adv-x="334" 
d="M58 702h108c79 0 110 -35 110 -110v-592h-218v702zM106 965l-156 -185h138l80 73l80 -73h136l-117 144c-25 31 -42 41 -85 41h-76z" />
    <glyph glyph-name="Idieresis" unicode="&#xcf;" horiz-adv-x="334" 
d="M58 702h108c79 0 110 -35 110 -110v-592h-218v702zM-42 908c-18 -16 -27 -39 -27 -70s9 -54 27 -70s44 -24 77 -24s59 8 77 24s27 39 27 70s-9 54 -27 70s-44 24 -77 24s-59 -8 -77 -24zM222 908c-18 -16 -27 -39 -27 -70s9 -54 27 -70s44 -24 77 -24s59 8 77 24
s27 39 27 70s-9 54 -27 70s-44 24 -77 24s-59 -8 -77 -24z" />
    <glyph glyph-name="Eth" unicode="&#xd0;" horiz-adv-x="746" 
d="M66 278h-66v103h66v321h295c233 0 357 -126 357 -347s-113 -355 -346 -355h-306v278zM284 278v-97h88c85 0 128 67 128 174c0 105 -48 166 -139 166h-77v-140h128v-103h-128z" />
    <glyph glyph-name="Ntilde" unicode="&#xd1;" horiz-adv-x="784" 
d="M728 0h-208l-246 369v-369h-218v702h208l246 -369v369h218v-702zM316 952c-89 0 -158 -60 -158 -172h110c3 27 20 47 45 47c12 0 35 -9 70 -26c34 -18 62 -27 85 -27c89 0 158 60 158 172h-110c-3 -27 -20 -47 -45 -47c-12 0 -35 9 -69 27c-35 17 -63 26 -86 26z" />
    <glyph glyph-name="Ograve" unicode="&#xd2;" horiz-adv-x="766" 
d="M118 618c60 64 148 96 265 96s205 -32 265 -96c60 -65 90 -154 90 -267s-30 -202 -90 -266c-60 -65 -148 -97 -265 -97s-205 32 -265 97c-60 64 -90 153 -90 266s30 202 90 267zM482 483c-21 32 -54 48 -99 48s-78 -16 -99 -48s-32 -76 -32 -132s11 -100 32 -132
s54 -48 99 -48s78 16 99 48s32 76 32 132s-11 100 -32 132zM484 780l-67 151c-15 34 -44 51 -89 51c-49 0 -91 -16 -126 -48l156 -154h126z" />
    <glyph glyph-name="Oacute" unicode="&#xd3;" horiz-adv-x="766" 
d="M118 618c60 64 148 96 265 96s205 -32 265 -96c60 -65 90 -154 90 -267s-30 -202 -90 -266c-60 -65 -148 -97 -265 -97s-205 32 -265 97c-60 64 -90 153 -90 266s30 202 90 267zM482 483c-21 32 -54 48 -99 48s-78 -16 -99 -48s-32 -76 -32 -132s11 -100 32 -132
s54 -48 99 -48s78 16 99 48s32 76 32 132s-11 100 -32 132zM408 780l156 154c-35 32 -77 48 -126 48c-45 0 -74 -17 -89 -51l-67 -151h126z" />
    <glyph glyph-name="Ocircumflex" unicode="&#xd4;" horiz-adv-x="766" 
d="M118 618c60 64 148 96 265 96s205 -32 265 -96c60 -65 90 -154 90 -267s-30 -202 -90 -266c-60 -65 -148 -97 -265 -97s-205 32 -265 97c-60 64 -90 153 -90 266s30 202 90 267zM482 483c-21 32 -54 48 -99 48s-78 -16 -99 -48s-32 -76 -32 -132s11 -100 32 -132
s54 -48 99 -48s78 16 99 48s32 76 32 132s-11 100 -32 132zM322 965l-156 -185h138l80 73l80 -73h136l-117 144c-25 31 -42 41 -85 41h-76z" />
    <glyph glyph-name="Otilde" unicode="&#xd5;" horiz-adv-x="766" 
d="M118 618c60 64 148 96 265 96s205 -32 265 -96c60 -65 90 -154 90 -267s-30 -202 -90 -266c-60 -65 -148 -97 -265 -97s-205 32 -265 97c-60 64 -90 153 -90 266s30 202 90 267zM482 483c-21 32 -54 48 -99 48s-78 -16 -99 -48s-32 -76 -32 -132s11 -100 32 -132
s54 -48 99 -48s78 16 99 48s32 76 32 132s-11 100 -32 132zM307 952c-89 0 -158 -60 -158 -172h110c3 27 20 47 45 47c12 0 35 -9 70 -26c34 -18 62 -27 85 -27c89 0 158 60 158 172h-110c-3 -27 -20 -47 -45 -47c-12 0 -35 9 -69 27c-35 17 -63 26 -86 26z" />
    <glyph glyph-name="Odieresis" unicode="&#xd6;" horiz-adv-x="766" 
d="M118 618c60 64 148 96 265 96s205 -32 265 -96c60 -65 90 -154 90 -267s-30 -202 -90 -266c-60 -65 -148 -97 -265 -97s-205 32 -265 97c-60 64 -90 153 -90 266s30 202 90 267zM482 483c-21 32 -54 48 -99 48s-78 -16 -99 -48s-32 -76 -32 -132s11 -100 32 -132
s54 -48 99 -48s78 16 99 48s32 76 32 132s-11 100 -32 132zM174 908c-18 -16 -27 -39 -27 -70s9 -54 27 -70s44 -24 77 -24s59 8 77 24s27 39 27 70s-9 54 -27 70s-44 24 -77 24s-59 -8 -77 -24zM438 908c-18 -16 -27 -39 -27 -70s9 -54 27 -70s44 -24 77 -24s59 8 77 24
s27 39 27 70s-9 54 -27 70s-44 24 -77 24s-59 -8 -77 -24z" />
    <glyph glyph-name="multiply" unicode="&#xd7;" 
d="M61 445l123 122l150 -155l151 155l123 -122l-155 -151l155 -151l-122 -123l-152 155l-151 -155l-122 123l155 151z" />
    <glyph glyph-name="Oslash" unicode="&#xd8;" horiz-adv-x="766" 
d="M530 691l46 71h152l-89 -136c66 -64 99 -156 99 -275c0 -227 -122 -363 -355 -363c-54 0 -103 7 -147 22l-46 -70h-152l89 135c-66 63 -99 155 -99 276c0 227 122 363 355 363c54 0 103 -8 147 -23zM383 531c-89 0 -131 -68 -131 -180c0 -28 2 -52 7 -73l162 248
c-12 3 -25 5 -38 5zM514 351c0 25 -3 49 -8 72l-162 -247c13 -3 26 -5 39 -5c89 0 131 68 131 180z" />
    <glyph glyph-name="Ugrave" unicode="&#xd9;" horiz-adv-x="760" 
d="M465 202c17 21 25 55 25 102v398h220v-405c0 -206 -110 -309 -330 -309s-330 103 -330 309v405h110c79 0 110 -35 110 -110v-288c0 -95 31 -133 110 -133c39 0 68 10 85 31zM481 780l-67 151c-15 34 -44 51 -89 51c-49 0 -91 -16 -126 -48l156 -154h126z" />
    <glyph glyph-name="Uacute" unicode="&#xda;" horiz-adv-x="760" 
d="M465 202c17 21 25 55 25 102v398h220v-405c0 -206 -110 -309 -330 -309s-330 103 -330 309v405h110c79 0 110 -35 110 -110v-288c0 -95 31 -133 110 -133c39 0 68 10 85 31zM405 780l156 154c-35 32 -77 48 -126 48c-45 0 -74 -17 -89 -51l-67 -151h126z" />
    <glyph glyph-name="Ucircumflex" unicode="&#xdb;" horiz-adv-x="760" 
d="M465 202c17 21 25 55 25 102v398h220v-405c0 -206 -110 -309 -330 -309s-330 103 -330 309v405h110c79 0 110 -35 110 -110v-288c0 -95 31 -133 110 -133c39 0 68 10 85 31zM319 965l-156 -185h138l80 73l80 -73h136l-117 144c-25 31 -42 41 -85 41h-76z" />
    <glyph glyph-name="Udieresis" unicode="&#xdc;" horiz-adv-x="760" 
d="M465 202c17 21 25 55 25 102v398h220v-405c0 -206 -110 -309 -330 -309s-330 103 -330 309v405h110c79 0 110 -35 110 -110v-288c0 -95 31 -133 110 -133c39 0 68 10 85 31zM171 908c-18 -16 -27 -39 -27 -70s9 -54 27 -70s44 -24 77 -24s59 8 77 24s27 39 27 70
s-9 54 -27 70s-44 24 -77 24s-59 -8 -77 -24zM435 908c-18 -16 -27 -39 -27 -70s9 -54 27 -70s44 -24 77 -24s59 8 77 24s27 39 27 70s-9 54 -27 70s-44 24 -77 24s-59 -8 -77 -24z" />
    <glyph glyph-name="Yacute" unicode="&#xdd;" horiz-adv-x="719" 
d="M469 273v-273h-220v273l-265 429h153c68 0 102 -20 129 -69l92 -175l132 244h245zM384 780l156 154c-35 32 -77 48 -126 48c-45 0 -74 -17 -89 -51l-67 -151h126z" />
    <glyph glyph-name="Thorn" unicode="&#xde;" horiz-adv-x="676" 
d="M276 0h-220v702h108c75 0 107 -32 110 -100h102c187 0 280 -80 280 -241s-89 -241 -268 -241h-112v-120zM381 423h-107v-124h107c39 0 59 21 59 62c0 36 -19 62 -59 62z" />
    <glyph glyph-name="germandbls" unicode="&#xdf;" horiz-adv-x="696" 
d="M313 17c-17 7 -26 25 -26 53c0 38 10 70 29 95c27 -17 54 -25 83 -25c43 0 65 26 65 77c0 56 -29 90 -85 90h-26v123h26c41 0 61 20 61 61c0 49 -31 78 -80 78c-67 0 -100 -53 -100 -160v-409h-206v409c0 145 73 305 302 305c96 0 173 -28 216 -70s64 -90 64 -138
c0 -69 -28 -115 -83 -136c72 -19 117 -81 117 -165c0 -140 -82 -210 -246 -210c-41 0 -78 7 -111 22z" />
    <glyph glyph-name="agrave" unicode="&#xe0;" horiz-adv-x="638" 
d="M376 210v82c-15 35 -43 60 -82 60c-36 0 -67 -29 -67 -101c0 -67 23 -101 70 -101c37 0 63 20 79 60zM396 502h186v-366c0 -55 11 -100 34 -136h-189c-26 11 -43 31 -51 61c-39 -49 -90 -73 -154 -73c-119 0 -196 102 -196 263c0 168 78 263 197 263
c63 0 121 -33 153 -76zM363 731l67 -151h-126l-156 154c35 32 77 48 126 48c45 0 74 -17 89 -51z" />
    <glyph glyph-name="aacute" unicode="&#xe1;" horiz-adv-x="638" 
d="M376 210v82c-15 35 -43 60 -82 60c-36 0 -67 -29 -67 -101c0 -67 23 -101 70 -101c37 0 63 20 79 60zM396 502h186v-366c0 -55 11 -100 34 -136h-189c-26 11 -43 31 -51 61c-39 -49 -90 -73 -154 -73c-119 0 -196 102 -196 263c0 168 78 263 197 263
c63 0 121 -33 153 -76zM490 734l-156 -154h-126l67 151c15 34 44 51 89 51c49 0 91 -16 126 -48z" />
    <glyph glyph-name="acircumflex" unicode="&#xe2;" horiz-adv-x="638" 
d="M376 210v82c-15 35 -43 60 -82 60c-36 0 -67 -29 -67 -101c0 -67 23 -101 70 -101c37 0 63 20 79 60zM396 502h186v-366c0 -55 11 -100 34 -136h-189c-26 11 -43 31 -51 61c-39 -49 -90 -73 -154 -73c-119 0 -196 102 -196 263c0 168 78 263 197 263
c63 0 121 -33 153 -76zM102 580l156 185h76c43 0 60 -10 85 -41l117 -144h-136l-80 73l-80 -73h-138z" />
    <glyph glyph-name="atilde" unicode="&#xe3;" horiz-adv-x="638" 
d="M376 210v82c-15 35 -43 60 -82 60c-36 0 -67 -29 -67 -101c0 -67 23 -101 70 -101c37 0 63 20 79 60zM396 502h186v-366c0 -55 11 -100 34 -136h-189c-26 11 -43 31 -51 61c-39 -49 -90 -73 -154 -73c-119 0 -196 102 -196 263c0 168 78 263 197 263
c63 0 121 -33 153 -76zM243 752c23 0 51 -9 86 -26c34 -18 57 -27 69 -27c25 0 42 20 45 47h110c0 -112 -69 -172 -158 -172c-23 0 -51 9 -85 27c-35 17 -58 26 -70 26c-25 0 -42 -20 -45 -47h-110c0 112 69 172 158 172z" />
    <glyph glyph-name="adieresis" unicode="&#xe4;" horiz-adv-x="638" 
d="M376 210v82c-15 35 -43 60 -82 60c-36 0 -67 -29 -67 -101c0 -67 23 -101 70 -101c37 0 63 20 79 60zM396 502h186v-366c0 -55 11 -100 34 -136h-189c-26 11 -43 31 -51 61c-39 -49 -90 -73 -154 -73c-119 0 -196 102 -196 263c0 168 78 263 197 263
c63 0 121 -33 153 -76zM110 708c18 16 44 24 77 24s59 -8 77 -24s27 -39 27 -70s-9 -54 -27 -70s-44 -24 -77 -24s-59 8 -77 24s-27 39 -27 70s9 54 27 70zM374 708c18 16 44 24 77 24s59 -8 77 -24s27 -39 27 -70s-9 -54 -27 -70s-44 -24 -77 -24s-59 8 -77 24
s-27 39 -27 70s9 54 27 70z" />
    <glyph glyph-name="aring" unicode="&#xe5;" horiz-adv-x="638" 
d="M376 210v82c-15 35 -43 60 -82 60c-36 0 -67 -29 -67 -101c0 -67 23 -101 70 -101c37 0 63 20 79 60zM396 502h186v-366c0 -55 11 -100 34 -136h-189c-26 11 -43 31 -51 61c-39 -49 -90 -73 -154 -73c-119 0 -196 102 -196 263c0 168 78 263 197 263
c63 0 121 -33 153 -76zM319 710c-21 0 -32 -11 -32 -34s11 -34 32 -34s32 11 32 34s-11 34 -32 34zM230 592c-23 21 -34 49 -34 84s11 63 34 84s52 31 89 31s66 -10 89 -31s34 -49 34 -84s-11 -63 -34 -84s-52 -31 -89 -31s-66 10 -89 31z" />
    <glyph glyph-name="ae" unicode="&#xe6;" horiz-adv-x="843" 
d="M626 131c47 0 91 17 132 51c19 -25 29 -55 29 -90c-3 -43 -16 -52 -37 -66c-37 -25 -85 -38 -144 -38c-101 0 -175 30 -221 90c-45 -59 -114 -88 -206 -88c-41 0 -78 13 -109 40c-32 26 -48 65 -48 118c0 123 86 159 255 159h40c0 41 -26 69 -77 69
c-60 0 -114 -13 -163 -40c-19 27 -29 55 -29 82c0 29 10 49 31 59c41 21 120 37 187 37c77 0 125 -19 169 -66c41 44 96 66 166 66c68 0 120 -22 157 -66c37 -45 55 -101 55 -169v-69h-298c12 -57 38 -79 111 -79zM591 377c-45 0 -63 -21 -75 -70h133c0 47 -19 70 -58 70z
M251 130c29 0 51 12 66 37v43h-41c-44 0 -66 -14 -66 -41c0 -26 14 -39 41 -39z" />
    <glyph glyph-name="ccedilla" unicode="&#xe7;" horiz-adv-x="512" 
d="M101 60c-50 47 -75 111 -75 191s25 144 75 192c49 47 118 71 205 71c65 0 112 -8 141 -25c30 -17 45 -42 45 -75c0 -37 -10 -70 -30 -99c-36 32 -76 48 -121 48c-70 0 -105 -37 -105 -112s35 -112 105 -112c47 0 90 17 127 50c20 -29 30 -62 30 -99
c0 -34 -15 -59 -45 -75c-32 -18 -81 -27 -147 -27c-87 0 -156 24 -205 72zM138 -207l120 161h116l-47 -151c-11 -34 -39 -51 -85 -51c-45 0 -80 14 -104 41z" />
    <glyph glyph-name="egrave" unicode="&#xe8;" horiz-adv-x="567" 
d="M354 131c49 0 95 17 136 51c19 -25 29 -55 29 -90c-3 -43 -16 -52 -37 -66c-37 -25 -89 -38 -155 -38c-91 0 -163 23 -218 68s-83 110 -83 195c0 78 27 141 81 190c53 49 119 73 197 73c77 0 136 -22 178 -66c42 -45 63 -101 63 -169v-67h-320c12 -54 55 -81 129 -81z
M312 377c-45 0 -74 -25 -86 -75h151c0 41 -21 75 -65 75zM384 580l-67 151c-15 34 -44 51 -89 51c-49 0 -91 -16 -126 -48l156 -154h126z" />
    <glyph glyph-name="eacute" unicode="&#xe9;" horiz-adv-x="567" 
d="M354 131c49 0 95 17 136 51c19 -25 29 -55 29 -90c-3 -43 -16 -52 -37 -66c-37 -25 -89 -38 -155 -38c-91 0 -163 23 -218 68s-83 110 -83 195c0 78 27 141 81 190c53 49 119 73 197 73c77 0 136 -22 178 -66c42 -45 63 -101 63 -169v-67h-320c12 -54 55 -81 129 -81z
M312 377c-45 0 -74 -25 -86 -75h151c0 41 -21 75 -65 75zM308 580l156 154c-35 32 -77 48 -126 48c-45 0 -74 -17 -89 -51l-67 -151h126z" />
    <glyph glyph-name="ecircumflex" unicode="&#xea;" horiz-adv-x="567" 
d="M354 131c49 0 95 17 136 51c19 -25 29 -55 29 -90c-3 -43 -16 -52 -37 -66c-37 -25 -89 -38 -155 -38c-91 0 -163 23 -218 68s-83 110 -83 195c0 78 27 141 81 190c53 49 119 73 197 73c77 0 136 -22 178 -66c42 -45 63 -101 63 -169v-67h-320c12 -54 55 -81 129 -81z
M312 377c-45 0 -74 -25 -86 -75h151c0 41 -21 75 -65 75zM222 765l-156 -185h138l80 73l80 -73h136l-117 144c-25 31 -42 41 -85 41h-76z" />
    <glyph glyph-name="edieresis" unicode="&#xeb;" horiz-adv-x="567" 
d="M354 131c49 0 95 17 136 51c19 -25 29 -55 29 -90c-3 -43 -16 -52 -37 -66c-37 -25 -89 -38 -155 -38c-91 0 -163 23 -218 68s-83 110 -83 195c0 78 27 141 81 190c53 49 119 73 197 73c77 0 136 -22 178 -66c42 -45 63 -101 63 -169v-67h-320c12 -54 55 -81 129 -81z
M312 377c-45 0 -74 -25 -86 -75h151c0 41 -21 75 -65 75zM74 708c-18 -16 -27 -39 -27 -70s9 -54 27 -70s44 -24 77 -24s59 8 77 24s27 39 27 70s-9 54 -27 70s-44 24 -77 24s-59 -8 -77 -24zM338 708c-18 -16 -27 -39 -27 -70s9 -54 27 -70s44 -24 77 -24s59 8 77 24
s27 39 27 70s-9 54 -27 70s-44 24 -77 24s-59 -8 -77 -24z" />
    <glyph glyph-name="igrave" unicode="&#xec;" horiz-adv-x="318" 
d="M262 0h-206v502h96c79 0 110 -35 110 -110v-392zM260 580l-67 151c-15 34 -44 51 -89 51c-49 0 -91 -16 -126 -48l156 -154h126z" />
    <glyph glyph-name="iacute" unicode="&#xed;" horiz-adv-x="318" 
d="M262 0h-206v502h96c79 0 110 -35 110 -110v-392zM184 580l156 154c-35 32 -77 48 -126 48c-45 0 -74 -17 -89 -51l-67 -151h126z" />
    <glyph glyph-name="icircumflex" unicode="&#xee;" horiz-adv-x="318" 
d="M262 0h-206v502h96c79 0 110 -35 110 -110v-392zM98 765l-156 -185h138l80 73l80 -73h136l-117 144c-25 31 -42 41 -85 41h-76z" />
    <glyph glyph-name="idieresis" unicode="&#xef;" horiz-adv-x="318" 
d="M262 0h-206v502h96c79 0 110 -35 110 -110v-392zM-50 708c-18 -16 -27 -39 -27 -70s9 -54 27 -70s44 -24 77 -24s59 8 77 24s27 39 27 70s-9 54 -27 70s-44 24 -77 24s-59 -8 -77 -24zM214 708c-18 -16 -27 -39 -27 -70s9 -54 27 -70s44 -24 77 -24s59 8 77 24
s27 39 27 70s-9 54 -27 70s-44 24 -77 24s-59 -8 -77 -24z" />
    <glyph glyph-name="eth" unicode="&#xf0;" horiz-adv-x="646" 
d="M386 492l-91 -31v61l49 16c-23 15 -51 23 -82 23c-54 0 -98 -12 -132 -35c-15 28 -23 60 -23 96c0 29 11 51 34 64c31 19 81 28 151 28c112 0 196 -36 252 -109l75 26v-61l-45 -15c28 -57 42 -127 42 -208c0 -232 -112 -359 -312 -359c-79 0 -145 22 -197 65
c-53 43 -79 103 -79 178c0 133 88 213 217 213c32 0 64 -4 96 -13s55 -20 69 -32c-1 35 -9 66 -24 93zM309 311c-45 0 -71 -28 -71 -73c0 -57 26 -85 78 -85c51 0 94 50 95 122c-27 24 -61 36 -102 36z" />
    <glyph glyph-name="ntilde" unicode="&#xf1;" horiz-adv-x="642" 
d="M52 0v502h127c45 0 72 -22 81 -66c51 52 106 78 167 78c110 0 165 -69 165 -206v-308h-98c-79 0 -110 35 -110 110v185c0 35 -14 52 -43 52c-27 0 -54 -18 -81 -55v-292h-208zM245 752c23 0 51 -9 86 -26c34 -18 57 -27 69 -27c25 0 42 20 45 47h110
c0 -112 -69 -172 -158 -172c-23 0 -51 9 -85 27c-35 17 -58 26 -70 26c-25 0 -42 -20 -45 -47h-110c0 112 69 172 158 172z" />
    <glyph glyph-name="ograve" unicode="&#xf2;" horiz-adv-x="606" 
d="M303 369c-45 0 -67 -39 -67 -118s22 -118 67 -118s67 39 67 118s-22 118 -67 118zM100 59c-49 47 -74 111 -74 192s25 145 74 192s116 71 203 71s155 -24 204 -71s73 -111 73 -192s-24 -145 -73 -192s-117 -71 -204 -71s-154 24 -203 71zM337 731l67 -151h-126l-156 154
c35 32 77 48 126 48c45 0 74 -17 89 -51z" />
    <glyph glyph-name="oacute" unicode="&#xf3;" horiz-adv-x="606" 
d="M303 369c-45 0 -67 -39 -67 -118s22 -118 67 -118s67 39 67 118s-22 118 -67 118zM100 59c-49 47 -74 111 -74 192s25 145 74 192s116 71 203 71s155 -24 204 -71s73 -111 73 -192s-24 -145 -73 -192s-117 -71 -204 -71s-154 24 -203 71zM484 734l-156 -154h-126l67 151
c15 34 44 51 89 51c49 0 91 -16 126 -48z" />
    <glyph glyph-name="ocircumflex" unicode="&#xf4;" horiz-adv-x="606" 
d="M303 369c-45 0 -67 -39 -67 -118s22 -118 67 -118s67 39 67 118s-22 118 -67 118zM100 59c-49 47 -74 111 -74 192s25 145 74 192s116 71 203 71s155 -24 204 -71s73 -111 73 -192s-24 -145 -73 -192s-117 -71 -204 -71s-154 24 -203 71zM86 580l156 185h76
c43 0 60 -10 85 -41l117 -144h-136l-80 73l-80 -73h-138z" />
    <glyph glyph-name="otilde" unicode="&#xf5;" horiz-adv-x="606" 
d="M303 369c-45 0 -67 -39 -67 -118s22 -118 67 -118s67 39 67 118s-22 118 -67 118zM100 59c-49 47 -74 111 -74 192s25 145 74 192s116 71 203 71s155 -24 204 -71s73 -111 73 -192s-24 -145 -73 -192s-117 -71 -204 -71s-154 24 -203 71zM227 752c23 0 51 -9 86 -26
c34 -18 57 -27 69 -27c25 0 42 20 45 47h110c0 -112 -69 -172 -158 -172c-23 0 -51 9 -85 27c-35 17 -58 26 -70 26c-25 0 -42 -20 -45 -47h-110c0 112 69 172 158 172z" />
    <glyph glyph-name="odieresis" unicode="&#xf6;" horiz-adv-x="606" 
d="M303 369c-45 0 -67 -39 -67 -118s22 -118 67 -118s67 39 67 118s-22 118 -67 118zM100 59c-49 47 -74 111 -74 192s25 145 74 192s116 71 203 71s155 -24 204 -71s73 -111 73 -192s-24 -145 -73 -192s-117 -71 -204 -71s-154 24 -203 71zM94 708c18 16 44 24 77 24
s59 -8 77 -24s27 -39 27 -70s-9 -54 -27 -70s-44 -24 -77 -24s-59 8 -77 24s-27 39 -27 70s9 54 27 70zM358 708c18 16 44 24 77 24s59 -8 77 -24s27 -39 27 -70s-9 -54 -27 -70s-44 -24 -77 -24s-59 8 -77 24s-27 39 -27 70s9 54 27 70z" />
    <glyph glyph-name="divide" unicode="&#xf7;" 
d="M600 353v-117h-532v117h532zM263 426c-17 16 -25 38 -25 65s8 49 25 65c16 16 40 24 71 24s55 -8 72 -24c16 -16 24 -38 24 -65s-8 -49 -24 -65c-17 -16 -41 -24 -72 -24s-55 8 -71 24zM263 34c-17 16 -25 38 -25 65s8 49 25 65c16 16 40 24 71 24s55 -8 72 -24
c16 -16 24 -38 24 -65s-8 -49 -24 -65c-17 -16 -41 -24 -72 -24s-55 8 -71 24z" />
    <glyph glyph-name="oslash" unicode="&#xf8;" horiz-adv-x="606" 
d="M26 251c0 161 104 263 277 263c36 0 70 -5 101 -14l44 72h102l-67 -110c65 -46 97 -116 97 -211c0 -161 -104 -263 -277 -263c-35 0 -69 4 -102 13l-43 -71h-102l67 109c-65 47 -97 118 -97 212zM236 251c0 -11 0 -20 1 -25l85 140c-6 2 -12 3 -19 3
c-45 0 -67 -39 -67 -118zM370 251c0 7 -1 20 -1 25l-86 -140c6 -2 13 -3 20 -3c45 0 67 39 67 118z" />
    <glyph glyph-name="ugrave" unicode="&#xf9;" horiz-adv-x="638" 
d="M376 502h208v-366c0 -55 11 -100 34 -136h-188c-24 9 -49 37 -54 66c-43 -52 -95 -78 -156 -78c-109 0 -170 67 -170 206v308h98c79 0 110 -35 110 -110v-185c0 -35 14 -52 43 -52s54 18 75 53v294zM353 731l67 -151h-126l-156 154c35 32 77 48 126 48
c45 0 74 -17 89 -51z" />
    <glyph glyph-name="uacute" unicode="&#xfa;" horiz-adv-x="638" 
d="M376 502h208v-366c0 -55 11 -100 34 -136h-188c-24 9 -49 37 -54 66c-43 -52 -95 -78 -156 -78c-109 0 -170 67 -170 206v308h98c79 0 110 -35 110 -110v-185c0 -35 14 -52 43 -52s54 18 75 53v294zM500 734l-156 -154h-126l67 151c15 34 44 51 89 51
c49 0 91 -16 126 -48z" />
    <glyph glyph-name="ucircumflex" unicode="&#xfb;" horiz-adv-x="638" 
d="M376 502h208v-366c0 -55 11 -100 34 -136h-188c-24 9 -49 37 -54 66c-43 -52 -95 -78 -156 -78c-109 0 -170 67 -170 206v308h98c79 0 110 -35 110 -110v-185c0 -35 14 -52 43 -52s54 18 75 53v294zM102 580l156 185h76c43 0 60 -10 85 -41l117 -144h-136l-80 73l-80 -73
h-138z" />
    <glyph glyph-name="udieresis" unicode="&#xfc;" horiz-adv-x="638" 
d="M376 502h208v-366c0 -55 11 -100 34 -136h-188c-24 9 -49 37 -54 66c-43 -52 -95 -78 -156 -78c-109 0 -170 67 -170 206v308h98c79 0 110 -35 110 -110v-185c0 -35 14 -52 43 -52s54 18 75 53v294zM110 708c18 16 44 24 77 24s59 -8 77 -24s27 -39 27 -70
s-9 -54 -27 -70s-44 -24 -77 -24s-59 8 -77 24s-27 39 -27 70s9 54 27 70zM374 708c18 16 44 24 77 24s59 -8 77 -24s27 -39 27 -70s-9 -54 -27 -70s-44 -24 -77 -24s-59 8 -77 24s-27 39 -27 70s9 54 27 70z" />
    <glyph glyph-name="yacute" unicode="&#xfd;" horiz-adv-x="592" 
d="M-10 502h213l93 -316l93 316h213l-225 -566c-41 -104 -105 -147 -197 -147c-79 0 -132 29 -132 96c0 34 8 62 25 84c17 -14 35 -21 56 -21c33 0 54 14 61 42l3 10zM321 580l156 154c-35 32 -77 48 -126 48c-45 0 -74 -17 -89 -51l-67 -151h126z" />
    <glyph glyph-name="thorn" unicode="&#xfe;" horiz-adv-x="636" 
d="M260 288v-78c16 -40 42 -60 79 -60c47 0 70 34 70 101c0 72 -31 101 -67 101c-39 0 -67 -28 -82 -64zM260 -200h-206v902h98c79 0 110 -35 110 -110v-156c28 44 88 78 157 78c113 0 191 -96 191 -263c0 -161 -77 -263 -196 -263c-64 0 -115 24 -154 73v-261z" />
    <glyph glyph-name="ydieresis" unicode="&#xff;" horiz-adv-x="592" 
d="M-10 502h213l93 -316l93 316h213l-225 -566c-41 -104 -105 -147 -197 -147c-79 0 -132 29 -132 96c0 34 8 62 25 84c17 -14 35 -21 56 -21c33 0 54 14 61 42l3 10zM87 708c-18 -16 -27 -39 -27 -70s9 -54 27 -70s44 -24 77 -24s59 8 77 24s27 39 27 70s-9 54 -27 70
s-44 24 -77 24s-59 -8 -77 -24zM351 708c-18 -16 -27 -39 -27 -70s9 -54 27 -70s44 -24 77 -24s59 8 77 24s27 39 27 70s-9 54 -27 70s-44 24 -77 24s-59 -8 -77 -24z" />
    <glyph glyph-name="dotlessi" unicode="&#x131;" horiz-adv-x="318" 
d="M262 392v-392h-206v502h96c79 0 110 -35 110 -110z" />
    <glyph glyph-name="Lslash" unicode="&#x141;" horiz-adv-x="610" 
d="M66 251l-49 -28l-51 89l100 58v332h110c79 0 110 -35 110 -110v-95l85 49l51 -89l-136 -79v-195h304v-183h-524v251z" />
    <glyph glyph-name="lslash" unicode="&#x142;" horiz-adv-x="338" 
d="M66 238l-43 -25l-51 89l94 54v346h96c79 0 110 -35 110 -110v-117l42 25l51 -89l-93 -54v-357h-206v238z" />
    <glyph glyph-name="OE" unicode="&#x152;" horiz-adv-x="1045" 
d="M506 246v209c-28 51 -70 76 -127 76c-84 0 -127 -69 -127 -180s43 -180 127 -180c57 0 99 25 127 75zM1015 0h-509v56c-45 -45 -103 -68 -174 -68c-90 0 -163 33 -219 100c-57 66 -85 154 -85 263s28 197 85 264c56 66 129 99 219 99c71 0 129 -23 174 -68v56h508v-179
h-292v-84h259v-51c0 -79 -35 -110 -110 -110h-149v-99h293v-179z" />
    <glyph glyph-name="oe" unicode="&#x153;" horiz-adv-x="893" 
d="M680 131c49 0 95 17 136 51c19 -25 29 -55 29 -90c-3 -43 -16 -52 -37 -66c-37 -25 -89 -38 -155 -38c-75 0 -146 25 -183 60c-41 -40 -97 -60 -167 -60c-173 0 -277 102 -277 263c0 80 24 144 73 192c48 47 114 71 198 71c71 0 129 -20 172 -61c43 41 100 61 170 61
c73 0 130 -22 171 -67s61 -101 61 -168v-67h-320c12 -54 55 -81 129 -81zM303 369c-45 0 -67 -39 -67 -118s22 -118 67 -118s67 39 67 118s-22 118 -67 118zM638 377c-45 0 -74 -25 -86 -75h151c0 41 -21 75 -65 75z" />
    <glyph glyph-name="Scaron" unicode="&#x160;" horiz-adv-x="638" 
d="M299 163c66 0 99 14 99 42c0 17 -17 31 -52 42c-3 1 -22 6 -57 15c-172 47 -261 118 -261 242c0 129 101 210 278 210c93 0 170 -16 233 -48c28 -14 42 -41 42 -82c0 -33 -12 -70 -35 -110c-56 41 -149 65 -225 65c-54 0 -81 -10 -81 -31c0 -22 34 -42 103 -60
c84 -23 138 -44 190 -80c52 -37 77 -90 77 -159c0 -147 -104 -221 -312 -221c-89 0 -157 11 -206 33c-44 20 -63 47 -63 91c0 37 11 79 32 127c74 -51 153 -76 238 -76zM334 776h-76l-156 185h138l80 -73l80 73h136l-117 -144c-25 -31 -42 -41 -85 -41z" />
    <glyph glyph-name="scaron" unicode="&#x161;" horiz-adv-x="508" 
d="M245 129c29 0 43 7 43 20c0 16 -17 21 -69 36c-51 14 -61 16 -105 36c-21 9 -36 19 -47 30c-21 21 -41 58 -41 103c0 108 90 160 227 160c70 0 126 -10 169 -31c28 -13 42 -35 42 -66c0 -33 -9 -64 -27 -94c-51 33 -107 50 -170 50c-30 0 -45 -7 -45 -20
c0 -18 34 -22 67 -33c65 -17 97 -29 137 -53c40 -25 58 -62 58 -114c0 -109 -83 -165 -234 -165c-72 0 -129 9 -172 27c-35 15 -52 41 -52 78c0 34 10 64 31 91c48 -33 124 -55 188 -55zM269 576h-76l-156 185h138l80 -73l80 73h136l-117 -144c-25 -31 -42 -41 -85 -41z" />
    <glyph glyph-name="Ydieresis" unicode="&#x178;" horiz-adv-x="719" 
d="M469 273v-273h-220v273l-265 429h153c68 0 102 -20 129 -69l92 -175l132 244h245zM150 908c-18 -16 -27 -39 -27 -70s9 -54 27 -70s44 -24 77 -24s59 8 77 24s27 39 27 70s-9 54 -27 70s-44 24 -77 24s-59 -8 -77 -24zM414 908c-18 -16 -27 -39 -27 -70s9 -54 27 -70
s44 -24 77 -24s59 8 77 24s27 39 27 70s-9 54 -27 70s-44 24 -77 24s-59 -8 -77 -24z" />
    <glyph glyph-name="Zcaron" unicode="&#x17d;" horiz-adv-x="632" 
d="M37 592c0 79 35 110 110 110h458v-173l-318 -351l325 3v-181h-592v173l319 351l-302 -3v71zM331 776c43 0 60 10 85 41l117 144h-136l-80 -73l-80 73h-138l156 -185h76z" />
    <glyph glyph-name="zcaron" unicode="&#x17e;" horiz-adv-x="506" 
d="M24 407c0 63 34 95 103 95h352v-135l-230 -224l233 2v-145h-458v135l229 224l-229 -2v50zM268 576c43 0 60 10 85 41l117 144h-136l-80 -73l-80 73h-138l156 -185h76z" />
    <glyph glyph-name="florin" unicode="&#x192;" 
d="M159 0l59 273l-105 -3l34 145l109 -3l17 90c28 144 108 212 267 212c51 0 90 -9 118 -26c17 -11 22 -30 15 -57c-5 -24 -18 -50 -37 -78c-26 14 -54 21 -83 21c-52 0 -82 -32 -90 -72l-19 -90l146 3l-34 -145l-141 4l-66 -274c-28 -144 -108 -212 -267 -212
c-51 0 -90 9 -118 26c-17 11 -22 30 -15 57c5 24 18 50 37 78c26 -14 54 -21 83 -21c52 0 82 32 90 72z" />
    <glyph glyph-name="circumflex" unicode="&#x2c6;" horiz-adv-x="400" 
d="M-17 580l156 185h76c43 0 60 -10 85 -41l117 -144h-136l-80 73l-80 -73h-138z" />
    <glyph glyph-name="caron" unicode="&#x2c7;" horiz-adv-x="400" 
d="M215 576h-76l-156 185h138l80 -73l80 73h136l-117 -144c-25 -31 -42 -41 -85 -41z" />
    <glyph glyph-name="breve" unicode="&#x2d8;" horiz-adv-x="400" 
d="M154 702c40 -32 109 -13 115 44h123c-1 -58 -20 -101 -57 -129c-38 -29 -83 -43 -135 -43s-97 14 -134 43c-38 28 -57 71 -58 129h123c2 -19 10 -34 23 -44z" />
    <glyph glyph-name="dotaccent" unicode="&#x2d9;" horiz-adv-x="400" 
d="M200 722c78 0 117 -31 117 -94s-39 -94 -117 -94c-77 0 -117 27 -117 94s40 94 117 94z" />
    <glyph glyph-name="ring" unicode="&#x2da;" horiz-adv-x="400" 
d="M200 710c-21 0 -32 -11 -32 -34s11 -34 32 -34s32 11 32 34s-11 34 -32 34zM111 592c-23 21 -34 49 -34 84s11 63 34 84s52 31 89 31s66 -10 89 -31s34 -49 34 -84s-11 -63 -34 -84s-52 -31 -89 -31s-66 10 -89 31z" />
    <glyph glyph-name="ogonek" unicode="&#x2db;" horiz-adv-x="400" 
d="M178 -148l-47 151h116l120 -161c-24 -27 -59 -41 -104 -41c-46 0 -74 17 -85 51z" />
    <glyph glyph-name="tilde" unicode="&#x2dc;" horiz-adv-x="400" 
d="M124 752c23 0 51 -9 86 -26c34 -18 57 -27 69 -27c25 0 42 20 45 47h110c0 -112 -69 -172 -158 -172c-23 0 -51 9 -85 27c-35 17 -58 26 -70 26c-25 0 -42 -20 -45 -47h-110c0 112 69 172 158 172z" />
    <glyph glyph-name="hungarumlaut" unicode="&#x2dd;" horiz-adv-x="400" 
d="M267 741l-120 -161h-116l47 151c11 34 39 51 85 51c45 0 80 -14 104 -41zM490 741l-120 -161h-116l47 151c11 34 39 51 85 51c45 0 80 -14 104 -41z" />
    <glyph glyph-name="uni03A9" unicode="&#x3a9;" horiz-adv-x="792" 
d="M132 628c65 57 153 86 264 86s199 -29 264 -86s97 -131 97 -222c0 -105 -65 -193 -145 -248h130v-158h-258l-72 81v64c77 55 137 142 137 229c0 115 -54 181 -153 181s-153 -66 -153 -181c0 -87 60 -174 137 -229v-64l-72 -81h-258v158h130c-80 55 -145 143 -145 248
c0 91 32 165 97 222z" />
    <glyph glyph-name="pi" unicode="&#x3c0;" horiz-adv-x="728" 
d="M381 162v173h-69l-28 -335h-182l26 335h-98v167h645v-167h-111v-145c0 -25 9 -38 28 -38c23 0 44 6 65 17c14 -36 21 -66 21 -91c0 -41 -21 -67 -63 -80c-21 -7 -46 -10 -74 -10c-101 0 -160 62 -160 174z" />
    <glyph glyph-name="endash" unicode="&#x2013;" horiz-adv-x="614" 
d="M40 203v157h534v-157h-534z" />
    <glyph glyph-name="emdash" unicode="&#x2014;" horiz-adv-x="804" 
d="M40 203v157h724v-157h-724z" />
    <glyph glyph-name="quoteleft" unicode="&#x2018;" horiz-adv-x="263" 
d="M30 502l97 200h120l-27 -166c-8 -45 -36 -67 -85 -67c-48 0 -83 11 -105 33z" />
    <glyph glyph-name="quoteright" unicode="&#x2019;" horiz-adv-x="263" 
d="M233 669l-97 -200h-120l27 166c8 45 36 67 85 67c48 0 83 -11 105 -33z" />
    <glyph glyph-name="quotesinglbase" unicode="&#x201a;" horiz-adv-x="263" 
d="M233 27l-97 -200h-120l27 166c8 45 36 67 85 67c48 0 83 -11 105 -33z" />
    <glyph glyph-name="quotedblleft" unicode="&#x201c;" horiz-adv-x="487" 
d="M30 502l97 200h120l-27 -166c-8 -45 -36 -67 -85 -67c-48 0 -83 11 -105 33zM254 502l97 200h120l-27 -166c-8 -45 -36 -67 -85 -67c-48 0 -83 11 -105 33z" />
    <glyph glyph-name="quotedblright" unicode="&#x201d;" horiz-adv-x="487" 
d="M457 669l-97 -200h-120l27 166c8 45 36 67 85 67c48 0 83 -11 105 -33zM233 669l-97 -200h-120l27 166c8 45 36 67 85 67c48 0 83 -11 105 -33z" />
    <glyph glyph-name="quotedblbase" unicode="&#x201e;" horiz-adv-x="487" 
d="M457 27l-97 -200h-120l27 166c8 45 36 67 85 67c48 0 83 -11 105 -33zM233 27l-97 -200h-120l27 166c8 45 36 67 85 67c48 0 83 -11 105 -33z" />
    <glyph glyph-name="dagger" unicode="&#x2020;" horiz-adv-x="604" 
d="M195 702h215h-1l-5 -190l176 3v-167l-176 3v-451h-204v451l-176 -3v167l176 -3z" />
    <glyph glyph-name="daggerdbl" unicode="&#x2021;" horiz-adv-x="604" 
d="M404 90l5 -190h-214l5 190l-176 -3v167l179 -3v100l-179 -3v167l176 -3l-5 190h214l-5 -190l176 3v-167l-178 3v-100l178 3v-167z" />
    <glyph glyph-name="bullet" unicode="&#x2022;" horiz-adv-x="426" 
d="M212 156c-109 0 -164 52 -164 155s55 155 164 155c111 0 166 -52 166 -155s-55 -155 -166 -155z" />
    <glyph glyph-name="ellipsis" unicode="&#x2026;" horiz-adv-x="954" 
d="M74 17c-20 19 -30 45 -30 78s10 59 30 78c19 19 48 29 85 29s66 -10 86 -29c19 -19 29 -45 29 -78s-10 -59 -29 -78c-20 -19 -49 -29 -86 -29s-66 10 -85 29zM392 17c-20 19 -30 45 -30 78s10 59 30 78c19 19 48 29 85 29s66 -10 86 -29c19 -19 29 -45 29 -78
s-10 -59 -29 -78c-20 -19 -49 -29 -86 -29s-66 10 -85 29zM710 17c-20 19 -30 45 -30 78s10 59 30 78c19 19 48 29 85 29s66 -10 86 -29c19 -19 29 -45 29 -78s-10 -59 -29 -78c-20 -19 -49 -29 -86 -29s-66 10 -85 29z" />
    <glyph glyph-name="perthousand" unicode="&#x2030;" horiz-adv-x="1132" 
d="M294 0h-166l364 702h166zM83 440c-29 29 -43 67 -43 115s14 87 43 116s65 43 108 43s79 -14 108 -43s43 -68 43 -116s-14 -86 -43 -115s-65 -44 -108 -44s-79 15 -108 44zM211 506c10 26 10 73 0 99s-29 26 -39 0s-10 -73 0 -99s29 -26 39 0zM487 32
c-29 29 -43 67 -43 115s14 87 43 116s65 43 108 43s79 -14 108 -43s43 -68 43 -116s-14 -86 -43 -115s-65 -44 -108 -44s-79 15 -108 44zM615 98c10 26 10 73 0 99s-29 26 -39 0s-10 -73 0 -99s29 -26 39 0zM833 32c-29 29 -43 67 -43 115s14 87 43 116s65 43 108 43
s79 -14 108 -43s43 -68 43 -116s-14 -86 -43 -115s-65 -44 -108 -44s-79 15 -108 44zM961 98c10 26 10 73 0 99s-29 26 -39 0s-10 -73 0 -99s29 -26 39 0z" />
    <glyph glyph-name="guilsinglleft" unicode="&#x2039;" horiz-adv-x="452" 
d="M196 33l-176 225l176 224h216l-176 -224l176 -225h-216z" />
    <glyph glyph-name="guilsinglright" unicode="&#x203a;" horiz-adv-x="452" 
d="M40 482h216l176 -224l-176 -225h-216l176 225z" />
    <glyph glyph-name="fraction" unicode="&#x2044;" horiz-adv-x="530" 
d="M166 0h-166l364 702h166z" />
    <glyph glyph-name="Euro" unicode="&#x20ac;" 
d="M98 374h-79l30 101h62c37 152 146 239 321 239c63 -1 113 -13 152 -38s58 -57 58 -94c0 -43 -35 -90 -82 -121c-37 51 -62 70 -117 70c-46 0 -79 -19 -98 -56h136l-30 -101h-129v-44h119l-30 -101h-66c20 -39 54 -58 102 -58c57 0 87 21 123 70c47 -31 82 -78 82 -121
c0 -37 -20 -68 -59 -93c-40 -25 -92 -38 -155 -39c-179 0 -290 88 -327 241h-92l30 101h49v44z" />
    <glyph glyph-name="afii61289" unicode="&#x2113;" horiz-adv-x="530" 
d="M400 224l110 -69c-43 -111 -113 -167 -210 -167c-83 0 -144 40 -172 101l-46 -38l-86 118l112 95v221c0 145 74 229 183 229c103 0 167 -72 167 -201c0 -97 -66 -200 -197 -310c1 -49 17 -74 47 -74c32 0 68 34 92 95zM261 500v-99c34 60 51 104 51 133
c0 25 -8 37 -23 37c-23 0 -28 -22 -28 -71z" />
    <glyph glyph-name="trademark" unicode="&#x2122;" horiz-adv-x="716" 
d="M566 565l-58 -88h-48l-54 86c2 -18 3 -30 3 -35v-127h-85v301h74l87 -129l86 129h75v-301h-83v127c0 7 1 19 3 37zM292 702v-70l-88 1v-232h-85v232l-89 -1v70h262z" />
    <glyph glyph-name="Omega" unicode="&#x2126;" horiz-adv-x="792" 
d="M132 628c65 57 153 86 264 86s199 -29 264 -86s97 -131 97 -222c0 -105 -65 -193 -145 -248h130v-158h-258l-72 81v64c77 55 137 142 137 229c0 115 -54 181 -153 181s-153 -66 -153 -181c0 -87 60 -174 137 -229v-64l-72 -81h-258v158h130c-80 55 -145 143 -145 248
c0 91 32 165 97 222z" />
    <glyph glyph-name="estimated" unicode="&#x212e;" horiz-adv-x="856" 
d="M820 349v-14h-628c-3 0 -5 -1 -5 -4v-185c0 -13 3 -22 8 -29c55 -64 135 -96 240 -96s189 36 252 109h58c-73 -87 -186 -139 -311 -139c-110 0 -203 35 -279 105c-77 70 -115 154 -115 253c0 100 38 185 113 255c75 69 167 104 277 104s203 -35 278 -104
c75 -70 112 -155 112 -255zM673 365v186c0 16 -4 28 -11 36c-62 61 -139 91 -231 91c-94 0 -172 -32 -235 -97c-6 -6 -9 -16 -9 -29v-187c0 -4 2 -6 5 -6h476c3 0 5 2 5 6z" />
    <glyph glyph-name="partialdiff" unicode="&#x2202;" horiz-adv-x="703" 
d="M331 541c-53 0 -106 -15 -157 -45c-6 23 -9 45 -9 66c0 57 19 95 56 114c47 25 108 38 182 38c76 0 138 -22 187 -66c49 -45 73 -106 73 -183c0 -115 -35 -229 -98 -321c-64 -93 -172 -156 -300 -156c-69 0 -126 18 -171 53s-68 85 -68 150c0 73 26 136 79 191
s119 82 199 82c63 0 109 -15 138 -45c2 11 3 22 3 32c0 60 -38 90 -114 90zM333 319c-53 0 -93 -46 -93 -105c0 -35 21 -53 62 -53c49 0 97 49 116 122c-22 24 -50 36 -85 36z" />
    <glyph glyph-name="increment" unicode="&#x2206;" horiz-adv-x="734" 
d="M704 0h-674v117l264 585h146l264 -585v-117zM367 426l-107 -249h214z" />
    <glyph glyph-name="product" unicode="&#x220f;" horiz-adv-x="744" 
d="M468 533h-192v-633h-216v802h624v-802h-216v633z" />
    <glyph glyph-name="summation" unicode="&#x2211;" horiz-adv-x="639" 
d="M480 308l-190 -235l329 2v-176h-589v147l213 263l-195 245v148h550v-177l-290 2z" />
    <glyph glyph-name="minus" unicode="&#x2212;" 
d="M600 373v-157h-532v157h532z" />
    <glyph glyph-name="radical" unicode="&#x221a;" horiz-adv-x="767" 
d="M515 730h212l-225 -822h-196l-152 332l-76 -32l-58 159l246 103l115 -286c13 55 35 146 68 275c32 128 54 218 66 271z" />
    <glyph glyph-name="infinity" unicode="&#x221e;" horiz-adv-x="832" 
d="M204 302c0 -23 25 -39 50 -39c33 0 63 13 90 38c-31 27 -61 40 -90 40c-25 0 -50 -18 -50 -39zM628 295c0 23 -26 39 -51 39c-33 0 -63 -13 -90 -38c31 -27 61 -40 90 -40c25 0 51 18 51 39zM415 188c-59 -49 -113 -73 -162 -73c-54 0 -101 17 -142 51s-61 78 -61 131
c0 55 20 100 59 134s86 51 141 51s111 -24 166 -73c59 49 113 73 162 73c54 0 102 -17 143 -51c41 -35 61 -78 61 -131c0 -55 -20 -100 -59 -134c-40 -34 -87 -51 -142 -51s-111 24 -166 73z" />
    <glyph glyph-name="integral" unicode="&#x222b;" horiz-adv-x="563" 
d="M384 486v-469c0 -141 -71 -208 -238 -208c-43 0 -77 7 -103 21c-22 13 -33 38 -33 75c0 29 7 60 22 91c27 -19 56 -28 85 -28c51 0 62 26 62 69v469c0 141 71 208 238 208c43 0 77 -7 103 -21c22 -13 33 -38 33 -75c0 -29 -7 -60 -22 -91c-27 19 -56 28 -85 28
c-51 0 -62 -26 -62 -69z" />
    <glyph glyph-name="approxequal" unicode="&#x2248;" 
d="M236 529c26 0 58 -9 95 -27s64 -27 81 -27c34 0 65 23 92 68l99 -53c-20 -49 -48 -91 -84 -125c-37 -34 -76 -51 -117 -51c-26 0 -57 9 -94 27s-65 27 -82 27c-34 0 -65 -23 -92 -68l-99 53c20 49 48 91 85 125c36 34 75 51 116 51zM236 285c26 0 58 -9 95 -27
s64 -27 81 -27c34 0 65 23 92 68l99 -53c-20 -49 -48 -91 -84 -125c-37 -34 -76 -51 -117 -51c-26 0 -57 9 -94 27s-65 27 -82 27c-34 0 -65 -23 -92 -68l-99 53c20 49 48 91 85 125c36 34 75 51 116 51z" />
    <glyph glyph-name="notequal" unicode="&#x2260;" 
d="M600 493v-149h-184l-23 -89h207v-149h-245l-53 -206h-142l53 206h-145v149h183l23 89h-206v149h244l54 209h142l-54 -209h146z" />
    <glyph glyph-name="lessequal" unicode="&#x2264;" 
d="M458 112l-382 199v112l486 254v-185l-270 -125l270 -124v-243h-486v112h382z" />
    <glyph glyph-name="greaterequal" unicode="&#x2265;" 
d="M106 677l486 -254v-112l-382 -199h382v-112h-486v243l270 124l-270 125v185z" />
    <glyph glyph-name="lozenge" unicode="&#x25ca;" horiz-adv-x="646" 
d="M254 702h138l234 -352l-234 -352h-138l-234 352zM420 350l-97 152l-97 -152l97 -151z" />
    <glyph glyph-name="uniF8FF" unicode="&#xf8ff;" horiz-adv-x="889" 
d="M710 316v-127c0 -40 -9 -59 -37 -72l-203 -104v239c0 18 6 30 18 37l145 74c9 5 18 7 29 7c28 0 48 -19 48 -54zM517 529l115 -57c16 -8 24 -20 24 -36c0 -19 -11 -34 -33 -45l-148 -75c-21 -11 -31 -31 -31 -61v-255l-265 135v260c0 24 10 41 29 52l165 84
c25 13 48 19 69 19c22 0 47 -7 75 -21z" />
    <glyph glyph-name="a.superior" horiz-adv-x="357" 
d="M343 397h-112c-13 6 -23 16 -30 29c-19 -23 -46 -34 -79 -34c-51 0 -96 33 -96 97c0 76 53 102 153 102h17c-2 16 -15 24 -38 24c-36 0 -68 -9 -96 -26c-14 19 -21 38 -21 56c0 19 7 32 22 39h-1c27 15 64 22 111 22c97 0 146 -41 146 -124v-100c0 -31 8 -60 24 -85z
M164 485c15 0 25 5 32 16v24h-18c-21 0 -32 -8 -32 -24c0 -11 6 -16 18 -16z" />
    <glyph glyph-name="o.superior" horiz-adv-x="381" 
d="M158 548c0 -41 11 -62 33 -62c21 0 32 21 32 62c0 42 -11 63 -32 63c-22 0 -33 -21 -33 -63zM25 548c0 97 61 158 166 158c104 0 165 -61 165 -158c0 -96 -61 -158 -165 -158s-166 62 -166 158z" />
    </font>
</defs>
</svg>
