<?xml version="1.0" standalone="no"?>
<!DOCTYPE svg PUBLIC "-//W3C//DTD SVG 1.1//EN" "http://www.w3.org/Graphics/SVG/1.1/DTD/svg11.dtd" >
<svg xmlns="http://www.w3.org/2000/svg" xmlns:xlink="http://www.w3.org/1999/xlink" version="1.1">
<metadata>
Created by FontForge 20161116 at Sun Mar  8 22:16:42 2015
 By Jimmy Warting
Copyright \(c\) 2013 by Design by Anuthin Wongsunkakon \(2005\) Revival by Stawix Ruecha \(2013\). For Cadson\(R\) Demak All rights reserved.
</metadata>
<defs>
<font id="AminoAlt-Regular2" horiz-adv-x="630" >
  <font-face 
    font-family="Amino-Alt"
    font-weight="400"
    font-stretch="normal"
    units-per-em="1000"
    panose-1="2 0 0 0 0 0 0 0 0 0"
    ascent="772"
    descent="-228"
    x-height="500"
    cap-height="700"
    bbox="-36 -209 1043 947"
    underline-thickness="20"
    underline-position="-100"
    stemh="66"
    stemv="76"
    unicode-range="U+0020-FB02"
  />
<missing-glyph horiz-adv-x="500" 
d="M500 0h-500v700h500v-700zM80 650l170 -255l170 255h-340zM450 605l-170 -255l170 -255v510zM250 305l-170 -255h340zM220 350l-170 255v-510z" />
    <glyph glyph-name="fi" unicode="fi" horiz-adv-x="604" 
d="M202 500h316v-500h-76v436h-239v-436h-76v436h-95v64h96v37c0 103 69 172 181 172c50 0 87 -7 110 -20c14 -7 21 -19 21 -34c0 -9 -2 -21 -7 -35c-35 17 -75 25 -120 25c-71 0 -111 -44 -111 -111v-34z" />
    <glyph glyph-name="fl" unicode="fl" horiz-adv-x="628" 
d="M202 524v-24h156v-64h-155v-436h-76v436h-95v64h96v27c0 109 79 182 211 182c77 0 144 -13 201 -39v-670h-76v627c-34 12 -74 18 -121 18c-79 0 -141 -45 -141 -121z" />
    <glyph glyph-name=".notdef" horiz-adv-x="500" 
d="M500 0h-500v700h500v-700zM80 650l170 -255l170 255h-340zM450 605l-170 -255l170 -255v510zM250 305l-170 -255h340zM220 350l-170 255v-510z" />
    <glyph glyph-name="null" horiz-adv-x="0" 
 />
    <glyph glyph-name="nonmarkingreturn" horiz-adv-x="333" 
 />
    <glyph glyph-name="space" unicode=" " horiz-adv-x="256" 
 />
    <glyph glyph-name="exclam" unicode="!" horiz-adv-x="234" 
d="M74 700h86l-14 -526h-58zM117 -6c-33 0 -50 16 -50 48s17 48 50 48s50 -16 50 -48s-17 -48 -50 -48z" />
    <glyph glyph-name="quotedbl" unicode="&#x22;" horiz-adv-x="316" 
d="M56 700h68l-9 -220h-51zM192 700h68l-9 -220h-51z" />
    <glyph glyph-name="numbersign" unicode="#" 
d="M529 700l-37 -219h93v-67h-105l-21 -119h97v-68h-108l-40 -227h-78l39 227h-149l-40 -227h-78l39 227h-96v68h107l21 119h-99v67h110l37 219h80l-37 -219h148l37 219h80zM401 414h-149l-21 -119h150z" />
    <glyph glyph-name="dollar" unicode="$" 
d="M296 66h3v269c-81 20 -139 45 -173 74s-51 71 -51 127c0 101 76 164 224 169v95h40v-95c69 -2 125 -14 169 -37c15 -7 22 -22 22 -44c0 -15 -3 -29 -9 -42c-49 31 -110 48 -182 51v-232c151 -37 228 -94 228 -209c0 -121 -76 -186 -228 -196v-96h-40v94h-4
c-78 0 -145 15 -201 44c-15 7 -22 22 -22 46c0 15 3 30 9 43c29 -18 64 -33 105 -44s78 -17 110 -17zM488 192c0 68 -53 105 -149 132v-256c93 9 149 51 149 124zM154 536c0 -67 37 -95 145 -124v221c-97 -4 -145 -41 -145 -97z" />
    <glyph glyph-name="percent" unicode="%" horiz-adv-x="761" 
d="M236 0h-76l365 700h76zM90 435c-24 27 -36 66 -36 115s12 88 36 116c24 27 56 41 95 41s71 -14 95 -41c24 -28 36 -67 36 -116s-12 -88 -36 -115c-24 -28 -56 -42 -95 -42s-71 14 -95 42zM230 479c12 17 18 40 18 71s-6 55 -18 72c-24 34 -66 34 -90 0
c-12 -17 -18 -41 -18 -72s6 -54 18 -71c24 -34 66 -34 90 0zM481 35c-24 27 -36 66 -36 115s12 88 36 116c24 27 56 41 95 41s71 -14 95 -41c24 -28 36 -67 36 -116s-12 -88 -36 -115c-24 -28 -56 -42 -95 -42s-71 14 -95 42zM621 79c12 17 18 40 18 71s-6 55 -18 72
c-24 34 -66 34 -90 0c-12 -17 -18 -41 -18 -72s6 -54 18 -71c24 -34 66 -34 90 0z" />
    <glyph glyph-name="ampersand" unicode="&#x26;" horiz-adv-x="665" 
d="M360 334l140 -163c32 42 52 86 60 131c41 -5 67 -40 59 -73c-7 -31 -30 -70 -69 -117l97 -112h-93l-56 63c-57 -48 -120 -72 -191 -72c-79 0 -141 21 -187 63c-47 41 -70 95 -70 162c0 85 46 163 142 202c-40 45 -60 90 -60 133c0 92 67 158 186 158
c57 0 103 -16 136 -49s50 -75 50 -124c0 -87 -51 -146 -144 -202zM306 61c56 0 104 19 144 58l-211 244c-75 -28 -111 -89 -111 -148c0 -45 17 -81 51 -110c33 -29 76 -44 127 -44zM426 535c0 60 -40 104 -107 104c-64 0 -109 -36 -109 -88c0 -37 20 -68 65 -120l39 -45
c76 51 112 94 112 149z" />
    <glyph glyph-name="quotesingle" unicode="'" horiz-adv-x="180" 
d="M56 700h68l-9 -220h-51z" />
    <glyph glyph-name="parenleft" unicode="(" horiz-adv-x="283" 
d="M273 -62l-34 -43c-114 93 -171 229 -171 406s57 313 171 406l34 -43c-43 -38 -75 -90 -96 -156c-21 -67 -31 -136 -31 -207s10 -140 31 -206c21 -67 53 -119 96 -157z" />
    <glyph glyph-name="parenright" unicode=")" horiz-adv-x="283" 
d="M10 664l34 43c114 -93 171 -229 171 -406s-57 -313 -171 -406l-34 43c43 38 75 90 96 157c21 66 31 135 31 206s-10 140 -31 207c-21 66 -53 118 -96 156z" />
    <glyph glyph-name="asterisk" unicode="*" horiz-adv-x="467" 
d="M387 610l20 -51l-138 -45l99 -108l-41 -36l-93 119l-96 -120l-38 38l98 108l-138 45l19 50l132 -54l-4 144h54l-7 -144z" />
    <glyph glyph-name="plus" unicode="+" 
d="M353 326h197v-72h-197v-189h-76v189h-197v72h197v189h76v-189z" />
    <glyph glyph-name="comma" unicode="," horiz-adv-x="220" 
d="M60 42c0 32 17 48 50 48s50 -18 50 -53c0 -19 -5 -44 -14 -75c-10 -31 -21 -60 -34 -86l-33 12c15 42 24 77 27 106c-31 1 -46 17 -46 48z" />
    <glyph glyph-name="hyphen" unicode="-" horiz-adv-x="396" 
d="M40 253v68h316v-68h-316z" />
    <glyph glyph-name="period" unicode="." horiz-adv-x="220" 
d="M110 -6c-33 0 -50 16 -50 48s17 48 50 48s50 -16 50 -48s-17 -48 -50 -48z" />
    <glyph glyph-name="slash" unicode="/" horiz-adv-x="305" 
d="M80 -100h-80l206 800h79z" />
    <glyph glyph-name="zero" unicode="0" 
d="M122 85c-48 63 -72 151 -72 265s24 202 72 265s112 94 193 94s145 -31 193 -94s72 -151 72 -265s-24 -202 -72 -265s-112 -94 -193 -94s-145 31 -193 94zM451 138c33 49 49 120 49 212s-16 163 -49 213c-33 49 -78 74 -136 74s-103 -25 -136 -74
c-33 -50 -49 -121 -49 -213s16 -163 49 -212c33 -50 78 -75 136 -75s103 25 136 75z" />
    <glyph glyph-name="one" unicode="1" 
d="M299 69v530l-131 -96l-44 57l193 140h62v-631h165v-69h-418v69h173z" />
    <glyph glyph-name="two" unicode="2" 
d="M543 72v-72h-466v62c97 56 180 118 249 190s112 156 112 233c0 101 -51 152 -153 152c-66 0 -123 -15 -171 -46c-12 13 -18 29 -18 48c0 13 4 22 11 26c49 29 111 44 184 44c151 0 227 -85 227 -224c0 -79 -28 -153 -85 -224s-129 -134 -214 -189h324z" />
    <glyph glyph-name="three" unicode="3" 
d="M278 63c111 0 188 55 188 155c0 99 -65 149 -181 149h-58l-30 42l198 219h-323v72h439v-51l-195 -215c147 -9 231 -92 231 -217c0 -75 -25 -131 -74 -169c-50 -38 -115 -57 -195 -57c-77 0 -159 23 -196 44c-8 5 -12 14 -12 27c0 22 9 39 26 50c22 -14 51 -26 87 -35
s68 -14 95 -14z" />
    <glyph glyph-name="four" unicode="4" 
d="M582 223v-70h-101v-153h-78v153h-361v52l375 495h64v-477h101zM144 223h259v344z" />
    <glyph glyph-name="five" unicode="5" 
d="M278 -9c-83 0 -164 21 -200 42c-7 5 -10 13 -10 26c0 23 8 40 24 51c22 -14 51 -25 87 -34c35 -9 68 -13 99 -13c123 0 201 51 201 156c0 104 -60 152 -199 152h-186l27 329h390v-72h-319l-16 -185h100c195 0 284 -76 284 -224c0 -77 -26 -134 -78 -171
c-53 -38 -121 -57 -204 -57z" />
    <glyph glyph-name="six" unicode="6" 
d="M361 638c-131 0 -203 -105 -216 -266c49 55 129 91 209 91c152 0 226 -89 226 -230c0 -155 -94 -242 -238 -242c-173 0 -276 124 -276 359c0 114 26 202 79 265s122 94 209 94c64 0 115 -11 152 -34c16 -11 13 -48 -4 -76c-43 26 -90 39 -141 39zM354 393
c-84 0 -160 -45 -207 -100c9 -148 78 -231 197 -231c93 0 157 63 157 171c0 99 -47 160 -147 160z" />
    <glyph glyph-name="seven" unicode="7" 
d="M469 628h-382v72h474v-62l-323 -638h-87z" />
    <glyph glyph-name="eight" unicode="8" 
d="M506 41c-45 -33 -108 -50 -191 -50s-146 17 -191 50s-67 82 -67 145c0 43 16 81 49 116s72 58 117 71c-81 23 -132 86 -132 161c0 123 87 175 224 175s224 -52 224 -175c0 -75 -51 -138 -132 -161c45 -13 84 -36 117 -71s49 -73 49 -116c0 -63 -22 -112 -67 -145z
M461 534c0 71 -49 106 -146 106s-146 -35 -146 -106c0 -60 54 -106 146 -129c92 23 146 69 146 129zM182 92c31 -21 75 -32 133 -32s103 11 134 32s46 52 46 93c0 39 -17 72 -51 101c-34 28 -77 46 -129 54c-52 -8 -95 -26 -129 -54c-34 -29 -51 -62 -51 -101
c0 -41 16 -72 47 -93z" />
    <glyph glyph-name="nine" unicode="9" 
d="M269 62c131 0 203 105 216 266c-49 -55 -129 -91 -209 -91c-152 0 -226 89 -226 230c0 155 94 242 238 242c173 0 276 -124 276 -359c0 -114 -26 -202 -79 -265s-122 -94 -209 -94c-64 0 -115 11 -152 34c-16 11 -13 48 4 76c43 -26 90 -39 141 -39zM276 307
c84 0 160 45 207 100c-9 148 -78 231 -197 231c-93 0 -157 -63 -157 -171c0 -99 47 -160 147 -160z" />
    <glyph glyph-name="colon" unicode=":" horiz-adv-x="236" 
d="M118 -6c-33 0 -50 16 -50 48s17 48 50 48s50 -16 50 -48s-17 -48 -50 -48zM118 355c-33 0 -50 16 -50 48s17 48 50 48s50 -16 50 -48s-17 -48 -50 -48z" />
    <glyph glyph-name="semicolon" unicode=";" horiz-adv-x="236" 
d="M68 42c0 32 17 48 50 48s50 -18 50 -53c0 -19 -5 -44 -14 -75c-10 -31 -21 -60 -34 -86l-33 12c15 42 24 77 27 106c-31 1 -46 17 -46 48zM118 355c-33 0 -50 16 -50 48s17 48 50 48s50 -16 50 -48s-17 -48 -50 -48z" />
    <glyph glyph-name="less" unicode="&#x3c;" 
d="M536 22l-456 251v44l456 251v-77l-361 -196l361 -197v-76z" />
    <glyph glyph-name="equal" unicode="=" 
d="M88 226h454v-72h-454v72zM88 426h454v-72h-454v72z" />
    <glyph glyph-name="greater" unicode="&#x3e;" 
d="M94 568l456 -251v-44l-456 -251v76l361 197l-361 196v77z" />
    <glyph glyph-name="question" unicode="?" horiz-adv-x="532" 
d="M49 665c49 29 112 44 187 44s135 -19 178 -56s64 -86 64 -147c0 -81 -65 -141 -115 -189c-35 -34 -63 -74 -63 -111v-32h-80v32c0 55 45 113 89 152s89 96 89 148c0 79 -58 131 -162 131c-69 0 -130 -17 -184 -52c-9 17 -14 34 -14 51c0 15 4 25 11 29zM261 -6
c-33 0 -50 16 -50 48s17 48 50 48s50 -16 50 -48s-17 -48 -50 -48z" />
    <glyph glyph-name="at" unicode="@" horiz-adv-x="1036" 
d="M976 343c0 -107 -24 -191 -72 -254c-49 -63 -105 -95 -169 -95s-103 32 -110 80c-44 -49 -98 -74 -163 -74c-111 0 -174 75 -174 195c0 85 27 158 80 221c53 62 124 93 214 93c53 0 109 -14 166 -42l-59 -334c-7 -39 7 -70 48 -70s79 25 112 75s49 118 49 203
c0 91 -27 163 -80 218c-54 54 -132 81 -234 81c-133 0 -240 -42 -322 -127c-83 -85 -124 -192 -124 -323c0 -103 31 -183 94 -241c62 -57 146 -86 253 -86c81 0 157 17 229 51c13 -13 19 -29 19 -48c0 -13 -6 -23 -17 -29c-25 -11 -59 -21 -102 -30c-44 -9 -88 -13 -132 -13
c-129 0 -231 34 -307 102c-77 69 -115 166 -115 293c0 151 48 276 143 374c95 97 222 146 380 146c127 0 224 -33 292 -98c67 -66 101 -155 101 -268zM612 144l51 283c-25 9 -53 13 -84 13c-64 0 -115 -24 -154 -71s-59 -105 -59 -172c0 -81 37 -128 98 -128
c59 0 109 25 148 75z" />
    <glyph glyph-name="A" unicode="A" horiz-adv-x="660" 
d="M12 0l288 702h16c37 0 49 -11 61 -40l271 -662h-83l-77 189h-317l-76 -189h-83zM460 259l-130 321l-131 -321h261z" />
    <glyph glyph-name="B" unicode="B" horiz-adv-x="683" 
d="M519 517c0 75 -47 112 -141 112h-207v-229h211c81 0 137 46 137 117zM510 102c27 21 40 53 40 98s-15 77 -44 98s-74 31 -134 31h-201v-258h212c58 0 100 10 127 31zM383 0h-291v700h286c147 0 220 -61 220 -183c0 -75 -46 -133 -111 -149c95 -15 142 -71 142 -168
c0 -133 -82 -200 -246 -200z" />
    <glyph glyph-name="C" unicode="C" horiz-adv-x="640" 
d="M386 637c-159 0 -248 -104 -248 -276c0 -193 87 -298 258 -298c72 0 138 20 197 59c5 -14 8 -27 8 -40c0 -21 -8 -37 -25 -47c-50 -29 -109 -44 -178 -44c-224 0 -340 135 -340 370c0 106 29 191 86 254s139 94 244 94c65 0 120 -11 164 -34c21 -11 31 -29 31 -54
c0 -13 -3 -24 -8 -33c-57 33 -120 49 -189 49z" />
    <glyph glyph-name="D" unicode="D" horiz-adv-x="715" 
d="M172 628v-556h159c163 0 246 105 246 284c0 175 -92 272 -260 272h-145zM331 0h-239v700h225c220 0 340 -124 340 -344c0 -223 -111 -356 -326 -356z" />
    <glyph glyph-name="E" unicode="E" horiz-adv-x="585" 
d="M466 322h-295v-250h384v-72h-463v700h452v-72h-373v-234h350v-17c0 -40 -15 -55 -55 -55z" />
    <glyph glyph-name="F" unicode="F" horiz-adv-x="563" 
d="M171 394h339v-72h-339v-322h-79v700h441v-72h-362v-234z" />
    <glyph glyph-name="G" unicode="G" horiz-adv-x="705" 
d="M399 394h235v-336c-73 -45 -152 -67 -236 -67c-224 0 -340 135 -340 370c0 106 30 191 89 254s142 94 247 94c77 0 138 -11 182 -34c21 -11 31 -29 31 -54c0 -13 -3 -24 -8 -33c-57 33 -126 49 -207 49c-160 0 -254 -105 -254 -276c0 -193 87 -298 258 -298
c59 0 112 13 159 39v220h-211v17c0 40 15 55 55 55z" />
    <glyph glyph-name="H" unicode="H" horiz-adv-x="732" 
d="M640 0h-80v322h-388v-322h-80v700h23c40 0 57 -17 57 -57v-249h388v306h80v-700z" />
    <glyph glyph-name="I" unicode="I" horiz-adv-x="272" 
d="M176 643v-643h-80v700h23c40 0 57 -17 57 -57z" />
    <glyph glyph-name="J" unicode="J" horiz-adv-x="500" 
d="M185 63c98 0 147 62 147 185v452h80v-455c0 -171 -84 -254 -227 -254c-61 0 -112 11 -152 34c-15 9 -23 25 -23 46c0 12 3 27 8 44c45 -35 100 -52 167 -52z" />
    <glyph glyph-name="K" unicode="K" horiz-adv-x="628" 
d="M286 369l-114 -114v-255h-80v700h23c40 0 57 -17 57 -57v-281l342 338h105l-276 -275l281 -425h-38c-37 0 -63 13 -80 39z" />
    <glyph glyph-name="L" unicode="L" horiz-adv-x="550" 
d="M172 643v-571h368v-72h-448v700h23c40 0 57 -17 57 -57z" />
    <glyph glyph-name="M" unicode="M" horiz-adv-x="848" 
d="M416 186h-16l-230 373v-559h-78v700h82l250 -407l250 407h82v-700h-78v559l-212 -345c-16 -24 -22 -28 -50 -28z" />
    <glyph glyph-name="N" unicode="N" horiz-adv-x="745" 
d="M573 700h80v-700h-82l-399 573v-573h-80v700h26c45 0 64 -11 88 -46l367 -527v573z" />
    <glyph glyph-name="O" unicode="O" horiz-adv-x="750" 
d="M611 86c-54 -63 -133 -95 -236 -95s-182 32 -236 95s-81 151 -81 264s27 201 81 264s133 95 236 95s182 -32 236 -95s81 -151 81 -264s-27 -201 -81 -264zM197 139c39 -51 99 -76 178 -76s139 25 178 76c39 50 59 120 59 211s-20 161 -59 212c-39 50 -99 75 -178 75
s-139 -25 -178 -75c-39 -51 -59 -121 -59 -212s20 -161 59 -211z" />
    <glyph glyph-name="P" unicode="P" horiz-adv-x="635" 
d="M345 268h-173v-268h-80v700h253c164 0 242 -79 242 -216c0 -144 -81 -216 -242 -216zM346 628h-174v-288h174c108 0 162 48 162 144s-54 144 -162 144z" />
    <glyph glyph-name="Q" unicode="Q" horiz-adv-x="750" 
d="M541 -101c33 0 65 6 95 17c-7 -67 -39 -86 -104 -86c-113 0 -179 54 -198 163c-181 17 -276 146 -276 357c0 225 110 359 317 359s317 -134 317 -359c0 -212 -97 -342 -280 -357c12 -55 53 -94 129 -94zM197 139c39 -51 99 -76 178 -76s139 25 178 76
c39 50 59 120 59 211s-20 161 -59 212c-39 50 -99 75 -178 75s-139 -25 -178 -75c-39 -51 -59 -121 -59 -212s20 -161 59 -211z" />
    <glyph glyph-name="R" unicode="R" horiz-adv-x="660" 
d="M370 302h-198v-302h-80v700h275c157 0 236 -66 236 -199c0 -93 -48 -156 -120 -181l133 -320h-31c-38 0 -63 15 -75 46l-106 257c-8 -1 -19 -1 -34 -1zM368 628h-196v-254h196c103 0 155 42 155 127s-52 127 -155 127z" />
    <glyph glyph-name="S" unicode="S" horiz-adv-x="609" 
d="M282 63c116 0 192 45 192 129c0 76 -62 113 -181 141c-85 21 -144 46 -179 75s-53 71 -53 128c0 105 84 173 243 173c77 0 141 -13 190 -38c15 -7 22 -22 22 -44c0 -15 -3 -29 -9 -42c-48 31 -130 52 -203 52c-109 0 -164 -41 -164 -101c0 -35 12 -62 37 -79
c25 -18 70 -36 137 -53c159 -37 239 -95 239 -212c0 -135 -100 -201 -272 -201c-78 0 -145 15 -201 44c-15 7 -22 22 -22 46c0 15 3 30 9 43c29 -18 64 -33 105 -44s78 -17 110 -17z" />
    <glyph glyph-name="T" unicode="T" horiz-adv-x="584" 
d="M14 700h556v-72l-238 3v-631h-80v631l-238 -3v72z" />
    <glyph glyph-name="U" unicode="U" horiz-adv-x="730" 
d="M215 125c31 -41 81 -62 150 -62s120 21 151 62s46 101 46 178v397h80v-406c0 -192 -89 -303 -277 -303s-277 111 -277 303v406h23c40 0 57 -17 57 -57v-340c0 -77 16 -137 47 -178z" />
    <glyph glyph-name="V" unicode="V" horiz-adv-x="650" 
d="M295 -2l-283 702h38c37 0 49 -11 61 -40l214 -540l230 580h83l-282 -702h-61z" />
    <glyph glyph-name="W" unicode="W" horiz-adv-x="1056" 
d="M282 130l206 570h33c37 0 50 -9 61 -40l192 -530l180 570h82l-226 -702h-73l-209 581l-209 -581h-73l-226 702h34c39 0 52 -11 61 -40z" />
    <glyph glyph-name="X" unicode="X" horiz-adv-x="644" 
d="M368 360l264 -360h-50c-37 0 -52 9 -72 36l-188 262l-215 -298h-95l264 359l-252 341h50c37 0 52 -9 72 -36l176 -241l202 277h95z" />
    <glyph glyph-name="Y" unicode="Y" horiz-adv-x="618" 
d="M130 664l181 -292l201 328h92l-254 -401v-299h-79v299l-257 401h44c39 0 55 -9 72 -36z" />
    <glyph glyph-name="Z" unicode="Z" horiz-adv-x="595" 
d="M101 700h451v-70l-421 -560h432v-70h-533v70l422 560h-406v15c0 40 15 55 55 55z" />
    <glyph glyph-name="bracketleft" unicode="[" horiz-adv-x="256" 
d="M90 700h146v-70h-70v-660h70v-70h-146v800z" />
    <glyph glyph-name="backslash" unicode="\" horiz-adv-x="305" 
d="M20 700h79l206 -800h-80z" />
    <glyph glyph-name="bracketright" unicode="]" horiz-adv-x="256" 
d="M90 630h-70v70h146v-800h-146v70h70v660z" />
    <glyph glyph-name="asciicircum" unicode="^" horiz-adv-x="454" 
d="M195 702h63l162 -299h-73l-120 225l-120 -225h-73z" />
    <glyph glyph-name="underscore" unicode="_" horiz-adv-x="476" 
d="M30 -137v48h416v-48h-416z" />
    <glyph glyph-name="grave" unicode="`" horiz-adv-x="350" 
d="M133 719l85 -118h-54l-152 120c13 17 34 26 62 26c26 0 46 -9 59 -28z" />
    <glyph glyph-name="a" unicode="a" horiz-adv-x="601" 
d="M440 152v199c-43 61 -97 92 -160 92c-92 0 -147 -65 -147 -193c0 -127 56 -194 140 -194c68 0 130 36 167 96zM515 445v-349c0 -39 6 -72 19 -97h-38c-34 0 -52 28 -54 85c-33 -53 -101 -94 -173 -94c-128 0 -211 91 -211 260c0 168 85 259 210 259c71 0 128 -29 171 -87
l4 78h17c37 0 55 -18 55 -55z" />
    <glyph glyph-name="b" unicode="b" horiz-adv-x="596" 
d="M161 347v-195c37 -60 97 -96 164 -96c83 0 138 67 138 194c0 128 -53 193 -145 193c-59 0 -112 -32 -157 -96zM86 0v700h21c37 0 55 -18 55 -55v-227c45 61 101 91 168 91c124 0 208 -90 208 -259c0 -171 -81 -260 -209 -260c-72 0 -134 38 -167 91l-6 -81h-70z" />
    <glyph glyph-name="c" unicode="c" horiz-adv-x="509" 
d="M298 443c-108 0 -166 -68 -166 -189c0 -124 57 -197 172 -197c54 0 106 15 156 45c5 -11 7 -23 7 -35c0 -23 -9 -39 -27 -48c-37 -19 -83 -28 -137 -28c-161 0 -247 98 -247 263c0 163 83 255 240 255c54 0 101 -9 142 -27c13 -5 19 -17 19 -35c0 -9 -2 -23 -7 -42
c-50 25 -101 38 -152 38z" />
    <glyph glyph-name="d" unicode="d" horiz-adv-x="596" 
d="M435 152v195c-45 64 -98 96 -157 96c-92 0 -145 -65 -145 -193c0 -127 55 -194 138 -194c67 0 127 36 164 96zM510 645v-549c0 -39 6 -72 19 -97h-38c-34 0 -52 28 -54 85c-33 -53 -98 -94 -170 -94c-128 0 -209 89 -209 260c0 169 84 259 208 259c68 0 124 -30 168 -91
v282h21c37 0 55 -18 55 -55z" />
    <glyph glyph-name="e" unicode="e" horiz-adv-x="569" 
d="M505 271v-60h-371c11 -97 69 -154 165 -154c65 0 124 18 177 55c12 -23 8 -65 -19 -84c-35 -25 -87 -37 -158 -37c-159 0 -243 95 -243 259c0 163 83 259 234 259c137 0 215 -95 215 -238zM290 443c-95 0 -150 -62 -157 -170h295c1 101 -53 170 -138 170z" />
    <glyph glyph-name="f" unicode="f" horiz-adv-x="376" 
d="M128 436h-96v64h96v47c0 103 54 162 159 162c31 0 59 -4 82 -13c14 -5 21 -16 21 -34c0 -9 -2 -21 -7 -35c-29 12 -61 18 -94 18c-63 0 -87 -33 -87 -101v-44h156v-64h-156v-436h-74v436z" />
    <glyph glyph-name="g" unicode="g" horiz-adv-x="536" 
d="M55 333c0 117 68 176 205 176c48 0 86 -7 113 -21c21 14 46 21 75 21c48 0 65 -18 61 -53l-2 -17c-17 9 -38 14 -64 14c-9 0 -16 0 -21 -1c28 -24 42 -64 42 -119c0 -118 -68 -177 -204 -177c-45 0 -78 5 -99 15c-9 -6 -13 -18 -13 -36c0 -32 22 -58 73 -58h91
c127 0 191 -48 191 -143c0 -89 -75 -143 -231 -143c-148 0 -222 48 -222 144c0 45 29 92 78 112c-35 16 -52 44 -52 85c0 29 12 53 35 72c-37 26 -56 69 -56 129zM260 450c-88 0 -132 -39 -132 -117s44 -117 132 -117c87 0 131 39 131 117s-44 117 -131 117zM123 -65
c0 -56 50 -84 149 -84c107 0 158 34 158 83c0 57 -35 82 -118 82h-121c-45 -13 -68 -40 -68 -81z" />
    <glyph glyph-name="h" unicode="h" horiz-adv-x="611" 
d="M453 55v253c0 85 -37 135 -105 135c-67 0 -129 -32 -186 -96v-347h-76v700h21c37 0 55 -18 55 -55v-227c47 49 122 91 199 91c107 0 168 -70 168 -194v-315h-21c-37 0 -55 18 -55 55z" />
    <glyph glyph-name="i" unicode="i" horiz-adv-x="248" 
d="M162 0h-76v500h21c37 0 55 -18 55 -55v-445zM72 641c0 -32 17 -48 52 -48s52 16 52 49c0 32 -17 48 -52 48s-52 -16 -52 -49z" />
    <glyph glyph-name="j" unicode="j" horiz-adv-x="248" 
d="M182 445v-512c0 -92 -47 -142 -126 -142c-27 0 -50 3 -68 9c-22 7 -26 31 -13 72c20 -11 43 -16 70 -16c44 0 61 25 61 82v562h21c37 0 55 -18 55 -55zM92 641c0 33 17 49 52 49s52 -16 52 -48c0 -33 -17 -49 -52 -49s-52 16 -52 48z" />
    <glyph glyph-name="k" unicode="k" horiz-adv-x="553" 
d="M162 262v-262h-76v700h21c37 0 55 -18 55 -55v-322c36 9 65 14 87 14c13 0 22 0 27 -1l149 164h89l-177 -190c15 -11 29 -28 42 -51c12 -23 20 -41 24 -55s10 -35 17 -63c14 -58 33 -87 56 -87c13 0 27 7 42 20l21 -52c-19 -18 -43 -27 -70 -27c-71 0 -99 50 -119 134
c-13 56 -25 92 -36 109c-16 25 -40 38 -71 38c-27 0 -54 -5 -81 -14z" />
    <glyph glyph-name="l" unicode="l" horiz-adv-x="252" 
d="M164 645v-645h-76v700h21c37 0 55 -18 55 -55z" />
    <glyph glyph-name="m" unicode="m" horiz-adv-x="878" 
d="M720 55v273c0 75 -29 115 -80 115c-60 0 -114 -31 -163 -94c0 -4 1 -11 1 -14v-335h-76v328c0 75 -29 115 -80 115c-61 0 -115 -33 -162 -98v-345h-76v500h19c34 0 52 -16 54 -49l3 -33c50 61 107 91 172 91c71 0 117 -33 136 -100c43 56 110 100 182 100
c97 0 146 -66 146 -174v-335h-21c-37 0 -55 18 -55 55z" />
    <glyph glyph-name="n" unicode="n" horiz-adv-x="605" 
d="M447 55v253c0 87 -36 135 -103 135c-66 0 -127 -32 -184 -96v-347h-76v500h19c34 0 52 -16 54 -49l3 -33c47 49 120 91 197 91c107 0 166 -69 166 -194v-315h-21c-37 0 -55 18 -55 55z" />
    <glyph glyph-name="o" unicode="o" horiz-adv-x="592" 
d="M174 108c27 -34 68 -51 122 -51s95 17 123 51c27 33 41 81 41 142s-14 109 -41 143c-28 33 -69 50 -123 50s-95 -17 -122 -50c-28 -34 -42 -82 -42 -143s14 -109 42 -142zM118 441c41 45 100 68 178 68s138 -23 179 -68s61 -109 61 -191s-20 -146 -61 -191
s-101 -68 -179 -68s-137 23 -178 68s-62 109 -62 191s21 146 62 191z" />
    <glyph glyph-name="p" unicode="p" horiz-adv-x="592" 
d="M157 347v-195c37 -60 97 -96 164 -96c83 0 138 67 138 194c0 128 -53 193 -145 193c-59 0 -112 -32 -157 -96zM158 -200h-76v700h19c34 0 52 -16 54 -49l3 -33c44 61 100 91 168 91c124 0 208 -90 208 -259c0 -171 -81 -260 -209 -260c-72 0 -134 38 -167 91v-281z" />
    <glyph glyph-name="q" unicode="q" horiz-adv-x="592" 
d="M435 152v195c-45 64 -98 96 -157 96c-92 0 -145 -65 -145 -193c0 -127 55 -194 138 -194c67 0 127 36 164 96zM510 445v-645h-76v280c-35 -52 -96 -90 -167 -90c-128 0 -209 89 -209 260c0 169 84 259 208 259c68 0 124 -30 168 -91l4 82h17c37 0 55 -18 55 -55z" />
    <glyph glyph-name="r" unicode="r" horiz-adv-x="408" 
d="M310 509c33 0 57 -5 70 -14c11 -8 17 -20 17 -37c0 -13 -4 -27 -11 -44c-26 17 -54 25 -84 25c-65 0 -105 -33 -142 -92v-347h-76v500h19c34 0 52 -16 54 -49l3 -33c35 61 85 91 150 91z" />
    <glyph glyph-name="s" unicode="s" horiz-adv-x="480" 
d="M239 56c80 0 120 26 120 77c0 48 -39 69 -138 96c-44 12 -59 17 -94 34c-18 8 -32 17 -41 26c-19 18 -35 49 -35 88c0 92 77 132 182 132c68 0 120 -9 157 -27c15 -7 22 -24 22 -49c0 -9 -1 -18 -3 -26c-45 25 -103 37 -176 37c-60 0 -107 -22 -107 -67s40 -65 116 -85
c69 -19 118 -39 148 -61c29 -22 44 -55 44 -98c0 -96 -74 -142 -193 -142c-73 0 -132 12 -175 36c-13 7 -20 23 -20 46c0 3 1 14 3 34c59 -34 123 -51 190 -51z" />
    <glyph glyph-name="t" unicode="t" horiz-adv-x="439" 
d="M160 700h54v-200h177v-64h-177v-283c0 -65 27 -98 82 -98c35 0 65 8 92 24c17 -28 20 -54 0 -69c-21 -13 -54 -19 -101 -19c-91 0 -147 55 -147 150v295h-114v64h114z" />
    <glyph glyph-name="u" unicode="u" horiz-adv-x="593" 
d="M436 84c-62 -62 -124 -93 -187 -93c-108 0 -169 70 -169 194v315h21c37 0 55 -18 55 -55v-253c0 -85 38 -135 106 -135c67 0 111 35 171 96v347h76v-404c0 -39 6 -72 19 -97h-38c-34 0 -52 28 -54 85z" />
    <glyph glyph-name="v" unicode="v" horiz-adv-x="518" 
d="M112 462l147 -367l163 405h80l-209 -502h-69l-208 502h37c29 0 48 -13 59 -38z" />
    <glyph glyph-name="w" unicode="w" horiz-adv-x="804" 
d="M222 114l142 386h31c30 0 50 -13 59 -38l128 -348l125 386h77l-166 -502h-70l-146 395l-146 -395h-70l-166 502h30c31 0 51 -13 59 -38z" />
    <glyph glyph-name="x" unicode="x" horiz-adv-x="497" 
d="M375 30l-127 170l-148 -200h-92l196 256l-186 244h53c25 0 44 -10 59 -30l118 -159l142 189h89l-187 -244l197 -256h-55c-25 0 -44 10 -59 30z" />
    <glyph glyph-name="y" unicode="y" horiz-adv-x="518" 
d="M114 462l156 -369l156 407h80l-237 -590c-35 -88 -85 -116 -150 -116c-69 0 -96 28 -82 84c21 -15 45 -22 72 -22c51 0 74 20 95 72l30 73l-214 499h35c29 0 48 -13 59 -38z" />
    <glyph glyph-name="z" unicode="z" horiz-adv-x="476" 
d="M330 436h-288v11c0 35 18 53 53 53h333v-54l-293 -382h299v-64h-398v54z" />
    <glyph glyph-name="braceleft" unicode="{" horiz-adv-x="336" 
d="M68 267h-18v-1v67h18c33 0 50 21 53 63l13 185c6 79 49 119 129 119h48v-62l-49 -2c-37 -1 -50 -19 -53 -59l-10 -175c-4 -59 -21 -85 -61 -101v-2c40 -16 57 -42 61 -101l10 -175c3 -40 16 -58 53 -59l49 -2v-62h-48c-80 0 -123 40 -129 119l-13 185
c-3 42 -20 63 -53 63z" />
    <glyph glyph-name="bar" unicode="|" horiz-adv-x="318" 
d="M120 700h78v-800h-78v800z" />
    <glyph glyph-name="braceright" unicode="}" horiz-adv-x="336" 
d="M286 333v-67v1h-18c-33 0 -50 -21 -53 -63l-13 -185c-6 -79 -49 -119 -129 -119h-48v62l49 2c37 1 50 19 53 59l10 175c4 59 21 85 61 101v2c-40 16 -57 42 -61 101l-10 175c-3 40 -16 58 -53 59l-49 2v62h48c80 0 123 -40 129 -119l13 -185c3 -42 20 -63 53 -63h18z" />
    <glyph glyph-name="asciitilde" unicode="~" horiz-adv-x="583" 
d="M387 348c43 0 77 21 102 62l50 -16c-35 -68 -89 -108 -152 -108c-27 0 -61 11 -101 33c-41 21 -71 32 -90 32c-43 0 -77 -21 -102 -62l-50 16c35 68 91 108 152 108c27 0 61 -11 102 -32c40 -22 70 -33 89 -33z" />
    <glyph glyph-name="uni00A0" unicode="&#xa0;" horiz-adv-x="240" 
 />
    <glyph glyph-name="exclamdown" unicode="&#xa1;" horiz-adv-x="234" 
d="M160 -197h-86l14 526h58zM117 509c33 0 50 -16 50 -48s-17 -48 -50 -48s-50 16 -50 48s17 48 50 48z" />
    <glyph glyph-name="cent" unicode="&#xa2;" 
d="M373 -100h-40v92c-143 12 -217 107 -217 262s74 246 217 254v92h40v-91c47 -2 88 -11 125 -27c13 -5 19 -17 19 -35c0 -9 -2 -23 -7 -42c-47 23 -92 36 -137 38v-386c50 1 99 16 147 45c5 -12 7 -24 7 -35c0 -23 -9 -39 -27 -48c-33 -17 -75 -26 -127 -28v-91zM192 254
c0 -118 47 -183 141 -195v383c-92 -9 -141 -76 -141 -188z" />
    <glyph glyph-name="sterling" unicode="&#xa3;" 
d="M202 321h-132v68h101c-33 43 -49 89 -49 137c0 54 20 98 61 132s95 51 164 51c79 0 139 -13 182 -40c17 -12 13 -52 -4 -80c-51 32 -110 48 -178 48c-85 0 -147 -45 -147 -110c0 -47 19 -93 58 -138h194v-68h-165c9 -25 13 -46 13 -65c0 -67 -28 -129 -83 -184h337v-72
h-483v64c42 15 78 41 107 77c29 35 44 74 44 115c0 19 -7 41 -20 65z" />
    <glyph glyph-name="currency" unicode="&#xa4;" horiz-adv-x="513" 
d="M177 400c-44 -45 -44 -115 0 -160c22 -23 48 -34 79 -34s58 11 81 34c22 23 33 49 33 80s-11 57 -33 80c-23 22 -50 33 -81 33s-57 -11 -79 -33zM86 320c0 34 10 66 30 97l-36 36l40 40l35 -35c33 22 67 33 101 33c35 0 69 -11 102 -33c13 14 24 26 35 35l40 -40l-36 -36
c21 -32 31 -64 31 -97c0 -35 -10 -67 -31 -97l36 -36l-40 -40l-35 35c-32 -22 -66 -33 -102 -33c-35 0 -69 11 -101 33c-13 -14 -24 -26 -35 -35l-40 40l36 36c-20 33 -30 65 -30 97z" />
    <glyph glyph-name="yen" unicode="&#xa5;" 
d="M606 700l-160 -257h107v-48h-137l-56 -89h193v-48h-197v-258h-79v258h-200v48h195l-56 89h-139v48h109l-162 257h44c39 0 56 -11 72 -36l177 -292l197 328h92z" />
    <glyph glyph-name="brokenbar" unicode="&#xa6;" horiz-adv-x="276" 
d="M100 700h76v-320h-76v320zM100 220h76v-320h-76v320z" />
    <glyph glyph-name="section" unicode="&#xa7;" 
d="M310 -141c79 0 119 27 119 81c0 51 -40 76 -141 116c-47 19 -89 47 -126 86c-37 38 -56 79 -56 124c0 59 37 114 112 167c-62 29 -93 75 -93 137c0 96 76 139 183 139c59 0 112 -10 157 -29c21 -10 28 -38 20 -83c-65 29 -124 44 -177 44c-60 0 -106 -23 -106 -71
c0 -49 47 -80 123 -109c133 -51 200 -121 200 -210c0 -65 -49 -132 -116 -172c67 -40 97 -79 97 -139c0 -100 -74 -149 -194 -149c-63 0 -122 13 -176 38c-19 9 -25 38 -18 86c73 -37 137 -56 192 -56zM183 266c0 -33 16 -63 48 -90c31 -28 66 -49 105 -63
c29 11 55 30 78 57s34 54 34 81c0 61 -53 108 -162 151c-55 -29 -103 -84 -103 -136z" />
    <glyph glyph-name="dieresis" unicode="&#xa8;" horiz-adv-x="350" 
d="M15 641c0 33 17 49 52 49s52 -16 52 -48c0 -33 -17 -49 -52 -49s-52 16 -52 48zM231 641c0 33 17 49 52 49s52 -16 52 -48c0 -33 -17 -49 -52 -49s-52 16 -52 48z" />
    <glyph glyph-name="copyright" unicode="&#xa9;" horiz-adv-x="836" 
d="M248 350c0 127 66 192 185 192c36 0 69 -6 100 -18c9 -3 15 -14 18 -31s2 -30 -1 -37c-43 19 -81 28 -116 28c-80 0 -120 -45 -120 -134s40 -134 120 -134c38 0 79 11 122 33c3 -7 4 -19 4 -36c-1 -17 -5 -28 -12 -31c-33 -16 -71 -24 -115 -24c-120 0 -185 64 -185 192z
M584 20c-48 -19 -103 -29 -166 -29s-118 10 -165 29c-96 38 -150 108 -177 193c-28 84 -28 190 0 275c27 84 81 155 177 193c47 19 102 28 165 28s118 -9 166 -28c95 -38 149 -109 177 -193c27 -85 27 -191 0 -275c-28 -85 -82 -155 -177 -193zM280 73
c39 -17 85 -25 138 -25s99 8 139 25c79 32 121 93 143 163s22 159 0 229s-64 130 -143 163c-40 16 -86 24 -139 24s-99 -8 -138 -24c-80 -33 -121 -93 -143 -163s-22 -159 0 -229s63 -131 143 -163z" />
    <glyph glyph-name="ordfeminine" unicode="&#xaa;" horiz-adv-x="364" 
d="M316 397h-35c-22 0 -34 15 -37 44c-30 -31 -65 -47 -106 -47c-57 0 -98 31 -98 92c0 72 50 101 150 101h52v9c0 39 -21 59 -64 59c-37 0 -72 -9 -105 -27c-3 7 -4 15 -4 24c0 20 7 33 21 40c21 9 51 14 89 14c81 0 121 -36 121 -108v-138c0 -20 5 -41 16 -63zM143 446
c37 0 70 15 99 46v45h-49c-65 0 -95 -12 -95 -51c0 -25 20 -40 45 -40z" />
    <glyph glyph-name="guillemotleft" unicode="&#xab;" horiz-adv-x="561" 
d="M202 40l-172 210l172 210h83l-172 -210l172 -210h-83zM428 40l-172 210l172 210h83l-172 -210l172 -210h-83z" />
    <glyph glyph-name="logicalnot" unicode="&#xac;" horiz-adv-x="497" 
d="M34 350v68h407v-243h-81v175h-326z" />
    <glyph glyph-name="uni00AD" unicode="&#xad;" horiz-adv-x="208" 
d="M0 264v67h208v-67h-208z" />
    <glyph glyph-name="registered" unicode="&#xae;" horiz-adv-x="528" 
d="M120 396c-33 35 -50 78 -50 129s17 94 50 129s81 53 144 53s112 -18 145 -53s49 -78 49 -129s-16 -94 -49 -129s-82 -53 -145 -53s-111 18 -144 53zM299 447l-24 56h-35v-76h-44v194h77c48 0 72 -19 72 -57c0 -28 -10 -46 -31 -53l41 -84h-25c-15 0 -25 7 -31 20z
M274 586h-34v-45h34c19 0 28 8 28 24c0 14 -9 21 -28 21zM379 421c24 27 36 61 36 104s-12 77 -36 104c-25 27 -63 40 -115 40s-90 -13 -114 -40c-25 -27 -37 -61 -37 -104s12 -77 37 -104c24 -27 62 -40 114 -40s90 13 115 40z" />
    <glyph glyph-name="overscore" unicode="&#xaf;" horiz-adv-x="350" 
d="M339 618h-328v56h328v-56z" />
    <glyph glyph-name="degree" unicode="&#xb0;" horiz-adv-x="340" 
d="M119 645c-24 -26 -24 -82 0 -108c12 -13 29 -20 50 -20c44 0 70 29 70 74s-26 74 -70 74c-21 0 -38 -7 -50 -20zM83 508c-22 21 -33 49 -33 83s11 62 33 83s51 32 86 32c72 0 121 -47 121 -115s-49 -115 -121 -115c-35 0 -64 11 -86 32z" />
    <glyph glyph-name="plusminus" unicode="&#xb1;" 
d="M353 366h197v-72h-197v-189h-76v189h-197v72h197v189h76v-189zM80 0v48h470v-48h-470z" />
    <glyph glyph-name="twosuperior" unicode="&#xb2;" horiz-adv-x="293" 
d="M250 445v-50h-213v38c84 51 149 116 149 173c0 35 -19 53 -57 53c-24 0 -47 -7 -70 -20c-9 9 -14 20 -14 31c0 8 5 15 14 22c21 11 45 17 72 17c71 0 108 -38 108 -103c0 -61 -44 -124 -107 -161h118z" />
    <glyph glyph-name="threesuperior" unicode="&#xb3;" horiz-adv-x="297" 
d="M140 441c41 0 68 19 68 54c0 37 -22 55 -67 55h-22l-20 25l77 81h-126v49h200v-36l-74 -77c51 -12 85 -50 85 -97c0 -68 -49 -103 -121 -103c-34 0 -63 6 -87 18c-6 6 -9 13 -9 21c0 14 7 24 20 31c25 -14 51 -21 76 -21z" />
    <glyph glyph-name="acute" unicode="&#xb4;" horiz-adv-x="350" 
d="M338 721l-152 -120h-54l85 118c13 19 33 28 59 28c28 0 49 -9 62 -26z" />
    <glyph glyph-name="mu" unicode="&#xb5;" horiz-adv-x="595" 
d="M158 -200h-76v700h21c37 0 55 -18 55 -55v-253c0 -85 38 -135 106 -135c59 0 116 32 171 96v347h76v-404c0 -39 6 -72 19 -97h-38c-34 0 -52 28 -54 85c-55 -62 -113 -93 -172 -93c-44 0 -80 11 -108 34v-225z" />
    <glyph glyph-name="paragraph" unicode="&#xb6;" horiz-adv-x="558" 
d="M334 666h-56v-225h56v225zM331 -62v438h-51c-71 0 -124 13 -157 38c-34 25 -51 72 -51 142c0 123 56 174 207 174h209v-64h-80v-733c0 -92 -47 -142 -126 -142c-27 0 -50 3 -68 9c-22 7 -26 31 -13 72c20 -11 43 -16 70 -16c44 0 60 25 60 82z" />
    <glyph glyph-name="middot" unicode="&#xb7;" horiz-adv-x="220" 
d="M110 260c-33 0 -50 16 -50 48s17 48 50 48s50 -16 50 -48s-17 -48 -50 -48z" />
    <glyph glyph-name="cedilla" unicode="&#xb8;" horiz-adv-x="350" 
d="M47 -180l115 130h54l-69 -118c-10 -19 -28 -28 -55 -28c-18 0 -33 5 -45 16z" />
    <glyph glyph-name="onesuperior" unicode="&#xb9;" horiz-adv-x="277" 
d="M125 444v192l-47 -36l-28 40l90 65h37v-261h70v-49h-194v49h72z" />
    <glyph glyph-name="ordmasculine" unicode="&#xba;" horiz-adv-x="392" 
d="M132 473c15 -18 36 -27 64 -27s50 9 65 27s22 43 22 76s-7 58 -22 76s-37 27 -65 27s-49 -9 -64 -27s-23 -43 -23 -76s8 -58 23 -76zM87 665c25 27 61 41 109 41s84 -14 109 -41s37 -66 37 -116s-12 -89 -37 -116c-25 -28 -61 -42 -109 -42s-84 14 -109 42
c-25 27 -37 66 -37 116s12 89 37 116z" />
    <glyph glyph-name="guillemotright" unicode="&#xbb;" horiz-adv-x="561" 
d="M50 460h83l172 -210l-172 -210h-83l172 210zM276 460h83l172 -210l-172 -210h-83l172 210z" />
    <glyph glyph-name="onequarter" unicode="&#xbc;" horiz-adv-x="801" 
d="M621 700h-76l-365 -700h76zM145 444v192l-47 -36l-28 40l90 65h37v-261h70v-49h-194v49h72zM699 111v-48h-42v-63h-52v63h-149v34l162 213h39v-199h42zM525 111h80v105z" />
    <glyph glyph-name="onehalf" unicode="&#xbd;" horiz-adv-x="801" 
d="M621 700h-76l-365 -700h76zM145 444v192l-47 -36l-28 40l90 65h37v-261h70v-49h-194v49h72zM704 50v-50h-213v38c84 51 149 116 149 173c0 35 -19 53 -57 53c-24 0 -47 -7 -70 -20c-9 9 -14 20 -14 31c0 7 5 15 14 22c21 11 45 17 72 17c71 0 108 -38 108 -103
c0 -61 -44 -124 -107 -161h118z" />
    <glyph glyph-name="threequarters" unicode="&#xbe;" horiz-adv-x="801" 
d="M621 700h-76l-365 -700h76zM699 111v-48h-42v-63h-52v63h-149v34l162 213h39v-199h42zM525 111h80v105zM164 441c41 0 68 19 68 54c0 37 -22 55 -67 55h-22l-20 25l77 81h-126v49h200v-36l-74 -77c51 -12 85 -50 85 -97c0 -68 -49 -103 -121 -103c-34 0 -63 6 -87 18
c-6 6 -9 13 -9 21c0 14 7 24 20 31c25 -14 51 -21 76 -21z" />
    <glyph glyph-name="questiondown" unicode="&#xbf;" horiz-adv-x="532" 
d="M483 -162c-49 -29 -112 -44 -187 -44s-134 19 -177 56s-65 86 -65 147c0 81 65 141 115 190c35 34 63 73 63 110v32h80v-32c0 -55 -45 -113 -89 -152s-89 -96 -89 -148c0 -79 58 -131 162 -131c69 0 130 17 184 52c9 -17 14 -34 14 -51c0 -15 -4 -25 -11 -29zM271 509
c33 0 50 -16 50 -48s-17 -48 -50 -48s-50 16 -50 48s17 48 50 48z" />
    <glyph glyph-name="Agrave" unicode="&#xc0;" horiz-adv-x="660" 
d="M316 702c37 0 49 -11 61 -40l271 -662h-83l-77 189h-317l-76 -189h-83l288 702h16zM199 259h261l-130 321zM433 801l-85 118c-13 19 -33 28 -59 28c-28 0 -49 -9 -62 -26l152 -120h54z" />
    <glyph glyph-name="Aacute" unicode="&#xc1;" horiz-adv-x="660" 
d="M316 702c37 0 49 -11 61 -40l271 -662h-83l-77 189h-317l-76 -189h-83l288 702h16zM199 259h261l-130 321zM281 801l152 120c-13 17 -34 26 -62 26c-26 0 -46 -9 -59 -28l-85 -118h54z" />
    <glyph glyph-name="Acircumflex" unicode="&#xc2;" horiz-adv-x="660" 
d="M316 702c37 0 49 -11 61 -40l271 -662h-83l-77 189h-317l-76 -189h-83l288 702h16zM199 259h261l-130 321zM330 877l93 -70h58l-116 120c-11 11 -25 17 -40 17h-13l-133 -137h58z" />
    <glyph glyph-name="Atilde" unicode="&#xc3;" horiz-adv-x="660" 
d="M316 702c37 0 49 -11 61 -40l271 -662h-83l-77 189h-317l-76 -189h-83l288 702h16zM199 259h261l-130 321zM393 820c59 0 86 28 94 97h-52c-3 -29 -17 -44 -42 -44c-13 0 -32 7 -58 22c-27 15 -49 22 -67 22c-60 0 -86 -28 -95 -97h53c3 29 17 44 42 44
c11 0 30 -7 57 -22s49 -22 68 -22z" />
    <glyph glyph-name="Adieresis" unicode="&#xc4;" horiz-adv-x="660" 
d="M316 702c37 0 49 -11 61 -40l271 -662h-83l-77 189h-317l-76 -189h-83l288 702h16zM199 259h261l-130 321zM170 841c0 -32 17 -48 52 -48s52 16 52 49c0 32 -17 48 -52 48s-52 -16 -52 -49zM386 841c0 -32 17 -48 52 -48s52 16 52 49c0 32 -17 48 -52 48s-52 -16 -52 -49
z" />
    <glyph glyph-name="Aring" unicode="&#xc5;" horiz-adv-x="660" 
d="M316 702c37 0 49 -11 61 -40l271 -662h-83l-77 189h-317l-76 -189h-83l288 702h16zM199 259h261l-130 321zM301 833c-15 12 -15 42 0 55s43 13 58 0s15 -43 0 -55c-15 -13 -43 -13 -58 0zM264 921c-33 -32 -33 -90 1 -121c17 -15 38 -23 65 -23s49 8 66 23
c34 31 33 89 0 121c-17 15 -39 23 -66 23s-49 -8 -66 -23z" />
    <glyph glyph-name="AE" unicode="&#xc6;" horiz-adv-x="956" 
d="M846 322h-279v-250h359v-72h-437v206h-260l-153 -206h-96l522 700h413v-72h-348v-234h334v-17c0 -40 -15 -55 -55 -55zM280 274h209v281z" />
    <glyph glyph-name="Ccedilla" unicode="&#xc7;" horiz-adv-x="640" 
d="M386 637c-159 0 -248 -104 -248 -276c0 -193 87 -298 258 -298c72 0 138 20 197 59c5 -14 8 -27 8 -40c0 -21 -8 -37 -25 -47c-50 -29 -109 -44 -178 -44c-224 0 -340 135 -340 370c0 106 29 191 86 254s139 94 244 94c65 0 120 -11 164 -34c21 -11 31 -29 31 -54
c0 -13 -3 -24 -8 -33c-57 33 -120 49 -189 49zM245 -180l115 130h54l-69 -118c-10 -19 -28 -28 -55 -28c-18 0 -33 5 -45 16z" />
    <glyph glyph-name="Egrave" unicode="&#xc8;" horiz-adv-x="585" 
d="M171 322v-250h384v-72h-463v700h452v-72h-373v-234h350v-17c0 -40 -15 -55 -55 -55h-295zM395 801l-85 118c-13 19 -33 28 -59 28c-28 0 -49 -9 -62 -26l152 -120h54z" />
    <glyph glyph-name="Eacute" unicode="&#xc9;" horiz-adv-x="585" 
d="M171 322v-250h384v-72h-463v700h452v-72h-373v-234h350v-17c0 -40 -15 -55 -55 -55h-295zM243 801l152 120c-13 17 -34 26 -62 26c-26 0 -46 -9 -59 -28l-85 -118h54z" />
    <glyph glyph-name="Ecircumflex" unicode="&#xca;" horiz-adv-x="585" 
d="M171 322v-250h384v-72h-463v700h452v-72h-373v-234h350v-17c0 -40 -15 -55 -55 -55h-295zM292 877l93 -70h58l-116 120c-11 11 -25 17 -40 17h-13l-133 -137h58z" />
    <glyph glyph-name="Edieresis" unicode="&#xcb;" horiz-adv-x="585" 
d="M171 322v-250h384v-72h-463v700h452v-72h-373v-234h350v-17c0 -40 -15 -55 -55 -55h-295zM132 841c0 -32 17 -48 52 -48s52 16 52 49c0 32 -17 48 -52 48s-52 -16 -52 -49zM348 841c0 -32 17 -48 52 -48s52 16 52 49c0 32 -17 48 -52 48s-52 -16 -52 -49z" />
    <glyph glyph-name="Igrave" unicode="&#xcc;" horiz-adv-x="272" 
d="M176 0h-80v700h23c40 0 57 -17 57 -57v-643zM239 801l-85 118c-13 19 -33 28 -59 28c-28 0 -49 -9 -62 -26l152 -120h54z" />
    <glyph glyph-name="Iacute" unicode="&#xcd;" horiz-adv-x="272" 
d="M176 0h-80v700h23c40 0 57 -17 57 -57v-643zM87 801l152 120c-13 17 -34 26 -62 26c-26 0 -46 -9 -59 -28l-85 -118h54z" />
    <glyph glyph-name="Icircumflex" unicode="&#xce;" horiz-adv-x="272" 
d="M176 0h-80v700h23c40 0 57 -17 57 -57v-643zM136 877l93 -70h58l-116 120c-11 11 -25 17 -40 17h-13l-133 -137h58z" />
    <glyph glyph-name="Idieresis" unicode="&#xcf;" horiz-adv-x="272" 
d="M176 0h-80v700h23c40 0 57 -17 57 -57v-643zM-24 841c0 -32 17 -48 52 -48s52 16 52 49c0 32 -17 48 -52 48s-52 -16 -52 -49zM192 841c0 -32 17 -48 52 -48s52 16 52 49c0 32 -17 48 -52 48s-52 -16 -52 -49z" />
    <glyph glyph-name="Eth" unicode="&#xd0;" horiz-adv-x="715" 
d="M15 293v68h77v339h225c220 0 340 -124 340 -344c0 -223 -111 -356 -326 -356h-239v293h-77zM172 293v-221h159c163 0 246 105 246 284c0 175 -92 272 -260 272h-145v-267h179v-68h-179z" />
    <glyph glyph-name="Ntilde" unicode="&#xd1;" horiz-adv-x="745" 
d="M653 0h-82l-399 573v-573h-80v700h26c45 0 64 -11 88 -46l367 -527v573h80v-700zM435 820c59 0 86 28 94 97h-52c-3 -29 -17 -44 -42 -44c-13 0 -32 7 -58 22c-27 15 -49 22 -67 22c-60 0 -86 -28 -95 -97h53c3 29 17 44 42 44c11 0 30 -7 57 -22s49 -22 68 -22z" />
    <glyph glyph-name="Ograve" unicode="&#xd2;" horiz-adv-x="750" 
d="M139 86c-54 63 -81 151 -81 264s27 201 81 264s133 95 236 95s182 -32 236 -95s81 -151 81 -264s-27 -201 -81 -264s-133 -95 -236 -95s-182 32 -236 95zM553 139c39 50 59 120 59 211s-20 161 -59 212c-39 50 -99 75 -178 75s-139 -25 -178 -75
c-39 -51 -59 -121 -59 -212s20 -161 59 -211c39 -51 99 -76 178 -76s139 25 178 76zM478 801l-85 118c-13 19 -33 28 -59 28c-28 0 -49 -9 -62 -26l152 -120h54z" />
    <glyph glyph-name="Oacute" unicode="&#xd3;" horiz-adv-x="750" 
d="M139 86c-54 63 -81 151 -81 264s27 201 81 264s133 95 236 95s182 -32 236 -95s81 -151 81 -264s-27 -201 -81 -264s-133 -95 -236 -95s-182 32 -236 95zM553 139c39 50 59 120 59 211s-20 161 -59 212c-39 50 -99 75 -178 75s-139 -25 -178 -75
c-39 -51 -59 -121 -59 -212s20 -161 59 -211c39 -51 99 -76 178 -76s139 25 178 76zM326 801l152 120c-13 17 -34 26 -62 26c-26 0 -46 -9 -59 -28l-85 -118h54z" />
    <glyph glyph-name="Ocircumflex" unicode="&#xd4;" horiz-adv-x="750" 
d="M139 86c-54 63 -81 151 -81 264s27 201 81 264s133 95 236 95s182 -32 236 -95s81 -151 81 -264s-27 -201 -81 -264s-133 -95 -236 -95s-182 32 -236 95zM553 139c39 50 59 120 59 211s-20 161 -59 212c-39 50 -99 75 -178 75s-139 -25 -178 -75
c-39 -51 -59 -121 -59 -212s20 -161 59 -211c39 -51 99 -76 178 -76s139 25 178 76zM375 877l93 -70h58l-116 120c-11 11 -25 17 -40 17h-13l-133 -137h58z" />
    <glyph glyph-name="Otilde" unicode="&#xd5;" horiz-adv-x="750" 
d="M139 86c-54 63 -81 151 -81 264s27 201 81 264s133 95 236 95s182 -32 236 -95s81 -151 81 -264s-27 -201 -81 -264s-133 -95 -236 -95s-182 32 -236 95zM553 139c39 50 59 120 59 211s-20 161 -59 212c-39 50 -99 75 -178 75s-139 -25 -178 -75
c-39 -51 -59 -121 -59 -212s20 -161 59 -211c39 -51 99 -76 178 -76s139 25 178 76zM438 820c59 0 86 28 94 97h-52c-3 -29 -17 -44 -42 -44c-13 0 -32 7 -58 22c-27 15 -49 22 -67 22c-60 0 -86 -28 -95 -97h53c3 29 17 44 42 44c11 0 30 -7 57 -22s49 -22 68 -22z" />
    <glyph glyph-name="Odieresis" unicode="&#xd6;" horiz-adv-x="750" 
d="M139 86c-54 63 -81 151 -81 264s27 201 81 264s133 95 236 95s182 -32 236 -95s81 -151 81 -264s-27 -201 -81 -264s-133 -95 -236 -95s-182 32 -236 95zM553 139c39 50 59 120 59 211s-20 161 -59 212c-39 50 -99 75 -178 75s-139 -25 -178 -75
c-39 -51 -59 -121 -59 -212s20 -161 59 -211c39 -51 99 -76 178 -76s139 25 178 76zM215 841c0 -32 17 -48 52 -48s52 16 52 49c0 32 -17 48 -52 48s-52 -16 -52 -49zM431 841c0 -32 17 -48 52 -48s52 16 52 49c0 32 -17 48 -52 48s-52 -16 -52 -49z" />
    <glyph glyph-name="multiply" unicode="&#xd7;" 
d="M522 137l-54 -54l-153 153l-153 -153l-54 54l153 153l-153 153l54 54l153 -153l153 153l54 -54l-153 -153z" />
    <glyph glyph-name="Oslash" unicode="&#xd8;" horiz-adv-x="750" 
d="M571 651l54 69h79l-88 -112c51 -61 76 -147 76 -258c0 -225 -110 -359 -317 -359c-79 0 -145 19 -196 57l-53 -68h-80l87 112c-50 62 -75 148 -75 258c0 225 110 359 317 359c79 0 144 -19 196 -58zM375 637c-159 0 -237 -106 -237 -287c0 -81 15 -146 46 -193l340 433
c-39 31 -88 47 -149 47zM375 63c159 0 237 106 237 287c0 79 -16 144 -47 193l-339 -434c38 -31 88 -46 149 -46z" />
    <glyph glyph-name="Ugrave" unicode="&#xd9;" horiz-adv-x="730" 
d="M516 125c31 41 46 101 46 178v397h80v-406c0 -192 -89 -303 -277 -303s-277 111 -277 303v406h23c40 0 57 -17 57 -57v-340c0 -155 58 -240 197 -240c69 0 120 21 151 62zM468 801l-85 118c-13 19 -33 28 -59 28c-28 0 -49 -9 -62 -26l152 -120h54z" />
    <glyph glyph-name="Uacute" unicode="&#xda;" horiz-adv-x="730" 
d="M516 125c31 41 46 101 46 178v397h80v-406c0 -192 -89 -303 -277 -303s-277 111 -277 303v406h23c40 0 57 -17 57 -57v-340c0 -155 58 -240 197 -240c69 0 120 21 151 62zM316 801l152 120c-13 17 -34 26 -62 26c-26 0 -46 -9 -59 -28l-85 -118h54z" />
    <glyph glyph-name="Ucircumflex" unicode="&#xdb;" horiz-adv-x="730" 
d="M516 125c31 41 46 101 46 178v397h80v-406c0 -192 -89 -303 -277 -303s-277 111 -277 303v406h23c40 0 57 -17 57 -57v-340c0 -155 58 -240 197 -240c69 0 120 21 151 62zM365 877l93 -70h58l-116 120c-11 11 -25 17 -40 17h-13l-133 -137h58z" />
    <glyph glyph-name="Udieresis" unicode="&#xdc;" horiz-adv-x="730" 
d="M516 125c31 41 46 101 46 178v397h80v-406c0 -192 -89 -303 -277 -303s-277 111 -277 303v406h23c40 0 57 -17 57 -57v-340c0 -155 58 -240 197 -240c69 0 120 21 151 62zM205 841c0 -32 17 -48 52 -48s52 16 52 49c0 32 -17 48 -52 48s-52 -16 -52 -49zM421 841
c0 -32 17 -48 52 -48s52 16 52 49c0 32 -17 48 -52 48s-52 -16 -52 -49z" />
    <glyph glyph-name="Yacute" unicode="&#xdd;" horiz-adv-x="618" 
d="M311 372l201 328h92l-254 -401v-299h-79v299l-257 401h44c39 0 55 -9 72 -36zM260 801l152 120c-13 17 -34 26 -62 26c-26 0 -46 -9 -59 -28l-85 -118h54z" />
    <glyph glyph-name="Thorn" unicode="&#xde;" horiz-adv-x="625" 
d="M335 188h-163v-188h-80v700h23c40 0 57 -17 57 -57v-43h163c161 0 242 -69 242 -206s-81 -206 -242 -206zM336 528h-164v-268h164c113 0 162 43 162 134c0 89 -49 134 -162 134z" />
    <glyph glyph-name="germandbls" unicode="&#xdf;" horiz-adv-x="675" 
d="M156 0h-74v456c0 69 22 128 66 176c44 47 110 71 197 71c141 0 227 -70 227 -178c0 -60 -36 -111 -92 -130c87 -30 130 -93 130 -188c0 -127 -74 -210 -225 -210c-68 0 -121 10 -158 30c-8 3 -11 13 -10 30s8 30 19 39c42 -23 91 -35 148 -35c101 0 151 55 151 146
c0 99 -66 152 -182 152h-49v64h54c88 0 139 35 139 102s-52 114 -152 114c-60 0 -106 -18 -139 -53s-50 -79 -50 -130v-456z" />
    <glyph glyph-name="agrave" unicode="&#xe0;" horiz-adv-x="601" 
d="M440 152v199c-43 61 -97 92 -160 92c-92 0 -147 -65 -147 -193c0 -127 56 -194 140 -194c68 0 130 36 167 96zM515 445v-349c0 -39 6 -72 19 -97h-38c-34 0 -52 28 -54 85c-33 -53 -101 -94 -173 -94c-128 0 -211 91 -211 260c0 168 85 259 210 259c71 0 128 -29 171 -87
l4 78h17c37 0 55 -18 55 -55zM318 719l85 -118h-54l-152 120c13 17 34 26 62 26c26 0 46 -9 59 -28z" />
    <glyph glyph-name="aacute" unicode="&#xe1;" horiz-adv-x="601" 
d="M440 152v199c-43 61 -97 92 -160 92c-92 0 -147 -65 -147 -193c0 -127 56 -194 140 -194c68 0 130 36 167 96zM515 445v-349c0 -39 6 -72 19 -97h-38c-34 0 -52 28 -54 85c-33 -53 -101 -94 -173 -94c-128 0 -211 91 -211 260c0 168 85 259 210 259c71 0 128 -29 171 -87
l4 78h17c37 0 55 -18 55 -55zM403 721l-152 -120h-54l85 118c13 19 33 28 59 28c28 0 49 -9 62 -26z" />
    <glyph glyph-name="acircumflex" unicode="&#xe2;" horiz-adv-x="601" 
d="M440 152v199c-43 61 -97 92 -160 92c-92 0 -147 -65 -147 -193c0 -127 56 -194 140 -194c68 0 130 36 167 96zM515 445v-349c0 -39 6 -72 19 -97h-38c-34 0 -52 28 -54 85c-33 -53 -101 -94 -173 -94c-128 0 -211 91 -211 260c0 168 85 259 210 259c71 0 128 -29 171 -87
l4 78h17c37 0 55 -18 55 -55zM393 607l-93 70l-93 -70h-58l133 137h13c15 0 29 -6 40 -17l116 -120h-58z" />
    <glyph glyph-name="atilde" unicode="&#xe3;" horiz-adv-x="601" 
d="M440 152v199c-43 61 -97 92 -160 92c-92 0 -147 -65 -147 -193c0 -127 56 -194 140 -194c68 0 130 36 167 96zM515 445v-349c0 -39 6 -72 19 -97h-38c-34 0 -52 28 -54 85c-33 -53 -101 -94 -173 -94c-128 0 -211 91 -211 260c0 168 85 259 210 259c71 0 128 -29 171 -87
l4 78h17c37 0 55 -18 55 -55zM363 620c-19 0 -41 7 -68 22s-46 22 -57 22c-25 0 -39 -15 -42 -44h-53c9 69 35 97 95 97c18 0 40 -7 67 -22c26 -15 45 -22 58 -22c25 0 39 15 42 44h52c-8 -69 -35 -97 -94 -97z" />
    <glyph glyph-name="adieresis" unicode="&#xe4;" horiz-adv-x="601" 
d="M440 152v199c-43 61 -97 92 -160 92c-92 0 -147 -65 -147 -193c0 -127 56 -194 140 -194c68 0 130 36 167 96zM515 445v-349c0 -39 6 -72 19 -97h-38c-34 0 -52 28 -54 85c-33 -53 -101 -94 -173 -94c-128 0 -211 91 -211 260c0 168 85 259 210 259c71 0 128 -29 171 -87
l4 78h17c37 0 55 -18 55 -55zM140 641c0 33 17 49 52 49s52 -16 52 -48c0 -33 -17 -49 -52 -49s-52 16 -52 48zM356 641c0 33 17 49 52 49s52 -16 52 -48c0 -33 -17 -49 -52 -49s-52 16 -52 48z" />
    <glyph glyph-name="aring" unicode="&#xe5;" horiz-adv-x="601" 
d="M440 152v199c-43 61 -97 92 -160 92c-92 0 -147 -65 -147 -193c0 -127 56 -194 140 -194c68 0 130 36 167 96zM515 445v-349c0 -39 6 -72 19 -97h-38c-34 0 -52 28 -54 85c-33 -53 -101 -94 -173 -94c-128 0 -211 91 -211 260c0 168 85 259 210 259c71 0 128 -29 171 -87
l4 78h17c37 0 55 -18 55 -55zM271 633c15 -13 43 -13 58 0c15 12 15 42 0 55s-43 13 -58 0s-15 -43 0 -55zM234 721c17 15 39 23 66 23s49 -8 66 -23c33 -32 34 -90 0 -121c-17 -15 -39 -23 -66 -23s-48 8 -65 23c-34 31 -34 89 -1 121z" />
    <glyph glyph-name="ae" unicode="&#xe6;" horiz-adv-x="888" 
d="M824 291v-60h-363v-61c21 -64 90 -113 169 -113c57 0 112 18 165 55c12 -23 8 -65 -19 -84c-35 -25 -85 -37 -151 -37c-95 0 -163 39 -204 116c-25 -33 -59 -60 -101 -81c-43 -21 -85 -32 -126 -32c-91 0 -156 51 -156 148c0 113 82 153 246 153h104v36
c0 77 -41 115 -124 115c-68 0 -126 -13 -173 -38c-9 29 -1 66 26 78c35 15 84 23 148 23c84 0 139 -28 166 -85c35 52 99 85 178 85c140 0 215 -78 215 -218zM202 58c67 0 129 34 186 102v72h-98c-128 0 -179 -17 -179 -90c0 -55 39 -84 91 -84zM609 443
c-79 0 -129 -32 -148 -97v-53h286c1 99 -50 150 -138 150z" />
    <glyph glyph-name="ccedilla" unicode="&#xe7;" horiz-adv-x="509" 
d="M298 443c-108 0 -166 -68 -166 -189c0 -124 57 -197 172 -197c54 0 106 15 156 45c5 -11 7 -23 7 -35c0 -23 -9 -39 -27 -48c-37 -19 -83 -28 -137 -28c-161 0 -247 98 -247 263c0 163 83 255 240 255c54 0 101 -9 142 -27c13 -5 19 -17 19 -35c0 -9 -2 -23 -7 -42
c-50 25 -101 38 -152 38zM170 -180l115 130h54l-69 -118c-10 -19 -28 -28 -55 -28c-18 0 -33 5 -45 16z" />
    <glyph glyph-name="egrave" unicode="&#xe8;" horiz-adv-x="569" 
d="M505 271v-60h-371c11 -97 69 -154 165 -154c65 0 124 18 177 55c12 -23 8 -65 -19 -84c-35 -25 -87 -37 -158 -37c-159 0 -243 95 -243 259c0 163 83 259 234 259c137 0 215 -95 215 -238zM290 443c-95 0 -150 -62 -157 -170h295c1 101 -53 170 -138 170zM302 719
l85 -118h-54l-152 120c13 17 34 26 62 26c26 0 46 -9 59 -28z" />
    <glyph glyph-name="eacute" unicode="&#xe9;" horiz-adv-x="569" 
d="M505 271v-60h-371c11 -97 69 -154 165 -154c65 0 124 18 177 55c12 -23 8 -65 -19 -84c-35 -25 -87 -37 -158 -37c-159 0 -243 95 -243 259c0 163 83 259 234 259c137 0 215 -95 215 -238zM290 443c-95 0 -150 -62 -157 -170h295c1 101 -53 170 -138 170zM387 721
l-152 -120h-54l85 118c13 19 33 28 59 28c28 0 49 -9 62 -26z" />
    <glyph glyph-name="ecircumflex" unicode="&#xea;" horiz-adv-x="569" 
d="M505 271v-60h-371c11 -97 69 -154 165 -154c65 0 124 18 177 55c12 -23 8 -65 -19 -84c-35 -25 -87 -37 -158 -37c-159 0 -243 95 -243 259c0 163 83 259 234 259c137 0 215 -95 215 -238zM290 443c-95 0 -150 -62 -157 -170h295c1 101 -53 170 -138 170zM377 607l-93 70
l-93 -70h-58l133 137h13c15 0 29 -6 40 -17l116 -120h-58z" />
    <glyph glyph-name="edieresis" unicode="&#xeb;" horiz-adv-x="569" 
d="M505 271v-60h-371c11 -97 69 -154 165 -154c65 0 124 18 177 55c12 -23 8 -65 -19 -84c-35 -25 -87 -37 -158 -37c-159 0 -243 95 -243 259c0 163 83 259 234 259c137 0 215 -95 215 -238zM290 443c-95 0 -150 -62 -157 -170h295c1 101 -53 170 -138 170zM124 641
c0 33 17 49 52 49s52 -16 52 -48c0 -33 -17 -49 -52 -49s-52 16 -52 48zM340 641c0 33 17 49 52 49s52 -16 52 -48c0 -33 -17 -49 -52 -49s-52 16 -52 48z" />
    <glyph glyph-name="igrave" unicode="&#xec;" horiz-adv-x="248" 
d="M162 0h-76v500h21c37 0 55 -18 55 -55v-445zM227 601l-85 118c-13 19 -33 28 -59 28c-28 0 -49 -9 -62 -26l152 -120h54z" />
    <glyph glyph-name="iacute" unicode="&#xed;" horiz-adv-x="248" 
d="M162 0h-76v500h21c37 0 55 -18 55 -55v-445zM75 601l152 120c-13 17 -34 26 -62 26c-26 0 -46 -9 -59 -28l-85 -118h54z" />
    <glyph glyph-name="icircumflex" unicode="&#xee;" horiz-adv-x="248" 
d="M162 0h-76v500h21c37 0 55 -18 55 -55v-445zM124 677l93 -70h58l-116 120c-11 11 -25 17 -40 17h-13l-133 -137h58z" />
    <glyph glyph-name="idieresis" unicode="&#xef;" horiz-adv-x="248" 
d="M162 0h-76v500h21c37 0 55 -18 55 -55v-445zM-36 641c0 -32 17 -48 52 -48s52 16 52 49c0 32 -17 48 -52 48s-52 -16 -52 -49zM180 641c0 -32 17 -48 52 -48s52 16 52 49c0 32 -17 48 -52 48s-52 -16 -52 -49z" />
    <glyph glyph-name="eth" unicode="&#xf0;" horiz-adv-x="610" 
d="M317 514v57l58 21c-43 35 -97 52 -163 52c-8 29 7 65 38 65c79 0 147 -30 203 -89l96 35v-57l-61 -22c41 -63 62 -139 62 -226c0 -239 -89 -359 -268 -359c-73 0 -132 21 -177 63c-46 42 -69 102 -69 179c0 140 81 230 234 230c80 0 147 -30 201 -91
c-6 73 -25 132 -56 177zM270 393c-101 0 -155 -63 -155 -160c0 -107 70 -171 165 -171c119 0 182 77 189 231c-57 67 -123 100 -199 100z" />
    <glyph glyph-name="ntilde" unicode="&#xf1;" horiz-adv-x="605" 
d="M447 308c0 87 -36 135 -103 135c-66 0 -127 -32 -184 -96v-347h-76v500h19c34 0 52 -16 54 -49l3 -33c47 49 120 91 197 91c107 0 166 -69 166 -194v-315h-21c-37 0 -55 18 -55 55v253zM365 620c59 0 86 28 94 97h-52c-3 -29 -17 -44 -42 -44c-13 0 -32 7 -58 22
c-27 15 -49 22 -67 22c-60 0 -86 -28 -95 -97h53c3 29 17 44 42 44c11 0 30 -7 57 -22s49 -22 68 -22z" />
    <glyph glyph-name="ograve" unicode="&#xf2;" horiz-adv-x="592" 
d="M174 108c27 -34 68 -51 122 -51s95 17 123 51c27 33 41 81 41 142s-14 109 -41 143c-28 33 -69 50 -123 50s-95 -17 -122 -50c-28 -34 -42 -82 -42 -143s14 -109 42 -142zM118 441c41 45 100 68 178 68s138 -23 179 -68s61 -109 61 -191s-20 -146 -61 -191
s-101 -68 -179 -68s-137 23 -178 68s-62 109 -62 191s21 146 62 191zM314 719l85 -118h-54l-152 120c13 17 34 26 62 26c26 0 46 -9 59 -28z" />
    <glyph glyph-name="oacute" unicode="&#xf3;" horiz-adv-x="592" 
d="M174 108c27 -34 68 -51 122 -51s95 17 123 51c27 33 41 81 41 142s-14 109 -41 143c-28 33 -69 50 -123 50s-95 -17 -122 -50c-28 -34 -42 -82 -42 -143s14 -109 42 -142zM118 441c41 45 100 68 178 68s138 -23 179 -68s61 -109 61 -191s-20 -146 -61 -191
s-101 -68 -179 -68s-137 23 -178 68s-62 109 -62 191s21 146 62 191zM399 721l-152 -120h-54l85 118c13 19 33 28 59 28c28 0 49 -9 62 -26z" />
    <glyph glyph-name="ocircumflex" unicode="&#xf4;" horiz-adv-x="592" 
d="M174 108c27 -34 68 -51 122 -51s95 17 123 51c27 33 41 81 41 142s-14 109 -41 143c-28 33 -69 50 -123 50s-95 -17 -122 -50c-28 -34 -42 -82 -42 -143s14 -109 42 -142zM118 441c41 45 100 68 178 68s138 -23 179 -68s61 -109 61 -191s-20 -146 -61 -191
s-101 -68 -179 -68s-137 23 -178 68s-62 109 -62 191s21 146 62 191zM389 607l-93 70l-93 -70h-58l133 137h13c15 0 29 -6 40 -17l116 -120h-58z" />
    <glyph glyph-name="otilde" unicode="&#xf5;" horiz-adv-x="592" 
d="M174 108c27 -34 68 -51 122 -51s95 17 123 51c27 33 41 81 41 142s-14 109 -41 143c-28 33 -69 50 -123 50s-95 -17 -122 -50c-28 -34 -42 -82 -42 -143s14 -109 42 -142zM118 441c41 45 100 68 178 68s138 -23 179 -68s61 -109 61 -191s-20 -146 -61 -191
s-101 -68 -179 -68s-137 23 -178 68s-62 109 -62 191s21 146 62 191zM359 620c-19 0 -41 7 -68 22s-46 22 -57 22c-25 0 -39 -15 -42 -44h-53c9 69 35 97 95 97c18 0 40 -7 67 -22c26 -15 45 -22 58 -22c25 0 39 15 42 44h52c-8 -69 -35 -97 -94 -97z" />
    <glyph glyph-name="odieresis" unicode="&#xf6;" horiz-adv-x="592" 
d="M174 108c27 -34 68 -51 122 -51s95 17 123 51c27 33 41 81 41 142s-14 109 -41 143c-28 33 -69 50 -123 50s-95 -17 -122 -50c-28 -34 -42 -82 -42 -143s14 -109 42 -142zM118 441c41 45 100 68 178 68s138 -23 179 -68s61 -109 61 -191s-20 -146 -61 -191
s-101 -68 -179 -68s-137 23 -178 68s-62 109 -62 191s21 146 62 191zM136 641c0 33 17 49 52 49s52 -16 52 -48c0 -33 -17 -49 -52 -49s-52 16 -52 48zM352 641c0 33 17 49 52 49s52 -16 52 -48c0 -33 -17 -49 -52 -49s-52 16 -52 48z" />
    <glyph glyph-name="divide" unicode="&#xf7;" 
d="M80 326h470v-72h-470v72zM315 82c-33 0 -50 16 -50 48s17 48 50 48s50 -16 50 -48s-17 -48 -50 -48zM315 403c-33 0 -50 16 -50 48s17 48 50 48s50 -16 50 -48s-17 -48 -50 -48z" />
    <glyph glyph-name="oslash" unicode="&#xf8;" horiz-adv-x="592" 
d="M116 -20h-70l67 84c-38 45 -57 107 -57 186c0 164 84 259 240 259c57 0 105 -13 142 -38l39 49h69l-67 -84c38 -45 57 -107 57 -186c0 -164 -84 -259 -240 -259c-57 0 -104 12 -142 37zM132 250c0 -51 10 -93 29 -126l232 291c-26 19 -58 28 -97 28
c-108 0 -164 -70 -164 -193zM296 57c108 0 164 70 164 193c0 51 -10 92 -29 125l-232 -291c25 -18 57 -27 97 -27z" />
    <glyph glyph-name="ugrave" unicode="&#xf9;" horiz-adv-x="593" 
d="M436 84c-62 -62 -124 -93 -187 -93c-108 0 -169 70 -169 194v315h21c37 0 55 -18 55 -55v-253c0 -85 38 -135 106 -135c47 0 94 24 122 48c13 12 30 28 49 48v347h76v-404c0 -39 6 -72 19 -97h-38c-34 0 -52 28 -54 85zM399 601l-85 118c-13 19 -33 28 -59 28
c-28 0 -49 -9 -62 -26l152 -120h54z" />
    <glyph glyph-name="uacute" unicode="&#xfa;" horiz-adv-x="593" 
d="M436 84c-62 -62 -124 -93 -187 -93c-108 0 -169 70 -169 194v315h21c37 0 55 -18 55 -55v-253c0 -85 38 -135 106 -135c47 0 94 24 122 48c13 12 30 28 49 48v347h76v-404c0 -39 6 -72 19 -97h-38c-34 0 -52 28 -54 85zM247 601l152 120c-13 17 -34 26 -62 26
c-26 0 -46 -9 -59 -28l-85 -118h54z" />
    <glyph glyph-name="ucircumflex" unicode="&#xfb;" horiz-adv-x="593" 
d="M436 84c-62 -62 -124 -93 -187 -93c-108 0 -169 70 -169 194v315h21c37 0 55 -18 55 -55v-253c0 -85 38 -135 106 -135c47 0 94 24 122 48c13 12 30 28 49 48v347h76v-404c0 -39 6 -72 19 -97h-38c-34 0 -52 28 -54 85zM296 677l93 -70h58l-116 120c-11 11 -25 17 -40 17
h-13l-133 -137h58z" />
    <glyph glyph-name="udieresis" unicode="&#xfc;" horiz-adv-x="593" 
d="M436 84c-62 -62 -124 -93 -187 -93c-108 0 -169 70 -169 194v315h21c37 0 55 -18 55 -55v-253c0 -85 38 -135 106 -135c47 0 94 24 122 48c13 12 30 28 49 48v347h76v-404c0 -39 6 -72 19 -97h-38c-34 0 -52 28 -54 85zM136 641c0 -32 17 -48 52 -48s52 16 52 49
c0 32 -17 48 -52 48s-52 -16 -52 -49zM352 641c0 -32 17 -48 52 -48s52 16 52 49c0 32 -17 48 -52 48s-52 -16 -52 -49z" />
    <glyph glyph-name="yacute" unicode="&#xfd;" horiz-adv-x="518" 
d="M426 500h80l-237 -590c-35 -88 -85 -116 -150 -116c-69 0 -96 28 -82 84c21 -15 45 -22 72 -22c51 0 74 20 95 72l30 73l-214 499h35c29 0 48 -13 59 -38l156 -369zM214 601l152 120c-13 17 -34 26 -62 26c-26 0 -46 -9 -59 -28l-85 -118h54z" />
    <glyph glyph-name="thorn" unicode="&#xfe;" horiz-adv-x="594" 
d="M159 347v-195c37 -60 97 -96 164 -96c83 0 138 67 138 194c0 128 -53 193 -145 193c-59 0 -112 -32 -157 -96zM160 645v-227c44 61 100 91 168 91c124 0 208 -90 208 -259c0 -171 -81 -260 -209 -260c-72 0 -134 38 -167 91v-281h-76v900h21c37 0 55 -18 55 -55z" />
    <glyph glyph-name="ydieresis" unicode="&#xff;" horiz-adv-x="518" 
d="M426 500h80l-237 -590c-35 -88 -85 -116 -150 -116c-69 0 -96 28 -82 84c21 -15 45 -22 72 -22c51 0 74 20 95 72l30 73l-214 499h35c29 0 48 -13 59 -38l156 -369zM103 641c0 -32 17 -48 52 -48s52 16 52 49c0 32 -17 48 -52 48s-52 -16 -52 -49zM319 641
c0 -32 17 -48 52 -48s52 16 52 49c0 32 -17 48 -52 48s-52 -16 -52 -49z" />
    <glyph glyph-name="dotlessi" unicode="&#x131;" horiz-adv-x="248" 
d="M162 445v-445h-76v500h21c37 0 55 -18 55 -55z" />
    <glyph glyph-name="Lslash" unicode="&#x141;" horiz-adv-x="550" 
d="M172 643v-261l171 98l34 -59l-205 -118v-231h368v-72h-448v257l-53 -30l-34 59l87 50v364h23c40 0 57 -17 57 -57z" />
    <glyph glyph-name="lslash" unicode="&#x142;" horiz-adv-x="252" 
d="M164 645v-267l49 28l34 -59l-83 -48v-299h-76v255l-49 -28l-34 59l83 48v366h21c37 0 55 -18 55 -55z" />
    <glyph glyph-name="OE" unicode="&#x152;" horiz-adv-x="1066" 
d="M947 322h-295v-250h384v-72h-463v69c-49 -52 -116 -78 -201 -78c-207 0 -314 132 -314 359s107 359 314 359c83 0 150 -26 201 -79v70h452v-72h-373v-234h350v-17c0 -40 -15 -55 -55 -55zM373 63c94 0 161 35 200 106v357c-41 74 -107 111 -200 111
c-159 0 -235 -106 -235 -287s76 -287 235 -287z" />
    <glyph glyph-name="oe" unicode="&#x153;" horiz-adv-x="950" 
d="M296 509c84 0 145 -31 182 -93c40 62 104 93 193 93c137 0 215 -95 215 -238v-62h-371c15 -101 70 -152 165 -152c65 0 124 18 177 55c12 -23 8 -65 -19 -84c-35 -25 -87 -37 -158 -37c-92 0 -159 30 -200 91c-35 -61 -97 -91 -184 -91c-156 0 -240 95 -240 259
s84 259 240 259zM296 57c78 0 128 35 151 104c-7 26 -10 56 -10 89c0 34 3 64 10 90c-23 69 -74 103 -151 103c-108 0 -164 -70 -164 -193s56 -193 164 -193zM671 443c-95 0 -150 -61 -157 -168h295c1 101 -53 168 -138 168z" />
    <glyph glyph-name="Scaron" unicode="&#x160;" horiz-adv-x="609" 
d="M282 63c116 0 192 45 192 129c0 76 -62 113 -181 141c-85 21 -144 46 -179 75s-53 71 -53 128c0 105 84 173 243 173c77 0 141 -13 190 -38c15 -7 22 -22 22 -44c0 -15 -3 -29 -9 -42c-48 31 -130 52 -203 52c-109 0 -164 -41 -164 -101c0 -35 12 -62 37 -79
c25 -18 70 -36 137 -53c159 -37 239 -95 239 -212c0 -135 -100 -201 -272 -201c-78 0 -145 15 -201 44c-15 7 -22 22 -22 46c0 15 3 30 9 43c29 -18 64 -33 105 -44s78 -17 110 -17zM153 940h58l93 -70l93 70h58l-116 -120c-11 -11 -25 -17 -40 -17h-13z" />
    <glyph glyph-name="scaron" unicode="&#x161;" horiz-adv-x="480" 
d="M239 56c80 0 120 26 120 77c0 48 -39 69 -138 96c-44 12 -59 17 -94 34c-18 8 -32 17 -41 26c-19 18 -35 49 -35 88c0 92 77 132 182 132c68 0 120 -9 157 -27c15 -7 22 -24 22 -49c0 -9 -1 -18 -3 -26c-45 25 -103 37 -176 37c-60 0 -107 -22 -107 -67s40 -65 116 -85
c69 -19 118 -39 148 -61c29 -22 44 -55 44 -98c0 -96 -74 -142 -193 -142c-73 0 -132 12 -175 36c-13 7 -20 23 -20 46c0 3 1 14 3 34c59 -34 123 -51 190 -51zM89 740h58l93 -70l93 70h58l-116 -120c-11 -11 -25 -17 -40 -17h-13z" />
    <glyph glyph-name="Ydieresis" unicode="&#x178;" horiz-adv-x="618" 
d="M311 372l201 328h92l-254 -401v-299h-79v299l-257 401h44c39 0 55 -9 72 -36zM149 841c0 -32 17 -48 52 -48s52 16 52 49c0 32 -17 48 -52 48s-52 -16 -52 -49zM365 841c0 -32 17 -48 52 -48s52 16 52 49c0 32 -17 48 -52 48s-52 -16 -52 -49z" />
    <glyph glyph-name="Zcaron" unicode="&#x17d;" horiz-adv-x="595" 
d="M101 700h451v-70l-421 -560h432v-70h-533v70l422 560h-406v15c0 40 15 55 55 55zM146 940h58l93 -70l93 70h58l-116 -120c-11 -11 -25 -17 -40 -17h-13z" />
    <glyph glyph-name="zcaron" unicode="&#x17e;" horiz-adv-x="476" 
d="M42 447c0 35 18 53 53 53h333v-54l-293 -382h299v-64h-398v54l294 382h-288v11zM145 740h-58l133 -137h13c15 0 29 6 40 17l116 120h-58l-93 -70z" />
    <glyph glyph-name="florin" unicode="&#x192;" 
d="M198 -37l73 339h-108l14 65h108l37 173c24 109 97 169 197 169c34 0 60 -4 78 -11c23 -9 25 -33 6 -72c-24 12 -53 18 -87 18c-59 0 -103 -37 -118 -106l-38 -171h170l-15 -65h-169l-72 -341c-23 -108 -97 -169 -197 -169c-34 0 -60 4 -78 11c-23 9 -25 33 -6 72
c24 -12 53 -18 87 -18c59 0 103 37 118 106z" />
    <glyph glyph-name="circumflex" unicode="&#x2c6;" horiz-adv-x="350" 
d="M268 607l-93 70l-93 -70h-58l133 137h13c15 0 29 -6 40 -17l116 -120h-58z" />
    <glyph glyph-name="caron" unicode="&#x2c7;" horiz-adv-x="350" 
d="M24 740h58l93 -70l93 70h58l-116 -120c-11 -11 -25 -17 -40 -17h-13z" />
    <glyph glyph-name="breve" unicode="&#x2d8;" horiz-adv-x="350" 
d="M120 683c28 -20 82 -20 111 0c14 10 22 23 23 39h66c-9 -75 -64 -116 -145 -116s-136 41 -145 116h66c1 -16 9 -29 24 -39z" />
    <glyph glyph-name="dotaccent" unicode="&#x2d9;" horiz-adv-x="350" 
d="M123 641c0 33 17 49 52 49s52 -16 52 -48c0 -33 -17 -49 -52 -49s-52 16 -52 48z" />
    <glyph glyph-name="ring" unicode="&#x2da;" horiz-adv-x="350" 
d="M146 633c15 -13 43 -13 58 0c15 12 15 42 0 55s-43 13 -58 0s-15 -43 0 -55zM109 721c17 15 39 23 66 23s49 -8 66 -23c33 -32 34 -90 0 -121c-17 -15 -39 -23 -66 -23s-48 8 -65 23c-34 31 -34 89 -1 121z" />
    <glyph glyph-name="ogonek" unicode="&#x2db;" horiz-adv-x="350" 
d="M209 -115l-69 118h54l115 -130c-12 -11 -27 -16 -45 -16c-27 0 -45 9 -55 28z" />
    <glyph glyph-name="tilde" unicode="&#x2dc;" horiz-adv-x="350" 
d="M238 620c-19 0 -41 7 -68 22s-46 22 -57 22c-25 0 -39 -15 -42 -44h-53c9 69 35 97 95 97c18 0 40 -7 67 -22c26 -15 45 -22 58 -22c25 0 39 15 42 44h52c-8 -69 -35 -97 -94 -97z" />
    <glyph glyph-name="hungarumlaut" unicode="&#x2dd;" horiz-adv-x="350" 
d="M226 731l-115 -130h-54l69 118c10 19 28 28 55 28c18 0 33 -5 45 -16zM396 731l-115 -130h-54l69 118c10 19 28 28 55 28c18 0 33 -5 45 -16z" />
    <glyph glyph-name="uni03A9" unicode="&#x3a9;" horiz-adv-x="774" 
d="M149 622c60 58 139 87 238 87s178 -29 239 -87c60 -59 90 -135 90 -228c0 -69 -22 -133 -66 -194s-92 -107 -143 -137h184v-63h-222l-47 54v6c44 32 87 71 135 127c47 55 79 127 79 192c0 73 -23 133 -69 180c-47 47 -107 70 -180 70s-133 -23 -179 -70
c-47 -47 -70 -107 -70 -180c0 -65 32 -137 80 -192c47 -56 90 -95 134 -127v-6l-47 -54h-222v63h184c-51 30 -99 76 -143 137s-66 125 -66 194c0 93 30 169 91 228z" />
    <glyph glyph-name="pi" unicode="&#x3c0;" horiz-adv-x="722" 
d="M447 133v299h-197l-36 -432h-76l34 432h-132v68h614v-68h-131v-294c0 -56 19 -82 63 -82c28 0 52 5 72 16c13 -41 9 -65 -13 -72c-18 -6 -41 -9 -70 -9c-80 0 -128 50 -128 142z" />
    <glyph glyph-name="endash" unicode="&#x2013;" horiz-adv-x="577" 
d="M42 253v68h493v-68h-493z" />
    <glyph glyph-name="emdash" unicode="&#x2014;" horiz-adv-x="781" 
d="M42 253v68h697v-68h-697z" />
    <glyph glyph-name="quoteleft" unicode="&#x2018;" horiz-adv-x="246" 
d="M70 491l81 209h47l-34 -192c-4 -23 -21 -34 -51 -34c-19 0 -34 6 -43 17z" />
    <glyph glyph-name="quoteright" unicode="&#x2019;" horiz-adv-x="246" 
d="M176 689l-81 -209h-47l34 192c4 23 21 34 51 34c19 0 34 -6 43 -17z" />
    <glyph glyph-name="quotesinglbase" unicode="&#x201a;" horiz-adv-x="246" 
d="M176 37l-81 -209h-47l34 192c4 23 21 34 51 34c19 0 34 -6 43 -17z" />
    <glyph glyph-name="quotedblleft" unicode="&#x201c;" horiz-adv-x="392" 
d="M216 491l81 209h47l-34 -192c-4 -23 -21 -34 -51 -34c-19 0 -34 6 -43 17zM70 491l81 209h47l-34 -192c-4 -23 -21 -34 -51 -34c-19 0 -34 6 -43 17z" />
    <glyph glyph-name="quotedblright" unicode="&#x201d;" horiz-adv-x="392" 
d="M176 689l-81 -209h-47l34 192c4 23 21 34 51 34c19 0 34 -6 43 -17zM322 689l-81 -209h-47l34 192c4 23 21 34 51 34c19 0 34 -6 43 -17z" />
    <glyph glyph-name="quotedblbase" unicode="&#x201e;" horiz-adv-x="392" 
d="M176 37l-81 -209h-47l34 192c4 23 21 34 51 34c19 0 34 -6 43 -17zM322 37l-81 -209h-47l34 192c4 23 21 34 51 34c19 0 34 -6 43 -17z" />
    <glyph glyph-name="dagger" unicode="&#x2020;" horiz-adv-x="496" 
d="M210 432h-168v68h168l-4 200h84l-4 -200h168v-68h-168v-532h-76v532z" />
    <glyph glyph-name="daggerdbl" unicode="&#x2021;" horiz-adv-x="496" 
d="M210 100h-168v68h168v264h-168v68h168l-4 200h84l-4 -200h168v-68h-168v-264h168v-68h-168l4 -200h-84z" />
    <glyph glyph-name="bullet" unicode="&#x2022;" horiz-adv-x="417" 
d="M117 236c-18 19 -27 48 -27 86s9 67 27 86c17 19 48 29 91 29c85 0 119 -39 119 -115s-34 -115 -119 -115c-43 0 -74 10 -91 29z" />
    <glyph glyph-name="ellipsis" unicode="&#x2026;" horiz-adv-x="660" 
d="M110 -6c-33 0 -50 16 -50 48s17 48 50 48s50 -16 50 -48s-17 -48 -50 -48zM330 -6c-33 0 -50 16 -50 48s17 48 50 48s50 -16 50 -48s-17 -48 -50 -48zM550 -6c-33 0 -50 16 -50 48s17 48 50 48s50 -16 50 -48s-17 -48 -50 -48z" />
    <glyph glyph-name="perthousand" unicode="&#x2030;" horiz-adv-x="1097" 
d="M236 0h-76l365 700h76zM90 435c-24 27 -36 66 -36 115s12 88 36 116c24 27 56 41 95 41s71 -14 95 -41c24 -28 36 -67 36 -116s-12 -88 -36 -115c-24 -28 -56 -42 -95 -42s-71 14 -95 42zM230 479c12 17 18 40 18 71s-6 55 -18 72c-24 34 -66 34 -90 0
c-12 -17 -18 -41 -18 -72s6 -54 18 -71c24 -34 66 -34 90 0zM481 35c-24 27 -36 66 -36 115s12 88 36 116c24 27 56 41 95 41s71 -14 95 -41c24 -28 36 -67 36 -116s-12 -88 -36 -115c-24 -28 -56 -42 -95 -42s-71 14 -95 42zM621 79c12 17 18 40 18 71s-6 55 -18 72
c-24 34 -66 34 -90 0c-12 -17 -18 -41 -18 -72s6 -54 18 -71c24 -34 66 -34 90 0zM817 35c-24 27 -36 66 -36 115s12 88 36 116c24 27 56 41 95 41s71 -14 95 -41c24 -28 36 -67 36 -116s-12 -88 -36 -115c-24 -28 -56 -42 -95 -42s-71 14 -95 42zM957 79c12 17 18 40 18 71
s-6 55 -18 72c-24 34 -66 34 -90 0c-12 -17 -18 -41 -18 -72s6 -54 18 -71c24 -34 66 -34 90 0z" />
    <glyph glyph-name="guilsinglleft" unicode="&#x2039;" horiz-adv-x="335" 
d="M202 40l-172 210l172 210h83l-172 -210l172 -210h-83z" />
    <glyph glyph-name="guilsinglright" unicode="&#x203a;" horiz-adv-x="335" 
d="M50 460h83l172 -210l-172 -210h-83l172 210z" />
    <glyph glyph-name="fraction" unicode="&#x2044;" horiz-adv-x="461" 
d="M86 0h-76l365 700h76z" />
    <glyph glyph-name="Euro" unicode="&#x20ac;" 
d="M188 445h218l-27 -66h-199v-55h183l-27 -67h-148c21 -116 92 -194 208 -194c61 0 115 26 162 79c31 -33 36 -61 17 -84c-40 -45 -100 -67 -181 -67s-146 24 -195 73c-50 48 -80 112 -90 193h-87l27 67h53v55h-80l27 66h59c12 76 42 139 89 189s109 75 185 75
c77 0 137 -24 181 -71c17 -18 11 -45 -19 -82c-44 54 -98 81 -162 81c-51 0 -94 -18 -128 -54c-35 -37 -57 -83 -66 -138z" />
    <glyph glyph-name="afii61289" unicode="&#x2113;" horiz-adv-x="468" 
d="M385 161l61 -39c-42 -87 -103 -131 -183 -131c-97 0 -153 61 -165 161l-31 -26l-45 54l74 65v254c0 75 15 128 44 161s63 49 102 49c80 0 124 -61 124 -164c0 -55 -16 -108 -48 -158c-33 -50 -82 -107 -148 -171v-5c0 -103 30 -154 91 -154c48 0 89 35 124 104zM170 506
v-197c71 72 120 161 120 237c0 65 -16 97 -48 97c-37 0 -72 -42 -72 -137z" />
    <glyph glyph-name="trademark" unicode="&#x2122;" horiz-adv-x="728" 
d="M592 700h56v-300h-61v195l-67 -97h-43l-67 97v-195h-62v300h57l94 -142zM40 646v54h251v-54l-95 1v-247h-61v247z" />
    <glyph glyph-name="Omega" unicode="&#x2126;" horiz-adv-x="774" 
d="M149 622c60 58 139 87 238 87s178 -29 239 -87c60 -59 90 -135 90 -228c0 -69 -22 -133 -66 -194s-92 -107 -143 -137h184v-63h-222l-47 54v6c44 32 87 71 135 127c47 55 79 127 79 192c0 73 -23 133 -69 180c-47 47 -107 70 -180 70s-133 -23 -179 -70
c-47 -47 -70 -107 -70 -180c0 -65 32 -137 80 -192c47 -56 90 -95 134 -127v-6l-47 -54h-222v63h184c-51 30 -99 76 -143 137s-66 125 -66 194c0 93 30 169 91 228z" />
    <glyph glyph-name="estimated" unicode="&#x212e;" horiz-adv-x="856" 
d="M820 349v-14h-628c-3 0 -5 -1 -5 -4v-185c0 -13 3 -22 8 -29c55 -64 135 -96 240 -96s189 36 252 109h58c-73 -87 -186 -139 -311 -139c-110 0 -203 35 -279 105c-77 70 -115 154 -115 253c0 100 38 185 113 255c75 69 167 104 277 104s203 -35 278 -104
c75 -70 112 -155 112 -255zM673 365v186c0 16 -4 28 -11 36c-62 61 -139 91 -231 91c-94 0 -172 -32 -235 -97c-6 -6 -9 -16 -9 -29v-187c0 -4 2 -6 5 -6h476c3 0 5 2 5 6z" />
    <glyph glyph-name="partialdiff" unicode="&#x2202;" horiz-adv-x="639" 
d="M323 474c77 0 148 -38 176 -83c2 21 3 46 3 74c0 112 -53 175 -142 175c-61 0 -116 -16 -165 -49c-9 29 -7 71 10 79c47 26 99 39 156 39c136 0 220 -90 220 -247c0 -107 -30 -218 -83 -312s-147 -159 -258 -159c-127 0 -204 71 -204 191c0 81 25 150 76 207
s121 85 211 85zM325 406c-67 0 -119 -22 -155 -65c-37 -44 -55 -95 -55 -154c0 -79 46 -127 122 -127c112 0 202 91 245 248c-24 57 -78 98 -157 98z" />
    <glyph glyph-name="increment" unicode="&#x2206;" horiz-adv-x="650" 
d="M40 47l258 655h54l258 -655v-47h-570v47zM126 69h399l-200 518z" />
    <glyph glyph-name="product" unicode="&#x220f;" horiz-adv-x="710" 
d="M539 629h-368v-729h-79v800h526v-800h-79v729z" />
    <glyph glyph-name="summation" unicode="&#x2211;" horiz-adv-x="624" 
d="M401 325l-252 -359h435v-66h-540v48l263 375l-242 327v50h494v-68h-386z" />
    <glyph glyph-name="minus" unicode="&#x2212;" 
d="M88 326h454v-72h-454v72z" />
    <glyph glyph-name="radical" unicode="&#x221a;" horiz-adv-x="631" 
d="M491 730h80l-206 -830h-64l-163 406l-68 -28l-25 65l142 56l136 -356z" />
    <glyph glyph-name="infinity" unicode="&#x221e;" horiz-adv-x="865" 
d="M125 289c0 -55 47 -98 114 -98c52 0 118 38 159 101c-44 61 -103 100 -159 100c-68 0 -114 -42 -114 -103zM632 119c-76 0 -143 36 -201 108c-59 -72 -124 -108 -193 -108c-53 0 -98 16 -135 47s-55 71 -55 120c0 52 18 93 53 124s79 46 132 46c74 0 141 -38 201 -113
c61 75 129 113 206 113c47 0 89 -16 124 -47s53 -71 53 -120c0 -52 -17 -93 -52 -124s-80 -46 -133 -46zM740 286c0 55 -47 98 -114 98c-52 0 -118 -39 -159 -102c44 -61 103 -100 159 -100c67 0 114 43 114 104z" />
    <glyph glyph-name="integral" unicode="&#x222b;" horiz-adv-x="394" 
d="M179 38v529c0 92 47 142 126 142c27 0 50 -3 68 -9c22 -7 26 -31 13 -72c-20 11 -43 16 -70 16c-44 0 -61 -25 -61 -82v-529c0 -92 -47 -142 -126 -142c-27 0 -50 3 -68 9c-22 7 -26 31 -13 72c20 -11 43 -16 70 -16c44 0 61 25 61 82z" />
    <glyph glyph-name="approxequal" unicode="&#x2248;" 
d="M411 378c43 0 77 21 102 62l50 -16c-35 -68 -89 -108 -152 -108c-27 0 -61 11 -101 33c-41 21 -71 32 -90 32c-43 0 -77 -21 -102 -62l-50 16c35 68 91 108 152 108c28 0 62 -11 102 -32c40 -22 70 -33 89 -33zM411 198c43 0 77 21 102 62l50 -16
c-35 -68 -89 -108 -152 -108c-27 0 -61 11 -101 33c-41 21 -71 32 -90 32c-43 0 -77 -21 -102 -62l-50 16c35 68 91 108 152 108c28 0 62 -11 102 -32c40 -22 70 -33 89 -33z" />
    <glyph glyph-name="notequal" unicode="&#x2260;" 
d="M378 426h164v-72h-183l-33 -128h216v-72h-234l-65 -254h-60l65 254h-160v72h179l33 128h-212v72h230l71 274h59z" />
    <glyph glyph-name="lessequal" unicode="&#x2264;" 
d="M536 62l-456 251v44l456 251v-77l-361 -196l361 -197v-76zM80 0v48h456v-48h-456z" />
    <glyph glyph-name="greaterequal" unicode="&#x2265;" 
d="M94 608l456 -251v-44l-456 -251v76l361 197l-361 196v77zM94 0v48h456v-48h-456z" />
    <glyph glyph-name="lozenge" unicode="&#x25ca;" horiz-adv-x="573" 
d="M440 349l-155 264l-152 -263l152 -261zM255 -2l-205 352l205 352h62l206 -352l-206 -352h-62z" />
    <glyph glyph-name="uniF8FF" unicode="&#xf8ff;" horiz-adv-x="889" 
d="M710 316v-127c0 -40 -9 -59 -37 -72l-203 -104v239c0 18 6 30 18 37l145 74c9 5 18 7 29 7c28 0 48 -19 48 -54zM517 529l115 -57c16 -8 24 -20 24 -36c0 -19 -11 -34 -33 -45l-148 -75c-21 -11 -31 -31 -31 -61v-255l-265 135v260c0 24 10 41 29 52l165 84
c25 13 48 19 69 19c22 0 47 -7 75 -21z" />
    <glyph glyph-name="a.superior" horiz-adv-x="364" 
d="M316 397h-35c-22 0 -34 15 -37 44c-30 -31 -65 -47 -106 -47c-57 0 -98 31 -98 92c0 72 50 101 150 101h52v9c0 39 -21 59 -64 59c-37 0 -72 -9 -105 -27c-3 7 -4 15 -4 24c0 20 7 33 21 40c21 9 51 14 89 14c81 0 121 -36 121 -108v-138c0 -20 5 -41 16 -63zM143 446
c37 0 70 15 99 46v45h-49c-65 0 -95 -12 -95 -51c0 -25 20 -40 45 -40z" />
    <glyph glyph-name="o.superior" horiz-adv-x="392" 
d="M132 473c15 -18 36 -27 64 -27s50 9 65 27s22 43 22 76s-7 58 -22 76s-37 27 -65 27s-49 -9 -64 -27s-23 -43 -23 -76s8 -58 23 -76zM87 665c25 27 61 41 109 41s84 -14 109 -41s37 -66 37 -116s-12 -89 -37 -116c-25 -28 -61 -42 -109 -42s-84 14 -109 42
c-25 27 -37 66 -37 116s12 89 37 116z" />
    <glyph glyph-name="_1999" horiz-adv-x="376" 
d="M127 436h-95v64h96v47c0 103 54 162 159 162c31 0 59 -4 82 -13c14 -5 21 -16 21 -34c0 -9 -2 -21 -7 -35c-29 12 -61 18 -94 18c-63 0 -87 -33 -87 -101v-44h156v-64h-155v-436h-76v436z" />
    </font>
</defs>
</svg>
