<?xml version="1.0" standalone="no"?>
<!DOCTYPE svg PUBLIC "-//W3C//DTD SVG 1.1//EN" "http://www.w3.org/Graphics/SVG/1.1/DTD/svg11.dtd" >
<svg xmlns="http://www.w3.org/2000/svg" xmlns:xlink="http://www.w3.org/1999/xlink" version="1.1">
<metadata>
Created by FontForge 20161116 at Sun Mar  8 22:16:41 2015
 By Jimmy Wärting
Copyright \(c\) 2013 by Design by Anuthin Wongsunkakon \(2005\) Revival by Stawix Ruecha \(2013\). For Cadson\(R\) Demak All rights reserved.
</metadata>
<defs>
<font id="AminoAlt-Regular7" horiz-adv-x="615" >
  <font-face 
    font-family="Amino-Alt"
    font-weight="400"
    font-stretch="normal"
    units-per-em="1000"
    panose-1="2 0 0 0 0 0 0 0 0 0"
    ascent="773"
    descent="-227"
    x-height="500"
    cap-height="700"
    bbox="-62 -207 1027 940"
    underline-thickness="20"
    underline-position="-100"
    stemh="32"
    stemv="35"
    unicode-range="U+0020-FB02"
  />
<missing-glyph horiz-adv-x="500" 
d="M500 0h-500v700h500v-700zM80 650l170 -255l170 255h-340zM450 605l-170 -255l170 -255v510zM250 305l-170 -255h340zM220 350l-170 255v-510z" />
    <glyph glyph-name="fi" unicode="fi" horiz-adv-x="566" 
d="M164 518v-18h304v-500h-35v470h-269v-470h-34v470h-98v30h98v23c0 115 69 183 180 183c40 0 72 -6 96 -18c5 -3 7 -8 7 -15c0 -5 -1 -9 -2 -13c-27 11 -60 17 -100 17c-93 0 -147 -56 -147 -159z" />
    <glyph glyph-name="fl" unicode="fl" horiz-adv-x="579" 
d="M164 521v-21h151v-29h-150v-471h-34v471h-99v29h99v26c0 105 60 181 187 181c54 0 109 -9 164 -27v-680h-34v659c-43 13 -86 19 -129 19c-105 0 -155 -64 -155 -157z" />
    <glyph glyph-name=".notdef" horiz-adv-x="500" 
d="M500 0h-500v700h500v-700zM80 650l170 -255l170 255h-340zM450 605l-170 -255l170 -255v510zM250 305l-170 -255h340zM220 350l-170 255v-510z" />
    <glyph glyph-name="null" horiz-adv-x="0" 
 />
    <glyph glyph-name="nonmarkingreturn" horiz-adv-x="333" 
 />
    <glyph glyph-name="space" unicode=" " horiz-adv-x="265" 
 />
    <glyph glyph-name="exclam" unicode="!" horiz-adv-x="215" 
d="M87 700h41l-8 -543h-25zM77 26c0 20 10 30 30 30c21 0 31 -10 31 -30c0 -21 -10 -31 -31 -31c-20 0 -30 10 -30 31z" />
    <glyph glyph-name="quotedbl" unicode="&#x22;" horiz-adv-x="290" 
d="M66 700h36l-6 -220h-25zM189 700h35l-5 -220h-25z" />
    <glyph glyph-name="numbersign" unicode="#" 
d="M494 700l-40 -240h96v-30h-102l-26 -151h100v-31h-105l-43 -248h-35l43 248h-183l-43 -248h-35l43 248h-99v31h104l26 151h-102v30h107l41 240h36l-41 -240h182l41 240h35zM413 430h-182l-27 -151h183z" />
    <glyph glyph-name="dollar" unicode="$" 
d="M510 183c0 89 -65 133 -189 165v-321c117 8 189 60 189 156zM109 547c0 -44 14 -77 41 -98c27 -22 75 -42 146 -59v283c-128 -1 -187 -50 -187 -126zM86 70c49 -29 112 -44 188 -44h22v328c-81 19 -138 43 -171 71c-34 27 -51 68 -51 122c0 96 74 155 222 158v95h25v-95
c59 -1 110 -11 153 -30c20 -9 30 -20 30 -34c0 -4 -1 -9 -2 -14c-53 29 -114 44 -181 46v-290c148 -36 224 -91 224 -200c0 -119 -80 -180 -224 -187v-96h-25v94h-1h-12c-69 0 -125 9 -169 28c-20 9 -30 20 -30 34c0 4 1 9 2 14z" />
    <glyph glyph-name="percent" unicode="%" horiz-adv-x="742" 
d="M211 0h-36l358 700h36zM95 435c-21 27 -32 65 -32 115s11 88 32 115s51 40 88 40s67 -13 88 -40s32 -65 32 -115s-11 -88 -32 -115s-51 -40 -88 -40s-67 13 -88 40zM183 423c59 0 88 42 88 127s-29 127 -88 127s-88 -42 -88 -127s29 -127 88 -127zM472 35
c-21 27 -32 65 -32 115s11 88 32 115s51 40 88 40s67 -13 88 -40s32 -65 32 -115s-11 -88 -32 -115s-51 -40 -88 -40s-67 13 -88 40zM560 23c59 0 88 42 88 127s-29 127 -88 127s-88 -42 -88 -127s29 -127 88 -127z" />
    <glyph glyph-name="ampersand" unicode="&#x26;" horiz-adv-x="658" 
d="M331 335l183 -214c39 43 65 92 78 149c19 -1 28 -18 24 -34c-12 -48 -38 -95 -79 -141l82 -95h-41l-64 73c-59 -53 -129 -80 -208 -80c-74 0 -134 20 -180 60c-46 39 -69 91 -69 155c0 89 56 172 165 205c-53 57 -79 98 -79 150c0 84 63 144 172 144s176 -69 176 -166
c0 -72 -53 -141 -160 -206zM305 24c73 0 135 25 186 75l-249 289c-103 -29 -151 -108 -151 -181c0 -54 20 -98 61 -132c40 -34 91 -51 153 -51zM457 540c0 80 -54 136 -142 136c-80 0 -138 -48 -138 -113c0 -22 6 -42 18 -61s32 -46 61 -80l54 -63c93 53 147 122 147 181z
" />
    <glyph glyph-name="quotesingle" unicode="'" horiz-adv-x="168" 
d="M66 700h36l-6 -220h-25z" />
    <glyph glyph-name="parenleft" unicode="(" horiz-adv-x="253" 
d="M74 300c0 187 52 322 155 405l14 -21c-47 -39 -82 -93 -103 -163c-22 -70 -33 -144 -33 -221s11 -150 33 -220c21 -70 56 -124 103 -163l-14 -21c-103 83 -155 218 -155 404z" />
    <glyph glyph-name="parenright" unicode=")" horiz-adv-x="253" 
d="M179 300c0 -185 -52 -320 -155 -404l-14 21c47 39 82 93 104 163c21 70 32 143 32 220s-11 151 -32 221c-22 70 -57 124 -104 163l14 21c103 -84 155 -219 155 -405z" />
    <glyph glyph-name="asterisk" unicode="*" horiz-adv-x="457" 
d="M381 604l13 -32l-147 -48l105 -115l-26 -23l-97 124l-99 -125l-25 24l104 116l-146 47l12 32l141 -57l-5 153h35l-7 -153z" />
    <glyph glyph-name="plus" unicode="+" 
d="M291 306v209h33v-209h211v-32h-211v-209h-33v209h-211v32h211z" />
    <glyph glyph-name="comma" unicode="," horiz-adv-x="182" 
d="M59 26c0 20 10 30 31 30s32 -11 32 -34c0 -31 -14 -78 -42 -141l-19 7c15 37 25 73 29 108c-19 -1 -31 11 -31 30z" />
    <glyph glyph-name="hyphen" unicode="-" horiz-adv-x="383" 
d="M40 271v31h303v-31h-303z" />
    <glyph glyph-name="period" unicode="." horiz-adv-x="182" 
d="M60 26c0 20 10 30 31 30s31 -10 31 -30c0 -21 -10 -31 -31 -31s-31 10 -31 31z" />
    <glyph glyph-name="slash" unicode="/" horiz-adv-x="272" 
d="M39 -100h-36l206 800h35z" />
    <glyph glyph-name="zero" unicode="0" 
d="M124 85c-45 61 -67 150 -67 265s22 204 67 265c44 61 105 92 184 92c156 0 250 -126 250 -357s-94 -357 -250 -357c-79 0 -140 31 -184 92zM467 109c37 56 55 136 55 241s-18 185 -55 241s-90 84 -159 84c-139 0 -215 -116 -215 -325s76 -325 215 -325
c69 0 122 28 159 84z" />
    <glyph glyph-name="one" unicode="1" 
d="M312 31v625l-165 -119l-19 26l188 137h31v-669h173v-31h-390v31h182z" />
    <glyph glyph-name="two" unicode="2" 
d="M523 32v-32h-443v30c110 63 201 134 273 213c71 78 107 159 107 242c0 116 -58 189 -179 189c-72 0 -131 -15 -178 -44c-5 6 -7 13 -7 21c0 9 8 16 24 23c45 21 99 32 162 32c143 0 214 -85 214 -221c0 -91 -43 -185 -113 -261c-70 -77 -150 -140 -239 -192h379z" />
    <glyph glyph-name="three" unicode="3" 
d="M262 25c132 0 219 65 219 181c0 111 -81 182 -214 182h-51l-17 23l241 258h-364v31h413v-27l-242 -257h35c74 0 132 -20 173 -59s62 -90 62 -152c0 -137 -102 -211 -255 -211c-50 0 -95 6 -134 18c-39 11 -59 24 -59 37c0 9 3 16 10 21c43 -27 122 -45 183 -45z" />
    <glyph glyph-name="four" unicode="4" 
d="M572 202v-32h-108v-170h-35v170h-366v27l370 503h31v-498h108zM106 202h323v440z" />
    <glyph glyph-name="five" unicode="5" 
d="M266 -6c-53 0 -98 5 -137 17c-39 11 -59 23 -59 37c0 9 3 16 10 22c41 -27 118 -45 186 -45c139 0 232 62 232 185s-79 185 -236 185h-157l26 305h352v-31h-321l-21 -242h117c184 0 276 -72 276 -217c0 -147 -107 -216 -268 -216z" />
    <glyph glyph-name="six" unicode="6" 
d="M109 345c57 75 132 112 224 112c148 0 218 -86 218 -227c0 -153 -83 -236 -223 -236c-165 0 -254 121 -254 356c0 228 104 356 269 356c56 0 101 -10 135 -30c9 -6 13 -12 13 -19c0 -5 -2 -11 -7 -19c-40 25 -86 37 -139 37c-148 0 -233 -126 -236 -330zM333 426
c-87 0 -161 -41 -223 -123c9 -181 83 -278 219 -278c117 0 186 74 186 205c0 121 -57 196 -182 196z" />
    <glyph glyph-name="seven" unicode="7" horiz-adv-x="567" 
d="M468 670h-394v30h434v-29l-337 -671h-39z" />
    <glyph glyph-name="eight" unicode="8" 
d="M154 63c35 -26 86 -39 154 -39s119 13 154 39c35 25 52 62 52 110c0 92 -83 154 -206 181c-123 -27 -207 -89 -207 -181c0 -48 18 -85 53 -110zM270 370c-111 27 -167 83 -167 168c0 112 68 168 205 168s205 -56 205 -167c0 -86 -56 -142 -168 -169
c59 -13 107 -37 146 -71c39 -35 58 -76 58 -125c0 -120 -80 -180 -241 -180c-159 0 -242 61 -242 180c0 49 20 90 59 125c39 34 87 58 145 71zM478 539c0 91 -57 136 -170 136s-170 -46 -170 -137c0 -75 57 -125 170 -152c113 27 170 78 170 153z" />
    <glyph glyph-name="nine" unicode="9" 
d="M506 355c-57 -75 -132 -112 -224 -112c-148 0 -218 86 -218 227c0 153 83 236 223 236c165 0 254 -121 254 -356c0 -228 -104 -356 -269 -356c-56 0 -101 10 -135 30c-9 6 -13 12 -13 19c0 5 2 11 7 19c40 -25 86 -37 139 -37c148 0 233 126 236 330zM282 274
c87 0 161 41 223 123c-9 181 -83 278 -219 278c-117 0 -186 -74 -186 -205c0 -121 57 -196 182 -196z" />
    <glyph glyph-name="colon" unicode=":" horiz-adv-x="215" 
d="M77 26c0 20 10 30 31 30c20 0 30 -10 30 -30c0 -21 -10 -31 -30 -31c-21 0 -31 10 -31 31zM77 419c0 20 10 30 31 30c20 0 30 -10 30 -30c0 -21 -10 -31 -30 -31c-21 0 -31 10 -31 31z" />
    <glyph glyph-name="semicolon" unicode=";" horiz-adv-x="215" 
d="M77 419c0 20 10 30 31 30c20 0 30 -10 30 -30c0 -21 -10 -31 -30 -31c-21 0 -31 10 -31 31zM76 26c0 20 10 30 31 30s32 -11 32 -34c0 -31 -14 -78 -42 -141l-19 7c15 37 25 73 29 108c-19 -1 -31 11 -31 30z" />
    <glyph glyph-name="less" unicode="&#x3c;" 
d="M512 40l-428 240v24l428 239v-36l-388 -215l388 -215v-37z" />
    <glyph glyph-name="equal" unicode="=" 
d="M93 182v31h428v-31h-428zM93 367v31h428v-31h-428z" />
    <glyph glyph-name="greater" unicode="&#x3e;" 
d="M104 543l427 -239v-24l-427 -240v37l387 215l-387 215v36z" />
    <glyph glyph-name="question" unicode="?" horiz-adv-x="520" 
d="M231 706c140 0 223 -73 223 -186c0 -151 -183 -187 -183 -323v-26h-36v26c0 86 67 142 118 192c36 35 65 80 65 131c0 95 -68 154 -187 154c-73 0 -134 -15 -181 -46c-4 6 -6 13 -6 22c0 7 3 12 9 16c37 23 110 40 178 40zM223 25c0 20 10 30 31 30s31 -10 31 -30
c0 -19 -10 -29 -31 -29s-31 10 -31 29z" />
    <glyph glyph-name="at" unicode="@" horiz-adv-x="1027" 
d="M967 343c0 -107 -22 -191 -66 -254c-45 -63 -97 -95 -158 -95c-69 0 -104 32 -104 97c-51 -61 -112 -91 -185 -91c-101 0 -161 71 -161 186c0 159 96 318 289 318c54 0 104 -12 151 -35l-62 -345c-1 -6 -2 -15 -2 -26c0 -49 25 -73 76 -73c49 0 93 28 131 85
c37 56 56 133 56 230c0 207 -117 335 -349 335c-147 0 -265 -46 -354 -138c-89 -93 -134 -212 -134 -357c0 -114 34 -202 103 -263c68 -61 160 -91 276 -91c100 0 182 13 246 38c1 -4 2 -10 2 -17s-3 -11 -8 -14c-18 -9 -51 -18 -98 -27c-47 -8 -95 -12 -143 -12
c-126 0 -226 33 -301 98c-75 66 -112 162 -112 287c0 155 47 282 141 380s221 147 381 147c252 0 385 -138 385 -363zM637 130l57 321c-36 15 -74 22 -115 22c-78 0 -139 -28 -183 -84c-45 -56 -67 -123 -67 -201c0 -100 47 -157 127 -157c70 0 130 33 181 99z" />
    <glyph glyph-name="A" unicode="A" horiz-adv-x="659" 
d="M352 683l279 -683h-37l-89 220h-353l-89 -220h-37l288 702h10c14 0 23 -6 28 -19zM493 251l-164 405l-166 -405h330z" />
    <glyph glyph-name="B" unicode="B" horiz-adv-x="673" 
d="M541 532c0 92 -54 136 -174 136h-232v-280h236c103 0 170 56 170 144zM527 73c31 27 47 69 47 124s-17 96 -51 121s-87 38 -159 38h-229v-324h240c69 0 120 14 152 41zM375 0h-276v700h268c140 0 210 -56 210 -168c0 -85 -54 -144 -134 -159c112 -8 166 -76 166 -176
c0 -131 -78 -197 -234 -197z" />
    <glyph glyph-name="C" unicode="C" horiz-adv-x="630" 
d="M394 25c69 1 133 17 190 48c1 -4 2 -9 2 -14c0 -7 -2 -13 -6 -16c-33 -27 -104 -49 -185 -49c-221 0 -329 130 -329 365c0 106 27 190 82 253c54 63 131 94 232 94c77 0 136 -12 176 -36c7 -4 10 -10 10 -19c0 -5 -1 -10 -2 -14c-49 25 -111 38 -184 38
c-180 0 -278 -123 -278 -316c0 -216 95 -334 292 -334z" />
    <glyph glyph-name="D" unicode="D" horiz-adv-x="710" 
d="M135 668v-636h192c188 0 280 120 280 325c0 200 -101 311 -294 311h-178zM327 0h-228v700h214c216 0 330 -123 330 -343c0 -225 -105 -357 -316 -357z" />
    <glyph glyph-name="E" unicode="E" horiz-adv-x="565" 
d="M474 343h-339v-311h400v-32h-436v700h424v-32h-388v-293h364v-9c0 -15 -8 -23 -25 -23z" />
    <glyph glyph-name="F" unicode="F" horiz-adv-x="551" 
d="M135 375h353v-32h-353v-343h-36v700h413v-32h-377v-293z" />
    <glyph glyph-name="G" unicode="G" horiz-adv-x="697" 
d="M385 675c-90 0 -160 -29 -209 -86s-74 -134 -74 -230c0 -223 97 -334 292 -334c61 0 143 21 191 50v267h-224v8c0 16 8 24 24 24h235v-319c-67 -41 -142 -61 -225 -61c-221 0 -329 128 -329 365c0 105 28 190 84 253c55 63 134 94 235 94c87 0 152 -12 193 -37
c7 -4 10 -10 10 -19c0 -6 -1 -11 -2 -15c-52 27 -119 40 -201 40z" />
    <glyph glyph-name="H" unicode="H" horiz-adv-x="714" 
d="M615 0h-36v343h-444v-343h-36v700h11c17 0 25 -8 25 -25v-300h444v325h36v-700z" />
    <glyph glyph-name="I" unicode="I" horiz-adv-x="244" 
d="M140 675v-675h-36v700h11c17 0 25 -8 25 -25z" />
    <glyph glyph-name="J" unicode="J" horiz-adv-x="496" 
d="M190 24c108 0 176 70 176 219v457h35v-460c0 -165 -76 -247 -211 -247c-75 0 -133 14 -172 42c-3 3 -5 8 -5 16c0 6 1 12 4 19c46 -31 104 -46 173 -46z" />
    <glyph glyph-name="K" unicode="K" 
d="M540 20l-258 391l-147 -146v-265h-36v700h10c17 0 26 -9 26 -26v-361l389 387h48l-264 -264l287 -436h-14c-19 0 -32 7 -41 20z" />
    <glyph glyph-name="L" unicode="L" horiz-adv-x="534" 
d="M135 32h382v-32h-418v700h10c17 0 26 -9 26 -26v-642z" />
    <glyph glyph-name="M" unicode="M" horiz-adv-x="826" 
d="M690 700h37v-700h-35v637l-255 -426c-9 -12 -11 -17 -28 -17h-9l-266 443v-637h-35v700h38l276 -466z" />
    <glyph glyph-name="N" unicode="N" horiz-adv-x="729" 
d="M594 700h36v-700h-38l-457 643v-643h-36v700h12c17 0 31 -7 41 -22l442 -621v643z" />
    <glyph glyph-name="O" unicode="O" horiz-adv-x="750" 
d="M375 674c-181 0 -273 -119 -273 -324c0 -207 92 -325 273 -325c183 0 274 118 274 325c0 205 -91 324 -274 324zM144 613c52 62 129 93 231 93s179 -31 231 -93c52 -63 78 -150 78 -263s-26 -200 -78 -262c-52 -63 -129 -94 -231 -94s-179 31 -231 94
c-52 62 -78 149 -78 262s26 200 78 263z" />
    <glyph glyph-name="P" unicode="P" horiz-adv-x="622" 
d="M341 298h-206v-298h-36v700h242c152 0 227 -70 227 -201s-75 -201 -227 -201zM342 668h-207v-338h207c127 0 191 56 191 169s-64 169 -191 169z" />
    <glyph glyph-name="Q" unicode="Q" horiz-adv-x="750" 
d="M144 613c52 62 129 93 231 93s179 -31 231 -93c52 -63 78 -150 78 -263c0 -220 -100 -350 -293 -355c9 -87 44 -133 140 -133c37 0 66 5 88 14c-8 -31 -38 -46 -89 -46c-117 0 -160 58 -172 165c-193 5 -292 135 -292 355c0 113 26 200 78 263zM375 674
c-181 0 -273 -119 -273 -324c0 -207 92 -325 273 -325c183 0 274 118 274 325c0 205 -91 324 -274 324z" />
    <glyph glyph-name="R" unicode="R" horiz-adv-x="647" 
d="M358 321h-223v-321h-36v700h256c151 0 227 -63 227 -189c0 -92 -43 -152 -129 -179l132 -332h-12c-19 0 -31 7 -36 22l-120 302c-15 -2 -34 -3 -59 -3zM356 668h-221v-315h221c129 0 190 50 190 158c0 105 -63 157 -190 157z" />
    <glyph glyph-name="S" unicode="S" horiz-adv-x="608" 
d="M285 26c136 0 223 52 223 157c0 92 -73 137 -213 170c-83 20 -142 44 -177 72c-35 27 -53 68 -53 122c0 99 81 159 234 159c39 0 78 -4 115 -12s64 -18 79 -29c6 -5 9 -11 9 -19c0 -5 -1 -9 -2 -13c-53 27 -120 41 -201 41c-133 0 -199 -50 -199 -127
c0 -45 15 -78 45 -100s84 -42 162 -61c156 -37 236 -91 236 -203c0 -127 -97 -189 -258 -189c-42 0 -84 5 -125 14s-70 20 -86 31c-6 5 -9 11 -9 19c0 5 1 9 2 13c51 -25 139 -45 218 -45z" />
    <glyph glyph-name="T" unicode="T" horiz-adv-x="581" 
d="M21 700h539v-32l-252 1v-669h-35v669l-252 -1v32z" />
    <glyph glyph-name="U" unicode="U" horiz-adv-x="718" 
d="M182 95c35 -47 94 -70 177 -70s143 23 178 70s52 115 52 206v399h35v-405c0 -197 -77 -302 -265 -302c-187 0 -265 105 -265 302v405h10c17 0 26 -8 26 -25v-374c0 -91 17 -159 52 -206z" />
    <glyph glyph-name="V" unicode="V" horiz-adv-x="653" 
d="M625 700l-282 -702h-32l-283 702h15c14 0 24 -7 30 -21l254 -632l261 653h37z" />
    <glyph glyph-name="W" unicode="W" horiz-adv-x="1055" 
d="M1021 700l-226 -702h-35l-233 650l-233 -650h-34l-226 702h13c16 0 26 -7 31 -21l199 -626l232 647h13c16 0 27 -8 32 -23l224 -624l205 647h38z" />
    <glyph glyph-name="X" unicode="X" horiz-adv-x="618" 
d="M538 17l-229 314l-242 -331h-42l263 359l-250 341h21c15 0 26 -6 34 -17l216 -295l228 312h42l-249 -341l263 -359h-21c-15 0 -26 6 -34 17z" />
    <glyph glyph-name="Y" unicode="Y" horiz-adv-x="590" 
d="M568 700l-254 -399v-301h-35v301l-257 399h21c14 0 25 -6 33 -19l220 -347l230 366h42z" />
    <glyph glyph-name="Z" unicode="Z" horiz-adv-x="597" 
d="M503 668h-446v8c0 16 8 24 25 24h462v-32l-458 -637h465v-31h-507v31z" />
    <glyph glyph-name="bracketleft" unicode="[" horiz-adv-x="229" 
d="M97 700h105v-32h-70v-736h70v-32h-105v800z" />
    <glyph glyph-name="backslash" unicode="\" horiz-adv-x="272" 
d="M27 700h36l206 -800h-36z" />
    <glyph glyph-name="bracketright" unicode="]" horiz-adv-x="229" 
d="M97 668h-70v32h105v-800h-105v32h70v736z" />
    <glyph glyph-name="asciicircum" unicode="^" horiz-adv-x="442" 
d="M203 702h37l160 -299h-33l-146 269l-146 -269h-33z" />
    <glyph glyph-name="underscore" unicode="_" horiz-adv-x="483" 
d="M37 -122v25h409v-25h-409z" />
    <glyph glyph-name="grave" unicode="`" horiz-adv-x="328" 
d="M97 720l109 -115h-26l-155 120c7 10 17 15 30 15c15 0 29 -7 42 -20z" />
    <glyph glyph-name="a" unicode="a" horiz-adv-x="594" 
d="M465 135v229c-44 68 -120 112 -193 112c-109 0 -171 -74 -171 -226s62 -227 169 -227c75 0 152 43 195 112zM499 475v-414c0 -24 5 -45 14 -62h-16c-21 0 -32 21 -32 63v36c-39 -59 -115 -105 -194 -105c-129 0 -205 85 -205 257c0 171 76 256 204 256
c80 0 154 -44 195 -104l1 98h9c16 0 24 -8 24 -25z" />
    <glyph glyph-name="b" unicode="b" horiz-adv-x="590" 
d="M129 364v-229c43 -69 119 -112 194 -112c104 0 165 75 165 227c0 151 -56 226 -167 226c-73 0 -148 -44 -192 -112zM129 98l-2 -98h-33v700h10c17 0 25 -8 25 -25v-274c41 60 115 105 194 105c127 0 200 -85 200 -256c0 -172 -73 -257 -200 -257c-80 0 -155 45 -194 105z
" />
    <glyph glyph-name="c" unicode="c" horiz-adv-x="505" 
d="M303 24c55 0 107 11 156 32c1 -4 2 -9 2 -14c0 -7 -3 -13 -8 -16c-38 -21 -89 -32 -152 -32c-152 0 -235 92 -235 256s84 255 233 255c56 0 105 -11 148 -32c5 -3 8 -9 8 -16c0 -5 -1 -10 -2 -14c-52 21 -103 32 -152 32c-128 0 -201 -80 -201 -225
c0 -147 72 -226 203 -226z" />
    <glyph glyph-name="d" unicode="d" horiz-adv-x="590" 
d="M461 135v229c-44 68 -120 112 -193 112c-111 0 -167 -75 -167 -226c0 -152 61 -227 165 -227c75 0 152 43 195 112zM495 675v-614c0 -24 5 -45 14 -62h-16c-21 0 -32 21 -32 63v36c-39 -59 -115 -105 -194 -105c-128 0 -201 85 -201 257c0 171 75 256 200 256
c79 0 153 -45 194 -105v299h10c17 0 25 -8 25 -25z" />
    <glyph glyph-name="e" unicode="e" horiz-adv-x="567" 
d="M303 23c65 0 124 15 176 44c1 -4 2 -9 2 -14c0 -7 -3 -13 -8 -17c-39 -28 -97 -42 -172 -42s-133 22 -174 65s-61 107 -61 191c0 163 79 255 224 255c135 0 210 -91 210 -238v-37h-399c5 -137 77 -207 202 -207zM290 475c-121 0 -186 -78 -189 -217h364
c0 137 -62 217 -175 217z" />
    <glyph glyph-name="f" unicode="f" horiz-adv-x="358" 
d="M130 470h-98v30h98v53c0 97 51 153 150 153c31 0 57 -5 78 -16c5 -3 7 -8 7 -15c0 -5 -1 -9 -2 -13c-23 10 -51 15 -82 15c-78 0 -117 -43 -117 -129v-48h165v-30h-165v-470h-34v470z" />
    <glyph glyph-name="g" unicode="g" horiz-adv-x="528" 
d="M62 332c0 117 65 175 195 175c47 0 85 -8 114 -23c28 15 57 23 86 23s43 -10 42 -30l-1 -9c-13 6 -28 9 -44 9c-17 0 -36 -3 -59 -9c38 -28 57 -73 57 -136c0 -117 -65 -176 -195 -176c-51 0 -90 8 -117 25c-15 -13 -23 -29 -23 -50c0 -39 37 -67 105 -67h85
c127 0 190 -45 190 -135c0 -84 -70 -136 -223 -136c-145 0 -218 46 -218 137c0 51 32 95 96 118c-39 13 -68 42 -68 82c0 26 11 48 34 66c-37 29 -56 74 -56 136zM95 332c0 -99 54 -148 162 -148s162 49 162 148c0 98 -54 147 -162 147s-162 -49 -162 -147zM89 -70
c0 -73 62 -109 185 -109c131 0 190 43 190 108c0 71 -52 106 -157 106h-119c-66 -17 -99 -52 -99 -105z" />
    <glyph glyph-name="h" unicode="h" horiz-adv-x="602" 
d="M511 318v-318h-10c-17 0 -25 8 -25 24v286c0 111 -45 166 -134 166c-73 0 -144 -37 -213 -111v-365h-35v700h10c17 0 25 -8 25 -25v-275c55 59 132 106 219 106c104 0 163 -69 163 -188z" />
    <glyph glyph-name="i" unicode="i" horiz-adv-x="229" 
d="M132 475v-475h-35v500h10c17 0 25 -8 25 -25zM86 649c0 18 10 27 29 27s29 -9 29 -26c0 -18 -10 -27 -29 -27s-29 9 -29 26z" />
    <glyph glyph-name="j" unicode="j" horiz-adv-x="227" 
d="M130 475v-548c0 -89 -38 -133 -115 -133c-32 0 -55 4 -69 12c-5 3 -8 8 -8 14c0 7 1 12 3 17c21 -9 44 -14 71 -14c61 0 83 33 83 110v567h10c17 0 25 -8 25 -25zM84 649c0 18 10 27 29 27s29 -9 29 -26c0 -18 -10 -27 -29 -27s-29 9 -29 26z" />
    <glyph glyph-name="k" unicode="k" horiz-adv-x="541" 
d="M471 -2c-77 0 -88 105 -110 187c-16 56 -53 102 -117 102c-37 0 -76 -8 -115 -24v-263h-35v700h10c17 0 25 -8 25 -25v-382c44 16 83 24 117 24c16 0 29 -2 38 -5l163 188h42l-175 -199c25 -13 46 -35 61 -67s26 -63 31 -93c10 -61 31 -117 68 -117c18 0 33 6 46 19
c5 -13 8 -22 10 -25c-13 -13 -33 -20 -59 -20z" />
    <glyph glyph-name="l" unicode="l" horiz-adv-x="228" 
d="M131 675v-675h-34v700h10c16 0 24 -8 24 -25z" />
    <glyph glyph-name="m" unicode="m" horiz-adv-x="874" 
d="M125 475l1 -77c55 72 120 108 193 108s117 -36 131 -109c22 28 51 53 86 76c35 22 72 33 111 33c89 0 136 -60 136 -160v-346h-10c-17 0 -25 8 -25 24v314c0 92 -35 138 -106 138c-69 0 -143 -52 -188 -112c0 -4 1 -14 1 -18v-346h-35v338c0 92 -36 138 -107 138
c-66 0 -128 -39 -187 -116v-360h-34v500h9c16 0 24 -8 24 -25z" />
    <glyph glyph-name="n" unicode="n" horiz-adv-x="596" 
d="M125 475l1 -77c67 72 140 108 217 108c105 0 162 -69 162 -188v-318h-10c-17 0 -25 8 -25 24v286c0 111 -44 166 -132 166c-72 0 -143 -38 -212 -114v-362h-34v500h9c16 0 24 -8 24 -25z" />
    <glyph glyph-name="o" unicode="o" horiz-adv-x="587" 
d="M98 250c0 -147 66 -227 195 -227s195 80 195 227c0 145 -66 226 -195 226s-195 -81 -195 -226zM122 61c-39 44 -58 107 -58 189s19 145 58 190c39 44 96 66 171 66s133 -22 172 -67s58 -108 58 -189s-19 -144 -58 -189s-97 -67 -172 -67s-132 22 -171 67z" />
    <glyph glyph-name="p" unicode="p" horiz-adv-x="589" 
d="M128 364v-229c43 -69 119 -112 194 -112c104 0 165 75 165 227c0 151 -56 226 -167 226c-73 0 -148 -44 -192 -112zM128 98v-298h-35v700h10c16 0 24 -8 24 -24l1 -75c41 60 115 105 194 105c127 0 200 -85 200 -256c0 -172 -73 -257 -200 -257c-80 0 -155 45 -194 105z
" />
    <glyph glyph-name="q" unicode="q" horiz-adv-x="587" 
d="M461 136v228c-44 69 -118 112 -193 112c-111 0 -167 -75 -167 -226c0 -153 61 -227 166 -227c73 0 150 44 194 113zM495 475v-675h-34v298c-40 -60 -115 -105 -194 -105c-127 0 -200 85 -200 257s73 257 200 257c79 0 153 -45 194 -105l1 98h9c16 0 24 -8 24 -25z" />
    <glyph glyph-name="r" unicode="r" horiz-adv-x="404" 
d="M385 461c-19 8 -44 12 -77 12c-71 0 -131 -38 -182 -113v-360h-34v500h9c16 0 24 -8 24 -24l1 -78c36 57 100 108 180 108c33 0 57 -5 72 -15c6 -4 9 -11 9 -20c0 -4 -1 -7 -2 -10z" />
    <glyph glyph-name="s" unicode="s" horiz-adv-x="474" 
d="M235 22c100 0 150 34 150 103c0 32 -12 56 -37 73c-25 16 -67 32 -127 48c-51 13 -75 22 -110 43c-36 21 -53 52 -53 96c0 85 70 121 170 121c73 0 126 -10 157 -30c7 -5 11 -12 11 -20c0 -5 0 -9 -1 -12c-46 22 -102 33 -167 33c-79 0 -137 -28 -137 -92
c0 -42 24 -66 61 -82c28 -13 44 -18 80 -27c132 -35 187 -71 187 -151c0 -89 -69 -131 -182 -131c-67 0 -124 11 -169 33c-12 5 -18 15 -18 29c0 5 0 9 1 11c57 -30 118 -45 184 -45z" />
    <glyph glyph-name="t" unicode="t" horiz-adv-x="390" 
d="M134 470h-119v30h119l10 200h23v-200h187v-30h-187v-341c0 -79 28 -108 93 -108c40 0 73 10 99 30c3 -8 5 -14 5 -17c0 -5 -2 -9 -6 -12c-23 -19 -56 -28 -98 -28c-91 0 -126 42 -126 141v335z" />
    <glyph glyph-name="u" unicode="u" horiz-adv-x="587" 
d="M460 62v36c-23 -27 -53 -51 -90 -72s-77 -32 -120 -32c-104 0 -160 67 -160 187v319h10c16 0 24 -8 24 -25v-286c0 -111 44 -166 132 -166c73 0 141 38 204 114v363h34v-439c0 -24 5 -45 14 -62h-16c-21 0 -32 21 -32 63z" />
    <glyph glyph-name="v" unicode="v" horiz-adv-x="505" 
d="M69 481l184 -441l191 460h37l-208 -493c-6 -6 -14 -9 -23 -9h-14l-212 502h17c14 0 23 -6 28 -19z" />
    <glyph glyph-name="w" unicode="w" horiz-adv-x="797" 
d="M424 480l159 -434l147 454h35l-165 -502h-32l-168 454l-169 -454h-32l-167 502h13c15 0 24 -6 28 -19l143 -435l166 454h13c15 0 25 -7 29 -20z" />
    <glyph glyph-name="x" unicode="x" horiz-adv-x="487" 
d="M408 15l-165 215l-176 -230h-41l197 256l-187 244h21c14 0 25 -5 32 -15l154 -203l167 218h41l-188 -244l198 -256h-22c-13 0 -23 5 -31 15z" />
    <glyph glyph-name="y" unicode="y" horiz-adv-x="500" 
d="M64 481l193 -440l183 459h37l-241 -593c-35 -85 -76 -112 -136 -112c-27 0 -50 3 -67 10c-6 3 -9 8 -9 15s2 13 5 18c16 -8 38 -12 67 -12s50 6 65 19s28 34 41 64l38 91l-220 500h16c13 0 23 -6 28 -19z" />
    <glyph glyph-name="z" unicode="z" horiz-adv-x="466" 
d="M371 471h-316v6c0 15 8 23 24 23h333v-27l-325 -444h331v-29h-373v27z" />
    <glyph glyph-name="braceleft" unicode="{" horiz-adv-x="308" 
d="M57 285v30h13c37 0 58 27 62 82l13 196c5 71 40 107 106 107h35v-25l-35 -2c-48 -1 -70 -28 -73 -81l-11 -196c-3 -55 -23 -87 -58 -96c35 -9 55 -41 58 -96l11 -196c3 -53 25 -80 73 -81l35 -2v-25h-35c-66 0 -101 36 -106 107l-13 196c-4 55 -25 82 -62 82h-13z" />
    <glyph glyph-name="bar" unicode="|" horiz-adv-x="291" 
d="M128 700h35v-800h-35v800z" />
    <glyph glyph-name="braceright" unicode="}" horiz-adv-x="308" 
d="M238 315h13v-30h-13c-37 0 -58 -27 -62 -82l-13 -196c-5 -71 -40 -107 -106 -107h-35v25l35 2c48 1 70 28 73 81l11 196c3 55 23 87 58 96c-35 9 -55 41 -58 96l-11 196c-3 53 -25 80 -73 81l-35 2v25h35c66 0 101 -36 106 -107l13 -196c4 -55 25 -82 62 -82z" />
    <glyph glyph-name="asciitilde" unicode="~" horiz-adv-x="577" 
d="M388 325c45 0 83 24 114 71l22 -7c-29 -56 -77 -91 -136 -91c-31 0 -66 13 -106 38c-41 25 -72 38 -93 38c-45 0 -83 -24 -114 -71l-22 7c29 56 79 91 136 91c31 0 66 -13 107 -38c40 -25 71 -38 92 -38z" />
    <glyph glyph-name="uni00A0" unicode="&#xa0;" horiz-adv-x="240" 
 />
    <glyph glyph-name="exclamdown" unicode="&#xa1;" horiz-adv-x="215" 
d="M95 343h25l8 -543h-41zM77 474c0 21 10 31 30 31c21 0 31 -10 31 -31c0 -20 -10 -30 -31 -30c-20 0 -30 10 -30 30z" />
    <glyph glyph-name="cent" unicode="&#xa2;" 
d="M327 600h25v-95c53 -2 98 -13 137 -32c5 -3 8 -9 8 -16c0 -5 -1 -10 -2 -14c-49 20 -96 31 -143 32v-451c53 1 102 11 149 32c1 -4 2 -9 2 -14c0 -7 -3 -13 -8 -16c-34 -19 -82 -30 -143 -32v-94h-25v94c-144 5 -223 97 -223 256s80 250 223 255v95zM188 413
c-33 -39 -50 -93 -50 -163s16 -124 49 -163s79 -60 140 -63v451c-60 -3 -106 -24 -139 -62z" />
    <glyph glyph-name="sterling" unicode="&#xa3;" 
d="M207 342h-130v31h113c-24 36 -36 52 -48 96c-7 21 -10 44 -10 67c0 101 80 171 211 171c70 0 129 -14 177 -43c7 -3 7 -25 -1 -37c-49 32 -108 48 -176 48c-104 0 -176 -57 -176 -138c0 -24 2 -41 9 -61c4 -15 4 -18 12 -33c8 -16 7 -14 17 -30c5 -8 7 -12 8 -13
c0 -1 3 -5 9 -14l9 -13h204v-31h-188c17 -32 26 -63 26 -92c0 -85 -52 -171 -128 -218h403v-32h-470v30c45 15 83 44 114 86c31 41 46 86 46 135c0 28 -10 58 -31 91z" />
    <glyph glyph-name="currency" unicode="&#xa4;" horiz-adv-x="517" 
d="M123 162l-21 22l31 30c-25 32 -37 67 -37 104c0 36 12 70 36 103l-30 30l21 21l30 -29c34 26 69 39 105 39c33 0 68 -13 105 -39l30 29l20 -21l-29 -29c24 -33 36 -67 36 -104s-12 -72 -37 -104l30 -30l-20 -22c-7 8 -24 23 -31 31c-33 -25 -68 -38 -104 -38
c-37 0 -72 13 -103 38zM165 412c-26 -27 -39 -58 -39 -94s13 -67 39 -93c26 -27 57 -40 93 -40s67 13 93 40c26 26 39 57 39 93s-13 67 -39 94c-26 26 -57 39 -93 39s-67 -13 -93 -39z" />
    <glyph glyph-name="yen" unicode="&#xa5;" 
d="M96 681l212 -347l221 366h44l-168 -271h135v-25h-151l-66 -107h217v-25h-215v-272h-35v272h-215v25h217l-66 107h-151v25h135l-168 271h20c15 0 26 -6 34 -19z" />
    <glyph glyph-name="brokenbar" unicode="&#xa6;" horiz-adv-x="249" 
d="M107 700h35v-320h-35v320zM107 220h35v-320h-35v320z" />
    <glyph glyph-name="section" unicode="&#xa7;" 
d="M307 -177c100 0 150 35 150 104c0 33 -12 58 -37 78c-25 19 -67 40 -128 64c-46 18 -87 45 -123 82c-36 36 -54 75 -54 117c0 69 57 137 133 178c-75 33 -113 79 -113 138c0 85 71 123 170 123c61 0 114 -9 157 -28c10 -6 14 -19 11 -38c-52 24 -108 36 -168 36
c-80 0 -136 -28 -136 -93c0 -64 51 -95 146 -132c131 -51 196 -117 196 -200c0 -37 -14 -72 -43 -106c-29 -35 -63 -59 -100 -74c84 -40 123 -80 123 -145c0 -91 -69 -134 -182 -134c-63 0 -122 13 -176 38c-10 5 -13 18 -10 39c61 -31 122 -47 184 -47zM149 268
c0 -39 19 -75 58 -107c39 -33 81 -57 128 -74c36 12 69 34 98 66c29 31 44 64 44 99c0 75 -62 128 -197 180c-35 -17 -65 -40 -91 -70c-27 -30 -40 -61 -40 -94z" />
    <glyph glyph-name="dieresis" unicode="&#xa8;" horiz-adv-x="328" 
d="M24 649c0 18 10 27 29 27c20 0 30 -9 30 -26c0 -18 -10 -27 -30 -27c-19 0 -29 9 -29 26zM246 649c0 18 10 27 29 27s29 -9 29 -26c0 -18 -10 -27 -29 -27s-29 9 -29 26z" />
    <glyph glyph-name="copyright" unicode="&#xa9;" horiz-adv-x="833" 
d="M78 213c-27 83 -27 191 0 275c27 83 80 153 174 190c47 19 101 28 164 28s118 -9 165 -28c94 -37 146 -107 173 -190c27 -84 27 -192 0 -275c-27 -84 -79 -154 -173 -191c-47 -19 -102 -28 -165 -28s-117 9 -164 28c-94 37 -147 107 -174 191zM725 225
c23 76 23 174 0 250c-24 76 -71 141 -157 177c-43 17 -94 26 -152 26s-108 -9 -151 -26c-86 -36 -134 -101 -157 -177c-24 -76 -24 -174 0 -250c23 -76 71 -142 157 -177c43 -18 93 -27 151 -27s109 9 152 27c86 35 133 101 157 177zM296 212c-31 33 -46 80 -46 141
s15 108 46 141c30 33 73 49 129 49c45 0 80 -7 105 -22c7 -4 10 -11 10 -21c0 -3 -1 -9 -1 -10c-35 16 -72 24 -113 24c-95 0 -143 -54 -143 -161s48 -160 143 -160c44 0 83 9 117 26c1 -2 1 -6 1 -13c0 -11 -4 -18 -12 -22c-27 -14 -62 -21 -107 -21c-56 0 -99 16 -129 49z
" />
    <glyph glyph-name="ordfeminine" unicode="&#xaa;" horiz-adv-x="349" 
d="M298 397h-17c-14 0 -21 12 -22 36l-1 20c-33 -39 -74 -59 -125 -59c-52 0 -93 31 -93 87c0 71 50 98 147 98h71v19c0 55 -26 81 -86 81c-41 0 -74 -7 -101 -20c-1 5 -2 10 -2 15s3 10 8 13c19 12 51 18 96 18c75 0 113 -35 113 -105v-157c0 -19 4 -35 12 -46zM135 420
c48 0 89 22 123 66v69h-67c-83 0 -123 -21 -123 -74c0 -39 31 -61 67 -61z" />
    <glyph glyph-name="guillemotleft" unicode="&#xab;" horiz-adv-x="495" 
d="M209 40l-179 210l179 210h40l-180 -210l180 -210h-40zM406 40l-180 210l180 210h39l-179 -210l179 -210h-39z" />
    <glyph glyph-name="logicalnot" unicode="&#xac;" horiz-adv-x="481" 
d="M38 387v31h384v-216h-35v185h-349z" />
    <glyph glyph-name="uni00AD" unicode="&#xad;" horiz-adv-x="189" 
d="M0 282v30h189v-30h-189z" />
    <glyph glyph-name="registered" unicode="&#xae;" horiz-adv-x="529" 
d="M124 395c-31 34 -47 77 -47 130s16 96 47 130s78 51 141 51s110 -17 141 -51s46 -77 46 -130s-15 -96 -46 -130s-78 -51 -141 -51s-110 17 -141 51zM319 434l-44 76h-51v-88h-23v201h76c46 0 69 -18 69 -55c0 -29 -20 -51 -48 -56l53 -90h-13c-8 0 -14 4 -19 12zM278 604
h-54v-73h54c31 0 46 13 46 38c0 23 -15 35 -46 35zM390 410c27 30 40 68 40 115s-13 85 -40 116c-27 30 -69 45 -125 45c-115 0 -165 -66 -165 -161s50 -161 165 -161c56 0 98 15 125 46z" />
    <glyph glyph-name="overscore" unicode="&#xaf;" horiz-adv-x="328" 
d="M318 629h-308v27h308v-27z" />
    <glyph glyph-name="degree" unicode="&#xb0;" horiz-adv-x="352" 
d="M113 659c-16 -16 -24 -37 -24 -64s8 -48 24 -64c16 -17 37 -25 63 -25s47 8 63 25c16 16 24 37 24 64s-8 48 -24 64s-37 24 -63 24s-47 -8 -63 -24zM62 595c0 65 46 111 114 111s114 -46 114 -111c0 -67 -46 -112 -114 -112s-114 45 -114 112z" />
    <glyph glyph-name="plusminus" unicode="&#xb1;" 
d="M291 331v209h33v-209h211v-32h-211v-209h-33v209h-211v32h211zM80 0v25h455v-25h-455z" />
    <glyph glyph-name="twosuperior" unicode="&#xb2;" horiz-adv-x="288" 
d="M238 423v-25h-197v20c91 52 159 121 159 188c0 43 -25 74 -70 74c-29 0 -54 -7 -75 -21c-4 5 -6 10 -6 16c0 5 2 9 5 11c22 13 47 20 75 20c64 0 98 -39 98 -100c0 -71 -59 -139 -135 -183h146z" />
    <glyph glyph-name="threesuperior" unicode="&#xb3;" horiz-adv-x="281" 
d="M129 426c53 0 79 24 79 72c0 41 -24 62 -71 62h-32l-11 17l95 103h-143v24h182v-20l-99 -103h16c53 0 91 -31 91 -83c0 -60 -38 -97 -106 -97c-32 0 -59 6 -82 17c-3 1 -5 4 -5 9c0 8 3 14 9 18c21 -13 47 -19 77 -19z" />
    <glyph glyph-name="acute" unicode="&#xb4;" horiz-adv-x="328" 
d="M302 725l-154 -120h-26l109 115c13 13 27 20 42 20c13 0 22 -5 29 -15z" />
    <glyph glyph-name="mu" unicode="&#xb5;" horiz-adv-x="589" 
d="M462 62v39c-58 -71 -125 -107 -200 -107c-63 0 -109 23 -136 70v-264h-34v700h10c16 0 24 -8 24 -25v-293c0 -103 50 -159 138 -159c66 0 132 38 198 114v363h34v-439c0 -24 5 -45 14 -62h-16c-21 0 -32 21 -32 63z" />
    <glyph glyph-name="paragraph" unicode="&#xb6;" horiz-adv-x="570" 
d="M353 702h-79v-294h79v294zM351 -67v447h-77c-133 0 -197 45 -197 178c0 119 55 172 196 172h189v-28h-76v-775c0 -89 -38 -133 -115 -133c-32 0 -55 4 -69 12c-5 3 -8 8 -8 14c0 7 1 12 3 17c21 -9 44 -14 71 -14c61 0 83 33 83 110z" />
    <glyph glyph-name="middot" unicode="&#xb7;" horiz-adv-x="182" 
d="M60 309c0 21 10 31 31 31s31 -10 31 -31c0 -20 -10 -30 -31 -30s-31 10 -31 30z" />
    <glyph glyph-name="cedilla" unicode="&#xb8;" horiz-adv-x="328" 
d="M62 -187l99 133h27l-70 -122c-7 -13 -18 -20 -33 -20c-10 0 -18 3 -23 9z" />
    <glyph glyph-name="onesuperior" unicode="&#xb9;" horiz-adv-x="258" 
d="M123 424v245l-65 -47l-15 20l85 62h21v-280h73v-25h-176v25h77z" />
    <glyph glyph-name="ordmasculine" unicode="&#xba;" horiz-adv-x="381" 
d="M79 549c0 -86 37 -129 111 -129s111 43 111 129c0 83 -38 128 -111 128s-111 -45 -111 -128zM86 434c-24 27 -36 65 -36 115s12 89 36 116c23 27 58 40 104 40s81 -13 105 -40c23 -27 35 -66 35 -116s-12 -88 -35 -115c-24 -27 -59 -41 -105 -41s-81 14 -104 41z" />
    <glyph glyph-name="guillemotright" unicode="&#xbb;" horiz-adv-x="495" 
d="M50 460h39l180 -210l-180 -210h-39l179 210zM246 460h40l179 -210l-179 -210h-40l180 210z" />
    <glyph glyph-name="onequarter" unicode="&#xbc;" horiz-adv-x="754" 
d="M216 0h-36l358 700h36zM166 424v245l-64 -47l-16 20l86 62h21v-280h73v-25h-176v25h76zM651 96v-25h-45v-71h-27v71h-153v20l158 214h22v-209h45zM463 96h116v161z" />
    <glyph glyph-name="onehalf" unicode="&#xbd;" horiz-adv-x="754" 
d="M216 0h-36l358 700h36zM655 25v-25h-197v20c91 52 159 121 159 188c0 43 -25 74 -70 74c-29 0 -54 -7 -75 -21c-4 5 -6 10 -6 16c0 5 2 9 5 11c22 13 47 20 75 20c64 0 98 -39 98 -100c0 -71 -59 -139 -135 -183h146zM166 424v245l-64 -47l-16 20l86 62h21v-280h73v-25
h-176v25h76z" />
    <glyph glyph-name="threequarters" unicode="&#xbe;" horiz-adv-x="754" 
d="M216 0h-36l358 700h36zM651 96v-25h-45v-71h-27v71h-153v20l158 214h22v-209h45zM463 96h116v161zM170 426c53 0 79 24 79 73c0 41 -24 61 -71 61h-32l-11 17l95 103h-143v24h182v-20l-99 -103h16c53 0 91 -31 91 -83c0 -60 -38 -97 -106 -97c-32 0 -59 6 -82 17
c-3 1 -5 4 -5 9c0 8 3 14 9 18c21 -13 47 -19 77 -19z" />
    <glyph glyph-name="questiondown" unicode="&#xbf;" horiz-adv-x="520" 
d="M289 -206c-140 0 -223 73 -223 186c0 151 183 187 183 323v26h36v-26c0 -86 -67 -142 -118 -192c-36 -35 -65 -80 -65 -131c0 -95 68 -154 187 -154c73 0 134 15 181 46c4 -6 6 -13 6 -22c0 -7 -3 -12 -9 -16c-37 -23 -110 -40 -178 -40zM297 475c0 -20 -10 -30 -31 -30
s-31 10 -31 30c0 19 10 29 31 29s31 -10 31 -29z" />
    <glyph glyph-name="Agrave" unicode="&#xc0;" horiz-adv-x="659" 
d="M352 683l279 -683h-37l-89 220h-353l-89 -220h-37l288 702h10c14 0 23 -6 28 -19zM493 251l-164 405l-166 -405h330zM311 920l109 -115h-26l-155 120c7 10 17 15 30 15c15 0 29 -7 42 -20z" />
    <glyph glyph-name="Aacute" unicode="&#xc1;" horiz-adv-x="659" 
d="M352 683l279 -683h-37l-89 220h-353l-89 -220h-37l288 702h10c14 0 23 -6 28 -19zM493 251l-164 405l-166 -405h330zM419 925l-154 -120h-26l109 115c13 13 27 20 42 20c12 0 22 -5 29 -15z" />
    <glyph glyph-name="Acircumflex" unicode="&#xc2;" horiz-adv-x="659" 
d="M352 683l279 -683h-37l-89 220h-353l-89 -220h-37l288 702h10c14 0 23 -6 28 -19zM493 251l-164 405l-166 -405h330zM446 807l-117 97l-118 -97h-27l128 132h16c11 0 21 -4 29 -12l117 -120h-28z" />
    <glyph glyph-name="Atilde" unicode="&#xc3;" horiz-adv-x="659" 
d="M352 683l279 -683h-37l-89 220h-353l-89 -220h-37l288 702h10c14 0 23 -6 28 -19zM493 251l-164 405l-166 -405h330zM402 821c-23 0 -50 10 -80 31s-52 31 -66 31c-36 0 -49 -21 -53 -62h-25c8 59 27 87 78 87c23 0 50 -10 80 -31c29 -21 51 -31 66 -31c31 0 48 21 53 62
h25c-8 -57 -29 -87 -78 -87z" />
    <glyph glyph-name="Adieresis" unicode="&#xc4;" horiz-adv-x="659" 
d="M352 683l279 -683h-37l-89 220h-353l-89 -220h-37l288 702h10c14 0 23 -6 28 -19zM493 251l-164 405l-166 -405h330zM189 849c0 18 10 27 29 27c20 0 30 -9 30 -26c0 -18 -10 -27 -30 -27c-19 0 -29 9 -29 26zM411 849c0 18 10 27 29 27s29 -9 29 -26
c0 -18 -10 -27 -29 -27s-29 9 -29 26z" />
    <glyph glyph-name="Aring" unicode="&#xc5;" horiz-adv-x="659" 
d="M352 683l279 -683h-37l-89 220h-353l-89 -220h-37l288 702h10c14 0 23 -6 28 -19zM493 251l-164 405l-166 -405h330zM290 818c31 -32 98 -10 93 39c7 72 -115 72 -108 0c0 -16 5 -29 15 -39zM270 914c15 14 34 21 59 21s44 -7 59 -21c29 -29 29 -85 0 -113
c-15 -15 -34 -22 -59 -22s-44 7 -59 22c-29 28 -29 84 0 113z" />
    <glyph glyph-name="AE" unicode="&#xc6;" horiz-adv-x="966" 
d="M555 374h350v-9c0 -15 -8 -23 -25 -23h-325v-310h381v-32h-416v217h-312l-162 -217h-44l522 700h400v-33h-369v-293zM231 248h289v389z" />
    <glyph glyph-name="Ccedilla" unicode="&#xc7;" horiz-adv-x="630" 
d="M394 25c69 1 133 17 190 48c1 -4 2 -9 2 -14c0 -7 -2 -13 -6 -16c-33 -27 -104 -49 -185 -49c-221 0 -329 130 -329 365c0 106 27 190 82 253c54 63 131 94 232 94c77 0 136 -12 176 -36c7 -4 10 -10 10 -19c0 -5 -1 -10 -2 -14c-49 25 -111 38 -184 38
c-180 0 -278 -123 -278 -316c0 -216 95 -334 292 -334zM252 -187l99 133h27l-70 -122c-7 -13 -18 -20 -33 -20c-10 0 -18 3 -23 9z" />
    <glyph glyph-name="Egrave" unicode="&#xc8;" horiz-adv-x="565" 
d="M474 343h-339v-311h400v-32h-436v700h424v-32h-388v-293h364v-9c0 -15 -8 -23 -25 -23zM264 920l109 -115h-26l-155 120c7 10 17 15 30 15c15 0 29 -7 42 -20z" />
    <glyph glyph-name="Eacute" unicode="&#xc9;" horiz-adv-x="565" 
d="M474 343h-339v-311h400v-32h-436v700h424v-32h-388v-293h364v-9c0 -15 -8 -23 -25 -23zM372 925l-154 -120h-26l109 115c13 13 27 20 42 20c13 0 22 -5 29 -15z" />
    <glyph glyph-name="Ecircumflex" unicode="&#xca;" horiz-adv-x="565" 
d="M474 343h-339v-311h400v-32h-436v700h424v-32h-388v-293h364v-9c0 -15 -8 -23 -25 -23zM399 807l-117 97l-118 -97h-27l128 132h16c11 0 21 -4 29 -12l117 -120h-28z" />
    <glyph glyph-name="Edieresis" unicode="&#xcb;" horiz-adv-x="565" 
d="M474 343h-339v-311h400v-32h-436v700h424v-32h-388v-293h364v-9c0 -15 -8 -23 -25 -23zM142 849c0 18 10 27 29 27c20 0 30 -9 30 -26c0 -18 -10 -27 -30 -27c-19 0 -29 9 -29 26zM364 849c0 18 10 27 29 27s29 -9 29 -26c0 -18 -10 -27 -29 -27s-29 9 -29 26z" />
    <glyph glyph-name="Igrave" unicode="&#xcc;" horiz-adv-x="244" 
d="M140 675v-675h-36v700h11c17 0 25 -8 25 -25zM103 920l109 -115h-26l-155 120c7 10 17 15 30 15c15 0 29 -7 42 -20z" />
    <glyph glyph-name="Iacute" unicode="&#xcd;" horiz-adv-x="244" 
d="M140 675v-675h-36v700h11c17 0 25 -8 25 -25zM212 925l-154 -120h-26l109 115c13 13 27 20 42 20c13 0 22 -5 29 -15z" />
    <glyph glyph-name="Icircumflex" unicode="&#xce;" horiz-adv-x="244" 
d="M140 675v-675h-36v700h11c17 0 25 -8 25 -25zM239 807l-117 97l-118 -97h-27l128 132h16c11 0 21 -4 29 -12l117 -120h-28z" />
    <glyph glyph-name="Idieresis" unicode="&#xcf;" horiz-adv-x="244" 
d="M140 675v-675h-36v700h11c17 0 25 -8 25 -25zM-18 849c0 18 10 27 29 27c20 0 30 -9 30 -26c0 -18 -10 -27 -30 -27c-19 0 -29 9 -29 26zM204 849c0 18 10 27 29 27s29 -9 29 -26c0 -18 -10 -27 -29 -27s-29 9 -29 26z" />
    <glyph glyph-name="Eth" unicode="&#xd0;" horiz-adv-x="713" 
d="M17 329v30h85v341h214c216 0 330 -123 330 -343c0 -225 -105 -357 -316 -357h-228v329h-85zM138 329v-297h192c188 0 280 120 280 325c0 200 -101 311 -294 311h-178v-309h217v-30h-217z" />
    <glyph glyph-name="Ntilde" unicode="&#xd1;" horiz-adv-x="729" 
d="M594 700h36v-700h-38l-457 643v-643h-36v700h12c17 0 31 -7 41 -22l442 -621v643zM437 821c-23 0 -50 10 -80 31s-52 31 -66 31c-36 0 -49 -21 -53 -62h-25c8 59 27 87 78 87c23 0 50 -10 80 -31c29 -21 51 -31 66 -31c31 0 48 21 53 62h25c-8 -57 -29 -87 -78 -87z" />
    <glyph glyph-name="Ograve" unicode="&#xd2;" horiz-adv-x="750" 
d="M375 674c-181 0 -273 -119 -273 -324c0 -207 92 -325 273 -325c183 0 274 118 274 325c0 205 -91 324 -274 324zM144 613c52 62 129 93 231 93s179 -31 231 -93c52 -63 78 -150 78 -263s-26 -200 -78 -262c-52 -63 -129 -94 -231 -94s-179 31 -231 94
c-52 62 -78 149 -78 262s26 200 78 263zM356 920l109 -115h-26l-155 120c7 10 17 15 30 15c15 0 29 -7 42 -20z" />
    <glyph glyph-name="Oacute" unicode="&#xd3;" horiz-adv-x="750" 
d="M375 674c-181 0 -273 -119 -273 -324c0 -207 92 -325 273 -325c183 0 274 118 274 325c0 205 -91 324 -274 324zM144 613c52 62 129 93 231 93s179 -31 231 -93c52 -63 78 -150 78 -263s-26 -200 -78 -262c-52 -63 -129 -94 -231 -94s-179 31 -231 94
c-52 62 -78 149 -78 262s26 200 78 263zM465 925l-154 -120h-26l109 115c13 13 27 20 42 20c12 0 22 -5 29 -15z" />
    <glyph glyph-name="Ocircumflex" unicode="&#xd4;" horiz-adv-x="750" 
d="M375 674c-181 0 -273 -119 -273 -324c0 -207 92 -325 273 -325c183 0 274 118 274 325c0 205 -91 324 -274 324zM144 613c52 62 129 93 231 93s179 -31 231 -93c52 -63 78 -150 78 -263s-26 -200 -78 -262c-52 -63 -129 -94 -231 -94s-179 31 -231 94
c-52 62 -78 149 -78 262s26 200 78 263zM492 807l-117 97l-118 -97h-27l128 132h16c11 0 21 -4 29 -12l117 -120h-28z" />
    <glyph glyph-name="Otilde" unicode="&#xd5;" horiz-adv-x="750" 
d="M375 674c-181 0 -273 -119 -273 -324c0 -207 92 -325 273 -325c183 0 274 118 274 325c0 205 -91 324 -274 324zM144 613c52 62 129 93 231 93s179 -31 231 -93c52 -63 78 -150 78 -263s-26 -200 -78 -262c-52 -63 -129 -94 -231 -94s-179 31 -231 94
c-52 62 -78 149 -78 262s26 200 78 263zM448 821c-23 0 -50 10 -80 31s-52 31 -66 31c-36 0 -49 -21 -53 -62h-25c8 59 27 87 78 87c23 0 50 -10 80 -31c29 -21 51 -31 66 -31c31 0 48 21 53 62h25c-8 -57 -29 -87 -78 -87z" />
    <glyph glyph-name="Odieresis" unicode="&#xd6;" horiz-adv-x="750" 
d="M375 674c-181 0 -273 -119 -273 -324c0 -207 92 -325 273 -325c183 0 274 118 274 325c0 205 -91 324 -274 324zM144 613c52 62 129 93 231 93s179 -31 231 -93c52 -63 78 -150 78 -263s-26 -200 -78 -262c-52 -63 -129 -94 -231 -94s-179 31 -231 94
c-52 62 -78 149 -78 262s26 200 78 263zM235 849c0 18 10 27 29 27c20 0 30 -9 30 -26c0 -18 -10 -27 -30 -27c-19 0 -29 9 -29 26zM457 849c0 18 10 27 29 27s29 -9 29 -26c0 -18 -10 -27 -29 -27s-29 9 -29 26z" />
    <glyph glyph-name="multiply" unicode="&#xd7;" 
d="M283 290l-171 171l24 24l171 -171l172 171l24 -24l-171 -171l171 -171l-24 -25l-172 171l-171 -171l-24 25z" />
    <glyph glyph-name="Oslash" unicode="&#xd8;" horiz-adv-x="751" 
d="M584 635l66 85h38l-84 -105c54 -62 81 -150 81 -265c0 -225 -105 -357 -309 -357c-87 0 -157 24 -208 71l-66 -84h-38l82 105c-53 61 -79 149 -79 265c0 225 105 357 309 357c87 0 156 -24 208 -72zM376 675c-183 0 -274 -120 -274 -325c0 -103 22 -182 67 -237l393 495
c-46 45 -108 67 -186 67zM376 25c181 0 273 120 273 325c0 101 -22 180 -67 237l-393 -497c45 -43 108 -65 187 -65z" />
    <glyph glyph-name="Ugrave" unicode="&#xd9;" horiz-adv-x="718" 
d="M182 95c35 -47 94 -70 177 -70s143 23 178 70s52 115 52 206v399h35v-405c0 -197 -77 -302 -265 -302c-187 0 -265 105 -265 302v405h10c17 0 26 -8 26 -25v-374c0 -91 17 -159 52 -206zM340 920l109 -115h-26l-155 120c7 10 17 15 30 15c15 0 29 -7 42 -20z" />
    <glyph glyph-name="Uacute" unicode="&#xda;" horiz-adv-x="718" 
d="M182 95c35 -47 94 -70 177 -70s143 23 178 70s52 115 52 206v399h35v-405c0 -197 -77 -302 -265 -302c-187 0 -265 105 -265 302v405h10c17 0 26 -8 26 -25v-374c0 -91 17 -159 52 -206zM449 925l-154 -120h-26l109 115c13 13 27 20 42 20c12 0 22 -5 29 -15z" />
    <glyph glyph-name="Ucircumflex" unicode="&#xdb;" horiz-adv-x="718" 
d="M182 95c35 -47 94 -70 177 -70s143 23 178 70s52 115 52 206v399h35v-405c0 -197 -77 -302 -265 -302c-187 0 -265 105 -265 302v405h10c17 0 26 -8 26 -25v-374c0 -91 17 -159 52 -206zM476 807l-117 97l-118 -97h-27l128 132h16c11 0 21 -4 29 -12l117 -120h-28z" />
    <glyph glyph-name="Udieresis" unicode="&#xdc;" horiz-adv-x="718" 
d="M182 95c35 -47 94 -70 177 -70s143 23 178 70s52 115 52 206v399h35v-405c0 -197 -77 -302 -265 -302c-187 0 -265 105 -265 302v405h10c17 0 26 -8 26 -25v-374c0 -91 17 -159 52 -206zM219 849c0 18 10 27 29 27c20 0 30 -9 30 -26c0 -18 -10 -27 -30 -27
c-19 0 -29 9 -29 26zM441 849c0 18 10 27 29 27s29 -9 29 -26c0 -18 -10 -27 -29 -27s-29 9 -29 26z" />
    <glyph glyph-name="Yacute" unicode="&#xdd;" horiz-adv-x="590" 
d="M568 700l-254 -399v-301h-35v301l-257 399h21c14 0 25 -6 33 -19l220 -347l230 366h42zM385 925l-154 -120h-26l109 115c13 13 27 20 42 20c12 0 22 -5 29 -15z" />
    <glyph glyph-name="Thorn" unicode="&#xde;" horiz-adv-x="605" 
d="M323 217h-188v-217h-36v700h10c17 0 26 -9 26 -26v-74h188c150 0 225 -64 225 -192c0 -127 -75 -191 -225 -191zM324 567h-189v-318h189c129 0 188 51 188 159s-59 159 -188 159z" />
    <glyph glyph-name="germandbls" unicode="&#xdf;" horiz-adv-x="654" 
d="M123 0h-34v466c0 66 22 122 65 167s105 68 188 68c132 0 214 -59 214 -160c0 -79 -53 -130 -132 -146c108 -12 164 -86 164 -189c0 -127 -73 -207 -229 -207c-66 0 -120 13 -163 38c-4 2 -6 6 -6 13c0 9 3 16 10 21c45 -28 98 -42 159 -42c129 0 194 59 194 177
c0 115 -70 173 -210 173h-29v30h34c107 0 174 47 174 132c0 81 -65 130 -180 130c-70 0 -124 -20 -162 -60s-57 -88 -57 -145v-466z" />
    <glyph glyph-name="agrave" unicode="&#xe0;" horiz-adv-x="594" 
d="M465 135v229c-44 68 -120 112 -193 112c-109 0 -171 -74 -171 -226s62 -227 169 -227c75 0 152 43 195 112zM499 475v-414c0 -24 5 -45 14 -62h-16c-21 0 -32 21 -32 63v36c-39 -59 -115 -105 -194 -105c-129 0 -205 85 -205 257c0 171 76 256 204 256
c80 0 154 -44 195 -104l1 98h9c16 0 24 -8 24 -25zM278 720l109 -115h-26l-155 120c7 10 17 15 30 15c15 0 29 -7 42 -20z" />
    <glyph glyph-name="aacute" unicode="&#xe1;" horiz-adv-x="594" 
d="M465 135v229c-44 68 -120 112 -193 112c-109 0 -171 -74 -171 -226s62 -227 169 -227c75 0 152 43 195 112zM499 475v-414c0 -24 5 -45 14 -62h-16c-21 0 -32 21 -32 63v36c-39 -59 -115 -105 -194 -105c-129 0 -205 85 -205 257c0 171 76 256 204 256
c80 0 154 -44 195 -104l1 98h9c16 0 24 -8 24 -25zM387 725l-154 -120h-26l109 115c13 13 27 20 42 20c12 0 22 -5 29 -15z" />
    <glyph glyph-name="acircumflex" unicode="&#xe2;" horiz-adv-x="594" 
d="M465 135v229c-44 68 -120 112 -193 112c-109 0 -171 -74 -171 -226s62 -227 169 -227c75 0 152 43 195 112zM499 475v-414c0 -24 5 -45 14 -62h-16c-21 0 -32 21 -32 63v36c-39 -59 -115 -105 -194 -105c-129 0 -205 85 -205 257c0 171 76 256 204 256
c80 0 154 -44 195 -104l1 98h9c16 0 24 -8 24 -25zM414 607l-117 97l-118 -97h-27l128 132h16c11 0 21 -4 29 -12l117 -120h-28z" />
    <glyph glyph-name="atilde" unicode="&#xe3;" horiz-adv-x="594" 
d="M465 135v229c-44 68 -120 112 -193 112c-109 0 -171 -74 -171 -226s62 -227 169 -227c75 0 152 43 195 112zM499 475v-414c0 -24 5 -45 14 -62h-16c-21 0 -32 21 -32 63v36c-39 -59 -115 -105 -194 -105c-129 0 -205 85 -205 257c0 171 76 256 204 256
c80 0 154 -44 195 -104l1 98h9c16 0 24 -8 24 -25zM370 621c-23 0 -50 10 -80 31s-52 31 -66 31c-36 0 -49 -21 -53 -62h-25c8 59 27 87 78 87c23 0 50 -10 80 -31c29 -21 51 -31 66 -31c31 0 48 21 53 62h25c-8 -57 -29 -87 -78 -87z" />
    <glyph glyph-name="adieresis" unicode="&#xe4;" horiz-adv-x="594" 
d="M465 135v229c-44 68 -120 112 -193 112c-109 0 -171 -74 -171 -226s62 -227 169 -227c75 0 152 43 195 112zM499 475v-414c0 -24 5 -45 14 -62h-16c-21 0 -32 21 -32 63v36c-39 -59 -115 -105 -194 -105c-129 0 -205 85 -205 257c0 171 76 256 204 256
c80 0 154 -44 195 -104l1 98h9c16 0 24 -8 24 -25zM157 649c0 18 10 27 29 27c20 0 30 -9 30 -26c0 -18 -10 -27 -30 -27c-19 0 -29 9 -29 26zM379 649c0 18 10 27 29 27s29 -9 29 -26c0 -18 -10 -27 -29 -27s-29 9 -29 26z" />
    <glyph glyph-name="aring" unicode="&#xe5;" horiz-adv-x="594" 
d="M465 135v229c-44 68 -120 112 -193 112c-109 0 -171 -74 -171 -226s62 -227 169 -227c75 0 152 43 195 112zM499 475v-414c0 -24 5 -45 14 -62h-16c-21 0 -32 21 -32 63v36c-39 -59 -115 -105 -194 -105c-129 0 -205 85 -205 257c0 171 76 256 204 256
c80 0 154 -44 195 -104l1 98h9c16 0 24 -8 24 -25zM258 618c31 -32 98 -10 93 39c7 72 -115 72 -108 0c0 -16 5 -29 15 -39zM238 714c15 14 34 21 59 21s44 -7 59 -21c29 -29 29 -85 0 -113c-15 -15 -34 -22 -59 -22s-44 7 -59 22c-29 28 -29 84 0 113z" />
    <glyph glyph-name="ae" unicode="&#xe6;" horiz-adv-x="887" 
d="M821 285v-37h-369v-108c29 -68 95 -117 172 -117c64 0 121 15 170 45c1 -5 2 -10 2 -14c0 -19 -18 -33 -54 -44s-76 -16 -120 -16c-84 0 -153 43 -189 118c-56 -79 -134 -118 -234 -118c-83 0 -150 50 -150 141c0 112 75 142 243 142h126v56c0 97 -45 144 -153 144
c-63 0 -118 -10 -166 -31c-1 2 -1 5 -1 8c0 14 5 23 14 28c41 16 92 24 155 24c88 0 144 -29 168 -86c38 57 96 86 175 86c135 0 211 -85 211 -221zM203 23c90 0 162 39 215 117v107h-120c-77 0 -132 -7 -165 -21s-50 -44 -50 -91c0 -71 56 -112 120 -112zM610 476
c-79 0 -133 -31 -163 -93c3 -15 5 -29 5 -43v-64h334c0 127 -63 200 -176 200z" />
    <glyph glyph-name="ccedilla" unicode="&#xe7;" horiz-adv-x="505" 
d="M303 24c55 0 107 11 156 32c1 -4 2 -9 2 -14c0 -7 -3 -13 -8 -16c-38 -21 -89 -32 -152 -32c-152 0 -235 92 -235 256s84 255 233 255c56 0 105 -11 148 -32c5 -3 8 -9 8 -16c0 -5 -1 -10 -2 -14c-52 21 -103 32 -152 32c-128 0 -201 -80 -201 -225
c0 -147 72 -226 203 -226zM189 -187l99 133h27l-70 -122c-7 -13 -18 -20 -33 -20c-11 0 -18 3 -23 9z" />
    <glyph glyph-name="egrave" unicode="&#xe8;" horiz-adv-x="567" 
d="M303 23c65 0 124 15 176 44c1 -4 2 -9 2 -14c0 -7 -3 -13 -8 -17c-39 -28 -97 -42 -172 -42s-133 22 -174 65s-61 107 -61 191c0 163 79 255 224 255c135 0 210 -91 210 -238v-37h-399c5 -137 77 -207 202 -207zM290 475c-121 0 -186 -78 -189 -217h364
c0 137 -62 217 -175 217zM265 720l109 -115h-26l-155 120c7 10 17 15 30 15c15 0 29 -7 42 -20z" />
    <glyph glyph-name="eacute" unicode="&#xe9;" horiz-adv-x="567" 
d="M303 23c65 0 124 15 176 44c1 -4 2 -9 2 -14c0 -7 -3 -13 -8 -17c-39 -28 -97 -42 -172 -42s-133 22 -174 65s-61 107 -61 191c0 163 79 255 224 255c135 0 210 -91 210 -238v-37h-399c5 -137 77 -207 202 -207zM290 475c-121 0 -186 -78 -189 -217h364
c0 137 -62 217 -175 217zM373 725l-154 -120h-26l109 115c13 13 27 20 42 20c12 0 22 -5 29 -15z" />
    <glyph glyph-name="ecircumflex" unicode="&#xea;" horiz-adv-x="567" 
d="M303 23c65 0 124 15 176 44c1 -4 2 -9 2 -14c0 -7 -3 -13 -8 -17c-39 -28 -97 -42 -172 -42s-133 22 -174 65s-61 107 -61 191c0 163 79 255 224 255c135 0 210 -91 210 -238v-37h-399c5 -137 77 -207 202 -207zM290 475c-121 0 -186 -78 -189 -217h364
c0 137 -62 217 -175 217zM400 607l-117 97l-118 -97h-27l128 132h16c11 0 21 -4 29 -12l117 -120h-28z" />
    <glyph glyph-name="edieresis" unicode="&#xeb;" horiz-adv-x="567" 
d="M303 23c65 0 124 15 176 44c1 -4 2 -9 2 -14c0 -7 -3 -13 -8 -17c-39 -28 -97 -42 -172 -42s-133 22 -174 65s-61 107 -61 191c0 163 79 255 224 255c135 0 210 -91 210 -238v-37h-399c5 -137 77 -207 202 -207zM290 475c-121 0 -186 -78 -189 -217h364
c0 137 -62 217 -175 217zM143 649c0 18 10 27 29 27c20 0 30 -9 30 -26c0 -18 -10 -27 -30 -27c-19 0 -29 9 -29 26zM365 649c0 18 10 27 29 27s29 -9 29 -26c0 -18 -10 -27 -29 -27s-29 9 -29 26z" />
    <glyph glyph-name="igrave" unicode="&#xec;" horiz-adv-x="229" 
d="M132 475v-475h-35v500h10c17 0 25 -8 25 -25zM96 720l109 -115h-26l-155 120c7 10 17 15 30 15c15 0 29 -7 42 -20z" />
    <glyph glyph-name="iacute" unicode="&#xed;" horiz-adv-x="229" 
d="M132 475v-475h-35v500h10c17 0 25 -8 25 -25zM205 725l-154 -120h-26l109 115c13 13 27 20 42 20c13 0 22 -5 29 -15z" />
    <glyph glyph-name="icircumflex" unicode="&#xee;" horiz-adv-x="229" 
d="M132 475v-475h-35v500h10c17 0 25 -8 25 -25zM232 607l-117 97l-118 -97h-27l128 132h16c11 0 21 -4 29 -12l117 -120h-28z" />
    <glyph glyph-name="idieresis" unicode="&#xef;" horiz-adv-x="229" 
d="M132 475v-475h-35v500h10c17 0 25 -8 25 -25zM-25 649c0 18 10 27 29 27c20 0 30 -9 30 -26c0 -18 -10 -27 -30 -27c-19 0 -29 9 -29 26zM197 649c0 18 10 27 29 27s29 -9 29 -26c0 -18 -10 -27 -29 -27s-29 9 -29 26z" />
    <glyph glyph-name="eth" unicode="&#xf0;" horiz-adv-x="573" 
d="M322 532v27l80 30c-48 57 -110 86 -187 86h-14c-1 1 -1 3 -1 6c0 12 9 25 21 25c89 0 161 -35 216 -105l89 33v-28l-73 -27c40 -61 60 -138 60 -229c0 -221 -84 -356 -247 -356c-141 0 -230 84 -230 236c0 140 76 227 225 227c91 0 163 -38 216 -114
c0 90 -19 165 -58 224zM261 426c-127 0 -190 -76 -190 -196c0 -129 75 -205 194 -205c132 0 203 109 211 278c-52 82 -124 123 -215 123z" />
    <glyph glyph-name="ntilde" unicode="&#xf1;" horiz-adv-x="596" 
d="M126 398c67 72 140 108 217 108c105 0 162 -69 162 -188v-318h-10c-17 0 -25 8 -25 24v286c0 111 -44 166 -132 166c-72 0 -143 -38 -212 -114v-362h-34v500h9c16 0 24 -8 24 -25zM371 621c49 0 70 30 78 87h-25c-5 -41 -22 -62 -53 -62c-15 0 -37 10 -66 31
c-30 21 -57 31 -80 31c-51 0 -70 -28 -78 -87h25c4 41 17 62 53 62c14 0 36 -10 66 -31s57 -31 80 -31z" />
    <glyph glyph-name="ograve" unicode="&#xf2;" horiz-adv-x="587" 
d="M98 250c0 -147 66 -227 195 -227s195 80 195 227c0 145 -66 226 -195 226s-195 -81 -195 -226zM122 61c-39 44 -58 107 -58 189s19 145 58 190c39 44 96 66 171 66s133 -22 172 -67s58 -108 58 -189s-19 -144 -58 -189s-97 -67 -172 -67s-132 22 -171 67zM275 720
l109 -115h-26l-155 120c7 10 17 15 30 15c15 0 29 -7 42 -20z" />
    <glyph glyph-name="oacute" unicode="&#xf3;" horiz-adv-x="587" 
d="M98 250c0 -147 66 -227 195 -227s195 80 195 227c0 145 -66 226 -195 226s-195 -81 -195 -226zM122 61c-39 44 -58 107 -58 189s19 145 58 190c39 44 96 66 171 66s133 -22 172 -67s58 -108 58 -189s-19 -144 -58 -189s-97 -67 -172 -67s-132 22 -171 67zM383 725
l-154 -120h-26l109 115c13 13 27 20 42 20c12 0 22 -5 29 -15z" />
    <glyph glyph-name="ocircumflex" unicode="&#xf4;" horiz-adv-x="587" 
d="M98 250c0 -147 66 -227 195 -227s195 80 195 227c0 145 -66 226 -195 226s-195 -81 -195 -226zM122 61c-39 44 -58 107 -58 189s19 145 58 190c39 44 96 66 171 66s133 -22 172 -67s58 -108 58 -189s-19 -144 -58 -189s-97 -67 -172 -67s-132 22 -171 67zM410 607
l-117 97l-118 -97h-27l128 132h16c11 0 21 -4 29 -12l117 -120h-28z" />
    <glyph glyph-name="otilde" unicode="&#xf5;" horiz-adv-x="587" 
d="M98 250c0 -147 66 -227 195 -227s195 80 195 227c0 145 -66 226 -195 226s-195 -81 -195 -226zM122 61c-39 44 -58 107 -58 189s19 145 58 190c39 44 96 66 171 66s133 -22 172 -67s58 -108 58 -189s-19 -144 -58 -189s-97 -67 -172 -67s-132 22 -171 67zM366 621
c-23 0 -50 10 -80 31s-52 31 -66 31c-36 0 -49 -21 -53 -62h-25c8 59 27 87 78 87c23 0 50 -10 80 -31c29 -21 51 -31 66 -31c31 0 48 21 53 62h25c-8 -57 -29 -87 -78 -87z" />
    <glyph glyph-name="odieresis" unicode="&#xf6;" horiz-adv-x="587" 
d="M98 250c0 -147 66 -227 195 -227s195 80 195 227c0 145 -66 226 -195 226s-195 -81 -195 -226zM122 61c-39 44 -58 107 -58 189s19 145 58 190c39 44 96 66 171 66s133 -22 172 -67s58 -108 58 -189s-19 -144 -58 -189s-97 -67 -172 -67s-132 22 -171 67zM153 649
c0 18 10 27 29 27c20 0 30 -9 30 -26c0 -18 -10 -27 -30 -27c-19 0 -29 9 -29 26zM375 649c0 18 10 27 29 27s29 -9 29 -26c0 -18 -10 -27 -29 -27s-29 9 -29 26z" />
    <glyph glyph-name="divide" unicode="&#xf7;" 
d="M85 274v32h445v-32h-445zM307 391c-25 0 -38 13 -38 38s13 38 38 38s38 -13 38 -38s-13 -38 -38 -38zM269 150c0 25 13 38 38 38s38 -13 38 -38s-13 -37 -38 -37s-38 12 -38 37z" />
    <glyph glyph-name="oslash" unicode="&#xf8;" horiz-adv-x="587" 
d="M121 61c-38 44 -57 107 -57 189s19 145 58 190c39 44 96 66 171 66c65 0 116 -17 153 -50c12 15 40 49 52 64h35l-67 -82c38 -45 57 -108 57 -188c0 -163 -79 -256 -230 -256c-65 0 -116 16 -153 48l-51 -62h-35c5 7 16 19 32 38c15 18 27 32 35 43zM98 250
c0 -69 15 -124 44 -163l283 344c-33 30 -77 45 -132 45c-129 0 -195 -81 -195 -226zM488 250c0 69 -15 122 -44 161l-283 -344c31 -29 75 -44 132 -44c129 0 195 80 195 227z" />
    <glyph glyph-name="ugrave" unicode="&#xf9;" horiz-adv-x="587" 
d="M460 62v36c-23 -27 -53 -51 -90 -72s-77 -32 -120 -32c-104 0 -160 67 -160 187v319h10c16 0 24 -8 24 -25v-286c0 -111 44 -166 132 -166c73 0 141 38 204 114v363h34v-439c0 -24 5 -45 14 -62h-16c-21 0 -32 21 -32 63zM275 720l109 -115h-26l-155 120
c7 10 17 15 30 15c15 0 29 -7 42 -20z" />
    <glyph glyph-name="uacute" unicode="&#xfa;" horiz-adv-x="587" 
d="M460 62v36c-23 -27 -53 -51 -90 -72s-77 -32 -120 -32c-104 0 -160 67 -160 187v319h10c16 0 24 -8 24 -25v-286c0 -111 44 -166 132 -166c73 0 141 38 204 114v363h34v-439c0 -24 5 -45 14 -62h-16c-21 0 -32 21 -32 63zM383 725l-154 -120h-26l109 115
c13 13 27 20 42 20c12 0 22 -5 29 -15z" />
    <glyph glyph-name="ucircumflex" unicode="&#xfb;" horiz-adv-x="587" 
d="M460 62v36c-23 -27 -53 -51 -90 -72s-77 -32 -120 -32c-104 0 -160 67 -160 187v319h10c16 0 24 -8 24 -25v-286c0 -111 44 -166 132 -166c73 0 141 38 204 114v363h34v-439c0 -24 5 -45 14 -62h-16c-21 0 -32 21 -32 63zM410 607l-117 97l-118 -97h-27l128 132h16
c11 0 21 -4 29 -12l117 -120h-28z" />
    <glyph glyph-name="udieresis" unicode="&#xfc;" horiz-adv-x="587" 
d="M460 62v36c-23 -27 -53 -51 -90 -72s-77 -32 -120 -32c-104 0 -160 67 -160 187v319h10c16 0 24 -8 24 -25v-286c0 -111 44 -166 132 -166c73 0 141 38 204 114v363h34v-439c0 -24 5 -45 14 -62h-16c-21 0 -32 21 -32 63zM153 649c0 18 10 27 29 27c20 0 30 -9 30 -26
c0 -18 -10 -27 -30 -27c-19 0 -29 9 -29 26zM375 649c0 18 10 27 29 27s29 -9 29 -26c0 -18 -10 -27 -29 -27s-29 9 -29 26z" />
    <glyph glyph-name="yacute" unicode="&#xfd;" horiz-adv-x="500" 
d="M64 481l193 -440l183 459h37l-241 -593c-35 -85 -76 -112 -136 -112c-27 0 -50 3 -67 10c-6 3 -9 8 -9 15s2 13 5 18c16 -8 38 -12 67 -12s50 6 65 19s28 34 41 64l38 91l-220 500h16c13 0 23 -6 28 -19zM340 725l-154 -120h-26l109 115c13 13 27 20 42 20
c13 0 22 -5 29 -15z" />
    <glyph glyph-name="thorn" unicode="&#xfe;" horiz-adv-x="590" 
d="M128 364v-229c44 -69 120 -112 195 -112c104 0 165 75 165 227c0 151 -56 226 -167 226c-73 0 -149 -44 -193 -112zM128 98v-298h-34v900h10c16 0 24 -8 24 -25v-274c41 60 115 105 194 105c127 0 200 -85 200 -256c0 -172 -73 -257 -200 -257c-80 0 -155 45 -194 105z
" />
    <glyph glyph-name="ydieresis" unicode="&#xff;" horiz-adv-x="500" 
d="M64 481l193 -440l183 459h37l-241 -593c-35 -85 -76 -112 -136 -112c-27 0 -50 3 -67 10c-6 3 -9 8 -9 15s2 13 5 18c16 -8 38 -12 67 -12s50 6 65 19s28 34 41 64l38 91l-220 500h16c13 0 23 -6 28 -19zM110 649c0 18 10 27 29 27c20 0 30 -9 30 -26
c0 -18 -10 -27 -30 -27c-19 0 -29 9 -29 26zM332 649c0 18 10 27 29 27s29 -9 29 -26c0 -18 -10 -27 -29 -27s-29 9 -29 26z" />
    <glyph glyph-name="dotlessi" unicode="&#x131;" horiz-adv-x="229" 
d="M132 475v-475h-35v500h10c17 0 25 -8 25 -25z" />
    <glyph glyph-name="Lslash" unicode="&#x141;" horiz-adv-x="534" 
d="M135 675v-324l215 88l9 -28l-224 -93v-286h383v-32h-419v301l-70 -29l-9 28l79 34v366h11c17 0 25 -8 25 -25z" />
    <glyph glyph-name="lslash" unicode="&#x142;" horiz-adv-x="228" 
d="M131 675v-325l69 27l9 -28l-78 -32v-317h-34v299l-68 -27l-9 28l77 33v367h10c16 0 24 -8 24 -25z" />
    <glyph glyph-name="OE" unicode="&#x152;" horiz-adv-x="1057" 
d="M375 674c-183 0 -273 -119 -273 -324c0 -207 90 -325 273 -325c96 0 168 34 216 103v442c-49 69 -121 104 -216 104zM965 342h-339v-310h401v-32h-436v81c-52 -58 -124 -87 -217 -87c-204 0 -308 131 -308 356s104 356 308 356c92 0 164 -30 217 -89v83h424v-33h-389
v-293h364v-9c0 -15 -8 -23 -25 -23z" />
    <glyph glyph-name="oe" unicode="&#x153;" horiz-adv-x="961" 
d="M695 23c66 0 124 15 173 45c1 -5 2 -10 2 -14c0 -19 -18 -33 -54 -44c-37 -11 -77 -16 -122 -16c-99 0 -167 38 -204 113c-36 -75 -102 -113 -197 -113c-151 0 -229 92 -229 256s78 256 229 256c94 0 159 -38 196 -115c37 77 102 115 195 115c135 0 210 -92 210 -239v-38
h-399c7 -133 77 -206 200 -206zM293 23c93 0 154 41 181 124c-9 31 -14 66 -14 103s5 71 14 103c-29 82 -89 123 -181 123c-129 0 -195 -81 -195 -226c0 -147 66 -227 195 -227zM684 476c-119 0 -186 -84 -189 -217h365c0 137 -63 217 -176 217z" />
    <glyph glyph-name="Scaron" unicode="&#x160;" horiz-adv-x="608" 
d="M285 26c136 0 223 52 223 157c0 92 -73 137 -213 170c-83 20 -142 44 -177 72c-35 27 -53 68 -53 122c0 99 81 159 234 159c39 0 78 -4 115 -12s64 -18 79 -29c6 -5 9 -11 9 -19c0 -5 -1 -9 -2 -13c-53 27 -120 41 -201 41c-133 0 -199 -50 -199 -127
c0 -45 15 -78 45 -100s84 -42 162 -61c156 -37 236 -91 236 -203c0 -127 -97 -189 -258 -189c-42 0 -84 5 -125 14s-70 20 -86 31c-6 5 -9 11 -9 19c0 5 1 9 2 13c51 -25 139 -45 218 -45zM159 936h27l118 -96l117 96h28l-117 -120c-8 -8 -18 -12 -29 -12h-16z" />
    <glyph glyph-name="scaron" unicode="&#x161;" horiz-adv-x="474" 
d="M235 22c100 0 150 34 150 103c0 32 -12 56 -37 73c-25 16 -67 32 -127 48c-51 13 -75 22 -110 43c-36 21 -53 52 -53 96c0 85 70 121 170 121c73 0 126 -10 157 -30c7 -5 11 -12 11 -20c0 -5 0 -9 -1 -12c-46 22 -102 33 -167 33c-79 0 -137 -28 -137 -92
c0 -42 24 -66 61 -82c28 -13 44 -18 80 -27c132 -35 187 -71 187 -151c0 -89 -69 -131 -182 -131c-67 0 -124 11 -169 33c-12 5 -18 15 -18 29c0 5 0 9 1 11c57 -30 118 -45 184 -45zM92 736h27l118 -96l117 96h28l-117 -120c-8 -8 -18 -12 -29 -12h-16z" />
    <glyph glyph-name="Ydieresis" unicode="&#x178;" horiz-adv-x="590" 
d="M568 700l-254 -399v-301h-35v301l-257 399h21c14 0 25 -6 33 -19l220 -347l230 366h42zM155 849c0 18 10 27 29 27c20 0 30 -9 30 -26c0 -18 -10 -27 -30 -27c-19 0 -29 9 -29 26zM377 849c0 18 10 27 29 27s29 -9 29 -26c0 -18 -10 -27 -29 -27s-29 9 -29 26z" />
    <glyph glyph-name="Zcaron" unicode="&#x17d;" horiz-adv-x="597" 
d="M503 668h-446v8c0 16 8 24 25 24h462v-32l-458 -637h465v-31h-507v31zM153 936h27l118 -96l117 96h28l-117 -120c-8 -8 -18 -12 -29 -12h-16z" />
    <glyph glyph-name="zcaron" unicode="&#x17e;" horiz-adv-x="466" 
d="M371 471h-316v6c0 15 8 23 24 23h333v-27l-325 -444h331v-29h-373v27zM88 736h27l118 -96l117 96h28l-117 -120c-8 -8 -18 -12 -29 -12h-16z" />
    <glyph glyph-name="florin" unicode="&#x192;" 
d="M177 -47l82 385h-117l7 29h117l39 185c21 97 86 155 179 155c33 0 58 -3 76 -10c6 -3 9 -8 9 -13c0 -6 -2 -13 -6 -21c-19 9 -47 14 -83 14c-76 0 -123 -43 -142 -130l-39 -180h184l-7 -29h-183l-83 -390c-21 -99 -84 -155 -179 -155c-34 0 -59 4 -76 11c-6 3 -9 7 -9 13
c0 4 2 11 7 20c19 -9 46 -14 82 -14c76 0 123 43 142 130z" />
    <glyph glyph-name="circumflex" unicode="&#x2c6;" horiz-adv-x="328" 
d="M281 607l-117 97l-118 -97h-27l128 132h16c11 0 21 -4 29 -12l117 -120h-28z" />
    <glyph glyph-name="caron" unicode="&#x2c7;" horiz-adv-x="328" 
d="M19 736h27l118 -96l117 96h28l-117 -120c-8 -8 -18 -12 -29 -12h-16z" />
    <glyph glyph-name="breve" unicode="&#x2d8;" horiz-adv-x="328" 
d="M93 660c59 -43 173 -17 176 56h30c-9 -65 -63 -106 -135 -106s-126 41 -135 106h30c3 -24 15 -43 34 -56z" />
    <glyph glyph-name="dotaccent" unicode="&#x2d9;" horiz-adv-x="328" 
d="M135 649c0 18 10 27 29 27s29 -9 29 -26c0 -18 -10 -27 -29 -27s-29 9 -29 26z" />
    <glyph glyph-name="ring" unicode="&#x2da;" horiz-adv-x="328" 
d="M125 618c31 -32 98 -10 93 39c7 72 -115 72 -108 0c0 -16 5 -29 15 -39zM105 714c15 14 34 21 59 21s44 -7 59 -21c29 -29 29 -85 0 -113c-15 -15 -34 -22 -59 -22s-44 7 -59 22c-29 28 -29 84 0 113z" />
    <glyph glyph-name="ogonek" unicode="&#x2db;" horiz-adv-x="328" 
d="M210 -99l-67 102h26l102 -112c-7 -5 -16 -7 -26 -7c-15 0 -27 6 -35 17z" />
    <glyph glyph-name="tilde" unicode="&#x2dc;" horiz-adv-x="328" 
d="M237 621c-23 0 -50 10 -80 31s-52 31 -66 31c-36 0 -49 -21 -53 -62h-25c8 59 27 87 78 87c23 0 50 -10 80 -31c29 -21 51 -31 66 -31c31 0 48 21 53 62h25c-8 -57 -29 -87 -78 -87z" />
    <glyph glyph-name="hungarumlaut" unicode="&#x2dd;" horiz-adv-x="328" 
d="M187 731l-98 -126h-25l66 115c7 13 19 20 34 20c11 0 18 -3 23 -9zM353 731l-98 -126h-25l67 115c7 13 18 20 33 20c11 0 18 -3 23 -9z" />
    <glyph glyph-name="uni03A9" unicode="&#x3a9;" horiz-adv-x="770" 
d="M591 593c-52 50 -121 75 -207 75s-155 -25 -207 -75c-52 -51 -78 -120 -78 -208c0 -110 77 -229 230 -356v-4l-25 -25h-210v29h197c-48 37 -94 83 -144 148c-50 64 -84 147 -84 224c0 92 29 166 87 222c58 55 136 83 234 83s176 -28 234 -83c58 -56 87 -130 87 -222
c0 -77 -33 -160 -83 -224c-50 -65 -97 -111 -145 -148h197v-29h-209l-26 25v4c153 127 230 246 230 356c0 88 -26 157 -78 208z" />
    <glyph glyph-name="pi" unicode="&#x3c0;" horiz-adv-x="702" 
d="M461 119v350h-247l-38 -469h-35l37 469h-138v31h595v-31h-139v-344c0 -75 15 -102 70 -102c29 0 53 4 73 13c6 -18 3 -29 -8 -33c-19 -7 -41 -10 -68 -10c-73 0 -102 38 -102 126z" />
    <glyph glyph-name="endash" unicode="&#x2013;" horiz-adv-x="563" 
d="M48 271v31h467v-31h-467z" />
    <glyph glyph-name="emdash" unicode="&#x2014;" horiz-adv-x="779" 
d="M48 271v31h683v-31h-683z" />
    <glyph glyph-name="quoteleft" unicode="&#x2018;" horiz-adv-x="239" 
d="M85 487l81 213h23l-51 -200c-3 -15 -14 -22 -31 -22c-10 0 -17 3 -22 9z" />
    <glyph glyph-name="quoteright" unicode="&#x2019;" horiz-adv-x="239" 
d="M154 693l-81 -213h-24l51 200c4 15 15 22 32 22c9 0 16 -3 22 -9z" />
    <glyph glyph-name="quotesinglbase" unicode="&#x201a;" horiz-adv-x="239" 
d="M154 41l-81 -213h-24l51 200c4 15 15 22 32 22c9 0 16 -3 22 -9z" />
    <glyph glyph-name="quotedblleft" unicode="&#x201c;" horiz-adv-x="383" 
d="M229 487l81 213h24l-51 -200c-4 -15 -14 -22 -31 -22c-9 0 -17 3 -23 9zM85 487l81 213h23l-51 -200c-3 -15 -14 -22 -31 -22c-10 0 -17 3 -22 9z" />
    <glyph glyph-name="quotedblright" unicode="&#x201d;" horiz-adv-x="383" 
d="M154 693l-81 -213h-24l51 200c4 15 15 22 32 22c9 0 16 -3 22 -9zM298 693l-81 -213h-23l51 200c3 15 14 22 31 22c10 0 17 -3 22 -9z" />
    <glyph glyph-name="quotedblbase" unicode="&#x201e;" horiz-adv-x="383" 
d="M154 41l-81 -213h-24l51 200c4 15 15 22 32 22c9 0 16 -3 22 -9zM298 41l-81 -213h-23l51 200c3 15 14 22 31 22c10 0 17 -3 22 -9z" />
    <glyph glyph-name="dagger" unicode="&#x2020;" horiz-adv-x="469" 
d="M217 470h-169v30h169l-4 200h42l-4 -200h170v-30h-170v-570h-34v570z" />
    <glyph glyph-name="daggerdbl" unicode="&#x2021;" horiz-adv-x="469" 
d="M217 100h-169v30h169v340h-169v30h169l-4 200h42l-4 -200h170v-30h-170v-340h170v-30h-170l4 -200h-42z" />
    <glyph glyph-name="bullet" unicode="&#x2022;" horiz-adv-x="384" 
d="M90 321c0 67 27 100 102 100c72 0 102 -35 102 -100c0 -67 -30 -101 -102 -101c-75 0 -102 33 -102 101z" />
    <glyph glyph-name="ellipsis" unicode="&#x2026;" horiz-adv-x="546" 
d="M60 26c0 20 10 30 31 30s31 -10 31 -30c0 -21 -10 -31 -31 -31s-31 10 -31 31zM242 26c0 20 10 30 31 30s31 -10 31 -30c0 -21 -10 -31 -31 -31s-31 10 -31 31zM424 26c0 20 10 30 31 30s31 -10 31 -30c0 -21 -10 -31 -31 -31s-31 10 -31 31z" />
    <glyph glyph-name="perthousand" unicode="&#x2030;" horiz-adv-x="1071" 
d="M211 0h-36l358 700h36zM95 435c-21 27 -32 65 -32 115s11 88 32 115s51 40 88 40s67 -13 88 -40s32 -65 32 -115s-11 -88 -32 -115s-51 -40 -88 -40s-67 13 -88 40zM183 423c59 0 88 42 88 127s-29 127 -88 127s-88 -42 -88 -127s29 -127 88 -127zM472 35
c-21 27 -32 65 -32 115s11 88 32 115s51 40 88 40s67 -13 88 -40s32 -65 32 -115s-11 -88 -32 -115s-51 -40 -88 -40s-67 13 -88 40zM560 23c59 0 88 42 88 127s-29 127 -88 127s-88 -42 -88 -127s29 -127 88 -127zM800 35c-21 27 -32 65 -32 115s11 88 32 115s51 40 88 40
s67 -13 88 -40s32 -65 32 -115s-11 -88 -32 -115s-51 -40 -88 -40s-67 13 -88 40zM888 23c59 0 88 42 88 127s-29 127 -88 127s-88 -42 -88 -127s29 -127 88 -127z" />
    <glyph glyph-name="guilsinglleft" unicode="&#x2039;" horiz-adv-x="299" 
d="M209 40l-179 210l179 210h40l-180 -210l180 -210h-40z" />
    <glyph glyph-name="guilsinglright" unicode="&#x203a;" horiz-adv-x="299" 
d="M50 460h39l180 -210l-180 -210h-39l179 210z" />
    <glyph glyph-name="fraction" unicode="&#x2044;" horiz-adv-x="414" 
d="M46 0h-36l358 700h36z" />
    <glyph glyph-name="Euro" unicode="&#x20ac;" 
d="M147 430h217l-12 -30h-208c-1 -10 -1 -25 -1 -44c0 -24 0 -42 1 -54h175l-12 -30h-159c19 -151 94 -247 239 -247c71 0 128 25 172 76c8 -11 12 -19 12 -25c0 -4 -2 -9 -6 -14c-41 -45 -100 -68 -179 -68c-165 0 -254 107 -274 278h-80l12 30h65c-1 12 -2 30 -2 54
c0 20 1 35 2 44h-77l12 30h67c10 81 37 147 81 199c44 51 104 77 179 77c74 0 132 -25 174 -74c4 -5 6 -10 6 -14c0 -5 -4 -12 -12 -23c-45 53 -101 79 -168 79c-65 0 -116 -23 -154 -69s-61 -104 -70 -175z" />
    <glyph glyph-name="afii61289" unicode="&#x2113;" horiz-adv-x="451" 
d="M401 132l29 -18c-42 -80 -99 -120 -170 -120c-105 0 -157 73 -157 197l-54 -46c-5 7 -21 24 -22 25l75 65v264c0 74 13 127 40 159s58 48 94 48c72 0 113 -60 113 -157c0 -48 -19 -100 -37 -133c-9 -17 -26 -39 -49 -66c-24 -27 -42 -47 -55 -60s-37 -37 -72 -71v-11
c1 -123 43 -185 126 -185c60 0 110 50 139 109zM136 507v-244c4 5 10 11 19 20c28 29 49 52 63 67c13 15 29 35 47 60c35 49 49 92 49 140c0 75 -29 126 -78 126c-52 0 -100 -52 -100 -169z" />
    <glyph glyph-name="trademark" unicode="&#x2122;" horiz-adv-x="705" 
d="M590 700h27v-300h-29v246l-100 -163h-21l-100 163v-246h-30v300h28l112 -186zM40 673v27h238v-27l-105 1v-274h-29v274z" />
    <glyph glyph-name="Omega" unicode="&#x2126;" horiz-adv-x="770" 
d="M591 593c-52 50 -121 75 -207 75s-155 -25 -207 -75c-52 -51 -78 -120 -78 -208c0 -110 77 -229 230 -356v-4l-25 -25h-210v29h197c-48 37 -94 83 -144 148c-50 64 -84 147 -84 224c0 92 29 166 87 222c58 55 136 83 234 83s176 -28 234 -83c58 -56 87 -130 87 -222
c0 -77 -33 -160 -83 -224c-50 -65 -97 -111 -145 -148h197v-29h-209l-26 25v4c153 127 230 246 230 356c0 88 -26 157 -78 208z" />
    <glyph glyph-name="estimated" unicode="&#x212e;" horiz-adv-x="856" 
d="M820 349v-14h-628c-3 0 -5 -1 -5 -4v-185c0 -13 3 -22 8 -29c55 -64 135 -96 240 -96s189 36 252 109h58c-73 -87 -186 -139 -311 -139c-110 0 -203 35 -279 105c-77 70 -115 154 -115 253c0 100 38 185 113 255c75 69 167 104 277 104s203 -35 278 -104
c75 -70 112 -155 112 -255zM673 365v186c0 16 -4 28 -11 36c-62 61 -139 91 -231 91c-94 0 -172 -32 -235 -97c-6 -6 -9 -16 -9 -29v-187c0 -4 2 -6 5 -6h476c3 0 5 2 5 6z" />
    <glyph glyph-name="partialdiff" unicode="&#x2202;" horiz-adv-x="623" 
d="M514 348c7 39 10 80 10 123c0 132 -61 204 -170 204c-61 0 -113 -12 -156 -37c-1 3 -2 8 -2 15s4 13 13 20c27 19 89 33 146 33c128 0 205 -87 205 -238c0 -109 -28 -220 -80 -315s-144 -159 -253 -159c-120 0 -189 63 -189 178c0 81 24 149 73 205c48 55 116 83 203 83
c97 0 164 -48 200 -112zM316 429c-107 0 -185 -57 -217 -131c-16 -37 -24 -78 -24 -121c0 -97 52 -153 148 -153c133 0 233 101 281 284c-39 81 -101 121 -188 121z" />
    <glyph glyph-name="increment" unicode="&#x2206;" horiz-adv-x="637" 
d="M40 26l267 676h23l267 -676v-26h-557v26zM77 31h483l-242 619z" />
    <glyph glyph-name="product" unicode="&#x220f;" horiz-adv-x="686" 
d="M553 668h-420v-768h-35v800h490v-800h-35v768z" />
    <glyph glyph-name="summation" unicode="&#x2211;" horiz-adv-x="608" 
d="M375 326l-282 -397h472v-29h-517v24l284 401l-261 349v26h468v-31h-422z" />
    <glyph glyph-name="minus" unicode="&#x2212;" 
d="M93 274v32h429v-32h-429z" />
    <glyph glyph-name="radical" unicode="&#x221a;" horiz-adv-x="595" 
d="M499 730h36l-205 -830h-31l-171 431l-64 -26l-12 30l99 39l158 -413z" />
    <glyph glyph-name="infinity" unicode="&#x221e;" horiz-adv-x="865" 
d="M90 288c0 -71 53 -128 137 -128c65 0 138 52 190 132c-59 86 -122 129 -190 129c-85 0 -137 -54 -137 -133zM431 261c-65 -91 -133 -136 -205 -136c-49 0 -89 15 -121 45c-33 30 -49 68 -49 115c0 99 68 162 165 162c77 0 147 -45 212 -136c66 91 135 136 208 136
c47 0 87 -15 119 -44c32 -30 48 -68 48 -115c0 -100 -68 -163 -165 -163c-77 0 -148 45 -212 136zM774 285c0 71 -53 127 -137 127c-65 0 -138 -52 -190 -132c59 -86 122 -129 190 -129c85 0 137 54 137 134z" />
    <glyph glyph-name="integral" unicode="&#x222b;" horiz-adv-x="393" 
d="M188 32v542c0 89 38 133 115 133c26 0 48 -3 67 -10c11 -4 14 -15 8 -33c-20 9 -44 13 -72 13c-61 0 -83 -32 -83 -109v-542c0 -89 -38 -133 -115 -133c-25 0 -48 3 -68 10c-11 4 -13 15 -7 33c19 -9 43 -13 72 -13c61 0 83 32 83 109z" />
    <glyph glyph-name="approxequal" unicode="&#x2248;" 
d="M404 357c47 0 84 23 113 70l23 -7c-29 -55 -79 -91 -136 -91c-31 0 -65 13 -103 38c-39 25 -69 38 -90 38c-45 0 -83 -23 -113 -70l-23 7c29 55 79 91 136 91c31 0 65 -13 104 -38c38 -25 68 -38 89 -38zM404 178c46 0 84 24 113 71l23 -7c-29 -56 -77 -91 -136 -91
c-31 0 -65 13 -103 38c-39 25 -69 38 -90 38c-45 0 -82 -24 -113 -71l-23 7c29 56 79 91 136 91c31 0 65 -13 104 -38c38 -25 68 -38 89 -38z" />
    <glyph glyph-name="notequal" unicode="&#x2260;" 
d="M220 -100h-31l73 282h-169v31h176l40 154h-216v31h225l77 302h30l-77 -302h174v-31h-183l-39 -154h222v-31h-230z" />
    <glyph glyph-name="lessequal" unicode="&#x2264;" 
d="M511 66l-427 239v24l427 239v-36l-387 -215l387 -215v-36zM84 0v25h427v-25h-427z" />
    <glyph glyph-name="greaterequal" unicode="&#x2265;" 
d="M104 568l427 -239v-24l-427 -239v36l387 215l-387 215v36zM104 0v25h427v-25h-427z" />
    <glyph glyph-name="lozenge" unicode="&#x25ca;" horiz-adv-x="563" 
d="M467 349l-187 319l-185 -318l185 -317zM263 -2l-206 352l206 352h36l206 -352l-206 -352h-36z" />
    <glyph glyph-name="uniF8FF" unicode="&#xf8ff;" horiz-adv-x="889" 
d="M710 316v-127c0 -40 -9 -59 -37 -72l-203 -104v239c0 18 6 30 18 37l145 74c9 5 18 7 29 7c28 0 48 -19 48 -54zM517 529l115 -57c16 -8 24 -20 24 -36c0 -19 -11 -34 -33 -45l-148 -75c-21 -11 -31 -31 -31 -61v-255l-265 135v260c0 24 10 41 29 52l165 84
c25 13 48 19 69 19c22 0 47 -7 75 -21z" />
    <glyph glyph-name="a.superior" horiz-adv-x="349" 
d="M298 397h-17c-14 0 -21 12 -22 36l-1 20c-33 -39 -74 -59 -125 -59c-52 0 -93 31 -93 87c0 71 50 98 147 98h71v19c0 55 -26 81 -86 81c-41 0 -74 -7 -101 -20c-1 5 -2 10 -2 15s3 10 8 13c19 12 51 18 96 18c75 0 113 -35 113 -105v-157c0 -19 4 -35 12 -46zM135 420
c48 0 89 22 123 66v69h-67c-83 0 -123 -21 -123 -74c0 -39 31 -61 67 -61z" />
    <glyph glyph-name="o.superior" horiz-adv-x="381" 
d="M79 549c0 -86 37 -129 111 -129s111 43 111 129c0 83 -38 128 -111 128s-111 -45 -111 -128zM86 434c-24 27 -36 65 -36 115s12 89 36 116c23 27 58 40 104 40s81 -13 105 -40c23 -27 35 -66 35 -116s-12 -88 -35 -115c-24 -27 -59 -41 -105 -41s-81 14 -104 41z" />
    </font>
</defs>
</svg>
